<?xml version="1.0" encoding="UTF-8" standalone="no"?>
<!-- Created with Inkscape (http://www.inkscape.org/) -->

<svg
   width="116.84mm"
   height="128.5mm"
   viewBox="0 0 116.84 128.5"
   version="1.1"
   id="svg4620"
   xmlns:xlink="http://www.w3.org/1999/xlink"
   xmlns="http://www.w3.org/2000/svg"
   xmlns:svg="http://www.w3.org/2000/svg"
   xmlns:rdf="http://www.w3.org/1999/02/22-rdf-syntax-ns#"
   xmlns:cc="http://creativecommons.org/ns#"
   xmlns:dc="http://purl.org/dc/elements/1.1/">
  <defs
     id="defs4614">
    <style
       id="style6"
       type="text/css">
   
    .str0 {stroke:#565656;stroke-width:0.0966867}
    .str1 {stroke:#4F4F4F;stroke-width:0.193345}
    .fil0 {fill:none}
    .fil2 {fill:#2B2A29}
    .fil1 {fill:#6B6B6B}
   
  </style>
    <clipPath
       clipPathUnits="userSpaceOnUse"
       id="clipPath847">
      <use
         x="0"
         y="0"
         xlink:href="#g843"
         id="use849"
         width="100%"
         height="100%" />
    </clipPath>
  </defs>
  <metadata
     id="metadata4617">
    <rdf:RDF>
      <cc:Work
         rdf:about="">
        <dc:format>image/svg+xml</dc:format>
        <dc:type
           rdf:resource="http://purl.org/dc/dcmitype/StillImage" />
      </cc:Work>
    </rdf:RDF>
  </metadata>
  <g
     id="layer1"
     transform="translate(0,-168.5)">
    <g
       id="g845"
       clip-path="url(#clipPath847)"
       transform="translate(35.668149)">
      <g
         id="g843">
        <g
           transform="matrix(6.342689,0,0,6.342689,5.4472535,175.6457)"
           id="g5299"
           style="fill-rule:evenodd">
          <g
             id="Layer_x0020_1"
             transform="translate(-1.6191379e-5,-0.08553947)">
            <metadata
               id="CorelCorpID_0Corel-Layer" />
            <path
               id="circle10"
               style="fill:none;stroke:#ffffff;stroke-width:0.0966867"
               class="fil0 str0"
               d="m 0.684386,0.61075097 a 0.15916,0.15916 0 0 1 -0.15916,0.15916001 0.15916,0.15916 0 0 1 -0.15916001,-0.15916001 0.15916,0.15916 0 0 1 0.15916001,-0.15916 0.15916,0.15916 0 0 1 0.15916,0.15916 z" />
            <path
               id="circle12"
               style="fill:none;stroke:#ffffff;stroke-width:0.193345"
               class="fil0 str1"
               d="M 0.953765,0.61075097 A 0.42853901,0.42853901 0 0 1 0.525226,1.03929 0.42853901,0.42853901 0 0 1 0.09668699,0.61075097 0.42853901,0.42853901 0 0 1 0.525226,0.18221197 a 0.42853901,0.42853901 0 0 1 0.428539,0.428539 z" />
          </g>
        </g>
        <g
           transform="translate(-0.09449404,0.14174107)"
           id="text5303"
           style="font-style:normal;font-variant:normal;font-weight:normal;font-stretch:normal;font-size:10.5833px;line-height:1.25;font-family:'DejaVu Sans';-inkscape-font-specification:'DejaVu Sans, Normal';font-variant-ligatures:normal;font-variant-caps:normal;font-variant-numeric:normal;text-align:start;letter-spacing:0px;word-spacing:0px;writing-mode:lr-tb;text-anchor:start;fill:#000000;fill-opacity:1;stroke:none;stroke-width:0.264583"
           aria-label="Cardinal">
          <path
             id="path5305"
             style="font-style:normal;font-variant:normal;font-weight:normal;font-stretch:normal;font-size:6.35px;font-family:'DejaVu Sans';-inkscape-font-specification:'DejaVu Sans, Normal';font-variant-ligatures:normal;font-variant-caps:normal;font-variant-numeric:normal;font-feature-settings:normal;text-align:start;writing-mode:lr-tb;text-anchor:start;fill:#ffffff;fill-opacity:1;stroke-width:0.264583"
             d="m 17.923601,176.99103 v 0.66043 q -0.31626,-0.29456 -0.675928,-0.44028 -0.356567,-0.14573 -0.759643,-0.14573 -0.79375,0 -1.21543,0.48679 -0.42168,0.48369 -0.42168,1.40146 0,0.91468 0.42168,1.40147 0.42168,0.48369 1.21543,0.48369 0.403076,0 0.759643,-0.14573 0.359668,-0.14572 0.675928,-0.44028 v 0.65422 q -0.328662,0.22325 -0.697632,0.33487 -0.365869,0.11162 -0.775146,0.11162 -1.051099,0 -1.655713,-0.64182 -0.604615,-0.64492 -0.604615,-1.75804 0,-1.11621 0.604615,-1.75803 0.604614,-0.64492 1.655713,-0.64492 0.415478,0 0.781347,0.11162 0.36897,0.10852 0.691431,0.32866 z" />
          <path
             id="path5307"
             style="font-style:normal;font-variant:normal;font-weight:normal;font-stretch:normal;font-size:6.35px;font-family:'DejaVu Sans';-inkscape-font-specification:'DejaVu Sans, Normal';font-variant-ligatures:normal;font-variant-caps:normal;font-variant-numeric:normal;font-feature-settings:normal;text-align:start;writing-mode:lr-tb;text-anchor:start;fill:#ffffff;fill-opacity:1;stroke-width:0.264583"
             d="m 20.444377,179.51801 q -0.69143,0 -0.958081,0.15813 -0.26665,0.15813 -0.26665,0.5395 0,0.30386 0.198437,0.48369 0.201538,0.17674 0.545703,0.17674 0.47439,0 0.759644,-0.33487 0.288355,-0.33796 0.288355,-0.89606 v -0.12713 z m 1.137915,-0.23564 v 1.98127 h -0.570507 v -0.5271 q -0.195337,0.31626 -0.486792,0.46819 -0.291456,0.14883 -0.713135,0.14883 -0.533301,0 -0.849561,-0.29766 -0.313159,-0.30075 -0.313159,-0.80305 0,-0.58601 0.390674,-0.88367 0.393774,-0.29765 1.172021,-0.29765 h 0.799952 v -0.0558 q 0,-0.39378 -0.26045,-0.60772 -0.257348,-0.21704 -0.725537,-0.21704 -0.297656,0 -0.579809,0.0713 -0.282154,0.0713 -0.542603,0.21394 v -0.52709 q 0.313159,-0.12093 0.607715,-0.17984 0.294556,-0.062 0.573608,-0.062 0.753443,0 1.125513,0.39067 0.37207,0.39068 0.37207,1.18443 z" />
          <path
             id="path5309"
             style="font-style:normal;font-variant:normal;font-weight:normal;font-stretch:normal;font-size:6.35px;font-family:'DejaVu Sans';-inkscape-font-specification:'DejaVu Sans, Normal';font-variant-ligatures:normal;font-variant-caps:normal;font-variant-numeric:normal;font-feature-settings:normal;text-align:start;writing-mode:lr-tb;text-anchor:start;fill:#ffffff;fill-opacity:1;stroke-width:0.264583"
             d="m 24.769695,178.32429 q -0.09612,-0.0558 -0.21084,-0.0806 -0.111621,-0.0279 -0.248047,-0.0279 -0.483691,0 -0.744141,0.31626 -0.257348,0.31315 -0.257348,0.90227 v 1.82934 H 22.73571 v -3.47265 h 0.573609 v 0.5395 q 0.179834,-0.31626 0.468188,-0.46819 0.288355,-0.15503 0.700733,-0.15503 0.05891,0 0.130224,0.009 0.07131,0.006 0.15813,0.0217 z" />
          <path
             id="path5311"
             style="font-style:normal;font-variant:normal;font-weight:normal;font-stretch:normal;font-size:6.35px;font-family:'DejaVu Sans';-inkscape-font-specification:'DejaVu Sans, Normal';font-variant-ligatures:normal;font-variant-caps:normal;font-variant-numeric:normal;font-feature-settings:normal;text-align:start;writing-mode:lr-tb;text-anchor:start;fill:#ffffff;fill-opacity:1;stroke-width:0.264583"
             d="m 27.541618,178.31808 v -1.87895 h 0.570508 v 4.82451 h -0.570508 v -0.5209 q -0.179834,0.31006 -0.455786,0.46199 -0.272851,0.14883 -0.657324,0.14883 -0.629419,0 -1.026294,-0.5023 -0.393774,-0.50229 -0.393774,-1.32085 0,-0.81855 0.393774,-1.32085 0.396875,-0.50229 1.026294,-0.50229 0.384473,0 0.657324,0.15193 0.275952,0.14883 0.455786,0.45888 z m -1.944067,1.21233 q 0,0.62942 0.257349,0.98909 0.260449,0.35657 0.713134,0.35657 0.452686,0 0.713135,-0.35657 0.260449,-0.35967 0.260449,-0.98909 0,-0.62942 -0.260449,-0.98598 -0.260449,-0.35967 -0.713135,-0.35967 -0.452685,0 -0.713134,0.35967 -0.257349,0.35656 -0.257349,0.98598 z" />
          <path
             id="path5313"
             style="font-style:normal;font-variant:normal;font-weight:normal;font-stretch:normal;font-size:6.35px;font-family:'DejaVu Sans';-inkscape-font-specification:'DejaVu Sans, Normal';font-variant-ligatures:normal;font-variant-caps:normal;font-variant-numeric:normal;font-feature-settings:normal;text-align:start;writing-mode:lr-tb;text-anchor:start;fill:#ffffff;fill-opacity:1;stroke-width:0.264583"
             d="m 29.287248,177.79099 h 0.570508 v 3.47265 h -0.570508 z m 0,-1.35186 h 0.570508 v 0.72244 h -0.570508 z" />
          <path
             id="path5315"
             style="font-style:normal;font-variant:normal;font-weight:normal;font-stretch:normal;font-size:6.35px;font-family:'DejaVu Sans';-inkscape-font-specification:'DejaVu Sans, Normal';font-variant-ligatures:normal;font-variant-caps:normal;font-variant-numeric:normal;font-feature-settings:normal;text-align:start;writing-mode:lr-tb;text-anchor:start;fill:#ffffff;fill-opacity:1;stroke-width:0.264583"
             d="m 33.938127,179.16765 v 2.09599 h -0.570508 v -2.07739 q 0,-0.49299 -0.192236,-0.73794 -0.192236,-0.24495 -0.576709,-0.24495 -0.461987,0 -0.728638,0.29456 -0.26665,0.29455 -0.26665,0.80305 v 1.96267 h -0.573608 v -3.47265 h 0.573608 v 0.5395 q 0.204639,-0.31316 0.480591,-0.46819 0.279053,-0.15503 0.641821,-0.15503 0.598413,0 0.905371,0.37207 0.306958,0.36897 0.306958,1.08831 z" />
          <path
             id="path5317"
             style="font-style:normal;font-variant:normal;font-weight:normal;font-stretch:normal;font-size:6.35px;font-family:'DejaVu Sans';-inkscape-font-specification:'DejaVu Sans, Normal';font-variant-ligatures:normal;font-variant-caps:normal;font-variant-numeric:normal;font-feature-settings:normal;text-align:start;writing-mode:lr-tb;text-anchor:start;fill:#ffffff;fill-opacity:1;stroke-width:0.264583"
             d="m 36.654241,179.51801 q -0.691431,0 -0.958081,0.15813 -0.26665,0.15813 -0.26665,0.5395 0,0.30386 0.198437,0.48369 0.201538,0.17674 0.545703,0.17674 0.47439,0 0.759644,-0.33487 0.288354,-0.33796 0.288354,-0.89606 v -0.12713 z m 1.137915,-0.23564 v 1.98127 h -0.570508 v -0.5271 q -0.195337,0.31626 -0.486792,0.46819 -0.291455,0.14883 -0.713135,0.14883 -0.5333,0 -0.84956,-0.29766 -0.313159,-0.30075 -0.313159,-0.80305 0,-0.58601 0.390674,-0.88367 0.393774,-0.29765 1.172021,-0.29765 h 0.799951 v -0.0558 q 0,-0.39378 -0.260449,-0.60772 -0.257349,-0.21704 -0.725537,-0.21704 -0.297656,0 -0.57981,0.0713 -0.282153,0.0713 -0.542602,0.21394 v -0.52709 q 0.313159,-0.12093 0.607715,-0.17984 0.294555,-0.062 0.573608,-0.062 0.753442,0 1.125513,0.39067 0.37207,0.39068 0.37207,1.18443 z" />
          <path
             id="path5319"
             style="font-style:normal;font-variant:normal;font-weight:normal;font-stretch:normal;font-size:6.35px;font-family:'DejaVu Sans';-inkscape-font-specification:'DejaVu Sans, Normal';font-variant-ligatures:normal;font-variant-caps:normal;font-variant-numeric:normal;font-feature-settings:normal;text-align:start;writing-mode:lr-tb;text-anchor:start;fill:#ffffff;fill-opacity:1;stroke-width:0.264583"
             d="m 38.967278,176.43913 h 0.570508 v 4.82451 h -0.570508 z" />
        </g>
      </g>
    </g>
    <g
       aria-label="Aida DSP : AIDA-X"
       id="text845"
       style="font-size:10.5833px;line-height:1.25;font-family:'DejaVu Sans';-inkscape-font-specification:'DejaVu Sans, Normal';letter-spacing:0px;word-spacing:0px;fill:#808a8a;stroke-width:0.264583">
      <path
         d="m 38.194182,185.53255 -0.66077,1.7918 h 1.323951 z m -0.274919,-0.4799 h 0.552249 l 1.372182,3.60047 h -0.506429 l -0.327974,-0.92363 h -1.622984 l -0.327974,0.92363 H 36.54467 Z"
         style="font-size:4.93889px"
         id="path6473" />
      <path
         d="m 40.350123,185.95217 h 0.443728 v 2.70095 h -0.443728 z m 0,-1.05145 h 0.443728 v 0.5619 h -0.443728 z"
         style="font-size:4.93889px"
         id="path6475" />
      <path
         d="m 43.49963,186.36213 v -1.46141 h 0.443728 v 3.7524 H 43.49963 v -0.40514 q -0.139871,0.24116 -0.354501,0.35932 -0.212217,0.11576 -0.511252,0.11576 -0.489548,0 -0.798229,-0.39068 -0.306269,-0.39067 -0.306269,-1.02732 0,-0.63666 0.306269,-1.02733 0.308681,-0.39068 0.798229,-0.39068 0.299035,0 0.511252,0.11817 0.21463,0.11576 0.354501,0.35691 z m -1.512053,0.94293 q 0,0.48954 0.20016,0.76929 0.202572,0.27733 0.554661,0.27733 0.352089,0 0.55466,-0.27733 0.202572,-0.27975 0.202572,-0.76929 0,-0.48955 -0.202572,-0.76688 -0.202571,-0.27974 -0.55466,-0.27974 -0.352089,0 -0.554661,0.27974 -0.20016,0.27733 -0.20016,0.76688 z"
         style="font-size:4.93889px"
         id="path6477" />
      <path
         d="m 46.08483,187.29541 q -0.53778,0 -0.745174,0.12299 -0.207395,0.12299 -0.207395,0.41961 0,0.23634 0.15434,0.37621 0.156752,0.13746 0.424436,0.13746 0.36897,0 0.590834,-0.26045 0.224276,-0.26286 0.224276,-0.69695 v -0.0989 z m 0.885045,-0.18328 v 1.54099 h -0.443728 v -0.40996 q -0.151929,0.24598 -0.378616,0.36414 -0.226688,0.11576 -0.554661,0.11576 -0.414789,0 -0.660769,-0.23151 -0.243569,-0.23393 -0.243569,-0.6246 0,-0.45579 0.303858,-0.6873 0.306269,-0.23151 0.911572,-0.23151 h 0.622185 v -0.0434 q 0,-0.30627 -0.202572,-0.47267 -0.20016,-0.16881 -0.564307,-0.16881 -0.23151,0 -0.450963,0.0555 -0.219452,0.0555 -0.422024,0.1664 v -0.40996 q 0.243568,-0.0941 0.472667,-0.13987 0.229099,-0.0482 0.44614,-0.0482 0.586011,0 0.875399,0.30386 0.289388,0.30386 0.289388,0.92122 z"
         style="font-size:4.93889px"
         id="path6479" />
      <path
         d="m 49.960219,185.45297 v 2.79983 h 0.588423 q 0.745174,0 1.090028,-0.33762 0.347266,-0.33762 0.347266,-1.06591 0,-0.72347 -0.347266,-1.05868 -0.344854,-0.33762 -1.090028,-0.33762 z m -0.487136,-0.40032 h 1.0008 q 1.04662,0 1.536168,0.4365 0.489549,0.43408 0.489549,1.36012 0,0.93086 -0.49196,1.36736 -0.49196,0.43649 -1.533757,0.43649 h -1.0008 z"
         style="font-size:4.93889px"
         id="path6481" />
      <path
         d="m 55.434477,185.17082 v 0.47508 q -0.27733,-0.13264 -0.52331,-0.19775 -0.24598,-0.0651 -0.475079,-0.0651 -0.397909,0 -0.61495,0.15434 -0.214629,0.15434 -0.214629,0.4389 0,0.23875 0.142282,0.36174 0.144694,0.12058 0.545014,0.19533 l 0.294212,0.0603 q 0.545014,0.1037 0.803052,0.36656 0.260449,0.26045 0.260449,0.69936 0,0.52331 -0.352089,0.7934 -0.349677,0.2701 -1.027328,0.2701 -0.255626,0 -0.545014,-0.0579 -0.286976,-0.0579 -0.595657,-0.17122 v -0.50161 q 0.296623,0.1664 0.581188,0.25081 0.284565,0.0844 0.559483,0.0844 0.417202,0 0.643889,-0.16399 0.226687,-0.16398 0.226687,-0.46784 0,-0.26527 -0.163986,-0.41479 -0.161575,-0.14952 -0.532957,-0.22428 l -0.296623,-0.0579 q -0.545014,-0.10852 -0.788582,-0.34003 -0.243568,-0.23151 -0.243568,-0.64389 0,-0.47749 0.335207,-0.75241 0.33762,-0.27492 0.928454,-0.27492 0.253214,0 0.516075,0.0458 0.262861,0.0458 0.53778,0.13746 z"
         style="font-size:4.93889px"
         id="path6483" />
      <path
         d="m 56.898299,185.45297 v 1.35289 h 0.612538 q 0.340031,0 0.525722,-0.17604 0.185691,-0.17605 0.185691,-0.50161 0,-0.32315 -0.185691,-0.49919 -0.185691,-0.17605 -0.525722,-0.17605 z m -0.487137,-0.40032 h 1.099675 q 0.605304,0 0.913984,0.27492 0.311092,0.27251 0.311092,0.80064 0,0.53296 -0.311092,0.80546 -0.30868,0.27251 -0.913984,0.27251 h -0.612538 v 1.44694 h -0.487137 z"
         style="font-size:4.93889px"
         id="path6485" />
      <path
         d="m 61.053429,188.04058 h 0.508841 v 0.61254 h -0.508841 z m 0,-1.94131 h 0.508841 v 0.61254 h -0.508841 z"
         style="font-size:4.93889px"
         id="path6487" />
      <path
         d="m 65.396662,185.53255 -0.66077,1.7918 h 1.323951 z m -0.274919,-0.4799 h 0.552249 l 1.372182,3.60047 h -0.506429 l -0.327973,-0.92363 h -1.622985 l -0.327973,0.92363 H 63.74715 Z"
         style="font-size:4.93889px"
         id="path6489" />
      <path
         d="m 67.571895,185.05265 h 0.487136 v 3.60047 h -0.487136 z"
         style="font-size:4.93889px"
         id="path6491" />
      <path
         d="m 69.51562,185.45297 v 2.79983 h 0.588422 q 0.745175,0 1.090029,-0.33762 0.347266,-0.33762 0.347266,-1.06591 0,-0.72347 -0.347266,-1.05868 -0.344854,-0.33762 -1.090029,-0.33762 z m -0.487137,-0.40032 h 1.000801 q 1.04662,0 1.536168,0.4365 0.489548,0.43408 0.489548,1.36012 0,0.93086 -0.491959,1.36736 -0.49196,0.43649 -1.533757,0.43649 h -1.000801 z"
         style="font-size:4.93889px"
         id="path6493" />
      <path
         d="m 73.94808,185.53255 -0.660769,1.7918 h 1.32395 z m -0.274918,-0.4799 h 0.552248 l 1.372182,3.60047 h -0.506429 l -0.327973,-0.92363 h -1.622985 l -0.327973,0.92363 h -0.513664 z"
         style="font-size:4.93889px"
         id="path6495" />
      <path
         d="m 75.771224,187.10248 h 1.299835 v 0.3955 h -1.299835 z"
         style="font-size:4.93889px"
         id="path6497" />
      <path
         d="m 77.377327,185.05265 h 0.52331 l 0.894691,1.33842 0.899515,-1.33842 h 0.52331 l -1.157552,1.7291 1.234722,1.87137 h -0.52331 l -1.012858,-1.53134 -1.020093,1.53134 H 77.21334 l 1.285366,-1.92202 z"
         style="font-size:4.93889px"
         id="path6499" />
    </g>
  </g>
</svg>
