<?xml version="1.0" encoding="utf-8"?>
<!-- Generator: Adobe Illustrator 16.0.3, SVG Export Plug-In . SVG Version: 6.00 Build 0)  -->
<!DOCTYPE svg PUBLIC "-//W3C//DTD SVG 1.1//EN" "http://www.w3.org/Graphics/SVG/1.1/DTD/svg11.dtd">
<svg version="1.1" id="Layer_1" xmlns="http://www.w3.org/2000/svg" xmlns:xlink="http://www.w3.org/1999/xlink" x="0px" y="0px"
	 width="1000px" height="1000px" viewBox="0 0 1000 1000" enable-background="new 0 0 1000 1000" xml:space="preserve">
<image display="none" overflow="visible" width="1100" height="1100" xlink:href="scale.png"  transform="matrix(0.9999 0 0 0.9999 -50 -20)">
</image>
<circle display="none" fill="#969696" cx="500" cy="529.932" r="397"/>
<path fill="#969696" d="M504.417,129.643c0,2.913-2.238,5.274-5,5.274l0,0c-2.761,0-5-2.361-5-5.274V64.774
	c0-2.913,2.239-5.274,5-5.274l0,0c2.762,0,5,2.361,5,5.274V129.643z"/>
<path fill="#969696" d="M350.896,158.423c1.114,2.69-0.05,5.729-2.602,6.785l0,0c-2.551,1.057-5.523-0.268-6.638-2.958
	l-24.824-59.931c-1.114-2.691,0.05-5.729,2.602-6.786l0,0c2.552-1.057,5.522,0.269,6.638,2.959L350.896,158.423z"/>
<path fill="#969696" d="M220.075,243.762c2.06,2.06,2.146,5.312,0.193,7.264l0,0c-1.952,1.953-5.205,1.867-7.265-0.193
	l-45.869-45.87c-2.06-2.059-2.146-5.312-0.193-7.265l0,0c1.953-1.953,5.205-1.865,7.265,0.194L220.075,243.762z"/>
<path fill="#969696" d="M131.87,372.668c2.691,1.114,4.016,4.086,2.959,6.637l0,0c-1.057,2.551-4.095,3.716-6.786,2.602
	l-59.931-24.825c-2.69-1.114-4.016-4.086-2.959-6.638l0,0c1.058-2.552,4.095-3.715,6.786-2.601L131.87,372.668z"/>
<path fill="#969696" d="M99.71,525.516c2.913,0,5.273,2.238,5.273,5l0,0c0,2.762-2.36,5-5.274,5.001H34.841
	c-2.912,0-5.274-2.239-5.274-5.001l0,0c0.001-2.762,2.361-5,5.274-5H99.71z"/>
<path fill="#969696" d="M128.49,679.037c2.691-1.115,5.729,0.049,6.785,2.601l0,0c1.057,2.552-0.268,5.522-2.959,6.639
	l-59.931,24.824c-2.69,1.114-5.729-0.051-6.787-2.603l0,0c-1.056-2.552,0.269-5.522,2.96-6.638L128.49,679.037z"/>
<path fill="#969696" d="M213.829,809.857c2.06-2.06,5.312-2.146,7.265-0.193l0,0c1.952,1.953,1.865,5.205-0.193,7.266
	l-45.869,45.869c-2.06,2.059-5.313,2.146-7.267,0.192l0,0c-1.952-1.953-1.865-5.204,0.194-7.265L213.829,809.857z"/>
<path fill="#969696" d="M779.925,816.104c-2.06-2.06-2.146-5.313-0.193-7.266l0,0c1.952-1.952,5.206-1.864,7.266,0.195
	l45.868,45.869c2.06,2.06,2.146,5.311,0.192,7.266l0,0c-1.952,1.953-5.202,1.864-7.263-0.194L779.925,816.104z"/>
<path fill="#969696" d="M868.129,687.197c-2.69-1.114-4.015-4.087-2.959-6.639l0,0c1.057-2.551,4.097-3.715,6.788-2.6l59.93,24.824
	c2.69,1.115,4.015,4.086,2.958,6.64l0,0c-1.057,2.551-4.093,3.713-6.784,2.6L868.129,687.197z"/>
<path fill="#969696" d="M900.289,534.35c-2.912,0-5.273-2.24-5.274-5.001l0,0c0-2.762,2.363-5,5.276-5l64.868,0.001
	c2.913,0,5.272,2.238,5.273,5.002l0,0c0,2.761-2.36,4.996-5.272,4.998H900.289z"/>
<path fill="#969696" d="M871.509,380.829c-2.69,1.115-5.729-0.052-6.786-2.602l0,0c-1.058-2.552,0.27-5.524,2.961-6.639
	l59.931-24.823c2.691-1.114,5.728,0.051,6.786,2.604l0,0c1.057,2.551-0.269,5.519-2.958,6.635L871.509,380.829z"/>
<path fill="#969696" d="M786.17,250.009c-2.06,2.06-5.313,2.145-7.266,0.193l0,0c-1.953-1.953-1.864-5.207,0.195-7.267
	l45.869-45.868c2.061-2.06,5.311-2.145,7.266-0.191l0,0c1.953,1.952,1.864,5.201-0.193,7.262L786.17,250.009z"/>
<path fill="#969696" d="M657.265,161.804c-1.115,2.691-4.089,4.015-6.64,2.959l0,0c-2.551-1.057-3.714-4.097-2.6-6.789l24.824-59.93
	c1.115-2.691,4.086-4.014,6.64-2.957l0,0c2.552,1.056,3.713,4.092,2.601,6.783L657.265,161.804z"/>
</svg>
