<?xml version="1.0" encoding="UTF-8" standalone="no"?>
<!-- Created with Inkscape (http://www.inkscape.org/) -->

<svg
   xmlns:dc="http://purl.org/dc/elements/1.1/"
   xmlns:cc="http://creativecommons.org/ns#"
   xmlns:rdf="http://www.w3.org/1999/02/22-rdf-syntax-ns#"
   xmlns:svg="http://www.w3.org/2000/svg"
   xmlns="http://www.w3.org/2000/svg"
   xmlns:sodipodi="http://sodipodi.sourceforge.net/DTD/sodipodi-0.dtd"
   xmlns:inkscape="http://www.inkscape.org/namespaces/inkscape"
   width="30.48mm"
   height="128.5mm"
   viewBox="0 0 30.479999 128.5"
   version="1.1"
   id="svg4620"
   inkscape:version="0.92.5 (2060ec1f9f, 2020-04-08)"
   sodipodi:docname="AudioToCVPitch.svg">
  <defs
     id="defs4614">
    <style
       id="style6"
       type="text/css">
   
    .str0 {stroke:#565656;stroke-width:0.0966867}
    .str1 {stroke:#4F4F4F;stroke-width:0.193345}
    .fil0 {fill:none}
    .fil2 {fill:#2B2A29}
    .fil1 {fill:#6B6B6B}
   
  </style>
  </defs>
  <sodipodi:namedview
     id="base"
     pagecolor="#ffffff"
     bordercolor="#666666"
     borderopacity="1.0"
     inkscape:pageopacity="0.0"
     inkscape:pageshadow="2"
     inkscape:zoom="5.6"
     inkscape:cx="62.166118"
     inkscape:cy="427.68633"
     inkscape:document-units="mm"
     inkscape:current-layer="layer1"
     showgrid="false"
     inkscape:window-width="1920"
     inkscape:window-height="1026"
     inkscape:window-x="0"
     inkscape:window-y="0"
     inkscape:window-maximized="1" />
  <metadata
     id="metadata4617">
    <rdf:RDF>
      <cc:Work
         rdf:about="">
        <dc:format>image/svg+xml</dc:format>
        <dc:type
           rdf:resource="http://purl.org/dc/dcmitype/StillImage" />
        <dc:title></dc:title>
      </cc:Work>
    </rdf:RDF>
  </metadata>
  <g
     inkscape:label="Layer 1"
     inkscape:groupmode="layer"
     id="layer1"
     transform="translate(0,-168.5)">
    <g
       id="g843"
       transform="translate(-2.2361371)">
      <g
         transform="matrix(6.342689,0,0,6.342689,5.4472535,175.6457)"
         id="g5299"
         style="fill-rule:evenodd">
        <g
           id="Layer_x0020_1"
           transform="translate(-1.6191379e-5,-0.08553947)">
          <metadata
             id="CorelCorpID_0Corel-Layer" />
          <circle
             class="fil0 str0"
             cx="0.525226"
             cy="0.61075097"
             r="0.15916"
             id="circle10"
             style="fill:none;stroke:#ffffff;stroke-width:0.0966867;stroke-opacity:1" />
          <circle
             class="fil0 str1"
             cx="0.525226"
             cy="0.61075097"
             r="0.42853901"
             id="circle12"
             style="fill:none;stroke:#ffffff;stroke-width:0.193345;stroke-opacity:1" />
        </g>
      </g>
      <g
         transform="translate(-0.09449404,0.14174107)"
         id="text5303"
         style="font-style:normal;font-variant:normal;font-weight:normal;font-stretch:normal;font-size:10.58333302px;line-height:1.25;font-family:'DejaVu Sans';-inkscape-font-specification:'DejaVu Sans, Normal';font-variant-ligatures:normal;font-variant-caps:normal;font-variant-numeric:normal;text-align:start;letter-spacing:0px;word-spacing:0px;writing-mode:lr-tb;text-anchor:start;fill:#000000;fill-opacity:1;stroke:none;stroke-width:0.26458332"
         aria-label="Cardinal">
        <path
           inkscape:connector-curvature="0"
           id="path5305"
           style="font-style:normal;font-variant:normal;font-weight:normal;font-stretch:normal;font-size:6.3499999px;font-family:'DejaVu Sans';-inkscape-font-specification:'DejaVu Sans, Normal';font-variant-ligatures:normal;font-variant-caps:normal;font-variant-numeric:normal;font-feature-settings:normal;text-align:start;writing-mode:lr-tb;text-anchor:start;fill:#ffffff;fill-opacity:1;stroke-width:0.26458332"
           d="m 17.923601,176.99103 v 0.66043 q -0.31626,-0.29456 -0.675928,-0.44028 -0.356567,-0.14573 -0.759643,-0.14573 -0.79375,0 -1.21543,0.48679 -0.42168,0.48369 -0.42168,1.40146 0,0.91468 0.42168,1.40147 0.42168,0.48369 1.21543,0.48369 0.403076,0 0.759643,-0.14573 0.359668,-0.14572 0.675928,-0.44028 v 0.65422 q -0.328662,0.22325 -0.697632,0.33487 -0.365869,0.11162 -0.775146,0.11162 -1.051099,0 -1.655713,-0.64182 -0.604615,-0.64492 -0.604615,-1.75804 0,-1.11621 0.604615,-1.75803 0.604614,-0.64492 1.655713,-0.64492 0.415478,0 0.781347,0.11162 0.36897,0.10852 0.691431,0.32866 z" />
        <path
           inkscape:connector-curvature="0"
           id="path5309"
           style="font-style:normal;font-variant:normal;font-weight:normal;font-stretch:normal;font-size:6.3499999px;font-family:'DejaVu Sans';-inkscape-font-specification:'DejaVu Sans, Normal';font-variant-ligatures:normal;font-variant-caps:normal;font-variant-numeric:normal;font-feature-settings:normal;text-align:start;writing-mode:lr-tb;text-anchor:start;fill:#ffffff;fill-opacity:1;stroke-width:0.26458332"
           d="m 20.682747,178.32429 q -0.09612,-0.0558 -0.21084,-0.0806 -0.111621,-0.0279 -0.248047,-0.0279 -0.483691,0 -0.744141,0.31626 -0.257348,0.31315 -0.257348,0.90227 v 1.82934 h -0.573609 v -3.47265 h 0.573609 v 0.5395 q 0.179834,-0.31626 0.468188,-0.46819 0.288355,-0.15503 0.700733,-0.15503 0.05891,0 0.130224,0.009 0.07131,0.006 0.15813,0.0217 z" />
        <path
           inkscape:connector-curvature="0"
           id="path5311"
           style="font-style:normal;font-variant:normal;font-weight:normal;font-stretch:normal;font-size:6.3499999px;font-family:'DejaVu Sans';-inkscape-font-specification:'DejaVu Sans, Normal';font-variant-ligatures:normal;font-variant-caps:normal;font-variant-numeric:normal;font-feature-settings:normal;text-align:start;writing-mode:lr-tb;text-anchor:start;fill:#ffffff;fill-opacity:1;stroke-width:0.26458332"
           d="m 23.45467,178.31808 v -1.87895 h 0.570508 v 4.82451 H 23.45467 v -0.5209 q -0.179834,0.31006 -0.455786,0.46199 -0.272851,0.14883 -0.657324,0.14883 -0.629419,0 -1.026294,-0.5023 -0.393774,-0.50229 -0.393774,-1.32085 0,-0.81855 0.393774,-1.32085 0.396875,-0.50229 1.026294,-0.50229 0.384473,0 0.657324,0.15193 0.275952,0.14883 0.455786,0.45888 z m -1.944067,1.21233 q 0,0.62942 0.257349,0.98909 0.260449,0.35657 0.713134,0.35657 0.452686,0 0.713135,-0.35657 0.260449,-0.35967 0.260449,-0.98909 0,-0.62942 -0.260449,-0.98598 -0.260449,-0.35967 -0.713135,-0.35967 -0.452685,0 -0.713134,0.35967 -0.257349,0.35656 -0.257349,0.98598 z" />
        <path
           inkscape:connector-curvature="0"
           id="path5315"
           style="font-style:normal;font-variant:normal;font-weight:normal;font-stretch:normal;font-size:6.3499999px;font-family:'DejaVu Sans';-inkscape-font-specification:'DejaVu Sans, Normal';font-variant-ligatures:normal;font-variant-caps:normal;font-variant-numeric:normal;font-feature-settings:normal;text-align:start;writing-mode:lr-tb;text-anchor:start;fill:#ffffff;fill-opacity:1;stroke-width:0.26458332"
           d="m 28.108637,179.16765 v 2.09599 h -0.570508 v -2.07739 q 0,-0.49299 -0.192236,-0.73794 -0.192236,-0.24495 -0.576709,-0.24495 -0.461987,0 -0.728638,0.29456 -0.26665,0.29455 -0.26665,0.80305 v 1.96267 h -0.573608 v -3.47265 h 0.573608 v 0.5395 q 0.204639,-0.31316 0.480591,-0.46819 0.279053,-0.15503 0.641821,-0.15503 0.598413,0 0.905371,0.37207 0.306958,0.36897 0.306958,1.08831 z" />
        <path
           inkscape:connector-curvature="0"
           id="path5319"
           style="font-style:normal;font-variant:normal;font-weight:normal;font-stretch:normal;font-size:6.3499999px;font-family:'DejaVu Sans';-inkscape-font-specification:'DejaVu Sans, Normal';font-variant-ligatures:normal;font-variant-caps:normal;font-variant-numeric:normal;font-feature-settings:normal;text-align:start;writing-mode:lr-tb;text-anchor:start;fill:#ffffff;fill-opacity:1;stroke-width:0.26458332"
           d="m 29.029017,176.43913 h 0.570508 v 4.82451 h -0.570508 z" />
      </g>
    </g>
    <g
       aria-label="ToCV Pitch"
       style="font-style:normal;font-variant:normal;font-weight:normal;font-stretch:normal;font-size:10.58333302px;line-height:1.25;font-family:'DejaVu Sans';-inkscape-font-specification:'DejaVu Sans, Normal';font-variant-ligatures:normal;font-variant-caps:normal;font-variant-numeric:normal;text-align:start;letter-spacing:0px;word-spacing:0px;writing-mode:lr-tb;text-anchor:start;fill:#808a8a;fill-opacity:1;stroke:none;stroke-width:0.26458332"
       id="text845">
      <path
         d="m 2.6323283,185.58181 h 3.045809 v 0.40997 H 4.4000068 v 3.1905 H 3.9104587 v -3.1905 H 2.6323283 Z"
         style="font-style:normal;font-variant:normal;font-weight:normal;font-stretch:normal;font-size:4.93888903px;font-family:'DejaVu Sans';-inkscape-font-specification:'DejaVu Sans, Normal';font-variant-ligatures:normal;font-variant-caps:normal;font-variant-numeric:normal;font-feature-settings:normal;text-align:start;writing-mode:lr-tb;text-anchor:start;fill:#808a8a;fill-opacity:1;stroke-width:0.26458332"
         id="path904"
         inkscape:connector-curvature="0" />
      <path
         d="m 6.3364951,186.79242 q -0.3569119,0 -0.5643067,0.27974 -0.2073947,0.27733 -0.2073947,0.76206 0,0.48472 0.2049832,0.76446 0.2073947,0.27733 0.5667182,0.27733 0.3545003,0 0.5618951,-0.27974 0.2073947,-0.27974 0.2073947,-0.76205 0,-0.47991 -0.2073947,-0.75965 -0.2073948,-0.28215 -0.5618951,-0.28215 z m 0,-0.37621 q 0.578776,0 0.9091607,0.37621 0.3303847,0.3762 0.3303847,1.0418 0,0.66318 -0.3303847,1.04179 -0.3303847,0.37621 -0.9091607,0.37621 -0.5811876,0 -0.9115723,-0.37621 -0.3279731,-0.37861 -0.3279731,-1.04179 0,-0.6656 0.3279731,-1.0418 0.3303847,-0.37621 0.9115723,-0.37621 z"
         style="font-style:normal;font-variant:normal;font-weight:normal;font-stretch:normal;font-size:4.93888903px;font-family:'DejaVu Sans';-inkscape-font-specification:'DejaVu Sans, Normal';font-variant-ligatures:normal;font-variant-caps:normal;font-variant-numeric:normal;font-feature-settings:normal;text-align:start;writing-mode:lr-tb;text-anchor:start;fill:#808a8a;fill-opacity:1;stroke-width:0.26458332"
         id="path906"
         inkscape:connector-curvature="0" />
      <path
         d="m 11.026992,185.85914 v 0.51367 q -0.245979,-0.2291 -0.525721,-0.34245 -0.27733,-0.11334 -0.5908341,-0.11334 -0.6173611,0 -0.9453342,0.37862 -0.3279731,0.3762 -0.3279731,1.09002 0,0.71142 0.3279731,1.09003 0.3279731,0.37621 0.9453342,0.37621 0.3135041,0 0.5908341,-0.11335 0.279742,-0.11334 0.525721,-0.34244 v 0.50884 q -0.255626,0.17363 -0.542602,0.26045 -0.284565,0.0868 -0.6028919,0.0868 -0.8175212,0 -1.2877767,-0.4992 -0.4702556,-0.5016 -0.4702556,-1.36736 0,-0.86816 0.4702556,-1.36735 0.4702555,-0.50161 1.2877767,-0.50161 0.3231499,0 0.6077149,0.0868 0.286976,0.0844 0.537779,0.25562 z"
         style="font-style:normal;font-variant:normal;font-weight:normal;font-stretch:normal;font-size:4.93888903px;font-family:'DejaVu Sans';-inkscape-font-specification:'DejaVu Sans, Normal';font-variant-ligatures:normal;font-variant-caps:normal;font-variant-numeric:normal;font-feature-settings:normal;text-align:start;writing-mode:lr-tb;text-anchor:start;fill:#808a8a;fill-opacity:1;stroke-width:0.26458332"
         id="path908"
         inkscape:connector-curvature="0" />
      <path
         d="m 12.707855,189.18228 -1.374594,-3.60047 h 0.508841 l 1.140671,3.03134 1.143083,-3.03134 h 0.506429 l -1.372182,3.60047 z"
         style="font-style:normal;font-variant:normal;font-weight:normal;font-stretch:normal;font-size:4.93888903px;font-family:'DejaVu Sans';-inkscape-font-specification:'DejaVu Sans, Normal';font-variant-ligatures:normal;font-variant-caps:normal;font-variant-numeric:normal;font-feature-settings:normal;text-align:start;writing-mode:lr-tb;text-anchor:start;fill:#808a8a;fill-opacity:1;stroke-width:0.26458332"
         id="path910"
         inkscape:connector-curvature="0" />
      <path
         d="m 17.215074,185.98213 v 1.35289 h 0.612538 q 0.340031,0 0.525721,-0.17604 0.185691,-0.17605 0.185691,-0.50161 0,-0.32315 -0.185691,-0.49919 -0.18569,-0.17605 -0.525721,-0.17605 z m -0.487137,-0.40032 h 1.099675 q 0.605303,0 0.913984,0.27492 0.311092,0.27251 0.311092,0.80064 0,0.53296 -0.311092,0.80546 -0.308681,0.27251 -0.913984,0.27251 h -0.612538 v 1.44694 h -0.487137 z"
         style="font-style:normal;font-variant:normal;font-weight:normal;font-stretch:normal;font-size:4.93888903px;font-family:'DejaVu Sans';-inkscape-font-specification:'DejaVu Sans, Normal';font-variant-ligatures:normal;font-variant-caps:normal;font-variant-numeric:normal;font-feature-settings:normal;text-align:start;writing-mode:lr-tb;text-anchor:start;fill:#808a8a;fill-opacity:1;stroke-width:0.26458332"
         id="path912"
         inkscape:connector-curvature="0" />
      <path
         d="m 19.578409,186.48133 h 0.443728 v 2.70095 h -0.443728 z m 0,-1.05145 h 0.443728 v 0.5619 h -0.443728 z"
         style="font-style:normal;font-variant:normal;font-weight:normal;font-stretch:normal;font-size:4.93888903px;font-family:'DejaVu Sans';-inkscape-font-specification:'DejaVu Sans, Normal';font-variant-ligatures:normal;font-variant-caps:normal;font-variant-numeric:normal;font-feature-settings:normal;text-align:start;writing-mode:lr-tb;text-anchor:start;fill:#808a8a;fill-opacity:1;stroke-width:0.26458332"
         id="path914"
         inkscape:connector-curvature="0" />
      <path
         d="m 21.389495,185.71445 v 0.76688 h 0.913984 v 0.34485 h -0.913984 v 1.46623 q 0,0.33039 0.08923,0.42444 0.09164,0.0941 0.36897,0.0941 h 0.455786 v 0.37138 h -0.455786 q -0.513664,0 -0.709001,-0.19051 -0.195337,-0.19293 -0.195337,-0.69936 v -1.46623 h -0.325561 v -0.34485 h 0.325561 v -0.76688 z"
         style="font-style:normal;font-variant:normal;font-weight:normal;font-stretch:normal;font-size:4.93888903px;font-family:'DejaVu Sans';-inkscape-font-specification:'DejaVu Sans, Normal';font-variant-ligatures:normal;font-variant-caps:normal;font-variant-numeric:normal;font-feature-settings:normal;text-align:start;writing-mode:lr-tb;text-anchor:start;fill:#808a8a;fill-opacity:1;stroke-width:0.26458332"
         id="path916"
         inkscape:connector-curvature="0" />
      <path
         d="m 24.830802,186.58502 v 0.41479 q -0.188102,-0.10369 -0.378616,-0.15434 -0.188102,-0.0531 -0.381028,-0.0531 -0.43167,0 -0.670415,0.27492 -0.238745,0.2725 -0.238745,0.76688 0,0.49437 0.238745,0.76929 0.238745,0.2725 0.670415,0.2725 0.192926,0 0.381028,-0.0506 0.190514,-0.053 0.378616,-0.15675 v 0.40996 q -0.185691,0.0868 -0.385851,0.13023 -0.197748,0.0434 -0.422024,0.0434 -0.610126,0 -0.96945,-0.38344 -0.359323,-0.38344 -0.359323,-1.03456 0,-0.66077 0.361735,-1.03939 0.364146,-0.37862 0.995977,-0.37862 0.204983,0 0.40032,0.0434 0.195337,0.041 0.378616,0.1254 z"
         style="font-style:normal;font-variant:normal;font-weight:normal;font-stretch:normal;font-size:4.93888903px;font-family:'DejaVu Sans';-inkscape-font-specification:'DejaVu Sans, Normal';font-variant-ligatures:normal;font-variant-caps:normal;font-variant-numeric:normal;font-feature-settings:normal;text-align:start;writing-mode:lr-tb;text-anchor:start;fill:#808a8a;fill-opacity:1;stroke-width:0.26458332"
         id="path918"
         inkscape:connector-curvature="0" />
      <path
         d="m 27.847671,187.55206 v 1.63022 h -0.443728 v -1.61575 q 0,-0.38344 -0.149517,-0.57395 -0.149517,-0.19052 -0.448552,-0.19052 -0.359323,0 -0.566718,0.2291 -0.207394,0.2291 -0.207394,0.6246 v 1.52652 h -0.44614 v -3.7524 h 0.44614 v 1.47106 q 0.159163,-0.24357 0.373792,-0.36415 0.217041,-0.12058 0.499195,-0.12058 0.465432,0 0.704177,0.28939 0.238745,0.28698 0.238745,0.84646 z"
         style="font-style:normal;font-variant:normal;font-weight:normal;font-stretch:normal;font-size:4.93888903px;font-family:'DejaVu Sans';-inkscape-font-specification:'DejaVu Sans, Normal';font-variant-ligatures:normal;font-variant-caps:normal;font-variant-numeric:normal;font-feature-settings:normal;text-align:start;writing-mode:lr-tb;text-anchor:start;fill:#808a8a;fill-opacity:1;stroke-width:0.26458332"
         id="path920"
         inkscape:connector-curvature="0" />
    </g>
  </g>
</svg>
