<?xml version="1.0" encoding="UTF-8" standalone="no"?>
<!-- Created with Inkscape (http://www.inkscape.org/) -->

<svg
   width="91.440002mm"
   height="128.5mm"
   viewBox="0 0 91.440002 128.5"
   version="1.1"
   id="svg4620"
   xmlns="http://www.w3.org/2000/svg"
   xmlns:svg="http://www.w3.org/2000/svg"
   xmlns:rdf="http://www.w3.org/1999/02/22-rdf-syntax-ns#"
   xmlns:cc="http://creativecommons.org/ns#"
   xmlns:dc="http://purl.org/dc/elements/1.1/">
  <defs
     id="defs4614">
    <style
       id="style6"
       type="text/css">
   
    .str0 {stroke:#565656;stroke-width:0.0966867}
    .str1 {stroke:#4F4F4F;stroke-width:0.193345}
    .fil0 {fill:none}
    .fil2 {fill:#2B2A29}
    .fil1 {fill:#6B6B6B}
   
  </style>
  </defs>
  <metadata
     id="metadata4617">
    <rdf:RDF>
      <cc:Work
         rdf:about="">
        <dc:format>image/svg+xml</dc:format>
        <dc:type
           rdf:resource="http://purl.org/dc/dcmitype/StillImage" />
      </cc:Work>
    </rdf:RDF>
  </metadata>
  <g
     id="layer1"
     transform="translate(0,-168.5)">
    <g
       style="fill-rule:evenodd"
       id="g5299"
       transform="matrix(6.342689,0,0,6.342689,5.4472535,175.6457)">
      <g
         transform="translate(-1.6191379e-5,-0.08553947)"
         id="Layer_x0020_1">
        <metadata
           id="CorelCorpID_0Corel-Layer" />
        <path
           id="circle10"
           style="fill:none;stroke:#ffffff;stroke-width:0.0966867"
           class="fil0 str0"
           d="m 0.684386,0.61075097 a 0.15916,0.15916 0 0 1 -0.15916,0.15916001 0.15916,0.15916 0 0 1 -0.15916001,-0.15916001 0.15916,0.15916 0 0 1 0.15916001,-0.15916 0.15916,0.15916 0 0 1 0.15916,0.15916 z" />
        <path
           id="circle12"
           style="fill:none;stroke:#ffffff;stroke-width:0.193345"
           class="fil0 str1"
           d="M 0.953765,0.61075097 A 0.42853901,0.42853901 0 0 1 0.525226,1.03929 0.42853901,0.42853901 0 0 1 0.09668699,0.61075097 0.42853901,0.42853901 0 0 1 0.525226,0.18221197 a 0.42853901,0.42853901 0 0 1 0.428539,0.428539 z" />
      </g>
    </g>
    <g
       aria-label="Cardinal"
       style="font-style:normal;font-variant:normal;font-weight:normal;font-stretch:normal;font-size:10.5833px;line-height:1.25;font-family:'DejaVu Sans';-inkscape-font-specification:'DejaVu Sans, Normal';font-variant-ligatures:normal;font-variant-caps:normal;font-variant-numeric:normal;text-align:start;letter-spacing:0px;word-spacing:0px;writing-mode:lr-tb;text-anchor:start;fill:#000000;fill-opacity:1;stroke:none;stroke-width:0.264583"
       id="text5303"
       transform="translate(-0.09449404,0.14174107)">
      <path
         d="m 17.923601,176.99103 v 0.66043 q -0.31626,-0.29456 -0.675928,-0.44028 -0.356567,-0.14573 -0.759643,-0.14573 -0.79375,0 -1.21543,0.48679 -0.42168,0.48369 -0.42168,1.40146 0,0.91468 0.42168,1.40147 0.42168,0.48369 1.21543,0.48369 0.403076,0 0.759643,-0.14573 0.359668,-0.14572 0.675928,-0.44028 v 0.65422 q -0.328662,0.22325 -0.697632,0.33487 -0.365869,0.11162 -0.775146,0.11162 -1.051099,0 -1.655713,-0.64182 -0.604615,-0.64492 -0.604615,-1.75804 0,-1.11621 0.604615,-1.75803 0.604614,-0.64492 1.655713,-0.64492 0.415478,0 0.781347,0.11162 0.36897,0.10852 0.691431,0.32866 z"
         style="font-style:normal;font-variant:normal;font-weight:normal;font-stretch:normal;font-size:6.35px;font-family:'DejaVu Sans';-inkscape-font-specification:'DejaVu Sans, Normal';font-variant-ligatures:normal;font-variant-caps:normal;font-variant-numeric:normal;font-feature-settings:normal;text-align:start;writing-mode:lr-tb;text-anchor:start;fill:#ffffff;fill-opacity:1;stroke-width:0.264583"
         id="path5305" />
      <path
         d="m 20.444377,179.51801 q -0.69143,0 -0.958081,0.15813 -0.26665,0.15813 -0.26665,0.5395 0,0.30386 0.198437,0.48369 0.201538,0.17674 0.545703,0.17674 0.47439,0 0.759644,-0.33487 0.288355,-0.33796 0.288355,-0.89606 v -0.12713 z m 1.137915,-0.23564 v 1.98127 h -0.570507 v -0.5271 q -0.195337,0.31626 -0.486792,0.46819 -0.291456,0.14883 -0.713135,0.14883 -0.533301,0 -0.849561,-0.29766 -0.313159,-0.30075 -0.313159,-0.80305 0,-0.58601 0.390674,-0.88367 0.393774,-0.29765 1.172021,-0.29765 h 0.799952 v -0.0558 q 0,-0.39378 -0.26045,-0.60772 -0.257348,-0.21704 -0.725537,-0.21704 -0.297656,0 -0.579809,0.0713 -0.282154,0.0713 -0.542603,0.21394 v -0.52709 q 0.313159,-0.12093 0.607715,-0.17984 0.294556,-0.062 0.573608,-0.062 0.753443,0 1.125513,0.39067 0.37207,0.39068 0.37207,1.18443 z"
         style="font-style:normal;font-variant:normal;font-weight:normal;font-stretch:normal;font-size:6.35px;font-family:'DejaVu Sans';-inkscape-font-specification:'DejaVu Sans, Normal';font-variant-ligatures:normal;font-variant-caps:normal;font-variant-numeric:normal;font-feature-settings:normal;text-align:start;writing-mode:lr-tb;text-anchor:start;fill:#ffffff;fill-opacity:1;stroke-width:0.264583"
         id="path5307" />
      <path
         d="m 24.769695,178.32429 q -0.09612,-0.0558 -0.21084,-0.0806 -0.111621,-0.0279 -0.248047,-0.0279 -0.483691,0 -0.744141,0.31626 -0.257348,0.31315 -0.257348,0.90227 v 1.82934 H 22.73571 v -3.47265 h 0.573609 v 0.5395 q 0.179834,-0.31626 0.468188,-0.46819 0.288355,-0.15503 0.700733,-0.15503 0.05891,0 0.130224,0.009 0.07131,0.006 0.15813,0.0217 z"
         style="font-style:normal;font-variant:normal;font-weight:normal;font-stretch:normal;font-size:6.35px;font-family:'DejaVu Sans';-inkscape-font-specification:'DejaVu Sans, Normal';font-variant-ligatures:normal;font-variant-caps:normal;font-variant-numeric:normal;font-feature-settings:normal;text-align:start;writing-mode:lr-tb;text-anchor:start;fill:#ffffff;fill-opacity:1;stroke-width:0.264583"
         id="path5309" />
      <path
         d="m 27.541618,178.31808 v -1.87895 h 0.570508 v 4.82451 h -0.570508 v -0.5209 q -0.179834,0.31006 -0.455786,0.46199 -0.272851,0.14883 -0.657324,0.14883 -0.629419,0 -1.026294,-0.5023 -0.393774,-0.50229 -0.393774,-1.32085 0,-0.81855 0.393774,-1.32085 0.396875,-0.50229 1.026294,-0.50229 0.384473,0 0.657324,0.15193 0.275952,0.14883 0.455786,0.45888 z m -1.944067,1.21233 q 0,0.62942 0.257349,0.98909 0.260449,0.35657 0.713134,0.35657 0.452686,0 0.713135,-0.35657 0.260449,-0.35967 0.260449,-0.98909 0,-0.62942 -0.260449,-0.98598 -0.260449,-0.35967 -0.713135,-0.35967 -0.452685,0 -0.713134,0.35967 -0.257349,0.35656 -0.257349,0.98598 z"
         style="font-style:normal;font-variant:normal;font-weight:normal;font-stretch:normal;font-size:6.35px;font-family:'DejaVu Sans';-inkscape-font-specification:'DejaVu Sans, Normal';font-variant-ligatures:normal;font-variant-caps:normal;font-variant-numeric:normal;font-feature-settings:normal;text-align:start;writing-mode:lr-tb;text-anchor:start;fill:#ffffff;fill-opacity:1;stroke-width:0.264583"
         id="path5311" />
      <path
         d="m 29.287248,177.79099 h 0.570508 v 3.47265 h -0.570508 z m 0,-1.35186 h 0.570508 v 0.72244 h -0.570508 z"
         style="font-style:normal;font-variant:normal;font-weight:normal;font-stretch:normal;font-size:6.35px;font-family:'DejaVu Sans';-inkscape-font-specification:'DejaVu Sans, Normal';font-variant-ligatures:normal;font-variant-caps:normal;font-variant-numeric:normal;font-feature-settings:normal;text-align:start;writing-mode:lr-tb;text-anchor:start;fill:#ffffff;fill-opacity:1;stroke-width:0.264583"
         id="path5313" />
      <path
         d="m 33.938127,179.16765 v 2.09599 h -0.570508 v -2.07739 q 0,-0.49299 -0.192236,-0.73794 -0.192236,-0.24495 -0.576709,-0.24495 -0.461987,0 -0.728638,0.29456 -0.26665,0.29455 -0.26665,0.80305 v 1.96267 h -0.573608 v -3.47265 h 0.573608 v 0.5395 q 0.204639,-0.31316 0.480591,-0.46819 0.279053,-0.15503 0.641821,-0.15503 0.598413,0 0.905371,0.37207 0.306958,0.36897 0.306958,1.08831 z"
         style="font-style:normal;font-variant:normal;font-weight:normal;font-stretch:normal;font-size:6.35px;font-family:'DejaVu Sans';-inkscape-font-specification:'DejaVu Sans, Normal';font-variant-ligatures:normal;font-variant-caps:normal;font-variant-numeric:normal;font-feature-settings:normal;text-align:start;writing-mode:lr-tb;text-anchor:start;fill:#ffffff;fill-opacity:1;stroke-width:0.264583"
         id="path5315" />
      <path
         d="m 36.654241,179.51801 q -0.691431,0 -0.958081,0.15813 -0.26665,0.15813 -0.26665,0.5395 0,0.30386 0.198437,0.48369 0.201538,0.17674 0.545703,0.17674 0.47439,0 0.759644,-0.33487 0.288354,-0.33796 0.288354,-0.89606 v -0.12713 z m 1.137915,-0.23564 v 1.98127 h -0.570508 v -0.5271 q -0.195337,0.31626 -0.486792,0.46819 -0.291455,0.14883 -0.713135,0.14883 -0.5333,0 -0.84956,-0.29766 -0.313159,-0.30075 -0.313159,-0.80305 0,-0.58601 0.390674,-0.88367 0.393774,-0.29765 1.172021,-0.29765 h 0.799951 v -0.0558 q 0,-0.39378 -0.260449,-0.60772 -0.257349,-0.21704 -0.725537,-0.21704 -0.297656,0 -0.57981,0.0713 -0.282153,0.0713 -0.542602,0.21394 v -0.52709 q 0.313159,-0.12093 0.607715,-0.17984 0.294555,-0.062 0.573608,-0.062 0.753442,0 1.125513,0.39067 0.37207,0.39068 0.37207,1.18443 z"
         style="font-style:normal;font-variant:normal;font-weight:normal;font-stretch:normal;font-size:6.35px;font-family:'DejaVu Sans';-inkscape-font-specification:'DejaVu Sans, Normal';font-variant-ligatures:normal;font-variant-caps:normal;font-variant-numeric:normal;font-feature-settings:normal;text-align:start;writing-mode:lr-tb;text-anchor:start;fill:#ffffff;fill-opacity:1;stroke-width:0.264583"
         id="path5317" />
      <path
         d="m 38.967278,176.43913 h 0.570508 v 4.82451 h -0.570508 z"
         style="font-style:normal;font-variant:normal;font-weight:normal;font-stretch:normal;font-size:6.35px;font-family:'DejaVu Sans';-inkscape-font-specification:'DejaVu Sans, Normal';font-variant-ligatures:normal;font-variant-caps:normal;font-variant-numeric:normal;font-feature-settings:normal;text-align:start;writing-mode:lr-tb;text-anchor:start;fill:#ffffff;fill-opacity:1;stroke-width:0.264583"
         id="path5319" />
    </g>
    <path
       style="font-size:4.93889px;line-height:1.25;font-family:'DejaVu Sans';-inkscape-font-specification:'DejaVu Sans, Normal';letter-spacing:0px;word-spacing:0px;fill:#808a8a;stroke-width:0.264583"
       d="m 7.7033029,185.05265 h 0.4871366 v 1.47588 H 9.96053 v -1.47588 h 0.487137 v 3.60047 H 9.96053 V 186.9385 H 8.1904395 v 1.71462 H 7.7033029 Z m 4.7411411,1.21061 q -0.356912,0 -0.564306,0.27974 -0.207395,0.27733 -0.207395,0.76206 0,0.48472 0.204983,0.76446 0.207395,0.27733 0.566718,0.27733 0.354501,0 0.561896,-0.27974 0.207394,-0.27974 0.207394,-0.76205 0,-0.47991 -0.207394,-0.75965 -0.207395,-0.28215 -0.561896,-0.28215 z m 0,-0.37621 q 0.578777,0 0.909161,0.37621 0.330385,0.3762 0.330385,1.0418 0,0.66318 -0.330385,1.04179 -0.330384,0.37621 -0.909161,0.37621 -0.581187,0 -0.911572,-0.37621 -0.327973,-0.37861 -0.327973,-1.04179 0,-0.6656 0.327973,-1.0418 0.330385,-0.37621 0.911572,-0.37621 z m 3.696933,0.1447 v 0.41961 q -0.188102,-0.0965 -0.390673,-0.14469 -0.202572,-0.0482 -0.419613,-0.0482 -0.330385,0 -0.496783,0.10128 -0.163987,0.10129 -0.163987,0.30386 0,0.15434 0.118167,0.24357 0.118167,0.0868 0.475079,0.1664 l 0.151929,0.0338 q 0.472667,0.10128 0.670415,0.28697 0.20016,0.18328 0.20016,0.51367 0,0.3762 -0.299034,0.59565 -0.296623,0.21946 -0.817521,0.21946 -0.217041,0 -0.453375,-0.0434 -0.233922,-0.041 -0.494371,-0.1254 v -0.4582 q 0.24598,0.12781 0.484725,0.19293 0.238745,0.0627 0.472667,0.0627 0.313504,0 0.482314,-0.10611 0.168809,-0.10852 0.168809,-0.30386 0,-0.18087 -0.12299,-0.27733 -0.120578,-0.0965 -0.532956,-0.18569 l -0.15434,-0.0362 q -0.412378,-0.0868 -0.595658,-0.26528 -0.183279,-0.18086 -0.183279,-0.49437 0,-0.38103 0.270096,-0.58842 0.270095,-0.2074 0.766878,-0.2074 0.24598,0 0.463021,0.0362 0.217041,0.0362 0.40032,0.10852 z m 1.290189,-0.84646 v 0.76688 h 0.913984 v 0.34485 h -0.913984 v 1.46623 q 0,0.33039 0.08923,0.42444 0.09164,0.0941 0.368969,0.0941 h 0.455787 v 0.37138 h -0.455787 q -0.513663,0 -0.709,-0.19051 -0.195337,-0.19293 -0.195337,-0.69936 v -1.46623 h -0.325562 v -0.34485 h 0.325562 v -0.76688 z m 3.573943,0.26768 v 1.35289 h 0.612538 q 0.340031,0 0.525722,-0.17604 0.18569,-0.17605 0.18569,-0.50161 0,-0.32315 -0.18569,-0.49919 -0.185691,-0.17605 -0.525722,-0.17605 z m -0.487137,-0.40032 h 1.099675 q 0.605303,0 0.913984,0.27492 0.311092,0.27251 0.311092,0.80064 0,0.53296 -0.311092,0.80546 -0.308681,0.27251 -0.913984,0.27251 h -0.612538 v 1.44694 h -0.487137 z m 3.964616,2.24276 q -0.537779,0 -0.745174,0.12299 -0.207395,0.12299 -0.207395,0.41961 0,0.23634 0.154341,0.37621 0.156752,0.13746 0.424436,0.13746 0.368969,0 0.590834,-0.26045 0.224275,-0.26286 0.224275,-0.69695 v -0.0989 z m 0.885046,-0.18328 v 1.54099 h -0.443729 v -0.40996 q -0.151928,0.24598 -0.378616,0.36414 -0.226687,0.11576 -0.55466,0.11576 -0.41479,0 -0.66077,-0.23151 -0.243568,-0.23393 -0.243568,-0.6246 0,-0.45579 0.303857,-0.6873 0.306269,-0.23151 0.911573,-0.23151 h 0.622184 v -0.0434 q 0,-0.30627 -0.202571,-0.47267 -0.20016,-0.16881 -0.564307,-0.16881 -0.231511,0 -0.450963,0.0555 -0.219453,0.0555 -0.422025,0.1664 v -0.40996 q 0.243569,-0.0941 0.472668,-0.13987 0.229099,-0.0482 0.44614,-0.0482 0.586011,0 0.875399,0.30386 0.289388,0.30386 0.289388,0.92122 z m 2.479091,-0.74517 q -0.07476,-0.0434 -0.163987,-0.0627 -0.08682,-0.0217 -0.192925,-0.0217 -0.376205,0 -0.578776,0.24598 -0.20016,0.24357 -0.20016,0.70177 v 1.42282 h -0.44614 v -2.70095 h 0.44614 v 0.41961 q 0.13987,-0.24598 0.364146,-0.36415 0.224276,-0.12058 0.545014,-0.12058 0.04582,0 0.101286,0.007 0.05547,0.005 0.12299,0.0169 z m 1.692921,0.92845 q -0.53778,0 -0.745174,0.12299 -0.207395,0.12299 -0.207395,0.41961 0,0.23634 0.15434,0.37621 0.156752,0.13746 0.424436,0.13746 0.36897,0 0.590834,-0.26045 0.224276,-0.26286 0.224276,-0.69695 v -0.0989 z m 0.885045,-0.18328 v 1.54099 h -0.443728 v -0.40996 q -0.151929,0.24598 -0.378616,0.36414 -0.226688,0.11576 -0.554661,0.11576 -0.41479,0 -0.660769,-0.23151 -0.243569,-0.23393 -0.243569,-0.6246 0,-0.45579 0.303858,-0.6873 0.306269,-0.23151 0.911572,-0.23151 h 0.622185 v -0.0434 q 0,-0.30627 -0.202572,-0.47267 -0.20016,-0.16881 -0.564307,-0.16881 -0.23151,0 -0.450963,0.0555 -0.219452,0.0555 -0.422024,0.1664 v -0.40996 q 0.243568,-0.0941 0.472667,-0.13987 0.229099,-0.0482 0.44614,-0.0482 0.586011,0 0.875399,0.30386 0.289388,0.30386 0.289388,0.92122 z m 3.01687,-0.64148 q 0.166398,-0.29903 0.397908,-0.44131 0.231511,-0.14229 0.545015,-0.14229 0.422024,0 0.651123,0.29663 0.229099,0.29421 0.229099,0.83922 v 1.63022 h -0.44614 v -1.61575 q 0,-0.38826 -0.13746,-0.57636 -0.137459,-0.18811 -0.419612,-0.18811 -0.344854,0 -0.545015,0.2291 -0.20016,0.2291 -0.20016,0.6246 v 1.52652 h -0.44614 v -1.61575 q 0,-0.39067 -0.137459,-0.57636 -0.137459,-0.18811 -0.424436,-0.18811 -0.340031,0 -0.540191,0.23152 -0.20016,0.22909 -0.20016,0.62218 v 1.52652 h -0.44614 v -2.70095 h 0.44614 v 0.41961 q 0.151929,-0.24839 0.364147,-0.36656 0.212218,-0.11817 0.504017,-0.11817 0.294211,0 0.499195,0.14952 0.207394,0.14952 0.306269,0.43408 z m 4.430049,-0.4389 v 0.41961 q -0.188102,-0.0965 -0.390674,-0.14469 -0.202571,-0.0482 -0.419612,-0.0482 -0.330385,0 -0.496783,0.10128 -0.163987,0.10129 -0.163987,0.30386 0,0.15434 0.118167,0.24357 0.118167,0.0868 0.475079,0.1664 l 0.151928,0.0338 q 0.472668,0.10128 0.670416,0.28697 0.20016,0.18328 0.20016,0.51367 0,0.3762 -0.299034,0.59565 -0.296623,0.21946 -0.817521,0.21946 -0.217041,0 -0.453375,-0.0434 -0.233922,-0.041 -0.494371,-0.1254 v -0.4582 q 0.245979,0.12781 0.484725,0.19293 0.238745,0.0627 0.472667,0.0627 0.313504,0 0.482313,-0.10611 0.16881,-0.10852 0.16881,-0.30386 0,-0.18087 -0.12299,-0.27733 -0.120578,-0.0965 -0.532956,-0.18569 l -0.154341,-0.0362 q -0.412378,-0.0868 -0.595657,-0.26528 -0.183279,-0.18086 -0.183279,-0.49437 0,-0.38103 0.270096,-0.58842 0.270095,-0.2074 0.766878,-0.2074 0.24598,0 0.463021,0.0362 0.217041,0.0362 0.40032,0.10852 z"
       id="text845"
       aria-label="Host Params" />
  </g>
</svg>
