<?xml version="1.0" encoding="UTF-8" standalone="no"?>
<svg
   width="76.200073mm"
   height="128.5mm"
   viewBox="0 0 76.200074 128.5"
   version="1.1"
   xml:space="preserve"
   style="clip-rule:evenodd;fill-rule:evenodd;stroke-linecap:square;stroke-linejoin:round;stroke-miterlimit:1.5"
   id="svg78"
   sodipodi:docname="EnvelopeArray.svg"
   inkscape:version="1.3.2 (091e20e, 2023-11-25)"
   xmlns:inkscape="http://www.inkscape.org/namespaces/inkscape"
   xmlns:sodipodi="http://sodipodi.sourceforge.net/DTD/sodipodi-0.dtd"
   xmlns="http://www.w3.org/2000/svg"
   xmlns:svg="http://www.w3.org/2000/svg"
   xmlns:serif="http://www.serif.com/"><defs
   id="defs78">
        
        
        
        
        
        
        
        
        
        
        
        
        
        
        
        
        
        
        
        
        
        
        
        
        
        
        
        
        
        
        
        
        
        
        
        
    
        
        
        
        
        
        
        
        
        
        
        
        
        
        
        
        
        
        
        
        
        
        
        
        
        
        
        
        
        
        
        
        
        
        
        
        
        
        
        
        
        
        
        
        
        
        
        
        
        
        
        
        
        
        
        
        
        
        
        
        
        
        
        
        
        
        
        
        
    
        
        
        
        
        
        
        
        
        
        
        
        
        
        
        
        
        
        
        
        
        
        
        
        
        
        
        
        
        
        
        
        
        
        
        
        
        
        
        
        
        
        
    </defs><sodipodi:namedview
   id="namedview78"
   pagecolor="#ffffff"
   bordercolor="#000000"
   borderopacity="0.25"
   inkscape:showpageshadow="2"
   inkscape:pageopacity="0.0"
   inkscape:pagecheckerboard="0"
   inkscape:deskcolor="#d1d1d1"
   inkscape:zoom="1.6837088"
   inkscape:cx="187.08698"
   inkscape:cy="249.44931"
   inkscape:window-width="1392"
   inkscape:window-height="1027"
   inkscape:window-x="336"
   inkscape:window-y="38"
   inkscape:window-maximized="0"
   inkscape:current-layer="g2"
   inkscape:document-units="mm" />
    
    
<g
   id="g2"
   inkscape:label="Layer1"><rect
     id="rect420"
     x="0.30153227"
     y="-0.063164651"
     width="76.199997"
     height="128.22516"
     style="clip-rule:evenodd;fill:#e6e6e6;fill-rule:evenodd;stroke-width:0.352023;stroke-linecap:square;stroke-linejoin:round;stroke-miterlimit:1.5" /><path
     d="m 74.829425,88.791446 c 0,-2.825339 -2.293783,-5.119122 -5.119122,-5.119122 H 6.7277161 c -2.8253386,0 -5.119122,2.293783 -5.119122,5.119122 v 27.780264 c 0,2.82533 2.2937834,5.11912 5.119122,5.11912 H 69.710303 c 2.825339,0 5.119122,-2.29379 5.119122,-5.11912 z"
     style="clip-rule:evenodd;fill:#666666;fill-rule:evenodd;stroke-width:0.352023;stroke-linecap:square;stroke-linejoin:round;stroke-miterlimit:1.5;stroke:#000000;stroke-opacity:1"
     id="path1" /><path
     d="m 26.537119,61.039342 -0.05351,0.281619 c -0.07428,-0.05386 -0.151371,-0.09469 -0.231279,-0.122151 -0.07956,-0.02746 -0.162283,-0.04119 -0.247473,-0.04119 -0.151017,0 -0.274578,0.03732 -0.369976,0.112652 -0.09505,0.07499 -0.142922,0.171083 -0.142922,0.287251 0,0.06513 0.02252,0.117934 0.06759,0.158059 0.0447,0.04049 0.126382,0.07886 0.244655,0.115818 l 0.166508,0.05351 c 0.149258,0.04577 0.258737,0.107011 0.327733,0.183404 0.06935,0.07674 0.103844,0.174252 0.103844,0.292532 0,0.215085 -0.07604,0.386169 -0.228111,0.512194 -0.152425,0.126023 -0.359767,0.189036 -0.62308,0.189036 -0.0954,0 -0.189036,-0.01051 -0.281267,-0.03097 -0.09188,-0.02077 -0.183757,-0.05174 -0.275634,-0.09293 l 0.05632,-0.287251 c 0.08977,0.06301 0.18094,0.109832 0.27317,0.140105 0.09188,0.03027 0.189389,0.04541 0.29218,0.04541 0.151018,0 0.273874,-0.04049 0.368568,-0.121101 0.09434,-0.08061 0.141514,-0.182699 0.141514,-0.306612 0,-0.07499 -0.02006,-0.133416 -0.06055,-0.174603 -0.04013,-0.04119 -0.121446,-0.08061 -0.243248,-0.11828 l -0.139049,-0.04541 c -0.16862,-0.05315 -0.286547,-0.113357 -0.354135,-0.180588 -0.06724,-0.06759 -0.101037,-0.15665 -0.101037,-0.267538 0,-0.202766 0.07569,-0.368216 0.227056,-0.497056 0.151018,-0.128844 0.348855,-0.193262 0.592454,-0.193262 0.07358,0 0.151723,0.0092 0.234448,0.02746 0.08308,0.01831 0.168268,0.04506 0.255217,0.07991 z"
     style="clip-rule:evenodd;fill-rule:nonzero;stroke-width:0.352023;stroke-linecap:square;stroke-linejoin:round;stroke-miterlimit:1.5"
     id="path2" /><path
     d="m 27.162664,60.968939 h 0.277747 l -0.354488,1.819255 h 0.991298 l -0.04541,0.233744 h -1.269044 z"
     style="clip-rule:evenodd;fill-rule:nonzero;stroke-width:0.352023;stroke-linecap:square;stroke-linejoin:round;stroke-miterlimit:1.5"
     id="path3" /><path
     d="m 29.361402,61.200218 -0.500225,1.064165 h 0.591046 z m -0.132011,-0.231279 h 0.338295 l 0.228463,2.052999 H 29.51981 l -0.04823,-0.534724 h -0.714958 l -0.253105,0.534724 h -0.298515 z"
     style="clip-rule:evenodd;fill-rule:nonzero;stroke-width:0.352023;stroke-linecap:square;stroke-linejoin:round;stroke-miterlimit:1.5"
     id="path4" /><path
     d="m 30.43824,60.968939 h 0.352024 l 0.362936,1.690062 0.32879,-1.690062 h 0.268241 l -0.40025,2.052999 h -0.352023 l -0.362937,-1.689711 -0.330197,1.689711 H 30.03799 Z"
     style="clip-rule:evenodd;fill-rule:nonzero;stroke-width:0.352023;stroke-linecap:square;stroke-linejoin:round;stroke-miterlimit:1.5"
     id="path5" /><path
     d="m 32.007208,60.968939 h 1.56756 l -0.04541,0.233743 h -0.644907 l -0.352023,1.819256 h -0.280563 l 0.35484,-1.819256 h -0.644907 z"
     style="clip-rule:evenodd;fill-rule:nonzero;stroke-width:0.352023;stroke-linecap:square;stroke-linejoin:round;stroke-miterlimit:1.5"
     id="path6" /><path
     d="m 29.474401,35.035035 v 2.816186"
     style="clip-rule:evenodd;fill:none;fill-rule:evenodd;stroke:#000000;stroke-width:0.264017px;stroke-linecap:square;stroke-linejoin:round;stroke-miterlimit:1.5"
     id="path7" /><path
     d="m 44.445949,62.949069 c -0.07709,0.03767 -0.15489,0.06583 -0.23304,0.08483 -0.0785,0.01865 -0.159466,0.02817 -0.242895,0.02817 -0.210863,0 -0.374202,-0.0609 -0.490369,-0.183052 -0.115818,-0.121805 -0.173899,-0.292884 -0.173899,-0.512898 0,-0.201709 0.03238,-0.401306 0.09646,-0.599496 0.06406,-0.197836 0.148553,-0.359768 0.253104,-0.48544 0.09786,-0.118985 0.205933,-0.206989 0.324213,-0.264016 0.11828,-0.05668 0.253105,-0.08519 0.404476,-0.08519 0.07322,0 0.146089,0.0094 0.218606,0.02887 0.07251,0.01936 0.142921,0.04717 0.211917,0.08378 l -0.05668,0.284787 c -0.05843,-0.05773 -0.120395,-0.101024 -0.185516,-0.12919 -0.06513,-0.02851 -0.134122,-0.04259 -0.207695,-0.04259 -0.08695,0 -0.167562,0.01831 -0.241838,0.05561 -0.07428,0.03696 -0.143979,0.09364 -0.209103,0.169677 -0.09539,0.112652 -0.172139,0.257328 -0.230222,0.43334 -0.05844,0.176011 -0.08731,0.352375 -0.08731,0.529443 0,0.158409 0.03555,0.279858 0.107011,0.364344 0.07146,0.08413 0.174604,0.126382 0.309429,0.126382 0.07815,0 0.158411,-0.01478 0.241487,-0.044 0.08273,-0.02922 0.164747,-0.07182 0.245361,-0.127779 z"
     style="clip-rule:evenodd;fill-rule:nonzero;stroke-width:0.352023;stroke-linecap:square;stroke-linejoin:round;stroke-miterlimit:1.5"
     id="path8" /><path
     d="m 45.001442,62.234109 0.244655,-1.26517 h 0.279155 l -0.246064,1.26517 c -0.0017,0.01198 -0.0056,0.03063 -0.01091,0.05632 -0.02781,0.141161 -0.04154,0.239023 -0.04154,0.292884 0,0.08449 0.025,0.14785 0.07499,0.18974 0.04999,0.04224 0.125318,0.06337 0.226351,0.06337 0.08166,0 0.150666,-0.01304 0.207693,-0.03908 0.05668,-0.02605 0.105601,-0.06759 0.147146,-0.124613 0.02006,-0.02817 0.04049,-0.07709 0.0609,-0.146442 0.02077,-0.069 0.04365,-0.166508 0.06829,-0.29218 l 0.244657,-1.26517 h 0.279154 l -0.244656,1.26517 c -0.03872,0.200654 -0.07956,0.348152 -0.123202,0.442142 -0.04329,0.09399 -0.101037,0.169675 -0.172492,0.227407 -0.06513,0.0514 -0.139401,0.09082 -0.22283,0.117575 -0.08344,0.0271 -0.173548,0.04083 -0.270707,0.04083 -0.176012,0 -0.31154,-0.04119 -0.406587,-0.123907 -0.09469,-0.08237 -0.142216,-0.19995 -0.142216,-0.352024 0,-0.03379 0.0039,-0.07956 0.01158,-0.137289 0.0077,-0.05809 0.02006,-0.129549 0.03661,-0.214734 z"
     style="clip-rule:evenodd;fill-rule:nonzero;stroke-width:0.352023;stroke-linecap:square;stroke-linejoin:round;stroke-miterlimit:1.5"
     id="path9" /><path
     d="m 47.59198,62.052818 c 0.06618,0.01264 0.118985,0.04329 0.158762,0.09188 0.04013,0.04858 0.08483,0.154186 0.134122,0.316468 l 0.166507,0.560774 h -0.276338 l -0.145739,-0.518178 c -0.04049,-0.142922 -0.08554,-0.236912 -0.135528,-0.28197 -0.04999,-0.04506 -0.125318,-0.06724 -0.226351,-0.06724 h -0.264018 l -0.168971,0.867386 h -0.279155 l 0.397435,-2.052999 h 0.572038 c 0.18974,0 0.336535,0.04119 0.440733,0.123202 0.103844,0.08202 0.155947,0.197838 0.155947,0.347095 0,0.167915 -0.04753,0.306612 -0.142218,0.416796 -0.09505,0.109831 -0.223887,0.175659 -0.387226,0.196781 z m -0.402714,-0.855417 -0.140458,0.728689 h 0.301333 c 0.149257,0 0.268593,-0.03908 0.358007,-0.117575 0.08941,-0.07815 0.134121,-0.1827 0.134121,-0.312949 0,-0.102434 -0.02887,-0.177771 -0.0866,-0.225998 -0.05773,-0.04823 -0.148907,-0.07217 -0.273523,-0.07217 z"
     style="clip-rule:evenodd;fill-rule:nonzero;stroke-width:0.352023;stroke-linecap:square;stroke-linejoin:round;stroke-miterlimit:1.5"
     id="path10" /><path
     d="m 48.935653,62.760737 0.821974,-1.791798 h 0.2957 l -0.988482,2.052999 h -0.354839 l -0.202062,-2.052999 h 0.272115 z"
     style="clip-rule:evenodd;fill-rule:nonzero;stroke-width:0.352023;stroke-linecap:square;stroke-linejoin:round;stroke-miterlimit:1.5"
     id="path11" /><path
     d="m 50.402885,60.968939 h 1.216945 l -0.04541,0.233743 h -0.940607 l -0.118279,0.607943 h 0.898011 l -0.044,0.233745 h -0.899419 l -0.142922,0.743824 h 0.965247 l -0.04541,0.233744 h -1.244402 z"
     style="clip-rule:evenodd;fill-rule:nonzero;stroke-width:0.352023;stroke-linecap:square;stroke-linejoin:round;stroke-miterlimit:1.5"
     id="path12" /><path
     d="m 47.662032,35.035035 v 2.816186"
     style="clip-rule:evenodd;fill:none;fill-rule:evenodd;stroke:#000000;stroke-width:0.264017px;stroke-linecap:square;stroke-linejoin:round;stroke-miterlimit:1.5"
     id="path13" /><g
     id="g13"
     style="clip-rule:evenodd;fill-rule:evenodd;stroke-linecap:square;stroke-linejoin:round;stroke-miterlimit:1.5"
     transform="matrix(0.35202322,0,0,0.35202322,0.41171559,2.7115094)">
            <path
   id="path40"
   d="m 198.509,92.605 -2.304,-0.575 0.573,-2.308"
   style="fill:none;stroke:#000000;stroke-width:0.7px;stroke-linecap:butt;stroke-linejoin:miter;stroke-miterlimit:10" />
            <path
   id="path41"
   d="m 172.022,91.132 c -5.346,-3.882 -8.816,-10.138 -8.816,-17.19 0,-11.767 9.667,-21.32 21.576,-21.32 11.91,0 21.578,9.553 21.578,21.32 0,6.065 -2.568,11.542 -6.688,15.426 -1.059,0.998 -2.22,1.892 -3.467,2.662"
   style="fill:none;stroke:#000000;stroke-width:0.7px;stroke-linecap:butt" />
        </g><g
     transform="matrix(0.35202322,0,0,0.35202322,33.181136,55.965984)"
     id="g23"
     style="clip-rule:evenodd;fill-rule:evenodd;stroke-linecap:square;stroke-linejoin:round;stroke-miterlimit:1.5">
            <g
   transform="matrix(8,0,0,8,81.2784,30.0447)"
   id="g14">
                <path
   d="M 0.18,-0.729 H 0.279 L 0.153,-0.083 H 0.505 L 0.489,0 H 0.038 Z"
   style="fill-rule:nonzero"
   id="path14" />
            </g>
            <g
   transform="matrix(8,0,0,8,86.0948,30.0447)"
   id="g15">
                <path
   d="m 0.359,-0.647 -0.178,0.378 h 0.21 z M 0.312,-0.729 h 0.12 L 0.513,0 H 0.415 L 0.398,-0.19 H 0.144 L 0.054,0 h -0.106 z"
   style="fill-rule:nonzero"
   id="path15" />
            </g>
            <g
   transform="matrix(8,0,0,8,90.9112,30.0447)"
   id="g16">
                <path
   d="m 0.56,-0.704 -0.019,0.1 C 0.515,-0.623 0.487,-0.638 0.459,-0.647 0.431,-0.657 0.401,-0.662 0.371,-0.662 c -0.054,0 -0.097,0.013 -0.131,0.04 -0.034,0.027 -0.051,0.061 -0.051,0.102 0,0.023 0.008,0.042 0.024,0.056 0.016,0.014 0.045,0.028 0.087,0.041 l 0.059,0.019 c 0.053,0.016 0.092,0.038 0.116,0.065 0.025,0.028 0.037,0.062 0.037,0.104 0,0.077 -0.027,0.137 -0.081,0.182 C 0.377,-0.008 0.303,0.014 0.21,0.014 0.176,0.014 0.143,0.01 0.11,0.003 0.077,-0.004 0.045,-0.015 0.012,-0.03 l 0.02,-0.102 c 0.032,0.023 0.064,0.039 0.097,0.05 0.033,0.011 0.067,0.016 0.104,0.016 0.054,0 0.097,-0.014 0.131,-0.043 0.033,-0.029 0.05,-0.065 0.05,-0.109 0,-0.026 -0.007,-0.047 -0.021,-0.062 C 0.378,-0.294 0.349,-0.308 0.306,-0.322 L 0.257,-0.338 C 0.197,-0.357 0.155,-0.378 0.131,-0.402 0.107,-0.426 0.095,-0.458 0.095,-0.497 c 0,-0.072 0.027,-0.131 0.081,-0.177 0.053,-0.045 0.124,-0.068 0.21,-0.068 0.026,0 0.054,0.003 0.083,0.01 0.03,0.006 0.06,0.016 0.091,0.028 z"
   style="fill-rule:nonzero"
   id="path16" />
            </g>
            <g
   transform="matrix(8,0,0,8,95.7276,30.0447)"
   id="g17">
                <path
   d="M 0.094,-0.729 H 0.651 L 0.635,-0.646 H 0.406 L 0.281,0 h -0.1 L 0.307,-0.646 H 0.078 Z"
   style="fill-rule:nonzero"
   id="path17" />
            </g>
            <g
   transform="matrix(8,0,0,8,78.8702,39.0447)"
   id="g18">
                <path
   d="M 0.071,-0.729 H 0.164 L 0.12,-0.138 0.281,-0.529 h 0.103 l 0.007,0.392 0.184,-0.592 H 0.672 L 0.423,0 H 0.328 L 0.313,-0.425 0.132,0 H 0.04 Z"
   style="fill-rule:nonzero"
   id="path18" />
            </g>
            <g
   transform="matrix(8,0,0,8,83.6866,39.0447)"
   id="g19">
                <path
   d="M 0.169,-0.729 H 0.574 L 0.558,-0.646 H 0.405 L 0.296,-0.083 H 0.449 L 0.433,0 H 0.028 L 0.044,-0.083 H 0.197 L 0.306,-0.646 H 0.153 Z"
   style="fill-rule:nonzero"
   id="path19" />
            </g>
            <g
   transform="matrix(8,0,0,8,88.503,39.0447)"
   id="g20">
                <path
   d="m 0.158,-0.081 c 0.06,0 0.109,-0.01 0.145,-0.031 0.037,-0.02 0.066,-0.053 0.088,-0.099 0.018,-0.037 0.032,-0.082 0.043,-0.134 0.012,-0.052 0.017,-0.099 0.017,-0.143 0,-0.057 -0.013,-0.098 -0.04,-0.123 C 0.384,-0.636 0.34,-0.648 0.277,-0.648 H 0.221 l -0.11,0.567 z m 0.128,-0.648 c 0.089,0 0.155,0.02 0.2,0.061 0.044,0.04 0.066,0.101 0.066,0.183 0,0.053 -0.007,0.107 -0.021,0.163 C 0.518,-0.266 0.499,-0.216 0.476,-0.173 0.442,-0.111 0.4,-0.066 0.349,-0.04 0.299,-0.013 0.23,0 0.144,0 h -0.148 l 0.142,-0.729 z"
   style="fill-rule:nonzero"
   id="path20" />
            </g>
            <g
   transform="matrix(8,0,0,8,93.3194,39.0447)"
   id="g21">
                <path
   d="M 0.094,-0.729 H 0.651 L 0.635,-0.646 H 0.406 L 0.281,0 h -0.1 L 0.307,-0.646 H 0.078 Z"
   style="fill-rule:nonzero"
   id="path21" />
            </g>
            <g
   transform="matrix(8,0,0,8,98.1358,39.0447)"
   id="g22">
                <path
   d="M 0.138,-0.729 H 0.237 L 0.179,-0.43 h 0.27 L 0.507,-0.729 H 0.606 L 0.464,0 H 0.365 L 0.433,-0.347 H 0.162 L 0.095,0 h -0.099 z"
   style="fill-rule:nonzero"
   id="path22" />
            </g>
        </g><path
     d="m 65.459622,38.555267 v 2.816186"
     style="clip-rule:evenodd;fill:none;fill-rule:evenodd;stroke:#000000;stroke-width:0.264017px;stroke-linecap:square;stroke-linejoin:round;stroke-miterlimit:1.5"
     id="path23" /><g
     id="g31"
     style="clip-rule:evenodd;fill-rule:evenodd;stroke-linecap:square;stroke-linejoin:round;stroke-miterlimit:1.5"
     transform="matrix(0.35202322,0,0,0.35202322,0.41171559,0.59484263)">
            <g
   id="g29">
                <path
   d="m 95.792,354.678 c 0.172,0.357 0.228,0.715 0.168,1.075 h -1.203 c -0.018,-0.276 -0.074,-0.485 -0.168,-0.625 -0.164,-0.25 -0.461,-0.375 -0.89,-0.375 -0.438,0 -0.821,0.176 -1.149,0.529 -0.328,0.353 -0.56,0.852 -0.695,1.498 -0.138,0.646 -0.108,1.129 0.09,1.451 0.198,0.322 0.502,0.482 0.914,0.482 0.422,0 0.773,-0.138 1.054,-0.414 0.154,-0.148 0.303,-0.371 0.446,-0.668 h 1.191 c -0.237,0.628 -0.611,1.138 -1.123,1.532 -0.512,0.393 -1.102,0.59 -1.771,0.59 -0.828,0 -1.424,-0.266 -1.786,-0.797 -0.359,-0.534 -0.44,-1.266 -0.242,-2.196 0.214,-1.005 0.647,-1.78 1.301,-2.324 0.57,-0.474 1.218,-0.711 1.941,-0.711 0.969,0 1.61,0.318 1.922,0.953 z"
   style="fill-rule:nonzero"
   id="path24" />
                <path
   d="m 98.456,358.206 2.192,-4.371 h 1.25 l -3.188,5.757 h -1.136 l -0.723,-5.757 h 1.285 z"
   style="fill-rule:nonzero"
   id="path25" />
                <path
   d="m 106.441,355.374 -0.168,0.785 h -0.731 l -0.726,3.433 h -1.11 l 0.727,-3.433 h -0.621 l 0.168,-0.785 h 0.609 l 0.059,-0.274 c 0.096,-0.456 0.239,-0.769 0.43,-0.941 0.216,-0.255 0.632,-0.383 1.25,-0.383 0.07,0 0.133,0.002 0.189,0.006 0.056,0.004 0.133,0.01 0.232,0.017 l -0.195,0.907 c -0.06,-0.008 -0.163,-0.014 -0.309,-0.018 -0.145,-0.004 -0.254,0.029 -0.326,0.098 -0.071,0.069 -0.115,0.145 -0.131,0.228 -0.018,0.084 -0.044,0.203 -0.078,0.36 z"
   style="fill-rule:nonzero"
   id="path26" />
                <path
   d="m 109.042,358.991 c -0.013,0.013 -0.047,0.052 -0.101,0.117 -0.055,0.065 -0.116,0.122 -0.184,0.172 -0.208,0.156 -0.4,0.263 -0.576,0.32 -0.176,0.057 -0.373,0.086 -0.592,0.086 -0.63,0 -1.006,-0.226 -1.129,-0.68 -0.067,-0.25 -0.049,-0.618 0.055,-1.105 l 0.543,-2.566 h 1.141 l -0.543,2.566 c -0.052,0.242 -0.063,0.424 -0.032,0.547 0.055,0.216 0.231,0.324 0.528,0.324 0.38,0 0.673,-0.154 0.879,-0.461 0.109,-0.167 0.192,-0.387 0.25,-0.66 l 0.492,-2.316 h 1.129 l -0.903,4.257 h -1.082 z"
   style="fill-rule:nonzero"
   id="path27" />
                <path
   d="m 114.339,357.003 c 0.05,-0.224 0.056,-0.396 0.02,-0.516 -0.063,-0.219 -0.248,-0.328 -0.555,-0.328 -0.378,0 -0.67,0.16 -0.879,0.48 -0.109,0.17 -0.191,0.386 -0.246,0.649 l -0.488,2.304 h -1.11 l 0.903,-4.25 h 1.074 l -0.133,0.621 c 0.19,-0.218 0.36,-0.376 0.508,-0.472 0.266,-0.172 0.574,-0.258 0.926,-0.258 0.44,0 0.775,0.115 1.006,0.346 0.23,0.23 0.289,0.612 0.177,1.146 l -0.609,2.867 h -1.141 z"
   style="fill-rule:nonzero"
   id="path28" />
                <path
   d="m 117.324,358.253 -0.282,1.339 h -1.093 l 1.218,-5.738 h 1.094 l -0.66,3.102 1.727,-1.602 h 1.378 l -1.836,1.629 0.997,2.609 h -1.344 l -0.633,-1.82 z"
   style="fill-rule:nonzero"
   id="path29" />
            </g>
            <path
   d="m 69.163,356.739 h 19"
   style="fill:none;stroke:#000000;stroke-width:0.65px;stroke-linecap:round"
   id="path30" />
            <path
   d="m 121.699,356.739 h 19"
   style="fill:none;stroke:#000000;stroke-width:0.65px;stroke-linecap:round"
   id="path31" />
        </g><path
     d="m 31.40384,36.744812 0.05422,-0.259793 h 0.674477 l 0.145386,-0.679052 h 0.264369 l -0.145386,0.679052 h 0.674477 l -0.05422,0.259793 h -0.674477 l -0.143625,0.677644 h -0.264722 l 0.143978,-0.677644 z"
     style="clip-rule:evenodd;fill-rule:nonzero;stroke-width:0.352023;stroke-linecap:square;stroke-linejoin:round;stroke-miterlimit:1.5"
     id="path32" /><path
     d="m 49.981866,36.744812 0.05422,-0.259793 h 0.674477 l 0.145385,-0.679052 h 0.264722 l -0.145738,0.679052 h 0.674477 l -0.05386,0.259793 h -0.674477 l -0.143978,0.677644 h -0.264369 l 0.143625,-0.677644 z"
     style="clip-rule:evenodd;fill-rule:nonzero;stroke-width:0.352023;stroke-linecap:square;stroke-linejoin:round;stroke-miterlimit:1.5"
     id="path33" /><path
     d="m 67.839652,40.265045 0.05386,-0.259794 h 0.674476 l 0.145738,-0.679053 h 0.26437 l -0.145386,0.679053 h 0.674477 l -0.0542,0.259794 H 68.778498 L 68.634521,40.94269 H 68.37015 l 0.143979,-0.677645 z"
     style="clip-rule:evenodd;fill-rule:nonzero;stroke-width:0.352023;stroke-linecap:square;stroke-linejoin:round;stroke-miterlimit:1.5"
     id="path34" /><path
     d="m 25.6898,36.432568 h 1.774548 l -0.04964,0.227407 h -1.774197 z"
     style="clip-rule:evenodd;fill-rule:nonzero;stroke-width:0.352023;stroke-linecap:square;stroke-linejoin:round;stroke-miterlimit:1.5"
     id="path35" /><path
     d="m 44.268178,36.432568 h 1.774197 l -0.04928,0.227407 h -1.77455 z"
     style="clip-rule:evenodd;fill-rule:nonzero;stroke-width:0.352023;stroke-linecap:square;stroke-linejoin:round;stroke-miterlimit:1.5"
     id="path36" /><path
     d="m 62.125611,39.952799 h 1.774549 l -0.04964,0.227408 h -1.77455 z"
     style="clip-rule:evenodd;fill-rule:nonzero;stroke-width:0.352023;stroke-linecap:square;stroke-linejoin:round;stroke-miterlimit:1.5"
     id="path37" /><g
     id="g43"
     style="clip-rule:evenodd;fill-rule:evenodd;stroke-linecap:square;stroke-linejoin:round;stroke-miterlimit:1.5"
     transform="matrix(0.35202322,0,0,0.35202322,0.41171559,2.7115094)">
            <path
   d="m 77.546,44.745 6.206,-6.521 5.835,6.521 H 77.865"
   style="fill:#4a4a4a"
   id="path38" />
            <path
   d="m 127.741,44.745 6.206,-6.521 5.835,6.521 H 128.06"
   style="fill:#4a4a4a"
   id="path39" />
            <path
   d="m 94.289,79.028 10.606,-6.52 1.435,6.52 H 94.608"
   style="fill:#4a4a4a"
   id="path42" />
            <path
   d="m 58.987,79.075 1.406,-6.521 10.635,6.521 H 59.306"
   style="fill:#4a4a4a"
   id="path43" />
        </g><g
     id="g45"
     style="clip-rule:evenodd;fill-rule:evenodd;stroke-linecap:square;stroke-linejoin:round;stroke-miterlimit:1.5"
     transform="matrix(0.35202322,0,0,0.35202322,0.41171559,2.7115094)">
            <path
   d="m 158.051,79.075 c -0.627,-4.765 -2.707,-6.919 -6.206,-6.521 0.411,3.398 -0.76,5.973 -5.835,6.521 h 11.722"
   style="fill:#4a4a4a"
   id="path44" />
            <path
   d="m 110.473,79.075 c 0.627,-4.765 2.707,-6.919 6.205,-6.521 -0.41,3.398 0.761,5.973 5.836,6.521 h -11.722"
   style="fill:#4a4a4a"
   id="path45" />
        </g><path
     d="m 13.985731,78.163161 1.584104,0.792051 -1.584104,0.792053 z"
     id="path46"
     style="clip-rule:evenodd;fill-rule:evenodd;stroke-width:0.352023;stroke-linecap:square;stroke-linejoin:round;stroke-miterlimit:1.5" /><path
     d="m 11.676459,78.955212 h 2.626093"
     style="clip-rule:evenodd;fill:none;fill-rule:evenodd;stroke:#000000;stroke-width:0.352023px;stroke-linecap:square;stroke-linejoin:miter;stroke-miterlimit:1.5"
     id="path47" /><path
     d="m 26.306544,78.163161 1.584105,0.792051 -1.584105,0.792053 z"
     id="path48"
     style="clip-rule:evenodd;fill-rule:evenodd;stroke-width:0.352023;stroke-linecap:square;stroke-linejoin:round;stroke-miterlimit:1.5" /><path
     d="m 23.997272,78.955212 h 2.626093"
     style="clip-rule:evenodd;fill:none;fill-rule:evenodd;stroke:#000000;stroke-width:0.352023px;stroke-linecap:square;stroke-linejoin:miter;stroke-miterlimit:1.5"
     id="path49" /><path
     d="m 38.764294,78.163161 1.584104,0.792051 -1.584104,0.792053 z"
     id="path50"
     style="clip-rule:evenodd;fill-rule:evenodd;stroke-width:0.352023;stroke-linecap:square;stroke-linejoin:round;stroke-miterlimit:1.5" /><path
     d="m 36.455022,78.955212 h 2.626093"
     style="clip-rule:evenodd;fill:none;fill-rule:evenodd;stroke:#000000;stroke-width:0.352023px;stroke-linecap:square;stroke-linejoin:miter;stroke-miterlimit:1.5"
     id="path51" /><path
     d="m 50.733083,78.163161 1.584104,0.792051 -1.584104,0.792053 z"
     id="path52"
     style="clip-rule:evenodd;fill-rule:evenodd;stroke-width:0.352023;stroke-linecap:square;stroke-linejoin:round;stroke-miterlimit:1.5" /><path
     d="m 48.423811,78.955212 h 2.626093"
     style="clip-rule:evenodd;fill:none;fill-rule:evenodd;stroke:#000000;stroke-width:0.352023px;stroke-linecap:square;stroke-linejoin:miter;stroke-miterlimit:1.5"
     id="path53" /><path
     d="m 63.053896,78.163161 1.584105,0.792051 -1.584105,0.792053 z"
     id="path54"
     style="clip-rule:evenodd;fill-rule:evenodd;stroke-width:0.352023;stroke-linecap:square;stroke-linejoin:round;stroke-miterlimit:1.5" /><path
     d="m 60.744624,78.955212 h 2.626093"
     style="clip-rule:evenodd;fill:none;fill-rule:evenodd;stroke:#000000;stroke-width:0.352023px;stroke-linecap:square;stroke-linejoin:miter;stroke-miterlimit:1.5"
     id="path55" /><g
     id="g55"
     style="clip-rule:evenodd;fill-rule:evenodd;stroke-linecap:square;stroke-linejoin:round;stroke-miterlimit:1.5"
     transform="matrix(0.35202322,0,0,0.35202322,0.41171559,2.7115094)">
            <path
   id="path401"
   serif:id="path40"
   d="M 44.843,92.605 42.539,92.03 43.112,89.722"
   style="fill:none;stroke:#000000;stroke-width:0.7px;stroke-linecap:butt;stroke-linejoin:miter;stroke-miterlimit:10" />
            <path
   id="path411"
   serif:id="path41"
   d="M 18.355,91.132 C 13.01,87.25 9.539,80.994 9.539,73.942 c 0,-11.767 9.668,-21.32 21.577,-21.32 11.909,0 21.578,9.553 21.578,21.32 0,6.065 -2.569,11.542 -6.689,15.426 -1.059,0.998 -2.22,1.892 -3.466,2.662"
   style="fill:none;stroke:#000000;stroke-width:0.7px;stroke-linecap:butt" />
        </g><g
     transform="matrix(0.35202322,0,0,0.35202322,-20.913113,55.965984)"
     id="g66"
     style="clip-rule:evenodd;fill-rule:evenodd;stroke-linecap:square;stroke-linejoin:round;stroke-miterlimit:1.5">
            <g
   transform="matrix(8,0,0,8,78.8702,30.0447)"
   id="g56">
                <path
   d="M 0.187,-0.729 H 0.616 L 0.6,-0.646 H 0.27 L 0.228,-0.431 H 0.527 L 0.511,-0.348 H 0.212 L 0.144,0 H 0.045 Z"
   style="fill-rule:nonzero"
   id="path56" />
            </g>
            <g
   transform="matrix(8,0,0,8,83.6866,30.0447)"
   id="g57">
                <path
   d="M 0.169,-0.729 H 0.574 L 0.558,-0.646 H 0.405 L 0.296,-0.083 H 0.449 L 0.433,0 H 0.028 L 0.044,-0.083 H 0.197 L 0.306,-0.646 H 0.153 Z"
   style="fill-rule:nonzero"
   id="path57" />
            </g>
            <g
   transform="matrix(8,0,0,8,88.503,30.0447)"
   id="g58">
                <path
   d="m 0.374,-0.344 c 0.023,0.004 0.042,0.015 0.056,0.032 0.015,0.018 0.03,0.055 0.048,0.113 L 0.537,0 H 0.439 L 0.387,-0.184 C 0.373,-0.235 0.357,-0.268 0.339,-0.284 0.321,-0.3 0.295,-0.308 0.259,-0.308 H 0.165 L 0.105,0 H 0.006 L 0.147,-0.729 H 0.35 c 0.067,0 0.12,0.015 0.157,0.044 0.037,0.029 0.055,0.07 0.055,0.123 0,0.06 -0.017,0.109 -0.051,0.148 -0.033,0.039 -0.079,0.062 -0.137,0.07 z m -0.143,-0.304 -0.05,0.259 h 0.107 c 0.053,0 0.096,-0.014 0.127,-0.042 0.032,-0.028 0.048,-0.065 0.048,-0.111 0,-0.036 -0.01,-0.063 -0.031,-0.08 -0.02,-0.017 -0.053,-0.026 -0.097,-0.026 z"
   style="fill-rule:nonzero"
   id="path58" />
            </g>
            <g
   transform="matrix(8,0,0,8,93.3194,30.0447)"
   id="g59">
                <path
   d="m 0.56,-0.704 -0.019,0.1 C 0.515,-0.623 0.487,-0.638 0.459,-0.647 0.431,-0.657 0.401,-0.662 0.371,-0.662 c -0.054,0 -0.097,0.013 -0.131,0.04 -0.034,0.027 -0.051,0.061 -0.051,0.102 0,0.023 0.008,0.042 0.024,0.056 0.016,0.014 0.045,0.028 0.087,0.041 l 0.059,0.019 c 0.053,0.016 0.092,0.038 0.116,0.065 0.025,0.028 0.037,0.062 0.037,0.104 0,0.077 -0.027,0.137 -0.081,0.182 C 0.377,-0.008 0.303,0.014 0.21,0.014 0.176,0.014 0.143,0.01 0.11,0.003 0.077,-0.004 0.045,-0.015 0.012,-0.03 l 0.02,-0.102 c 0.032,0.023 0.064,0.039 0.097,0.05 0.033,0.011 0.067,0.016 0.104,0.016 0.054,0 0.097,-0.014 0.131,-0.043 0.033,-0.029 0.05,-0.065 0.05,-0.109 0,-0.026 -0.007,-0.047 -0.021,-0.062 C 0.378,-0.294 0.349,-0.308 0.306,-0.322 L 0.257,-0.338 C 0.197,-0.357 0.155,-0.378 0.131,-0.402 0.107,-0.426 0.095,-0.458 0.095,-0.497 c 0,-0.072 0.027,-0.131 0.081,-0.177 0.053,-0.045 0.124,-0.068 0.21,-0.068 0.026,0 0.054,0.003 0.083,0.01 0.03,0.006 0.06,0.016 0.091,0.028 z"
   style="fill-rule:nonzero"
   id="path59" />
            </g>
            <g
   transform="matrix(8,0,0,8,98.1358,30.0447)"
   id="g60">
                <path
   d="M 0.094,-0.729 H 0.651 L 0.635,-0.646 H 0.406 L 0.281,0 h -0.1 L 0.307,-0.646 H 0.078 Z"
   style="fill-rule:nonzero"
   id="path60" />
            </g>
            <g
   transform="matrix(8,0,0,8,78.8702,39.0447)"
   id="g61">
                <path
   d="M 0.071,-0.729 H 0.164 L 0.12,-0.138 0.281,-0.529 h 0.103 l 0.007,0.392 0.184,-0.592 H 0.672 L 0.423,0 H 0.328 L 0.313,-0.425 0.132,0 H 0.04 Z"
   style="fill-rule:nonzero"
   id="path61" />
            </g>
            <g
   transform="matrix(8,0,0,8,83.6866,39.0447)"
   id="g62">
                <path
   d="M 0.169,-0.729 H 0.574 L 0.558,-0.646 H 0.405 L 0.296,-0.083 H 0.449 L 0.433,0 H 0.028 L 0.044,-0.083 H 0.197 L 0.306,-0.646 H 0.153 Z"
   style="fill-rule:nonzero"
   id="path62" />
            </g>
            <g
   transform="matrix(8,0,0,8,88.503,39.0447)"
   id="g63">
                <path
   d="m 0.158,-0.081 c 0.06,0 0.109,-0.01 0.145,-0.031 0.037,-0.02 0.066,-0.053 0.088,-0.099 0.018,-0.037 0.032,-0.082 0.043,-0.134 0.012,-0.052 0.017,-0.099 0.017,-0.143 0,-0.057 -0.013,-0.098 -0.04,-0.123 C 0.384,-0.636 0.34,-0.648 0.277,-0.648 H 0.221 l -0.11,0.567 z m 0.128,-0.648 c 0.089,0 0.155,0.02 0.2,0.061 0.044,0.04 0.066,0.101 0.066,0.183 0,0.053 -0.007,0.107 -0.021,0.163 C 0.518,-0.266 0.499,-0.216 0.476,-0.173 0.442,-0.111 0.4,-0.066 0.349,-0.04 0.299,-0.013 0.23,0 0.144,0 h -0.148 l 0.142,-0.729 z"
   style="fill-rule:nonzero"
   id="path63" />
            </g>
            <g
   transform="matrix(8,0,0,8,93.3194,39.0447)"
   id="g64">
                <path
   d="M 0.094,-0.729 H 0.651 L 0.635,-0.646 H 0.406 L 0.281,0 h -0.1 L 0.307,-0.646 H 0.078 Z"
   style="fill-rule:nonzero"
   id="path64" />
            </g>
            <g
   transform="matrix(8,0,0,8,98.1358,39.0447)"
   id="g65">
                <path
   d="M 0.138,-0.729 H 0.237 L 0.179,-0.43 h 0.27 L 0.507,-0.729 H 0.606 L 0.464,0 H 0.365 L 0.433,-0.347 H 0.162 L 0.095,0 h -0.099 z"
   style="fill-rule:nonzero"
   id="path65" />
            </g>
        </g><path
     d="m 11.36527,38.555267 v 2.816186"
     style="clip-rule:evenodd;fill:none;fill-rule:evenodd;stroke:#000000;stroke-width:0.264017px;stroke-linecap:square;stroke-linejoin:round;stroke-miterlimit:1.5"
     id="path66" /><path
     d="m 13.667854,40.265045 0.05422,-0.259794 h 0.674477 l 0.145385,-0.679053 h 0.26437 l -0.145386,0.679053 h 0.674477 l -0.05422,0.259794 H 14.6067 l -0.143626,0.677645 h -0.26472 l 0.143977,-0.677645 z"
     style="clip-rule:evenodd;fill-rule:nonzero;stroke-width:0.352023;stroke-linecap:square;stroke-linejoin:round;stroke-miterlimit:1.5"
     id="path67" /><path
     d="m 7.9538134,39.952799 h 1.7745483 l -0.04964,0.227408 h -1.774197 z"
     style="clip-rule:evenodd;fill-rule:nonzero;stroke-width:0.352023;stroke-linecap:square;stroke-linejoin:round;stroke-miterlimit:1.5"
     id="path68" /><path
     d="m 29.477217,100.75566 -0.0961,0.45552 h -1.919936 l 0.537892,-2.533514 h 1.857978 l -0.0961,0.448477 h -1.340857 l -0.113357,0.538244 h 1.230674 l -0.09469,0.440033 h -1.230674 l -0.137289,0.65124 z"
     style="clip-rule:evenodd;fill:#ffffff;fill-rule:nonzero;stroke-width:0.352023;stroke-linecap:square;stroke-linejoin:round;stroke-miterlimit:1.5"
     id="path69" /><path
     d="m 31.313019,101.21118 -0.653356,-1.799546 -0.381593,1.799546 h -0.493184 l 0.537891,-2.533514 h 0.555492 l 0.632234,1.768564 0.376665,-1.768564 h 0.493185 l -0.537892,2.533514 z"
     style="clip-rule:evenodd;fill:#ffffff;fill-rule:nonzero;stroke-width:0.352023;stroke-linecap:square;stroke-linejoin:round;stroke-miterlimit:1.5"
     id="path70" /><path
     d="m 33.392771,100.60112 0.964192,-1.923454 h 0.550213 l -1.402461,2.533514 H 33.00449 l -0.31823,-2.533514 h 0.565702 z"
     style="clip-rule:evenodd;fill:#ffffff;fill-rule:nonzero;stroke-width:0.352023;stroke-linecap:square;stroke-linejoin:round;stroke-miterlimit:1.5"
     id="path71" /><path
     d="m 36.715518,100.75566 -0.09646,0.45552 h -1.919934 l 0.537891,-2.533514 h 1.858331 l -0.09646,0.448477 h -1.340505 l -0.113703,0.538244 h 1.231025 l -0.09469,0.440033 H 35.45034 l -0.137641,0.65124 z"
     style="clip-rule:evenodd;fill:#ffffff;fill-rule:nonzero;stroke-width:0.352023;stroke-linecap:square;stroke-linejoin:round;stroke-miterlimit:1.5"
     id="path72" /><path
     d="m 38.09897,98.677666 -0.441789,2.077994 h 1.254962 l -0.09646,0.45552 H 37.03163 l 0.537891,-2.533514 z"
     style="clip-rule:evenodd;fill:#ffffff;fill-rule:nonzero;stroke-width:0.352023;stroke-linecap:square;stroke-linejoin:round;stroke-miterlimit:1.5"
     id="path73" /><path
     d="m 41.624483,98.895921 c 0.206286,0.232686 0.260145,0.580837 0.161579,1.045156 -0.09751,0.454813 -0.299573,0.803313 -0.606889,1.045153 -0.232687,0.19678 -0.529795,0.29535 -0.892026,0.29535 -0.362233,0 -0.618154,-0.0986 -0.768468,-0.29535 -0.204877,-0.24184 -0.258736,-0.59034 -0.161577,-1.045153 0.09856,-0.464319 0.300978,-0.81247 0.606887,-1.045156 0.232688,-0.197134 0.530147,-0.2957 0.892026,-0.2957 0.362233,0 0.618154,0.09856 0.768468,0.2957 z m -0.862809,0.153129 c -0.209807,0 -0.393562,0.07709 -0.550917,0.231984 -0.157706,0.154538 -0.266833,0.374552 -0.327381,0.660043 -0.0609,0.285143 -0.04541,0.505153 0.04612,0.660043 0.09188,0.15454 0.242544,0.23198 0.45235,0.23198 0.209454,0 0.392505,-0.0774 0.549156,-0.23198 0.156299,-0.15489 0.264721,-0.3749 0.325621,-0.660043 0.0595,-0.284082 0.04436,-0.504097 -0.04541,-0.659339 -0.09011,-0.155242 -0.24008,-0.232688 -0.449534,-0.232688 z"
     style="clip-rule:evenodd;fill:#ffffff;fill-rule:nonzero;stroke-width:0.352023;stroke-linecap:square;stroke-linejoin:round;stroke-miterlimit:1.5"
     id="path74" /><path
     d="m 44.140744,98.873743 c 0.122857,0.1306 0.155243,0.332662 0.09822,0.606536 -0.06442,0.29922 -0.185164,0.510434 -0.362935,0.634341 -0.17742,0.12391 -0.406587,0.18552 -0.687501,0.18552 h -0.537893 l -0.192556,0.91104 h -0.525924 l 0.537891,-2.533514 h 1.103594 c 0.254511,0 0.443549,0.06547 0.567108,0.196077 z m -0.745937,0.243952 h -0.493184 l -0.158059,0.745937 h 0.493184 c 0.124973,0 0.228464,-0.03027 0.311189,-0.09118 0.08237,-0.06055 0.13729,-0.157002 0.1651,-0.288659 0.02851,-0.131651 0.01373,-0.225647 -0.044,-0.281971 -0.05773,-0.05597 -0.149259,-0.08413 -0.274227,-0.08413 z"
     style="clip-rule:evenodd;fill:#ffffff;fill-rule:nonzero;stroke-width:0.352023;stroke-linecap:square;stroke-linejoin:round;stroke-miterlimit:1.5"
     id="path75" /><path
     d="m 46.299703,100.75566 -0.0961,0.45552 h -1.919935 l 0.537892,-2.533514 h 1.857978 l -0.0961,0.448477 H 45.24258 l -0.113357,0.538244 h 1.230674 l -0.09434,0.440033 h -1.231025 l -0.137288,0.65124 z"
     style="clip-rule:evenodd;fill:#ffffff;fill-rule:nonzero;stroke-width:0.352023;stroke-linecap:square;stroke-linejoin:round;stroke-miterlimit:1.5"
     id="path76" /><path
     d="m 47.803899,99.664387 0.413979,0.104908 c 0.181292,0.04577 0.312244,0.107011 0.393913,0.183756 0.126023,0.119329 0.164747,0.291479 0.11687,0.517479 -0.04928,0.23127 -0.178828,0.42348 -0.388634,0.57661 -0.209806,0.15313 -0.475936,0.22952 -0.799092,0.22952 -0.330198,0 -0.573799,-0.0753 -0.730801,-0.226 -0.157002,-0.15067 -0.207342,-0.35801 -0.151017,-0.62132 h 0.505153 c -0.0081,0.11546 0.0053,0.20206 0.03978,0.25944 0.06406,0.1042 0.2003,0.1563 0.40905,0.1563 0.124613,0 0.229168,-0.0137 0.312597,-0.0412 0.159467,-0.0528 0.253809,-0.15067 0.283732,-0.29394 0.01831,-0.0838 -0.0045,-0.1482 -0.06864,-0.19432 -0.06301,-0.0447 -0.169675,-0.0841 -0.319989,-0.11863 l -0.255922,-0.0602 c -0.250991,-0.0595 -0.419258,-0.12426 -0.505504,-0.193963 -0.145386,-0.116869 -0.191853,-0.299923 -0.13905,-0.548451 0.04823,-0.226703 0.170731,-0.415388 0.367865,-0.565349 0.197133,-0.150314 0.455518,-0.225296 0.775154,-0.225296 0.266835,0 0.479456,0.07075 0.637515,0.21227 0.15841,0.141514 0.213325,0.347095 0.165098,0.616394 h -0.508672 c 0.02394,-0.152427 -0.01901,-0.26085 -0.128844,-0.324918 -0.07358,-0.04259 -0.171435,-0.06372 -0.293939,-0.06372 -0.136585,0 -0.251346,0.02746 -0.344631,0.08237 -0.09364,0.05527 -0.150666,0.13201 -0.171084,0.230575 -0.01936,0.09047 0.0064,0.158059 0.07745,0.202765 0.04471,0.02956 0.147146,0.06477 0.307669,0.104909 z"
     style="clip-rule:evenodd;fill:#ffffff;fill-rule:nonzero;stroke-width:0.352023;stroke-linecap:square;stroke-linejoin:round;stroke-miterlimit:1.5"
     id="path77" /><path
     d="m 22.094938,71.544772 h 1.567559 l -0.04541,0.233743 H 22.97218 l -0.352023,1.819257 h -0.280563 l 0.35484,-1.819257 h -0.644906 z"
     style="clip-rule:evenodd;fill:#333333;fill-rule:nonzero;stroke-width:0.352023;stroke-linecap:square;stroke-linejoin:round;stroke-miterlimit:1.5"
     id="path78" /><path
     d="m 24.578462,72.628299 c 0.06583,0.01304 0.118639,0.04365 0.158762,0.09223 0.03978,0.04858 0.08449,0.154186 0.134122,0.316117 l 0.166155,0.561126 h -0.276339 l -0.145738,-0.518179 c -0.04049,-0.143274 -0.08554,-0.237264 -0.135528,-0.28197 -0.04999,-0.04506 -0.125318,-0.06759 -0.226,-0.06759 h -0.264017 l -0.169323,0.867738 h -0.279154 l 0.397433,-2.053 h 0.572038 c 0.189742,0 0.336886,0.04119 0.440734,0.123203 0.104204,0.08202 0.155946,0.197837 0.155946,0.347094 0,0.167915 -0.04717,0.306612 -0.142218,0.416796 -0.09469,0.109832 -0.223887,0.175307 -0.386873,0.196429 z m -0.403067,-0.855064 -0.140105,0.728688 h 0.30098 c 0.14961,0 0.268946,-0.03908 0.35836,-0.117574 0.08941,-0.0785 0.134121,-0.182701 0.134121,-0.312949 0,-0.102434 -0.02922,-0.178124 -0.08695,-0.225999 -0.05773,-0.04823 -0.148906,-0.07216 -0.273522,-0.07216 z"
     style="clip-rule:evenodd;fill:#333333;fill-rule:nonzero;stroke-width:0.352023;stroke-linecap:square;stroke-linejoin:round;stroke-miterlimit:1.5"
     id="path79" /><path
     d="m 25.696135,71.544772 h 1.141612 l -0.04541,0.233743 h -0.431933 l -0.306612,1.585513 h 0.431933 l -0.04541,0.233744 h -1.14161 l 0.04541,-0.233744 h 0.430524 l 0.308021,-1.585513 h -0.431933 z"
     style="clip-rule:evenodd;fill:#333333;fill-rule:nonzero;stroke-width:0.352023;stroke-linecap:square;stroke-linejoin:round;stroke-miterlimit:1.5"
     id="path80" /><path
     d="m 28.248304,73.465763 c -0.07956,0.05702 -0.166859,0.09963 -0.261201,0.128484 -0.09434,0.02887 -0.195373,0.04329 -0.302389,0.04329 -0.212621,0 -0.376312,-0.0616 -0.490367,-0.184812 -0.114049,-0.123202 -0.171084,-0.29922 -0.171084,-0.527331 0,-0.08237 0.0074,-0.170378 0.02253,-0.263313 0.01514,-0.09293 0.03732,-0.190445 0.06688,-0.292179 0.03204,-0.107369 0.0697,-0.204173 0.112652,-0.290771 0.04329,-0.0866 0.09047,-0.160875 0.141514,-0.222127 0.09822,-0.11933 0.206637,-0.207342 0.325269,-0.264018 0.118985,-0.05702 0.254161,-0.08519 0.406586,-0.08519 0.07322,0 0.146442,0.0094 0.219312,0.02887 0.07287,0.01901 0.144329,0.04717 0.215085,0.08378 l -0.05632,0.284786 c -0.0595,-0.05773 -0.122152,-0.101036 -0.187629,-0.129549 -0.06583,-0.02817 -0.135529,-0.04259 -0.209806,-0.04259 -0.08977,0 -0.17425,0.01901 -0.253104,0.05702 -0.07886,0.03837 -0.149257,0.09434 -0.211567,0.16862 -0.04049,0.04753 -0.0785,0.10737 -0.114408,0.178827 -0.03555,0.07146 -0.06724,0.151722 -0.09469,0.240432 -0.03133,0.104549 -0.05492,0.202765 -0.07076,0.294292 -0.01619,0.09188 -0.02429,0.174603 -0.02429,0.248879 0,0.157004 0.03626,0.277748 0.108781,0.363288 0.07251,0.08519 0.174955,0.12778 0.308019,0.12778 0.06231,0 0.11828,-0.0085 0.167564,-0.02535 0.04964,-0.01724 0.09152,-0.04154 0.125318,-0.07358 l 0.104549,-0.540708 h -0.298516 l 0.04119,-0.228111 h 0.563942 z"
     style="clip-rule:evenodd;fill:#333333;fill-rule:nonzero;stroke-width:0.352023;stroke-linecap:square;stroke-linejoin:round;stroke-miterlimit:1.5"
     id="path81" /><path
     d="m 29.944,73.465763 c -0.07991,0.05702 -0.166859,0.09963 -0.261202,0.128484 -0.09469,0.02887 -0.195372,0.04329 -0.302739,0.04329 -0.212623,0 -0.375961,-0.0616 -0.490016,-0.184812 -0.114408,-0.123202 -0.171435,-0.29922 -0.171435,-0.527331 0,-0.08237 0.0077,-0.170378 0.02288,-0.263313 0.01514,-0.09293 0.03731,-0.190445 0.06654,-0.292179 0.03204,-0.107369 0.0697,-0.204173 0.112998,-0.290771 0.04295,-0.0866 0.09011,-0.160875 0.141514,-0.222127 0.09822,-0.11933 0.206285,-0.207342 0.325269,-0.264018 0.118626,-0.05702 0.254161,-0.08519 0.406235,-0.08519 0.07322,0 0.146441,0.0094 0.21931,0.02887 0.07287,0.01901 0.144682,0.04717 0.215087,0.08378 l -0.05632,0.284786 c -0.05949,-0.05773 -0.122152,-0.101036 -0.187629,-0.129549 -0.06547,-0.02817 -0.135528,-0.04259 -0.209805,-0.04259 -0.08977,0 -0.173899,0.01901 -0.252753,0.05702 -0.07886,0.03837 -0.14961,0.09434 -0.211917,0.16862 -0.04049,0.04753 -0.0785,0.10737 -0.114063,0.178827 -0.03591,0.07146 -0.06759,0.151722 -0.09505,0.240432 -0.03097,0.104549 -0.05456,0.202765 -0.07075,0.294292 -0.01619,0.09188 -0.02394,0.174603 -0.02394,0.248879 0,0.157004 0.03626,0.277748 0.108421,0.363288 0.07251,0.08519 0.175307,0.12778 0.30802,0.12778 0.06231,0 0.11828,-0.0085 0.167916,-0.02535 0.04928,-0.01724 0.09118,-0.04154 0.124972,-0.07358 l 0.10455,-0.540708 h -0.298164 l 0.04119,-0.228111 h 0.563589 z"
     style="clip-rule:evenodd;fill:#333333;fill-rule:nonzero;stroke-width:0.352023;stroke-linecap:square;stroke-linejoin:round;stroke-miterlimit:1.5"
     id="path82" /><path
     d="m 30.780056,71.544772 h 1.216943 l -0.04541,0.233743 h -0.940607 l -0.11828,0.607944 h 0.898012 l -0.044,0.233744 h -0.899421 l -0.142921,0.743825 h 0.965248 l -0.04541,0.233744 h -1.244404 z"
     style="clip-rule:evenodd;fill:#333333;fill-rule:nonzero;stroke-width:0.352023;stroke-linecap:square;stroke-linejoin:round;stroke-miterlimit:1.5"
     id="path83" /><path
     d="m 33.055885,72.628299 c 0.06583,0.01304 0.118985,0.04365 0.158763,0.09223 0.03978,0.04858 0.08449,0.154186 0.13412,0.316117 l 0.166156,0.561126 h -0.276338 l -0.145738,-0.518179 c -0.04013,-0.143274 -0.08554,-0.237264 -0.135529,-0.28197 -0.04999,-0.04506 -0.125318,-0.06759 -0.225999,-0.06759 h -0.264017 l -0.169324,0.867738 h -0.279155 l 0.397435,-2.053 h 0.572038 c 0.18974,0 0.336886,0.04119 0.440733,0.123203 0.104203,0.08202 0.156298,0.197837 0.156298,0.347094 0,0.167915 -0.04753,0.306612 -0.142569,0.416796 -0.09469,0.109832 -0.223887,0.175307 -0.386874,0.196429 z m -0.403066,-0.855064 -0.140105,0.728688 h 0.30098 c 0.14961,0 0.268945,-0.03908 0.358358,-0.117574 0.08942,-0.0785 0.134122,-0.182701 0.134122,-0.312949 0,-0.102434 -0.02887,-0.178124 -0.08695,-0.225999 -0.05773,-0.04823 -0.148906,-0.07216 -0.273523,-0.07216 z"
     style="clip-rule:evenodd;fill:#333333;fill-rule:nonzero;stroke-width:0.352023;stroke-linecap:square;stroke-linejoin:round;stroke-miterlimit:1.5"
     id="path84" /><path
     d="m 33.719801,73.858972 1.171533,-2.3142 h 0.262962 l -1.17435,2.3142 z"
     style="clip-rule:evenodd;fill:#333333;fill-rule:nonzero;stroke-width:0.352023;stroke-linecap:square;stroke-linejoin:round;stroke-miterlimit:1.5"
     id="path85" /><path
     d="m 36.725727,73.465763 c -0.07956,0.05702 -0.166858,0.09963 -0.261201,0.128484 -0.09434,0.02887 -0.195021,0.04329 -0.302388,0.04329 -0.212622,0 -0.376312,-0.0616 -0.490368,-0.184812 -0.114049,-0.123202 -0.171084,-0.29922 -0.171084,-0.527331 0,-0.08237 0.0075,-0.170378 0.02253,-0.263313 0.01514,-0.09293 0.03767,-0.190445 0.06688,-0.292179 0.03204,-0.107369 0.0697,-0.204173 0.112652,-0.290771 0.04329,-0.0866 0.09047,-0.160875 0.141512,-0.222127 0.09822,-0.11933 0.206639,-0.207342 0.32527,-0.264018 0.118985,-0.05702 0.254162,-0.08519 0.406587,-0.08519 0.07322,0 0.146442,0.0094 0.219311,0.02887 0.07287,0.01901 0.144329,0.04717 0.215086,0.08378 l -0.05632,0.284786 c -0.0595,-0.05773 -0.122152,-0.101036 -0.187629,-0.129549 -0.06583,-0.02817 -0.135529,-0.04259 -0.209806,-0.04259 -0.08977,0 -0.174252,0.01901 -0.253104,0.05702 -0.07886,0.03837 -0.149259,0.09434 -0.211567,0.16862 -0.04049,0.04753 -0.0785,0.10737 -0.114408,0.178827 -0.03555,0.07146 -0.06724,0.151722 -0.09469,0.240432 -0.03133,0.104549 -0.05492,0.202765 -0.07075,0.294292 -0.01619,0.09188 -0.0243,0.174603 -0.0243,0.248879 0,0.157004 0.03626,0.277748 0.10878,0.363288 0.07251,0.08519 0.174956,0.12778 0.308021,0.12778 0.06231,0 0.11828,-0.0085 0.167562,-0.02535 0.04964,-0.01724 0.09152,-0.04154 0.125318,-0.07358 l 0.10455,-0.540708 h -0.298515 l 0.04119,-0.228111 h 0.56394 z"
     style="clip-rule:evenodd;fill:#333333;fill-rule:nonzero;stroke-width:0.352023;stroke-linecap:square;stroke-linejoin:round;stroke-miterlimit:1.5"
     id="path86" /><path
     d="m 38.099674,71.775699 -0.500577,1.064518 h 0.591399 z m -0.13201,-0.230927 h 0.338295 l 0.228111,2.053 h -0.276339 l -0.04823,-0.534725 h -0.714959 l -0.253104,0.534725 h -0.298164 z"
     style="clip-rule:evenodd;fill:#333333;fill-rule:nonzero;stroke-width:0.352023;stroke-linecap:square;stroke-linejoin:round;stroke-miterlimit:1.5"
     id="path87" /><path
     d="m 39.049784,71.544772 h 1.56756 l -0.04541,0.233743 h -0.644908 l -0.352023,1.819257 H 39.29444 l 0.35484,-1.819257 h -0.644907 z"
     style="clip-rule:evenodd;fill:#333333;fill-rule:nonzero;stroke-width:0.352023;stroke-linecap:square;stroke-linejoin:round;stroke-miterlimit:1.5"
     id="path88" /><path
     d="m 40.952823,71.544772 h 1.216943 l -0.04541,0.233743 h -0.940608 l -0.117934,0.607944 h 0.89766 l -0.044,0.233744 h -0.899068 l -0.143274,0.743825 h 0.9656 l -0.04541,0.233744 h -1.244753 z"
     style="clip-rule:evenodd;fill:#333333;fill-rule:nonzero;stroke-width:0.352023;stroke-linecap:square;stroke-linejoin:round;stroke-miterlimit:1.5"
     id="path89" /><path
     d="m 44.346679,71.544772 h 1.141259 l -0.04541,0.233743 h -0.431581 l -0.306964,1.585513 h 0.431932 l -0.04541,0.233744 h -1.141259 l 0.04541,-0.233744 h 0.430172 l 0.308022,-1.585513 h -0.431582 z"
     style="clip-rule:evenodd;fill:#333333;fill-rule:nonzero;stroke-width:0.352023;stroke-linecap:square;stroke-linejoin:round;stroke-miterlimit:1.5"
     id="path90" /><path
     d="m 45.95824,71.544772 h 0.352023 l 0.362937,1.690063 0.32879,-1.690063 h 0.268241 l -0.40025,2.053 h -0.352023 l -0.362937,-1.690064 -0.330197,1.690064 H 45.55799 Z"
     style="clip-rule:evenodd;fill:#333333;fill-rule:nonzero;stroke-width:0.352023;stroke-linecap:square;stroke-linejoin:round;stroke-miterlimit:1.5"
     id="path91" /><path
     d="m 47.965829,71.773235 -0.149962,0.771282 h 0.32175 c 0.151369,0 0.272113,-0.04365 0.362583,-0.131305 0.09011,-0.08765 0.135177,-0.204174 0.135177,-0.349911 0,-0.09892 -0.02817,-0.172139 -0.08519,-0.219311 -0.05668,-0.04717 -0.144682,-0.07076 -0.264017,-0.07076 z m -0.233743,-0.228463 h 0.605127 c 0.188685,0 0.332663,0.04224 0.43158,0.126729 0.09927,0.08414 0.148555,0.205933 0.148555,0.365752 0,0.228111 -0.07322,0.407642 -0.220015,0.538947 -0.146442,0.13096 -0.348151,0.196429 -0.605128,0.196429 h -0.320341 l -0.160874,0.825143 h -0.279155 z"
     style="clip-rule:evenodd;fill:#333333;fill-rule:nonzero;stroke-width:0.352023;stroke-linecap:square;stroke-linejoin:round;stroke-miterlimit:1.5"
     id="path92" /><path
     d="m 49.115537,72.809943 0.244655,-1.265171 h 0.279155 l -0.246064,1.265171 c -0.0017,0.01197 -0.0056,0.03063 -0.01091,0.05632 -0.02781,0.141162 -0.04154,0.238673 -0.04154,0.292885 0,0.08449 0.025,0.147497 0.07499,0.18974 0.04999,0.04224 0.125318,0.06337 0.226351,0.06337 0.08167,0 0.150665,-0.01304 0.207693,-0.03908 0.05668,-0.0264 0.105601,-0.06793 0.147146,-0.124613 0.02006,-0.02851 0.04049,-0.07709 0.0609,-0.146442 0.02077,-0.06934 0.04329,-0.166507 0.06829,-0.292179 l 0.244656,-1.265171 h 0.279155 l -0.244657,1.265171 c -0.03872,0.200654 -0.07956,0.348151 -0.123203,0.442142 -0.04365,0.09399 -0.101037,0.169675 -0.172491,0.227407 -0.06513,0.0514 -0.139402,0.09047 -0.222831,0.117575 -0.08343,0.0271 -0.173547,0.04049 -0.270705,0.04049 -0.176012,0 -0.311541,-0.04119 -0.406587,-0.123562 -0.09469,-0.08237 -0.142218,-0.19995 -0.142218,-0.352024 0,-0.03379 0.0039,-0.07991 0.01158,-0.137641 0.0077,-0.05773 0.02006,-0.129189 0.03661,-0.214381 z"
     style="clip-rule:evenodd;fill:#333333;fill-rule:nonzero;stroke-width:0.352023;stroke-linecap:square;stroke-linejoin:round;stroke-miterlimit:1.5"
     id="path93" /><path
     d="m 50.918247,71.544772 h 1.56756 l -0.04541,0.233743 H 51.79549 l -0.352023,1.819257 h -0.280563 l 0.35484,-1.819257 h -0.644907 z"
     style="clip-rule:evenodd;fill:#333333;fill-rule:nonzero;stroke-width:0.352023;stroke-linecap:square;stroke-linejoin:round;stroke-miterlimit:1.5"
     id="path94" /><path
     d="m 53.925583,71.614825 -0.05386,0.28197 c -0.07428,-0.05386 -0.151018,-0.09469 -0.230927,-0.122151 -0.07956,-0.02781 -0.162282,-0.04154 -0.247472,-0.04154 -0.15137,0 -0.274578,0.03767 -0.369976,0.112998 -0.0954,0.07499 -0.142922,0.170731 -0.142922,0.287251 0,0.06513 0.02252,0.117934 0.06724,0.158058 0.04506,0.04049 0.126728,0.07886 0.245008,0.11546 l 0.166154,0.05386 c 0.14961,0.04577 0.258738,0.107011 0.328086,0.183405 0.06934,0.07674 0.103845,0.173899 0.103845,0.292179 0,0.215438 -0.07604,0.386169 -0.228111,0.512194 -0.152426,0.126023 -0.360119,0.189036 -0.623081,0.189036 -0.09539,0 -0.189036,-0.01025 -0.281266,-0.03063 -0.09223,-0.02077 -0.184108,-0.05174 -0.275635,-0.09293 l 0.05632,-0.287251 c 0.08977,0.06301 0.180941,0.109831 0.273171,0.140105 0.09188,0.03027 0.189389,0.04541 0.292179,0.04541 0.151018,0 0.273874,-0.04049 0.368216,-0.121101 0.09469,-0.08061 0.141865,-0.182699 0.141865,-0.306612 0,-0.07533 -0.02006,-0.133417 -0.06055,-0.174603 -0.04049,-0.04119 -0.121446,-0.08061 -0.243248,-0.11828 l -0.139049,-0.04541 c -0.168619,-0.05315 -0.286547,-0.113357 -0.354135,-0.18094 -0.06724,-0.06723 -0.101037,-0.156299 -0.101037,-0.267186 0,-0.202766 0.07569,-0.368569 0.227056,-0.497056 0.151018,-0.128844 0.348502,-0.193262 0.592454,-0.193262 0.07322,0 0.15137,0.0092 0.234448,0.02746 0.08308,0.01831 0.167915,0.0447 0.255217,0.07956 z"
     style="clip-rule:evenodd;fill:#333333;fill-rule:nonzero;stroke-width:0.352023;stroke-linecap:square;stroke-linejoin:round;stroke-miterlimit:1.5"
     id="path95" /><path
     d="m 33.516684,119.89375 0.09082,-0.42277 h 1.055717 l -0.28901,1.35951 h -0.350615 l 0.01373,-0.31612 c -0.128139,0.12041 -0.23832,0.20522 -0.329845,0.25452 -0.158411,0.0858 -0.339352,0.12879 -0.543172,0.12879 -0.335831,0 -0.58612,-0.11655 -0.751218,-0.34885 -0.173195,-0.2341 -0.216494,-0.55374 -0.1306,-0.95927 0.08695,-0.4101 0.26965,-0.73924 0.548101,-0.98672 0.27845,-0.24747 0.603367,-0.37103 0.974752,-0.37103 0.322102,0 0.563237,0.0813 0.72376,0.24466 0.160171,0.16334 0.229167,0.36716 0.206285,0.61112 h -0.520993 c -0.0035,-0.17285 -0.07569,-0.29395 -0.216495,-0.3626 -0.0792,-0.038 -0.171788,-0.0567 -0.27845,-0.0567 -0.204174,0 -0.38793,0.077 -0.551973,0.23092 -0.16369,0.15419 -0.278802,0.38617 -0.345334,0.6956 -0.06547,0.31155 -0.04083,0.53226 0.07322,0.66145 0.113703,0.12959 0.261553,0.19432 0.442493,0.19432 0.17742,0 0.334422,-0.0511 0.469951,-0.15383 0.135881,-0.10245 0.234096,-0.23692 0.294996,-0.40307 z"
     style="clip-rule:evenodd;fill:#ffffff;fill-rule:nonzero;stroke-width:0.352023;stroke-linecap:square;stroke-linejoin:round;stroke-miterlimit:1.5"
     id="path96" /><path
     d="m 36.741217,118.29697 0.359063,2.53352 h -0.573798 l -0.05351,-0.52064 h -0.933213 l -0.28549,0.52064 h -0.553381 l 1.442239,-2.53352 z m -0.428061,0.57944 -0.537891,0.99693 h 0.642794 z"
     style="clip-rule:evenodd;fill:#ffffff;fill-rule:nonzero;stroke-width:0.352023;stroke-linecap:square;stroke-linejoin:round;stroke-miterlimit:1.5"
     id="path97" /><path
     d="m 37.652252,118.74545 0.0961,-0.44848 h 2.052295 l -0.0961,0.44848 H 38.94664 l -0.441789,2.08504 h -0.532963 l 0.441789,-2.08504 z"
     style="clip-rule:evenodd;fill:#ffffff;fill-rule:nonzero;stroke-width:0.352023;stroke-linecap:square;stroke-linejoin:round;stroke-miterlimit:1.5"
     id="path98" /><path
     d="m 41.603713,120.37497 -0.0961,0.45552 h -1.919934 l 0.537891,-2.53352 h 1.857979 l -0.0961,0.44848 H 40.54659 l -0.113357,0.53825 h 1.230673 l -0.09435,0.44003 h -1.230674 l -0.137641,0.65124 z"
     style="clip-rule:evenodd;fill:#ffffff;fill-rule:nonzero;stroke-width:0.352023;stroke-linecap:square;stroke-linejoin:round;stroke-miterlimit:1.5"
     id="path99" /><path
     d="m 43.107909,119.2837 0.414331,0.10484 c 0.180939,0.0458 0.312245,0.10697 0.393562,0.18377 0.126023,0.11934 0.164747,0.29182 0.11687,0.51746 -0.04928,0.23129 -0.178828,0.42349 -0.388634,0.57662 -0.209454,0.15314 -0.475934,0.22952 -0.799092,0.22952 -0.330198,0 -0.573799,-0.0753 -0.730448,-0.226 -0.157002,-0.15066 -0.207694,-0.358 -0.15137,-0.62132 h 0.505154 c -0.0077,0.11549 0.0053,0.20206 0.03978,0.25945 0.06406,0.10417 0.200301,0.15629 0.409051,0.15629 0.124972,0 0.229167,-0.0137 0.312596,-0.0413 0.159467,-0.0528 0.254161,-0.15066 0.283731,-0.29393 0.01831,-0.0838 -0.0045,-0.1482 -0.06864,-0.19431 -0.06301,-0.0447 -0.169675,-0.0841 -0.319636,-0.11868 l -0.256273,-0.0599 c -0.250993,-0.0599 -0.41926,-0.12467 -0.505153,-0.19432 -0.145739,-0.11682 -0.192206,-0.29957 -0.139402,-0.54845 0.04823,-0.2267 0.170732,-0.41539 0.367864,-0.56535 0.197133,-0.1503 0.455518,-0.22529 0.775156,-0.22529 0.267186,0 0.479455,0.0708 0.637866,0.21226 0.158058,0.14153 0.212974,0.3471 0.164747,0.6164 h -0.508674 c 0.02394,-0.15243 -0.01901,-0.26085 -0.128844,-0.32491 -0.07322,-0.0426 -0.171435,-0.0637 -0.293939,-0.0637 -0.136232,0 -0.251344,0.0274 -0.344631,0.0824 -0.09328,0.0552 -0.150313,0.13199 -0.171082,0.23058 -0.01936,0.0905 0.0064,0.15806 0.07745,0.20276 0.0447,0.0299 0.147146,0.0648 0.307669,0.10498 z"
     style="clip-rule:evenodd;fill:#ffffff;fill-rule:nonzero;stroke-width:0.352023;stroke-linecap:square;stroke-linejoin:round;stroke-miterlimit:1.5"
     id="path100" /><g
     id="g3"
     transform="translate(0.54176308,-2.1670523)"><path
       d="m 16.943782,5.6625695 h 2.433889 l -0.09082,0.4674859 H 17.405639 L 17.16908,7.3459439 h 1.796022 l -0.088,0.4674873 H 17.078263 L 16.79242,9.3010811 h 1.930495 l -0.09047,0.4674873 h -2.489156 z"
       style="clip-rule:evenodd;fill:#333333;fill-rule:nonzero;stroke-width:0.352023;stroke-linecap:square;stroke-linejoin:round;stroke-miterlimit:1.5"
       id="path101" /><path
       d="m 19.890921,5.6625695 h 0.704046 l 0.725872,3.3801268 0.657227,-3.3801268 h 0.536484 l -0.8005,4.1059989 H 21.010003 L 20.284131,6.3887928 19.624087,9.7685684 H 19.09042 Z"
       style="clip-rule:evenodd;fill:#333333;fill-rule:nonzero;stroke-width:0.352023;stroke-linecap:square;stroke-linejoin:round;stroke-miterlimit:1.5"
       id="path102" /><path
       d="m 23.618847,9.2461655 1.644652,-3.583596 h 0.591399 L 23.877584,9.7685684 H 23.167905 L 22.763431,5.6625695 h 0.544579 z"
       style="clip-rule:evenodd;fill:#333333;fill-rule:nonzero;stroke-width:0.352023;stroke-linecap:square;stroke-linejoin:round;stroke-miterlimit:1.5"
       id="path103" /><path
       d="m 26.271694,5.6625695 h 2.433888 l -0.09082,0.4674859 h -1.88086 l -0.23656,1.2158885 h 1.79567 l -0.088,0.4674873 H 26.406524 L 26.12033,9.3010811 h 1.930848 l -0.09082,0.4674873 h -2.488804 z"
       style="clip-rule:evenodd;fill:#333333;fill-rule:nonzero;stroke-width:0.352023;stroke-linecap:square;stroke-linejoin:round;stroke-miterlimit:1.5"
       id="path104" /><path
       d="m 29.449759,5.6625695 h 0.555493 l -0.709327,3.6385116 h 1.982947 l -0.09082,0.4674873 h -2.53844 z"
       style="clip-rule:evenodd;fill:#333333;fill-rule:nonzero;stroke-width:0.352023;stroke-linecap:square;stroke-linejoin:round;stroke-miterlimit:1.5"
       id="path105" /><path
       d="m 32.924933,9.3975357 c 0.155945,0 0.299924,-0.04682 0.431933,-0.1404576 0.13201,-0.093293 0.241135,-0.2274072 0.327029,-0.4013065 0.135881,-0.2661296 0.245712,-0.5878786 0.330198,-0.9655996 0.08413,-0.3773685 0.126382,-0.7406564 0.126382,-1.0888075 0,-0.2604976 -0.04823,-0.4523504 -0.144329,-0.5762621 -0.0961,-0.1239078 -0.245361,-0.1855171 -0.446717,-0.1855171 -0.155947,0 -0.298868,0.046474 -0.429116,0.1401064 -0.130255,0.093639 -0.23832,0.2274059 -0.324566,0.4016577 -0.139401,0.2692975 -0.251345,0.5910478 -0.335478,0.9652484 -0.08449,0.373848 -0.126729,0.7350245 -0.126729,1.0835268 0,0.2622579 0.04823,0.4555183 0.144682,0.5801338 0.0961,0.1249722 0.245008,0.1872773 0.446717,0.1872773 z M 34.70969,6.9636473 c 0,0.201709 -0.02041,0.4206677 -0.0616,0.6572273 -0.04154,0.2365596 -0.101383,0.4794549 -0.180235,0.7286874 -0.05315,0.1686199 -0.110537,0.3199888 -0.171788,0.453758 -0.0616,0.1337693 -0.128139,0.2548644 -0.199598,0.3629368 -0.161226,0.2330391 -0.341814,0.4048256 -0.541762,0.5157132 -0.199951,0.1108823 -0.432637,0.1665071 -0.698415,0.1665071 -0.368569,0 -0.641738,-0.1126519 -0.819511,-0.3382949 -0.178123,-0.2256456 -0.266833,-0.5730929 -0.266833,-1.0423404 0,-0.2034692 0.01972,-0.4220753 0.05914,-0.6558196 0.03942,-0.233743 0.09856,-0.4752307 0.17742,-0.7248157 0.05315,-0.1686186 0.110536,-0.3199888 0.171787,-0.4537581 0.06126,-0.1337679 0.12778,-0.2548644 0.199245,-0.3629354 0.161579,-0.2330391 0.342167,-0.4048269 0.541764,-0.5157146 0.199949,-0.1108823 0.432988,-0.1665057 0.698767,-0.1665057 0.370327,0 0.644905,0.1122926 0.823734,0.3368859 0.178475,0.2245906 0.267889,0.5709814 0.267889,1.0384687 z"
       style="clip-rule:evenodd;fill:#333333;fill-rule:nonzero;stroke-width:0.352023;stroke-linecap:square;stroke-linejoin:round;stroke-miterlimit:1.5"
       id="path106" /><path
       d="M 36.061812,6.1191428 35.761888,7.662061 h 0.64385 c 0.302388,0 0.543876,-0.087652 0.724464,-0.2626092 0.180588,-0.1749556 0.271059,-0.4083473 0.271059,-0.6998226 0,-0.1981885 -0.05702,-0.344278 -0.170732,-0.4386211 -0.113703,-0.09469 -0.289715,-0.1418653 -0.528035,-0.1418653 z M 35.594324,5.6625695 h 1.209904 c 0.377721,0 0.665676,0.084485 0.863866,0.2531041 0.197837,0.1686186 0.296755,0.4125717 0.296755,0.7315041 0,0.4565746 -0.146441,0.8159896 -0.440029,1.0782474 -0.293236,0.2622579 -0.696654,0.3932105 -1.209904,0.3932105 h -0.641034 l -0.321749,1.6499328 h -0.558309 z"
       style="clip-rule:evenodd;fill:#333333;fill-rule:nonzero;stroke-width:0.352023;stroke-linecap:square;stroke-linejoin:round;stroke-miterlimit:1.5"
       id="path107" /><path
       d="m 38.709027,5.6625695 h 2.433888 l -0.09047,0.4674859 h -1.881211 l -0.23656,1.2158885 h 1.796022 l -0.088,0.4674873 h -1.798839 l -0.285843,1.4876499 h 1.930495 l -0.09082,0.4674873 h -2.488804 z"
       style="clip-rule:evenodd;fill:#333333;fill-rule:nonzero;stroke-width:0.352023;stroke-linecap:square;stroke-linejoin:round;stroke-miterlimit:1.5"
       id="path108" /><path
       d="M 46.0033,6.1247761 45.002146,8.25346 h 1.182445 z M 45.739282,5.6625695 h 0.676588 l 0.456222,4.1059989 h -0.552675 l -0.0961,-1.0697989 h -1.43027 L 44.28719,9.7685684 h -0.597031 z"
       style="clip-rule:evenodd;fill:#333333;fill-rule:nonzero;stroke-width:0.352023;stroke-linecap:square;stroke-linejoin:round;stroke-miterlimit:1.5"
       id="path109" /><path
       d="m 49.197911,7.8299757 c 0.13201,0.025692 0.237615,0.086947 0.317525,0.184108 0.07991,0.097152 0.168971,0.3080211 0.268241,0.6325868 l 0.332661,1.1218979 H 49.563663 L 49.272188,8.7318599 C 49.191215,8.4460166 49.101104,8.2580368 49.001129,8.1682706 48.901156,8.0781571 48.750489,8.0334449 48.54878,8.0334449 H 48.020745 L 47.68245,9.7685684 h -0.558309 l 0.794868,-4.1059989 h 1.144076 c 0.379481,0 0.673421,0.082024 0.881467,0.2464158 0.208046,0.164043 0.311893,0.395322 0.311893,0.6941893 0,0.3354783 -0.09469,0.6132243 -0.284436,0.8332394 -0.18974,0.220015 -0.447774,0.3513189 -0.774098,0.3935617 z M 48.392129,6.1191428 48.111566,7.5768716 h 0.602312 c 0.298868,0 0.537539,-0.078498 0.716368,-0.235152 0.178828,-0.1566496 0.268241,-0.3653995 0.268241,-0.6255445 0,-0.205582 -0.05809,-0.3562484 -0.173548,-0.452703 C 49.40948,6.1673714 49.227128,6.1191428 48.977896,6.1191428 Z"
       style="clip-rule:evenodd;fill:#333333;fill-rule:nonzero;stroke-width:0.352023;stroke-linecap:square;stroke-linejoin:round;stroke-miterlimit:1.5"
       id="path110" /><path
       d="m 52.30698,7.8299757 c 0.13201,0.025692 0.237967,0.086947 0.317876,0.184108 0.07956,0.097152 0.168971,0.3080211 0.268242,0.6325868 L 53.22576,9.7685684 H 52.673083 L 52.381257,8.7318599 C 52.300643,8.4460166 52.210525,8.2580368 52.11055,8.1682706 52.010578,8.0781571 51.85991,8.0334449 51.6582,8.0334449 h -0.528035 l -0.338293,1.7351235 h -0.558309 l 0.794868,-4.1059989 h 1.144076 c 0.379481,0 0.673068,0.082024 0.881465,0.2464158 0.208046,0.164043 0.311893,0.395322 0.311893,0.6941893 0,0.3354783 -0.09469,0.6132243 -0.284434,0.8332394 -0.189742,0.220015 -0.447774,0.3513189 -0.774451,0.3935617 z m -0.805782,-1.7108329 -0.28021,1.4577288 h 0.601959 c 0.298869,0 0.537892,-0.078498 0.71672,-0.235152 0.178476,-0.1566496 0.267889,-0.3653995 0.267889,-0.6255445 0,-0.205582 -0.05773,-0.3562484 -0.173195,-0.452703 C 52.518902,6.1673714 52.33655,6.1191428 52.086965,6.1191428 Z"
       style="clip-rule:evenodd;fill:#333333;fill-rule:nonzero;stroke-width:0.352023;stroke-linecap:square;stroke-linejoin:round;stroke-miterlimit:1.5"
       id="path111" /><path
       d="M 55.331211,6.1247761 54.330057,8.25346 h 1.182798 z M 55.067193,5.6625695 h 0.67659 l 0.456573,4.1059989 h -0.552677 l -0.09646,-1.0697989 h -1.429917 l -0.50621,1.0697989 h -0.59668 z"
       style="clip-rule:evenodd;fill:#333333;fill-rule:nonzero;stroke-width:0.352023;stroke-linecap:square;stroke-linejoin:round;stroke-miterlimit:1.5"
       id="path112" /><path
       d="m 56.955446,5.6625695 h 0.555493 l 0.649131,1.790389 1.366906,-1.790389 h 0.599495 l -1.746387,2.2635082 -0.35484,1.8424907 h -0.569221 l 0.36012,-1.8424907 z"
       style="clip-rule:evenodd;fill:#333333;fill-rule:nonzero;stroke-width:0.352023;stroke-linecap:square;stroke-linejoin:round;stroke-miterlimit:1.5"
       id="path113" /></g><path
     d="M 6.934701,34.870911 5.5265786,36.834937"
     style="clip-rule:evenodd;fill:none;fill-rule:evenodd;stroke:#000000;stroke-width:0.244573px;stroke-linecap:square;stroke-linejoin:round;stroke-miterlimit:1.5"
     id="path114" /><path
     d="m 60.957566,34.870911 -1.408123,1.964026"
     style="clip-rule:evenodd;fill:none;fill-rule:evenodd;stroke:#000000;stroke-width:0.244573px;stroke-linecap:square;stroke-linejoin:round;stroke-miterlimit:1.5"
     id="path115" /></g><g
   id="g1"
   inkscape:label="components"
   style="display:none"><circle
     id="SLANT"
     cx="29.337347"
     cy="22.513985"
     r="5.2803483"
     style="clip-rule:evenodd;fill:#ff0000;fill-rule:evenodd;stroke-width:0.352023;stroke-linecap:square;stroke-linejoin:round;stroke-miterlimit:1.5" /><ellipse
     id="SLANT1"
     serif:id="SLANT"
     cx="29.337347"
     cy="55.194412"
     rx="4.0264416"
     ry="3.992295"
     style="clip-rule:evenodd;fill:#00ff00;fill-rule:evenodd;stroke-width:0.352023;stroke-linecap:square;stroke-linejoin:round;stroke-miterlimit:1.5" /><ellipse
     id="SLANT_ATTEN"
     cx="29.337347"
     cy="41.794651"
     rx="4.0264416"
     ry="3.992295"
     style="clip-rule:evenodd;fill:#ff0000;fill-rule:evenodd;stroke-width:0.352023;stroke-linecap:square;stroke-linejoin:round;stroke-miterlimit:1.5" /><circle
     id="CURVE"
     cx="47.524979"
     cy="22.513985"
     r="5.2803483"
     style="clip-rule:evenodd;fill:#ff0000;fill-rule:evenodd;stroke-width:0.352023;stroke-linecap:square;stroke-linejoin:round;stroke-miterlimit:1.5" /><ellipse
     id="CURVE1"
     serif:id="CURVE"
     cx="47.524979"
     cy="55.194412"
     rx="4.0264416"
     ry="3.992295"
     style="clip-rule:evenodd;fill:#00ff00;fill-rule:evenodd;stroke-width:0.352023;stroke-linecap:square;stroke-linejoin:round;stroke-miterlimit:1.5"
     inkscape:label="CURVE" /><ellipse
     id="CURVE_ATTEN"
     cx="47.524979"
     cy="41.794651"
     rx="4.0264416"
     ry="3.992295"
     style="clip-rule:evenodd;fill:#ff0000;fill-rule:evenodd;stroke-width:0.352023;stroke-linecap:square;stroke-linejoin:round;stroke-miterlimit:1.5" /><circle
     id="TIME6"
     cx="65.322571"
     cy="26.738264"
     r="5.2803483"
     style="clip-rule:evenodd;fill:#ff0000;fill-rule:evenodd;stroke-width:0.352023;stroke-linecap:square;stroke-linejoin:round;stroke-miterlimit:1.5" /><ellipse
     id="TIME61"
     serif:id="TIME6"
     cx="65.322571"
     cy="58.714642"
     rx="4.0264416"
     ry="3.992295"
     style="clip-rule:evenodd;fill:#00ff00;fill-rule:evenodd;stroke-width:0.352023;stroke-linecap:square;stroke-linejoin:round;stroke-miterlimit:1.5" /><ellipse
     id="TIME6_ATTEN"
     cx="65.322571"
     cy="45.31488"
     rx="4.0264416"
     ry="3.992295"
     style="clip-rule:evenodd;fill:#ff0000;fill-rule:evenodd;stroke-width:0.352023;stroke-linecap:square;stroke-linejoin:round;stroke-miterlimit:1.5" /><ellipse
     id="_1"
     serif:id="1"
     cx="7.099689"
     cy="78.81517"
     rx="4.0264416"
     ry="3.992295"
     style="clip-rule:evenodd;fill:#00ff00;fill-rule:evenodd;stroke-width:0.352023;stroke-linecap:square;stroke-linejoin:round;stroke-miterlimit:1.5" /><ellipse
     id="_2"
     serif:id="2"
     cx="19.458872"
     cy="78.81517"
     rx="4.0264416"
     ry="3.992295"
     style="clip-rule:evenodd;fill:#00ff00;fill-rule:evenodd;stroke-width:0.352023;stroke-linecap:square;stroke-linejoin:round;stroke-miterlimit:1.5" /><ellipse
     id="_3"
     serif:id="3"
     cx="31.818407"
     cy="78.81517"
     rx="4.0264416"
     ry="3.992295"
     style="clip-rule:evenodd;fill:#00ff00;fill-rule:evenodd;stroke-width:0.352023;stroke-linecap:square;stroke-linejoin:round;stroke-miterlimit:1.5" /><ellipse
     id="_4"
     serif:id="4"
     cx="44.177589"
     cy="78.81517"
     rx="4.0264416"
     ry="3.992295"
     style="clip-rule:evenodd;fill:#00ff00;fill-rule:evenodd;stroke-width:0.352023;stroke-linecap:square;stroke-linejoin:round;stroke-miterlimit:1.5" /><ellipse
     id="_5"
     serif:id="5"
     cx="56.53677"
     cy="78.81517"
     rx="4.0264416"
     ry="3.992295"
     style="clip-rule:evenodd;fill:#00ff00;fill-rule:evenodd;stroke-width:0.352023;stroke-linecap:square;stroke-linejoin:round;stroke-miterlimit:1.5" /><ellipse
     id="_6"
     serif:id="6"
     cx="68.895958"
     cy="78.81517"
     rx="4.0264416"
     ry="3.992295"
     style="clip-rule:evenodd;fill:#00ff00;fill-rule:evenodd;stroke-width:0.352023;stroke-linecap:square;stroke-linejoin:round;stroke-miterlimit:1.5" /><ellipse
     id="_11"
     serif:id="1"
     cx="7.099689"
     cy="93.125267"
     rx="4.0264416"
     ry="3.992295"
     style="clip-rule:evenodd;fill:#0000ff;fill-rule:evenodd;stroke-width:0.352023;stroke-linecap:square;stroke-linejoin:round;stroke-miterlimit:1.5" /><ellipse
     id="EOF1"
     cx="7.099689"
     cy="112.32989"
     rx="4.0264416"
     ry="3.992295"
     style="clip-rule:evenodd;fill:#0000ff;fill-rule:evenodd;stroke-width:0.352023;stroke-linecap:square;stroke-linejoin:round;stroke-miterlimit:1.5" /><ellipse
     id="_21"
     serif:id="2"
     cx="19.458872"
     cy="93.125267"
     rx="4.0264416"
     ry="3.992295"
     style="clip-rule:evenodd;fill:#0000ff;fill-rule:evenodd;stroke-width:0.352023;stroke-linecap:square;stroke-linejoin:round;stroke-miterlimit:1.5" /><ellipse
     id="EOF2"
     cx="19.458872"
     cy="112.32989"
     rx="4.0264416"
     ry="3.992295"
     style="clip-rule:evenodd;fill:#0000ff;fill-rule:evenodd;stroke-width:0.352023;stroke-linecap:square;stroke-linejoin:round;stroke-miterlimit:1.5" /><ellipse
     id="_31"
     serif:id="3"
     cx="31.818407"
     cy="93.125267"
     rx="4.0264416"
     ry="3.992295"
     style="clip-rule:evenodd;fill:#0000ff;fill-rule:evenodd;stroke-width:0.352023;stroke-linecap:square;stroke-linejoin:round;stroke-miterlimit:1.5" /><ellipse
     id="EOF3"
     cx="31.818407"
     cy="112.32989"
     rx="4.0264416"
     ry="3.992295"
     style="clip-rule:evenodd;fill:#0000ff;fill-rule:evenodd;stroke-width:0.352023;stroke-linecap:square;stroke-linejoin:round;stroke-miterlimit:1.5" /><ellipse
     id="_41"
     serif:id="4"
     cx="44.177589"
     cy="93.125267"
     rx="4.0264416"
     ry="3.992295"
     style="clip-rule:evenodd;fill:#0000ff;fill-rule:evenodd;stroke-width:0.352023;stroke-linecap:square;stroke-linejoin:round;stroke-miterlimit:1.5"
     inkscape:label="_4" /><ellipse
     id="EOF4"
     cx="44.177589"
     cy="112.32989"
     rx="4.0264416"
     ry="3.992295"
     style="clip-rule:evenodd;fill:#0000ff;fill-rule:evenodd;stroke-width:0.352023;stroke-linecap:square;stroke-linejoin:round;stroke-miterlimit:1.5" /><ellipse
     id="_51"
     serif:id="5"
     cx="56.53677"
     cy="93.125267"
     rx="4.0264416"
     ry="3.992295"
     style="clip-rule:evenodd;fill:#0000ff;fill-rule:evenodd;stroke-width:0.352023;stroke-linecap:square;stroke-linejoin:round;stroke-miterlimit:1.5"
     inkscape:label="_5" /><ellipse
     id="EOF5"
     cx="56.53677"
     cy="112.32989"
     rx="4.0264416"
     ry="3.992295"
     style="clip-rule:evenodd;fill:#0000ff;fill-rule:evenodd;stroke-width:0.352023;stroke-linecap:square;stroke-linejoin:round;stroke-miterlimit:1.5" /><ellipse
     id="_61"
     serif:id="6"
     cx="68.895958"
     cy="93.125267"
     rx="4.0264416"
     ry="3.992295"
     style="clip-rule:evenodd;fill:#0000ff;fill-rule:evenodd;stroke-width:0.352023;stroke-linecap:square;stroke-linejoin:round;stroke-miterlimit:1.5"
     inkscape:label="_6" /><ellipse
     id="EOF6"
     cx="68.895958"
     cy="112.32989"
     rx="4.0264416"
     ry="3.992295"
     style="clip-rule:evenodd;fill:#0000ff;fill-rule:evenodd;stroke-width:0.352023;stroke-linecap:square;stroke-linejoin:round;stroke-miterlimit:1.5" /><ellipse
     id="_12"
     serif:id="1"
     cx="7.099689"
     cy="86.153442"
     rx="1.5087714"
     ry="1.5207403"
     style="clip-rule:evenodd;fill:#ff00ff;fill-rule:evenodd;stroke-width:0.352023;stroke-linecap:square;stroke-linejoin:round;stroke-miterlimit:1.5"
     inkscape:label="_1" /><ellipse
     id="_22"
     serif:id="2"
     cx="19.518364"
     cy="86.153442"
     rx="1.5087714"
     ry="1.5207403"
     style="clip-rule:evenodd;fill:#ff00ff;fill-rule:evenodd;stroke-width:0.352023;stroke-linecap:square;stroke-linejoin:round;stroke-miterlimit:1.5"
     inkscape:label="_2" /><ellipse
     id="_32"
     serif:id="3"
     cx="31.81876"
     cy="86.153442"
     rx="1.5087714"
     ry="1.5207403"
     style="clip-rule:evenodd;fill:#ff00ff;fill-rule:evenodd;stroke-width:0.352023;stroke-linecap:square;stroke-linejoin:round;stroke-miterlimit:1.5"
     inkscape:label="_3" /><ellipse
     id="_42"
     serif:id="4"
     cx="44.119156"
     cy="86.153442"
     rx="1.5087714"
     ry="1.5207403"
     style="clip-rule:evenodd;fill:#ff00ff;fill-rule:evenodd;stroke-width:0.352023;stroke-linecap:square;stroke-linejoin:round;stroke-miterlimit:1.5"
     inkscape:label="_4" /><ellipse
     id="_52"
     serif:id="5"
     cx="56.419552"
     cy="86.153442"
     rx="1.5087714"
     ry="1.5207403"
     style="clip-rule:evenodd;fill:#ff00ff;fill-rule:evenodd;stroke-width:0.352023;stroke-linecap:square;stroke-linejoin:round;stroke-miterlimit:1.5"
     inkscape:label="_5" /><ellipse
     id="_62"
     serif:id="6"
     cx="68.895958"
     cy="86.153442"
     rx="1.5087714"
     ry="1.5207403"
     style="clip-rule:evenodd;fill:#ff00ff;fill-rule:evenodd;stroke-width:0.352023;stroke-linecap:square;stroke-linejoin:round;stroke-miterlimit:1.5"
     inkscape:label="_6" /><circle
     id="TIME1"
     cx="11.228216"
     cy="26.738264"
     r="5.2803483"
     style="clip-rule:evenodd;fill:#ff0000;fill-rule:evenodd;stroke-width:0.352023;stroke-linecap:square;stroke-linejoin:round;stroke-miterlimit:1.5" /><ellipse
     id="TIME11"
     serif:id="TIME1"
     cx="11.228216"
     cy="58.714642"
     rx="4.0264416"
     ry="3.992295"
     style="clip-rule:evenodd;fill:#00ff00;fill-rule:evenodd;stroke-width:0.352023;stroke-linecap:square;stroke-linejoin:round;stroke-miterlimit:1.5"
     inkscape:label="TIME1" /><ellipse
     id="TIME1_ATTEN"
     cx="11.228216"
     cy="45.31488"
     rx="4.0264416"
     ry="3.992295"
     style="clip-rule:evenodd;fill:#ff0000;fill-rule:evenodd;stroke-width:0.352023;stroke-linecap:square;stroke-linejoin:round;stroke-miterlimit:1.5" /><ellipse
     id="_7"
     serif:id="7"
     cx="7.099689"
     cy="105.86675"
     rx="1.5087714"
     ry="1.5207403"
     style="clip-rule:evenodd;fill:#ff00ff;fill-rule:evenodd;stroke-width:0.352023;stroke-linecap:square;stroke-linejoin:round;stroke-miterlimit:1.5" /><ellipse
     id="_8"
     serif:id="8"
     cx="19.518364"
     cy="105.86675"
     rx="1.5087714"
     ry="1.5207403"
     style="clip-rule:evenodd;fill:#ff00ff;fill-rule:evenodd;stroke-width:0.352023;stroke-linecap:square;stroke-linejoin:round;stroke-miterlimit:1.5" /><ellipse
     id="_9"
     serif:id="9"
     cx="31.81876"
     cy="105.86675"
     rx="1.5087714"
     ry="1.5207403"
     style="clip-rule:evenodd;fill:#ff00ff;fill-rule:evenodd;stroke-width:0.352023;stroke-linecap:square;stroke-linejoin:round;stroke-miterlimit:1.5" /><ellipse
     id="_10"
     serif:id="10"
     cx="44.119156"
     cy="105.86675"
     rx="1.5087714"
     ry="1.5207403"
     style="clip-rule:evenodd;fill:#ff00ff;fill-rule:evenodd;stroke-width:0.352023;stroke-linecap:square;stroke-linejoin:round;stroke-miterlimit:1.5" /><ellipse
     id="_111"
     serif:id="11"
     cx="56.419552"
     cy="105.86675"
     rx="1.5087714"
     ry="1.5207403"
     style="clip-rule:evenodd;fill:#ff00ff;fill-rule:evenodd;stroke-width:0.352023;stroke-linecap:square;stroke-linejoin:round;stroke-miterlimit:1.5"
     inkscape:label="_11" /><ellipse
     id="_121"
     serif:id="12"
     cx="68.895958"
     cy="105.93715"
     rx="1.5087714"
     ry="1.5207403"
     style="clip-rule:evenodd;fill:#ff00ff;fill-rule:evenodd;stroke-width:0.352023;stroke-linecap:square;stroke-linejoin:round;stroke-miterlimit:1.5"
     inkscape:label="_12" /></g></svg>
