<?xml version="1.0" encoding="UTF-8" standalone="no"?>
<svg
   width="76.200073mm"
   height="128.5mm"
   viewBox="0 0 76.200074 128.5"
   version="1.1"
   xml:space="preserve"
   style="clip-rule:evenodd;fill-rule:evenodd;stroke-linecap:square;stroke-linejoin:round;stroke-miterlimit:1.5"
   id="svg78"
   sodipodi:docname="EnvelopeArray-dark.svg"
   inkscape:version="1.3.2 (091e20e, 2023-11-25)"
   xmlns:inkscape="http://www.inkscape.org/namespaces/inkscape"
   xmlns:sodipodi="http://sodipodi.sourceforge.net/DTD/sodipodi-0.dtd"
   xmlns="http://www.w3.org/2000/svg"
   xmlns:svg="http://www.w3.org/2000/svg"
   xmlns:serif="http://www.serif.com/"><defs
   id="defs78">
        
        
        
        
        
        
        
        
        
        
        
        
        
        
        
        
        
        
        
        
        
        
        
        
        
        
        
        
        
        
        
        
        
        
        
        
    
        
        
        
        
        
        
        
        
        
        
        
        
        
        
        
        
        
        
        
        
        
        
        
        
        
        
        
        
        
        
        
        
        
        
        
        
        
        
        
        
        
        
        
        
        
        
        
        
        
        
        
        
        
        
        
        
        
        
        
        
        
        
        
        
        
        
        
        
    
        
        
        
        
        
        
        
        
        
        
        
        
        
        
        
        
        
        
        
        
        
        
        
        
        
        
        
        
        
        
        
        
        
        
        
        
        
        
        
        
        
        
    </defs><sodipodi:namedview
   id="namedview78"
   pagecolor="#ffffff"
   bordercolor="#000000"
   borderopacity="0.25"
   inkscape:showpageshadow="2"
   inkscape:pageopacity="0.0"
   inkscape:pagecheckerboard="0"
   inkscape:deskcolor="#d1d1d1"
   inkscape:zoom="1.6837088"
   inkscape:cx="177.58415"
   inkscape:cy="225.69223"
   inkscape:window-width="1392"
   inkscape:window-height="1027"
   inkscape:window-x="336"
   inkscape:window-y="38"
   inkscape:window-maximized="0"
   inkscape:current-layer="g102"
   inkscape:document-units="mm" />
    
    
<g
   id="g102"
   style="clip-rule:evenodd;fill-rule:evenodd;stroke-linecap:square;stroke-linejoin:round;stroke-miterlimit:1.5"
   transform="matrix(0.35202321,0,0,0.35202321,0.02736868,0.032003)">
        <rect
   id="rect420"
   x="-0.31299999"
   y="-0.366"
   width="216.463"
   height="364.25201"
   style="fill:#202020" />
        <path
   d="m 211.68339,251.10881 c 0,-8.026 -6.516,-14.542 -14.542,-14.542 H 18.225401 c -8.026,0 -14.5419992,6.516 -14.5419992,14.542 v 78.916 c 0,8.026 6.5159992,14.542 14.5419992,14.542 H 197.14139 c 8.026,0 14.542,-6.516 14.542,-14.542 z"
   style="fill:#3b3b3b;fill-opacity:1;stroke:#d08c59;stroke-opacity:1;stroke-width:0.42610826;stroke-dasharray:none"
   id="path1" />
        <path
   d="m 74.215,171.706 -0.152,0.8 c -0.211,-0.153 -0.43,-0.269 -0.657,-0.347 -0.226,-0.078 -0.461,-0.117 -0.703,-0.117 -0.429,0 -0.78,0.106 -1.051,0.32 -0.27,0.213 -0.406,0.486 -0.406,0.816 0,0.185 0.064,0.335 0.192,0.449 0.127,0.115 0.359,0.224 0.695,0.329 l 0.473,0.152 c 0.424,0.13 0.735,0.304 0.931,0.521 0.197,0.218 0.295,0.495 0.295,0.831 0,0.611 -0.216,1.097 -0.648,1.455 -0.433,0.358 -1.022,0.537 -1.77,0.537 -0.271,0 -0.537,-0.03 -0.799,-0.088 -0.261,-0.059 -0.522,-0.147 -0.783,-0.264 l 0.16,-0.816 c 0.255,0.179 0.514,0.312 0.776,0.398 0.261,0.086 0.538,0.129 0.83,0.129 0.429,0 0.778,-0.115 1.047,-0.344 0.268,-0.229 0.402,-0.519 0.402,-0.871 0,-0.213 -0.057,-0.379 -0.172,-0.496 -0.114,-0.117 -0.345,-0.229 -0.691,-0.336 l -0.395,-0.129 c -0.479,-0.151 -0.814,-0.322 -1.006,-0.513 -0.191,-0.192 -0.287,-0.445 -0.287,-0.76 0,-0.576 0.215,-1.046 0.645,-1.412 0.429,-0.366 0.991,-0.549 1.683,-0.549 0.209,0 0.431,0.026 0.666,0.078 0.236,0.052 0.478,0.128 0.725,0.227 z"
   style="fill:#ffffff;fill-rule:nonzero"
   id="path2" />
        <path
   d="m 75.992,171.506 h 0.789 l -1.007,5.168 h 2.816 l -0.129,0.664 h -3.605 z"
   style="fill:#ffffff;fill-rule:nonzero"
   id="path3" />
        <path
   d="m 82.238,172.163 -1.421,3.023 h 1.679 z m -0.375,-0.657 h 0.961 l 0.649,5.832 h -0.785 l -0.137,-1.519 H 80.52 l -0.719,1.519 h -0.848 z"
   style="fill:#ffffff;fill-rule:nonzero"
   id="path4" />
        <path
   d="m 85.297,171.506 h 1 l 1.031,4.801 0.934,-4.801 h 0.762 l -1.137,5.832 h -1 l -1.031,-4.8 -0.938,4.8 H 84.16 Z"
   style="fill:#ffffff;fill-rule:nonzero"
   id="path5" />
        <path
   d="m 89.754,171.506 h 4.453 l -0.129,0.664 h -1.832 l -1,5.168 h -0.797 l 1.008,-5.168 h -1.832 z"
   style="fill:#ffffff;fill-rule:nonzero"
   id="path6" />
        <path
   d="m 82.559,97.835 v 8"
   style="fill:none;stroke:#d08c59;stroke-width:0.75px"
   id="path7" />
        <path
   d="m 125.089,177.131 c -0.219,0.107 -0.44,0.187 -0.662,0.241 -0.223,0.053 -0.453,0.08 -0.69,0.08 -0.599,0 -1.063,-0.173 -1.393,-0.52 -0.329,-0.346 -0.494,-0.832 -0.494,-1.457 0,-0.573 0.092,-1.14 0.274,-1.703 0.182,-0.562 0.422,-1.022 0.719,-1.379 0.278,-0.338 0.585,-0.588 0.921,-0.75 0.336,-0.161 0.719,-0.242 1.149,-0.242 0.208,0 0.415,0.027 0.621,0.082 0.206,0.055 0.406,0.134 0.602,0.238 l -0.161,0.809 c -0.166,-0.164 -0.342,-0.287 -0.527,-0.367 -0.185,-0.081 -0.381,-0.121 -0.59,-0.121 -0.247,0 -0.476,0.052 -0.687,0.158 -0.211,0.105 -0.409,0.266 -0.594,0.482 -0.271,0.32 -0.489,0.731 -0.654,1.231 -0.166,0.5 -0.248,1.001 -0.248,1.504 0,0.45 0.101,0.795 0.304,1.035 0.203,0.239 0.496,0.359 0.879,0.359 0.222,0 0.45,-0.042 0.686,-0.125 0.235,-0.083 0.468,-0.204 0.697,-0.363 z"
   style="fill:#ffffff;fill-rule:nonzero"
   id="path8" />
        <path
   d="m 126.667,175.1 0.695,-3.594 h 0.793 l -0.699,3.594 c -0.005,0.034 -0.016,0.087 -0.031,0.16 -0.079,0.401 -0.118,0.679 -0.118,0.832 0,0.24 0.071,0.42 0.213,0.539 0.142,0.12 0.356,0.18 0.643,0.18 0.232,0 0.428,-0.037 0.59,-0.111 0.161,-0.074 0.3,-0.192 0.418,-0.354 0.057,-0.08 0.115,-0.219 0.173,-0.416 0.059,-0.196 0.124,-0.473 0.194,-0.83 l 0.695,-3.594 h 0.793 l -0.695,3.594 c -0.11,0.57 -0.226,0.989 -0.35,1.256 -0.123,0.267 -0.287,0.482 -0.49,0.646 -0.185,0.146 -0.396,0.258 -0.633,0.334 -0.237,0.077 -0.493,0.116 -0.769,0.116 -0.5,0 -0.885,-0.117 -1.155,-0.352 -0.269,-0.234 -0.404,-0.568 -0.404,-1 0,-0.096 0.011,-0.226 0.033,-0.39 0.022,-0.165 0.057,-0.368 0.104,-0.61 z"
   style="fill:#ffffff;fill-rule:nonzero"
   id="path9" />
        <path
   d="m 134.026,174.585 c 0.188,0.036 0.338,0.123 0.451,0.261 0.114,0.138 0.241,0.438 0.381,0.899 l 0.473,1.593 h -0.785 l -0.414,-1.472 c -0.115,-0.406 -0.243,-0.673 -0.385,-0.801 -0.142,-0.128 -0.356,-0.191 -0.643,-0.191 h -0.75 l -0.48,2.464 h -0.793 l 1.129,-5.832 h 1.625 c 0.539,0 0.956,0.117 1.252,0.35 0.295,0.233 0.443,0.562 0.443,0.986 0,0.477 -0.135,0.871 -0.404,1.184 -0.27,0.312 -0.636,0.499 -1.1,0.559 z m -1.144,-2.43 -0.399,2.07 h 0.856 c 0.424,0 0.763,-0.111 1.017,-0.334 0.254,-0.222 0.381,-0.519 0.381,-0.889 0,-0.291 -0.082,-0.505 -0.246,-0.642 -0.164,-0.137 -0.423,-0.205 -0.777,-0.205 z"
   style="fill:#ffffff;fill-rule:nonzero"
   id="path10" />
        <path
   d="m 137.843,176.596 2.335,-5.09 h 0.84 l -2.808,5.832 h -1.008 l -0.574,-5.832 h 0.773 z"
   style="fill:#ffffff;fill-rule:nonzero"
   id="path11" />
        <path
   d="m 142.011,171.506 h 3.457 l -0.129,0.664 h -2.672 l -0.336,1.727 h 2.551 l -0.125,0.664 h -2.555 l -0.406,2.113 h 2.742 l -0.129,0.664 h -3.535 z"
   style="fill:#ffffff;fill-rule:nonzero"
   id="path12" />
        <path
   d="m 134.225,97.835 v 8"
   style="fill:none;stroke:#d08c59;stroke-width:0.75px"
   id="path13" />
        <g
   id="g13"
   transform="translate(0,6.0128612)">
            <path
   id="path40"
   d="m 198.509,92.605 -2.304,-0.575 0.573,-2.308"
   style="fill:none;stroke:#d08c59;stroke-width:0.7px;stroke-linecap:butt;stroke-linejoin:miter;stroke-miterlimit:10" />
            <path
   id="path41"
   d="m 172.022,91.132 c -5.346,-3.882 -8.816,-10.138 -8.816,-17.19 0,-11.767 9.667,-21.32 21.576,-21.32 11.91,0 21.578,9.553 21.578,21.32 0,6.065 -2.568,11.542 -6.688,15.426 -1.059,0.998 -2.22,1.892 -3.467,2.662"
   style="fill:none;stroke:#d08c59;stroke-width:0.7px;stroke-linecap:butt" />
        </g>
        <g
   transform="translate(93.0888,157.294)"
   id="g23">
            <g
   transform="matrix(8,0,0,8,81.2784,30.0447)"
   id="g14">
                <path
   d="M 0.18,-0.729 H 0.279 L 0.153,-0.083 H 0.505 L 0.489,0 H 0.038 Z"
   style="fill:#ffffff;fill-rule:nonzero"
   id="path14" />
            </g>
            <g
   transform="matrix(8,0,0,8,86.0948,30.0447)"
   id="g15">
                <path
   d="m 0.359,-0.647 -0.178,0.378 h 0.21 z M 0.312,-0.729 h 0.12 L 0.513,0 H 0.415 L 0.398,-0.19 H 0.144 L 0.054,0 h -0.106 z"
   style="fill:#ffffff;fill-rule:nonzero"
   id="path15" />
            </g>
            <g
   transform="matrix(8,0,0,8,90.9112,30.0447)"
   id="g16">
                <path
   d="m 0.56,-0.704 -0.019,0.1 C 0.515,-0.623 0.487,-0.638 0.459,-0.647 0.431,-0.657 0.401,-0.662 0.371,-0.662 c -0.054,0 -0.097,0.013 -0.131,0.04 -0.034,0.027 -0.051,0.061 -0.051,0.102 0,0.023 0.008,0.042 0.024,0.056 0.016,0.014 0.045,0.028 0.087,0.041 l 0.059,0.019 c 0.053,0.016 0.092,0.038 0.116,0.065 0.025,0.028 0.037,0.062 0.037,0.104 0,0.077 -0.027,0.137 -0.081,0.182 C 0.377,-0.008 0.303,0.014 0.21,0.014 0.176,0.014 0.143,0.01 0.11,0.003 0.077,-0.004 0.045,-0.015 0.012,-0.03 l 0.02,-0.102 c 0.032,0.023 0.064,0.039 0.097,0.05 0.033,0.011 0.067,0.016 0.104,0.016 0.054,0 0.097,-0.014 0.131,-0.043 0.033,-0.029 0.05,-0.065 0.05,-0.109 0,-0.026 -0.007,-0.047 -0.021,-0.062 C 0.378,-0.294 0.349,-0.308 0.306,-0.322 L 0.257,-0.338 C 0.197,-0.357 0.155,-0.378 0.131,-0.402 0.107,-0.426 0.095,-0.458 0.095,-0.497 c 0,-0.072 0.027,-0.131 0.081,-0.177 0.053,-0.045 0.124,-0.068 0.21,-0.068 0.026,0 0.054,0.003 0.083,0.01 0.03,0.006 0.06,0.016 0.091,0.028 z"
   style="fill:#ffffff;fill-rule:nonzero"
   id="path16" />
            </g>
            <g
   transform="matrix(8,0,0,8,95.7276,30.0447)"
   id="g17">
                <path
   d="M 0.094,-0.729 H 0.651 L 0.635,-0.646 H 0.406 L 0.281,0 h -0.1 L 0.307,-0.646 H 0.078 Z"
   style="fill:#ffffff;fill-rule:nonzero"
   id="path17" />
            </g>
            <g
   transform="matrix(8,0,0,8,78.8702,39.0447)"
   id="g18">
                <path
   d="M 0.071,-0.729 H 0.164 L 0.12,-0.138 0.281,-0.529 h 0.103 l 0.007,0.392 0.184,-0.592 H 0.672 L 0.423,0 H 0.328 L 0.313,-0.425 0.132,0 H 0.04 Z"
   style="fill:#ffffff;fill-rule:nonzero"
   id="path18" />
            </g>
            <g
   transform="matrix(8,0,0,8,83.6866,39.0447)"
   id="g19">
                <path
   d="M 0.169,-0.729 H 0.574 L 0.558,-0.646 H 0.405 L 0.296,-0.083 H 0.449 L 0.433,0 H 0.028 L 0.044,-0.083 H 0.197 L 0.306,-0.646 H 0.153 Z"
   style="fill:#ffffff;fill-rule:nonzero"
   id="path19" />
            </g>
            <g
   transform="matrix(8,0,0,8,88.503,39.0447)"
   id="g20">
                <path
   d="m 0.158,-0.081 c 0.06,0 0.109,-0.01 0.145,-0.031 0.037,-0.02 0.066,-0.053 0.088,-0.099 0.018,-0.037 0.032,-0.082 0.043,-0.134 0.012,-0.052 0.017,-0.099 0.017,-0.143 0,-0.057 -0.013,-0.098 -0.04,-0.123 C 0.384,-0.636 0.34,-0.648 0.277,-0.648 H 0.221 l -0.11,0.567 z m 0.128,-0.648 c 0.089,0 0.155,0.02 0.2,0.061 0.044,0.04 0.066,0.101 0.066,0.183 0,0.053 -0.007,0.107 -0.021,0.163 C 0.518,-0.266 0.499,-0.216 0.476,-0.173 0.442,-0.111 0.4,-0.066 0.349,-0.04 0.299,-0.013 0.23,0 0.144,0 h -0.148 l 0.142,-0.729 z"
   style="fill:#ffffff;fill-rule:nonzero"
   id="path20" />
            </g>
            <g
   transform="matrix(8,0,0,8,93.3194,39.0447)"
   id="g21">
                <path
   d="M 0.094,-0.729 H 0.651 L 0.635,-0.646 H 0.406 L 0.281,0 h -0.1 L 0.307,-0.646 H 0.078 Z"
   style="fill:#ffffff;fill-rule:nonzero"
   id="path21" />
            </g>
            <g
   transform="matrix(8,0,0,8,98.1358,39.0447)"
   id="g22">
                <path
   d="M 0.138,-0.729 H 0.237 L 0.179,-0.43 h 0.27 L 0.507,-0.729 H 0.606 L 0.464,0 H 0.365 L 0.433,-0.347 H 0.162 L 0.095,0 h -0.099 z"
   style="fill:#ffffff;fill-rule:nonzero"
   id="path22" />
            </g>
        </g>
        <path
   d="m 184.783,107.835 v 8"
   style="fill:none;stroke:#d08c59;stroke-width:0.75px"
   id="path23" />
        <g
   id="g31">
            <g
   id="g29">
                <path
   d="m 95.792,354.678 c 0.172,0.357 0.228,0.715 0.168,1.075 h -1.203 c -0.018,-0.276 -0.074,-0.485 -0.168,-0.625 -0.164,-0.25 -0.461,-0.375 -0.89,-0.375 -0.438,0 -0.821,0.176 -1.149,0.529 -0.328,0.353 -0.56,0.852 -0.695,1.498 -0.138,0.646 -0.108,1.129 0.09,1.451 0.198,0.322 0.502,0.482 0.914,0.482 0.422,0 0.773,-0.138 1.054,-0.414 0.154,-0.148 0.303,-0.371 0.446,-0.668 h 1.191 c -0.237,0.628 -0.611,1.138 -1.123,1.532 -0.512,0.393 -1.102,0.59 -1.771,0.59 -0.828,0 -1.424,-0.266 -1.786,-0.797 -0.359,-0.534 -0.44,-1.266 -0.242,-2.196 0.214,-1.005 0.647,-1.78 1.301,-2.324 0.57,-0.474 1.218,-0.711 1.941,-0.711 0.969,0 1.61,0.318 1.922,0.953 z"
   style="fill:#ffffff;fill-rule:nonzero"
   id="path24" />
                <path
   d="m 98.456,358.206 2.192,-4.371 h 1.25 l -3.188,5.757 h -1.136 l -0.723,-5.757 h 1.285 z"
   style="fill:#ffffff;fill-rule:nonzero"
   id="path25" />
                <path
   d="m 106.441,355.374 -0.168,0.785 h -0.731 l -0.726,3.433 h -1.11 l 0.727,-3.433 h -0.621 l 0.168,-0.785 h 0.609 l 0.059,-0.274 c 0.096,-0.456 0.239,-0.769 0.43,-0.941 0.216,-0.255 0.632,-0.383 1.25,-0.383 0.07,0 0.133,0.002 0.189,0.006 0.056,0.004 0.133,0.01 0.232,0.017 l -0.195,0.907 c -0.06,-0.008 -0.163,-0.014 -0.309,-0.018 -0.145,-0.004 -0.254,0.029 -0.326,0.098 -0.071,0.069 -0.115,0.145 -0.131,0.228 -0.018,0.084 -0.044,0.203 -0.078,0.36 z"
   style="fill:#ffffff;fill-rule:nonzero"
   id="path26" />
                <path
   d="m 109.042,358.991 c -0.013,0.013 -0.047,0.052 -0.101,0.117 -0.055,0.065 -0.116,0.122 -0.184,0.172 -0.208,0.156 -0.4,0.263 -0.576,0.32 -0.176,0.057 -0.373,0.086 -0.592,0.086 -0.63,0 -1.006,-0.226 -1.129,-0.68 -0.067,-0.25 -0.049,-0.618 0.055,-1.105 l 0.543,-2.566 h 1.141 l -0.543,2.566 c -0.052,0.242 -0.063,0.424 -0.032,0.547 0.055,0.216 0.231,0.324 0.528,0.324 0.38,0 0.673,-0.154 0.879,-0.461 0.109,-0.167 0.192,-0.387 0.25,-0.66 l 0.492,-2.316 h 1.129 l -0.903,4.257 h -1.082 z"
   style="fill:#ffffff;fill-rule:nonzero"
   id="path27" />
                <path
   d="m 114.339,357.003 c 0.05,-0.224 0.056,-0.396 0.02,-0.516 -0.063,-0.219 -0.248,-0.328 -0.555,-0.328 -0.378,0 -0.67,0.16 -0.879,0.48 -0.109,0.17 -0.191,0.386 -0.246,0.649 l -0.488,2.304 h -1.11 l 0.903,-4.25 h 1.074 l -0.133,0.621 c 0.19,-0.218 0.36,-0.376 0.508,-0.472 0.266,-0.172 0.574,-0.258 0.926,-0.258 0.44,0 0.775,0.115 1.006,0.346 0.23,0.23 0.289,0.612 0.177,1.146 l -0.609,2.867 h -1.141 z"
   style="fill:#ffffff;fill-rule:nonzero"
   id="path28" />
                <path
   d="m 117.324,358.253 -0.282,1.339 h -1.093 l 1.218,-5.738 h 1.094 l -0.66,3.102 1.727,-1.602 h 1.378 l -1.836,1.629 0.997,2.609 h -1.344 l -0.633,-1.82 z"
   style="fill:#ffffff;fill-rule:nonzero"
   id="path29" />
            </g>
            <path
   d="m 69.163,356.739 h 19"
   style="fill:none;stroke:#d08c59;stroke-width:0.65px;stroke-linecap:round"
   id="path30" />
            <path
   d="m 121.699,356.739 h 19"
   style="fill:none;stroke:#d08c59;stroke-width:0.65px;stroke-linecap:round"
   id="path31" />
        </g>
        <path
   d="m 88.04,102.692 0.154,-0.738 h 1.916 l 0.413,-1.929 h 0.751 l -0.413,1.929 h 1.916 l -0.154,0.738 h -1.916 l -0.408,1.925 h -0.752 l 0.409,-1.925 z"
   style="fill:#d08c59;fill-rule:nonzero"
   id="path32" />
        <path
   d="m 140.815,102.692 0.154,-0.738 h 1.916 l 0.413,-1.929 h 0.752 l -0.414,1.929 h 1.916 l -0.153,0.738 h -1.916 l -0.409,1.925 h -0.751 l 0.408,-1.925 z"
   style="fill:#d08c59;fill-rule:nonzero"
   id="path33" />
        <path
   d="m 191.544,112.692 0.153,-0.738 h 1.916 l 0.414,-1.929 h 0.751 l -0.413,1.929 h 1.916 l -0.154,0.738 h -1.916 l -0.409,1.925 h -0.751 l 0.409,-1.925 z"
   style="fill:#d08c59;fill-rule:nonzero"
   id="path34" />
        <path
   d="m 71.808,101.805 h 5.041 l -0.141,0.646 h -5.04 z"
   style="fill:#d08c59;fill-rule:nonzero"
   id="path35" />
        <path
   d="m 124.584,101.805 h 5.04 l -0.14,0.646 h -5.041 z"
   style="fill:#d08c59;fill-rule:nonzero"
   id="path36" />
        <path
   d="m 175.312,111.805 h 5.041 l -0.141,0.646 h -5.041 z"
   style="fill:#d08c59;fill-rule:nonzero"
   id="path37" />
        <path
   d="m 77.546,50.75786 6.206,-6.521 5.835,6.521 H 77.865"
   style="fill:#d08c59"
   id="path38" />
        <path
   d="m 127.741,50.75786 6.206,-6.521 5.835,6.521 H 128.06"
   style="fill:#d08c59"
   id="path39" />
        <path
   d="m 94.289,85.04086 10.606,-6.52 1.435,6.52 H 94.608"
   style="fill:#d08c59"
   id="path42" />
        <path
   d="m 58.987,85.08786 1.406,-6.521 10.635,6.521 H 59.306"
   style="fill:#d08c59"
   id="path43" />
        <path
   d="m 158.051,85.08786 c -0.627,-4.765 -2.707,-6.919 -6.206,-6.521 0.411,3.398 -0.76,5.973 -5.835,6.521 h 11.722"
   style="fill:#d08c59"
   id="path44" />
        <path
   d="m 110.473,85.08786 c 0.627,-4.765 2.707,-6.919 6.205,-6.521 -0.41,3.398 0.761,5.973 5.836,6.521 h -11.722"
   style="fill:#d08c59"
   id="path45" />
        <path
   d="m 38.56,220.35 4.5,2.25 -4.5,2.25 z"
   style="fill:#d08c59"
   id="path46" />
        <path
   d="m 32,222.6 h 7.46"
   style="fill:none;stroke:#d08c59;stroke-width:1px;stroke-linejoin:miter"
   id="path47" />
        <path
   d="m 73.56,220.35 4.5,2.25 -4.5,2.25 z"
   style="fill:#d08c59"
   id="path48" />
        <path
   d="m 67,222.6 h 7.46"
   style="fill:none;stroke:#d08c59;stroke-width:1px;stroke-linejoin:miter"
   id="path49" />
        <path
   d="m 108.949,220.35 4.5,2.25 -4.5,2.25 z"
   style="fill:#d08c59"
   id="path50" />
        <path
   d="m 102.389,222.6 h 7.46"
   style="fill:none;stroke:#d08c59;stroke-width:1px;stroke-linejoin:miter"
   id="path51" />
        <path
   d="m 142.949,220.35 4.5,2.25 -4.5,2.25 z"
   style="fill:#d08c59"
   id="path52" />
        <path
   d="m 136.389,222.6 h 7.46"
   style="fill:none;stroke:#d08c59;stroke-width:1px;stroke-linejoin:miter"
   id="path53" />
        <path
   d="m 177.949,220.35 4.5,2.25 -4.5,2.25 z"
   style="fill:#d08c59"
   id="path54" />
        <path
   d="m 171.389,222.6 h 7.46"
   style="fill:none;stroke:#d08c59;stroke-width:1px;stroke-linejoin:miter"
   id="path55" />
        <g
   id="g55"
   transform="translate(0,6.0128612)">
            <path
   id="path401"
   serif:id="path40"
   d="M 44.843,92.605 42.539,92.03 43.112,89.722"
   style="fill:none;stroke:#d08c59;stroke-width:0.7px;stroke-linecap:butt;stroke-linejoin:miter;stroke-miterlimit:10" />
            <path
   id="path411"
   serif:id="path41"
   d="M 18.355,91.132 C 13.01,87.25 9.539,80.994 9.539,73.942 c 0,-11.767 9.668,-21.32 21.577,-21.32 11.909,0 21.578,9.553 21.578,21.32 0,6.065 -2.569,11.542 -6.689,15.426 -1.059,0.998 -2.22,1.892 -3.466,2.662"
   style="fill:none;stroke:#d08c59;stroke-width:0.7px;stroke-linecap:butt" />
        </g>
        <g
   transform="translate(-60.5779,157.294)"
   id="g66">
            <g
   transform="matrix(8,0,0,8,78.8702,30.0447)"
   id="g56">
                <path
   d="M 0.187,-0.729 H 0.616 L 0.6,-0.646 H 0.27 L 0.228,-0.431 H 0.527 L 0.511,-0.348 H 0.212 L 0.144,0 H 0.045 Z"
   style="fill:#ffffff;fill-rule:nonzero"
   id="path56" />
            </g>
            <g
   transform="matrix(8,0,0,8,83.6866,30.0447)"
   id="g57">
                <path
   d="M 0.169,-0.729 H 0.574 L 0.558,-0.646 H 0.405 L 0.296,-0.083 H 0.449 L 0.433,0 H 0.028 L 0.044,-0.083 H 0.197 L 0.306,-0.646 H 0.153 Z"
   style="fill:#ffffff;fill-rule:nonzero"
   id="path57" />
            </g>
            <g
   transform="matrix(8,0,0,8,88.503,30.0447)"
   id="g58">
                <path
   d="m 0.374,-0.344 c 0.023,0.004 0.042,0.015 0.056,0.032 0.015,0.018 0.03,0.055 0.048,0.113 L 0.537,0 H 0.439 L 0.387,-0.184 C 0.373,-0.235 0.357,-0.268 0.339,-0.284 0.321,-0.3 0.295,-0.308 0.259,-0.308 H 0.165 L 0.105,0 H 0.006 L 0.147,-0.729 H 0.35 c 0.067,0 0.12,0.015 0.157,0.044 0.037,0.029 0.055,0.07 0.055,0.123 0,0.06 -0.017,0.109 -0.051,0.148 -0.033,0.039 -0.079,0.062 -0.137,0.07 z m -0.143,-0.304 -0.05,0.259 h 0.107 c 0.053,0 0.096,-0.014 0.127,-0.042 0.032,-0.028 0.048,-0.065 0.048,-0.111 0,-0.036 -0.01,-0.063 -0.031,-0.08 -0.02,-0.017 -0.053,-0.026 -0.097,-0.026 z"
   style="fill:#ffffff;fill-rule:nonzero"
   id="path58" />
            </g>
            <g
   transform="matrix(8,0,0,8,93.3194,30.0447)"
   id="g59">
                <path
   d="m 0.56,-0.704 -0.019,0.1 C 0.515,-0.623 0.487,-0.638 0.459,-0.647 0.431,-0.657 0.401,-0.662 0.371,-0.662 c -0.054,0 -0.097,0.013 -0.131,0.04 -0.034,0.027 -0.051,0.061 -0.051,0.102 0,0.023 0.008,0.042 0.024,0.056 0.016,0.014 0.045,0.028 0.087,0.041 l 0.059,0.019 c 0.053,0.016 0.092,0.038 0.116,0.065 0.025,0.028 0.037,0.062 0.037,0.104 0,0.077 -0.027,0.137 -0.081,0.182 C 0.377,-0.008 0.303,0.014 0.21,0.014 0.176,0.014 0.143,0.01 0.11,0.003 0.077,-0.004 0.045,-0.015 0.012,-0.03 l 0.02,-0.102 c 0.032,0.023 0.064,0.039 0.097,0.05 0.033,0.011 0.067,0.016 0.104,0.016 0.054,0 0.097,-0.014 0.131,-0.043 0.033,-0.029 0.05,-0.065 0.05,-0.109 0,-0.026 -0.007,-0.047 -0.021,-0.062 C 0.378,-0.294 0.349,-0.308 0.306,-0.322 L 0.257,-0.338 C 0.197,-0.357 0.155,-0.378 0.131,-0.402 0.107,-0.426 0.095,-0.458 0.095,-0.497 c 0,-0.072 0.027,-0.131 0.081,-0.177 0.053,-0.045 0.124,-0.068 0.21,-0.068 0.026,0 0.054,0.003 0.083,0.01 0.03,0.006 0.06,0.016 0.091,0.028 z"
   style="fill:#ffffff;fill-rule:nonzero"
   id="path59" />
            </g>
            <g
   transform="matrix(8,0,0,8,98.1358,30.0447)"
   id="g60">
                <path
   d="M 0.094,-0.729 H 0.651 L 0.635,-0.646 H 0.406 L 0.281,0 h -0.1 L 0.307,-0.646 H 0.078 Z"
   style="fill:#ffffff;fill-rule:nonzero"
   id="path60" />
            </g>
            <g
   transform="matrix(8,0,0,8,78.8702,39.0447)"
   id="g61">
                <path
   d="M 0.071,-0.729 H 0.164 L 0.12,-0.138 0.281,-0.529 h 0.103 l 0.007,0.392 0.184,-0.592 H 0.672 L 0.423,0 H 0.328 L 0.313,-0.425 0.132,0 H 0.04 Z"
   style="fill:#ffffff;fill-rule:nonzero"
   id="path61" />
            </g>
            <g
   transform="matrix(8,0,0,8,83.6866,39.0447)"
   id="g62">
                <path
   d="M 0.169,-0.729 H 0.574 L 0.558,-0.646 H 0.405 L 0.296,-0.083 H 0.449 L 0.433,0 H 0.028 L 0.044,-0.083 H 0.197 L 0.306,-0.646 H 0.153 Z"
   style="fill:#ffffff;fill-rule:nonzero"
   id="path62" />
            </g>
            <g
   transform="matrix(8,0,0,8,88.503,39.0447)"
   id="g63">
                <path
   d="m 0.158,-0.081 c 0.06,0 0.109,-0.01 0.145,-0.031 0.037,-0.02 0.066,-0.053 0.088,-0.099 0.018,-0.037 0.032,-0.082 0.043,-0.134 0.012,-0.052 0.017,-0.099 0.017,-0.143 0,-0.057 -0.013,-0.098 -0.04,-0.123 C 0.384,-0.636 0.34,-0.648 0.277,-0.648 H 0.221 l -0.11,0.567 z m 0.128,-0.648 c 0.089,0 0.155,0.02 0.2,0.061 0.044,0.04 0.066,0.101 0.066,0.183 0,0.053 -0.007,0.107 -0.021,0.163 C 0.518,-0.266 0.499,-0.216 0.476,-0.173 0.442,-0.111 0.4,-0.066 0.349,-0.04 0.299,-0.013 0.23,0 0.144,0 h -0.148 l 0.142,-0.729 z"
   style="fill:#ffffff;fill-rule:nonzero"
   id="path63" />
            </g>
            <g
   transform="matrix(8,0,0,8,93.3194,39.0447)"
   id="g64">
                <path
   d="M 0.094,-0.729 H 0.651 L 0.635,-0.646 H 0.406 L 0.281,0 h -0.1 L 0.307,-0.646 H 0.078 Z"
   style="fill:#ffffff;fill-rule:nonzero"
   id="path64" />
            </g>
            <g
   transform="matrix(8,0,0,8,98.1358,39.0447)"
   id="g65">
                <path
   d="M 0.138,-0.729 H 0.237 L 0.179,-0.43 h 0.27 L 0.507,-0.729 H 0.606 L 0.464,0 H 0.365 L 0.433,-0.347 H 0.162 L 0.095,0 h -0.099 z"
   style="fill:#ffffff;fill-rule:nonzero"
   id="path65" />
            </g>
        </g>
        <path
   d="m 31.116,107.835 v 8"
   style="fill:none;stroke:#d08c59;stroke-width:0.75px"
   id="path66" />
        <path
   d="m 18.049,96.83386 -2.999,4.235"
   style="fill:none;stroke:#d08c59;stroke-width:0.75px"
   id="path67" />
        <path
   d="m 171.756,96.82486 -2.999,4.234"
   style="fill:none;stroke:#d08c59;stroke-width:0.75px"
   id="path68" />
        <path
   d="m 37.657,112.692 0.154,-0.738 h 1.916 l 0.413,-1.929 h 0.751 l -0.413,1.929 h 1.916 l -0.154,0.738 h -1.916 l -0.408,1.925 h -0.752 l 0.409,-1.925 z"
   style="fill:#d08c59;fill-rule:nonzero"
   id="path69" />
        <path
   d="m 21.425,111.805 h 5.041 l -0.141,0.646 h -5.04 z"
   style="fill:#d08c59;fill-rule:nonzero"
   id="path70" />
        <path
   d="m 82.567,284.529 -0.273,1.294 H 76.84 l 1.528,-7.197 h 5.278 l -0.273,1.274 h -3.809 l -0.322,1.529 h 3.496 l -0.269,1.25 h -3.496 l -0.39,1.85 z"
   style="fill:#ffffff;fill-rule:nonzero"
   id="path71" />
        <path
   d="m 87.782,285.823 -1.856,-5.112 -1.084,5.112 h -1.401 l 1.528,-7.197 h 1.578 l 1.796,5.024 1.07,-5.024 h 1.401 l -1.528,7.197 z"
   style="fill:#ffffff;fill-rule:nonzero"
   id="path72" />
        <path
   d="m 93.69,284.09 2.739,-5.464 h 1.563 l -3.984,7.197 h -1.421 l -0.904,-7.197 h 1.607 z"
   style="fill:#ffffff;fill-rule:nonzero"
   id="path73" />
        <path
   d="m 103.129,284.529 -0.274,1.294 h -5.454 l 1.528,-7.197 h 5.279 l -0.274,1.274 h -3.808 l -0.323,1.529 h 3.497 l -0.269,1.25 h -3.496 l -0.391,1.85 z"
   style="fill:#ffffff;fill-rule:nonzero"
   id="path74" />
        <path
   d="m 107.059,278.626 -1.255,5.903 h 3.565 l -0.274,1.294 h -5.068 l 1.528,-7.197 z"
   style="fill:#ffffff;fill-rule:nonzero"
   id="path75" />
        <path
   d="m 117.074,279.246 c 0.586,0.661 0.739,1.65 0.459,2.969 -0.277,1.292 -0.851,2.282 -1.724,2.969 -0.661,0.559 -1.505,0.839 -2.534,0.839 -1.029,0 -1.756,-0.28 -2.183,-0.839 -0.582,-0.687 -0.735,-1.677 -0.459,-2.969 0.28,-1.319 0.855,-2.308 1.724,-2.969 0.661,-0.56 1.506,-0.84 2.534,-0.84 1.029,0 1.756,0.28 2.183,0.84 z m -2.451,0.435 c -0.596,0 -1.118,0.219 -1.565,0.659 -0.448,0.439 -0.758,1.064 -0.93,1.875 -0.173,0.81 -0.129,1.435 0.131,1.875 0.261,0.439 0.689,0.659 1.285,0.659 0.595,0 1.115,-0.22 1.56,-0.659 0.444,-0.44 0.752,-1.065 0.925,-1.875 0.169,-0.807 0.126,-1.432 -0.129,-1.873 -0.256,-0.441 -0.682,-0.661 -1.277,-0.661 z"
   style="fill:#ffffff;fill-rule:nonzero"
   id="path76" />
        <path
   d="m 124.222,279.183 c 0.349,0.371 0.441,0.945 0.279,1.723 -0.183,0.85 -0.526,1.45 -1.031,1.802 -0.504,0.352 -1.155,0.527 -1.953,0.527 h -1.528 l -0.547,2.588 h -1.494 l 1.528,-7.197 h 3.135 c 0.723,0 1.26,0.186 1.611,0.557 z m -2.119,0.693 h -1.401 l -0.449,2.119 h 1.401 c 0.355,0 0.649,-0.086 0.884,-0.259 0.234,-0.172 0.39,-0.446 0.469,-0.82 0.081,-0.374 0.039,-0.641 -0.125,-0.801 -0.164,-0.159 -0.424,-0.239 -0.779,-0.239 z"
   style="fill:#ffffff;fill-rule:nonzero"
   id="path77" />
        <path
   d="m 130.355,284.529 -0.273,1.294 h -5.454 l 1.528,-7.197 h 5.278 l -0.273,1.274 h -3.809 l -0.322,1.529 h 3.496 l -0.268,1.25 h -3.497 l -0.39,1.85 z"
   style="fill:#ffffff;fill-rule:nonzero"
   id="path78" />
        <path
   d="m 134.628,281.429 1.176,0.298 c 0.515,0.13 0.887,0.304 1.119,0.522 0.358,0.339 0.468,0.828 0.332,1.47 -0.14,0.657 -0.508,1.203 -1.104,1.638 -0.596,0.435 -1.352,0.652 -2.27,0.652 -0.938,0 -1.63,-0.214 -2.076,-0.642 -0.446,-0.428 -0.589,-1.017 -0.429,-1.765 h 1.435 c -0.023,0.328 0.015,0.574 0.113,0.737 0.182,0.296 0.569,0.444 1.162,0.444 0.354,0 0.651,-0.039 0.888,-0.117 0.453,-0.15 0.721,-0.428 0.806,-0.835 0.052,-0.238 -0.013,-0.421 -0.195,-0.552 -0.179,-0.127 -0.482,-0.239 -0.909,-0.337 l -0.727,-0.171 c -0.713,-0.169 -1.191,-0.353 -1.436,-0.551 -0.413,-0.332 -0.545,-0.852 -0.395,-1.558 0.137,-0.644 0.485,-1.18 1.045,-1.606 0.56,-0.427 1.294,-0.64 2.202,-0.64 0.758,0 1.362,0.201 1.811,0.603 0.45,0.402 0.606,0.986 0.469,1.751 H 136.2 c 0.068,-0.433 -0.054,-0.741 -0.366,-0.923 -0.209,-0.121 -0.487,-0.181 -0.835,-0.181 -0.388,0 -0.714,0.078 -0.979,0.234 -0.266,0.157 -0.428,0.375 -0.486,0.655 -0.055,0.257 0.018,0.449 0.22,0.576 0.127,0.084 0.418,0.184 0.874,0.298 z"
   style="fill:#ffffff;fill-rule:nonzero"
   id="path79" />
        <path
   d="m 61.596,201.549 h 4.453 l -0.129,0.664 h -1.832 l -1,5.168 h -0.797 l 1.008,-5.168 h -1.832 z"
   style="fill:#ffffff;fill-rule:nonzero"
   id="path80" />
        <path
   d="m 68.651,204.627 c 0.187,0.037 0.337,0.124 0.451,0.262 0.113,0.138 0.24,0.438 0.381,0.898 l 0.472,1.594 H 69.17 l -0.414,-1.472 c -0.115,-0.407 -0.243,-0.674 -0.385,-0.801 -0.142,-0.128 -0.356,-0.192 -0.642,-0.192 h -0.75 l -0.481,2.465 h -0.793 l 1.129,-5.832 h 1.625 c 0.539,0 0.957,0.117 1.252,0.35 0.296,0.233 0.443,0.562 0.443,0.986 0,0.477 -0.134,0.871 -0.404,1.184 -0.269,0.312 -0.636,0.498 -1.099,0.558 z m -1.145,-2.429 -0.398,2.07 h 0.855 c 0.425,0 0.764,-0.111 1.018,-0.334 0.254,-0.223 0.381,-0.519 0.381,-0.889 0,-0.291 -0.083,-0.506 -0.247,-0.642 -0.164,-0.137 -0.423,-0.205 -0.777,-0.205 z"
   style="fill:#ffffff;fill-rule:nonzero"
   id="path81" />
        <path
   d="m 71.826,201.549 h 3.243 l -0.129,0.664 h -1.227 l -0.871,4.504 h 1.227 l -0.129,0.664 h -3.243 l 0.129,-0.664 h 1.223 l 0.875,-4.504 h -1.227 z"
   style="fill:#ffffff;fill-rule:nonzero"
   id="path82" />
        <path
   d="m 79.076,207.006 c -0.226,0.162 -0.474,0.283 -0.742,0.365 -0.268,0.082 -0.555,0.123 -0.859,0.123 -0.604,0 -1.069,-0.175 -1.393,-0.525 -0.324,-0.35 -0.486,-0.85 -0.486,-1.498 0,-0.234 0.021,-0.484 0.064,-0.748 0.043,-0.264 0.106,-0.541 0.19,-0.83 0.091,-0.305 0.198,-0.58 0.32,-0.826 0.123,-0.246 0.257,-0.457 0.402,-0.631 0.279,-0.339 0.587,-0.589 0.924,-0.75 0.338,-0.162 0.722,-0.242 1.155,-0.242 0.208,0 0.416,0.027 0.623,0.082 0.207,0.054 0.41,0.134 0.611,0.238 l -0.16,0.809 c -0.169,-0.164 -0.347,-0.287 -0.533,-0.368 -0.187,-0.08 -0.385,-0.121 -0.596,-0.121 -0.255,0 -0.495,0.054 -0.719,0.162 -0.224,0.109 -0.424,0.268 -0.601,0.479 -0.115,0.135 -0.223,0.305 -0.325,0.508 -0.101,0.203 -0.191,0.431 -0.269,0.683 -0.089,0.297 -0.156,0.576 -0.201,0.836 -0.046,0.261 -0.069,0.496 -0.069,0.707 0,0.446 0.103,0.789 0.309,1.032 0.206,0.242 0.497,0.363 0.875,0.363 0.177,0 0.336,-0.024 0.476,-0.072 0.141,-0.049 0.26,-0.118 0.356,-0.209 l 0.297,-1.536 h -0.848 l 0.117,-0.648 h 1.602 z"
   style="fill:#ffffff;fill-rule:nonzero"
   id="path83" />
        <path
   d="m 83.893,207.006 c -0.227,0.162 -0.474,0.283 -0.742,0.365 -0.269,0.082 -0.555,0.123 -0.86,0.123 -0.604,0 -1.068,-0.175 -1.392,-0.525 -0.325,-0.35 -0.487,-0.85 -0.487,-1.498 0,-0.234 0.022,-0.484 0.065,-0.748 0.043,-0.264 0.106,-0.541 0.189,-0.83 0.091,-0.305 0.198,-0.58 0.321,-0.826 0.122,-0.246 0.256,-0.457 0.402,-0.631 0.279,-0.339 0.586,-0.589 0.924,-0.75 0.337,-0.162 0.722,-0.242 1.154,-0.242 0.208,0 0.416,0.027 0.623,0.082 0.207,0.054 0.411,0.134 0.611,0.238 l -0.16,0.809 c -0.169,-0.164 -0.347,-0.287 -0.533,-0.368 -0.186,-0.08 -0.385,-0.121 -0.596,-0.121 -0.255,0 -0.494,0.054 -0.718,0.162 -0.224,0.109 -0.425,0.268 -0.602,0.479 -0.115,0.135 -0.223,0.305 -0.324,0.508 -0.102,0.203 -0.192,0.431 -0.27,0.683 -0.088,0.297 -0.155,0.576 -0.201,0.836 -0.046,0.261 -0.068,0.496 -0.068,0.707 0,0.446 0.103,0.789 0.308,1.032 0.206,0.242 0.498,0.363 0.875,0.363 0.177,0 0.336,-0.024 0.477,-0.072 0.14,-0.049 0.259,-0.118 0.355,-0.209 l 0.297,-1.536 h -0.847 l 0.117,-0.648 h 1.601 z"
   style="fill:#ffffff;fill-rule:nonzero"
   id="path84" />
        <path
   d="m 86.268,201.549 h 3.457 l -0.129,0.664 h -2.672 l -0.336,1.727 h 2.551 l -0.125,0.664 h -2.555 l -0.406,2.113 h 2.742 l -0.129,0.664 h -3.535 z"
   style="fill:#ffffff;fill-rule:nonzero"
   id="path85" />
        <path
   d="m 92.733,204.627 c 0.187,0.037 0.338,0.124 0.451,0.262 0.113,0.138 0.24,0.438 0.381,0.898 l 0.472,1.594 h -0.785 l -0.414,-1.472 c -0.114,-0.407 -0.243,-0.674 -0.385,-0.801 -0.142,-0.128 -0.356,-0.192 -0.642,-0.192 h -0.75 l -0.481,2.465 h -0.793 l 1.129,-5.832 h 1.625 c 0.539,0 0.957,0.117 1.252,0.35 0.296,0.233 0.444,0.562 0.444,0.986 0,0.477 -0.135,0.871 -0.405,1.184 -0.269,0.312 -0.636,0.498 -1.099,0.558 z m -1.145,-2.429 -0.398,2.07 h 0.855 c 0.425,0 0.764,-0.111 1.018,-0.334 0.254,-0.223 0.381,-0.519 0.381,-0.889 0,-0.291 -0.082,-0.506 -0.247,-0.642 -0.164,-0.137 -0.423,-0.205 -0.777,-0.205 z"
   style="fill:#ffffff;fill-rule:nonzero"
   id="path86" />
        <path
   d="m 94.619,208.123 3.328,-6.574 h 0.747 l -3.336,6.574 z"
   style="fill:#ffffff;fill-rule:nonzero"
   id="path87" />
        <path
   d="m 103.158,207.006 c -0.226,0.162 -0.474,0.283 -0.742,0.365 -0.268,0.082 -0.554,0.123 -0.859,0.123 -0.604,0 -1.069,-0.175 -1.393,-0.525 -0.324,-0.35 -0.486,-0.85 -0.486,-1.498 0,-0.234 0.021,-0.484 0.064,-0.748 0.043,-0.264 0.107,-0.541 0.19,-0.83 0.091,-0.305 0.198,-0.58 0.32,-0.826 0.123,-0.246 0.257,-0.457 0.402,-0.631 0.279,-0.339 0.587,-0.589 0.924,-0.75 0.338,-0.162 0.722,-0.242 1.155,-0.242 0.208,0 0.416,0.027 0.623,0.082 0.207,0.054 0.41,0.134 0.611,0.238 l -0.16,0.809 c -0.169,-0.164 -0.347,-0.287 -0.533,-0.368 -0.187,-0.08 -0.385,-0.121 -0.596,-0.121 -0.255,0 -0.495,0.054 -0.719,0.162 -0.224,0.109 -0.424,0.268 -0.601,0.479 -0.115,0.135 -0.223,0.305 -0.325,0.508 -0.101,0.203 -0.191,0.431 -0.269,0.683 -0.089,0.297 -0.156,0.576 -0.201,0.836 -0.046,0.261 -0.069,0.496 -0.069,0.707 0,0.446 0.103,0.789 0.309,1.032 0.206,0.242 0.497,0.363 0.875,0.363 0.177,0 0.336,-0.024 0.476,-0.072 0.141,-0.049 0.26,-0.118 0.356,-0.209 l 0.297,-1.536 h -0.848 l 0.117,-0.648 h 1.602 z"
   style="fill:#ffffff;fill-rule:nonzero"
   id="path88" />
        <path
   d="m 107.061,202.205 -1.422,3.024 h 1.68 z m -0.375,-0.656 h 0.961 l 0.648,5.832 h -0.785 l -0.137,-1.519 h -2.031 l -0.719,1.519 h -0.847 z"
   style="fill:#ffffff;fill-rule:nonzero"
   id="path89" />
        <path
   d="m 109.76,201.549 h 4.453 l -0.129,0.664 h -1.832 l -1,5.168 h -0.797 l 1.008,-5.168 h -1.832 z"
   style="fill:#ffffff;fill-rule:nonzero"
   id="path90" />
        <path
   d="m 115.166,201.549 h 3.457 l -0.129,0.664 h -2.672 l -0.335,1.727 h 2.55 l -0.125,0.664 h -2.554 l -0.407,2.113 h 2.743 l -0.129,0.664 h -3.536 z"
   style="fill:#ffffff;fill-rule:nonzero"
   id="path91" />
        <path
   d="m 124.807,201.549 h 3.242 l -0.129,0.664 h -1.226 l -0.872,4.504 h 1.227 l -0.129,0.664 h -3.242 l 0.129,-0.664 h 1.222 l 0.875,-4.504 h -1.226 z"
   style="fill:#ffffff;fill-rule:nonzero"
   id="path92" />
        <path
   d="m 129.385,201.549 h 1 l 1.031,4.801 0.934,-4.801 h 0.762 l -1.137,5.832 h -1 l -1.031,-4.801 -0.938,4.801 h -0.758 z"
   style="fill:#ffffff;fill-rule:nonzero"
   id="path93" />
        <path
   d="m 135.088,202.198 -0.426,2.191 h 0.914 c 0.43,0 0.773,-0.124 1.03,-0.373 0.256,-0.249 0.384,-0.58 0.384,-0.994 0,-0.281 -0.08,-0.489 -0.242,-0.623 -0.161,-0.134 -0.411,-0.201 -0.75,-0.201 z m -0.664,-0.649 h 1.719 c 0.536,0 0.945,0.12 1.226,0.36 0.282,0.239 0.422,0.585 0.422,1.039 0,0.648 -0.208,1.158 -0.625,1.531 -0.416,0.372 -0.989,0.558 -1.719,0.558 h -0.91 l -0.457,2.344 h -0.793 z"
   style="fill:#ffffff;fill-rule:nonzero"
   id="path94" />
        <path
   d="m 138.354,205.143 0.695,-3.594 h 0.793 l -0.699,3.594 c -0.005,0.034 -0.016,0.087 -0.031,0.16 -0.079,0.401 -0.118,0.678 -0.118,0.832 0,0.24 0.071,0.419 0.213,0.539 0.142,0.12 0.356,0.18 0.643,0.18 0.232,0 0.428,-0.037 0.59,-0.111 0.161,-0.075 0.3,-0.193 0.418,-0.354 0.057,-0.081 0.115,-0.219 0.173,-0.416 0.059,-0.197 0.123,-0.473 0.194,-0.83 l 0.695,-3.594 h 0.793 l -0.695,3.594 c -0.11,0.57 -0.226,0.989 -0.35,1.256 -0.124,0.267 -0.287,0.482 -0.49,0.646 -0.185,0.146 -0.396,0.257 -0.633,0.334 -0.237,0.077 -0.493,0.115 -0.769,0.115 -0.5,0 -0.885,-0.117 -1.155,-0.351 -0.269,-0.234 -0.404,-0.568 -0.404,-1 0,-0.096 0.011,-0.227 0.033,-0.391 0.022,-0.164 0.057,-0.367 0.104,-0.609 z"
   style="fill:#ffffff;fill-rule:nonzero"
   id="path95" />
        <path
   d="m 143.475,201.549 h 4.453 l -0.129,0.664 h -1.832 l -1,5.168 h -0.797 l 1.008,-5.168 h -1.832 z"
   style="fill:#ffffff;fill-rule:nonzero"
   id="path96" />
        <path
   d="m 152.018,201.748 -0.153,0.801 c -0.211,-0.153 -0.429,-0.269 -0.656,-0.347 -0.226,-0.079 -0.461,-0.118 -0.703,-0.118 -0.43,0 -0.78,0.107 -1.051,0.321 -0.271,0.213 -0.406,0.485 -0.406,0.816 0,0.185 0.064,0.335 0.191,0.449 0.128,0.115 0.36,0.224 0.696,0.328 l 0.472,0.153 c 0.425,0.13 0.735,0.304 0.932,0.521 0.197,0.218 0.295,0.494 0.295,0.83 0,0.612 -0.216,1.097 -0.648,1.455 -0.433,0.358 -1.023,0.537 -1.77,0.537 -0.271,0 -0.537,-0.029 -0.799,-0.087 -0.262,-0.059 -0.523,-0.147 -0.783,-0.264 l 0.16,-0.816 c 0.255,0.179 0.514,0.312 0.776,0.398 0.261,0.086 0.538,0.129 0.83,0.129 0.429,0 0.778,-0.115 1.046,-0.344 0.269,-0.229 0.403,-0.519 0.403,-0.871 0,-0.214 -0.057,-0.379 -0.172,-0.496 -0.115,-0.117 -0.345,-0.229 -0.691,-0.336 l -0.395,-0.129 c -0.479,-0.151 -0.814,-0.322 -1.006,-0.514 -0.191,-0.191 -0.287,-0.444 -0.287,-0.759 0,-0.576 0.215,-1.047 0.645,-1.412 0.429,-0.366 0.99,-0.549 1.683,-0.549 0.208,0 0.43,0.026 0.666,0.078 0.236,0.052 0.477,0.127 0.725,0.226 z"
   style="fill:#ffffff;fill-rule:nonzero"
   id="path97" />
        <path
   d="m 94.042,338.895 0.258,-1.201 h 2.999 l -0.821,3.862 h -0.996 l 0.039,-0.898 c -0.364,0.342 -0.677,0.583 -0.937,0.723 -0.45,0.244 -0.964,0.366 -1.543,0.366 -0.954,0 -1.665,-0.331 -2.134,-0.991 -0.492,-0.665 -0.615,-1.573 -0.371,-2.725 0.247,-1.165 0.766,-2.1 1.557,-2.803 0.791,-0.703 1.714,-1.054 2.769,-1.054 0.915,0 1.6,0.231 2.056,0.695 0.455,0.464 0.651,1.043 0.586,1.736 h -1.48 c -0.01,-0.491 -0.215,-0.835 -0.615,-1.03 -0.225,-0.108 -0.488,-0.161 -0.791,-0.161 -0.58,0 -1.102,0.219 -1.568,0.656 -0.465,0.438 -0.792,1.097 -0.981,1.976 -0.186,0.885 -0.116,1.512 0.208,1.879 0.323,0.368 0.743,0.552 1.257,0.552 0.504,0 0.95,-0.145 1.335,-0.437 0.386,-0.291 0.665,-0.673 0.838,-1.145 z"
   style="fill:#ffffff;fill-rule:nonzero"
   id="path98" />
        <path
   d="m 103.202,334.359 1.02,7.197 h -1.63 l -0.152,-1.479 h -2.651 l -0.811,1.479 h -1.572 l 4.097,-7.197 z m -1.216,1.646 -1.528,2.832 h 1.826 z"
   style="fill:#ffffff;fill-rule:nonzero"
   id="path99" />
        <path
   d="m 105.79,335.633 0.273,-1.274 h 5.83 l -0.273,1.274 h -2.153 l -1.255,5.923 h -1.514 l 1.255,-5.923 z"
   style="fill:#ffffff;fill-rule:nonzero"
   id="path100" />
        <path
   d="m 117.015,340.262 -0.273,1.294 h -5.454 l 1.528,-7.197 h 5.278 l -0.273,1.274 h -3.809 l -0.322,1.529 h 3.496 l -0.268,1.25 h -3.496 l -0.391,1.85 z"
   style="fill:#ffffff;fill-rule:nonzero"
   id="path101" />
        <path
   d="m 121.288,337.162 1.177,0.298 c 0.514,0.13 0.887,0.304 1.118,0.522 0.358,0.339 0.468,0.829 0.332,1.47 -0.14,0.657 -0.508,1.203 -1.104,1.638 -0.595,0.435 -1.352,0.652 -2.27,0.652 -0.938,0 -1.63,-0.214 -2.075,-0.642 -0.446,-0.428 -0.59,-1.017 -0.43,-1.765 h 1.435 c -0.022,0.328 0.015,0.574 0.113,0.737 0.182,0.296 0.569,0.444 1.162,0.444 0.355,0 0.651,-0.039 0.888,-0.117 0.453,-0.15 0.722,-0.428 0.806,-0.835 0.052,-0.238 -0.013,-0.421 -0.195,-0.552 -0.179,-0.127 -0.482,-0.239 -0.908,-0.337 l -0.728,-0.17 c -0.713,-0.17 -1.191,-0.354 -1.435,-0.552 -0.414,-0.332 -0.546,-0.851 -0.396,-1.558 0.137,-0.644 0.485,-1.18 1.045,-1.606 0.56,-0.427 1.294,-0.64 2.202,-0.64 0.759,0 1.362,0.201 1.812,0.603 0.449,0.402 0.605,0.986 0.468,1.751 h -1.445 c 0.068,-0.433 -0.054,-0.741 -0.366,-0.923 -0.208,-0.121 -0.487,-0.181 -0.835,-0.181 -0.387,0 -0.714,0.078 -0.979,0.234 -0.265,0.157 -0.427,0.375 -0.486,0.655 -0.055,0.257 0.018,0.449 0.22,0.576 0.127,0.085 0.418,0.184 0.874,0.298 z"
   style="fill:#ffffff;fill-rule:nonzero"
   id="path102" />
    </g><g
   id="g115"
   style="clip-rule:evenodd;fill-rule:evenodd;stroke-linecap:square;stroke-linejoin:round;stroke-miterlimit:1.5"
   transform="matrix(0.35202321,0,0,0.35202321,0.02736868,0.032003)"><path
     d="m 46.963,8.553 h 6.914 l -0.258,1.328 h -5.344 l -0.672,3.453 h 5.102 l -0.25,1.328 h -5.11 l -0.812,4.227 h 5.484 l -0.257,1.328 h -7.071 z"
     style="fill:#ffffff;fill-rule:nonzero"
     id="path103" /><path
     d="m 55.335,8.553 h 2 l 2.062,9.601 1.867,-9.601 h 1.524 l -2.274,11.664 h -2 l -2.062,-9.602 -1.875,9.602 h -1.516 z"
     style="fill:#ffffff;fill-rule:nonzero"
     id="path104" /><path
     d="M 65.925,18.732 70.597,8.553 h 1.68 L 66.66,20.217 H 64.644 L 63.495,8.553 h 1.547 z"
     style="fill:#ffffff;fill-rule:nonzero"
     id="path105" /><path
     d="m 73.461,8.553 h 6.914 l -0.258,1.328 h -5.343 l -0.672,3.453 h 5.101 l -0.25,1.328 h -5.109 l -0.813,4.227 h 5.485 l -0.258,1.328 h -7.07 z"
     style="fill:#ffffff;fill-rule:nonzero"
     id="path106" /><path
     d="m 82.489,8.553 h 1.578 l -2.015,10.336 h 5.633 l -0.258,1.328 h -7.211 z"
     style="fill:#ffffff;fill-rule:nonzero"
     id="path107" /><path
     d="m 92.361,19.162 c 0.443,0 0.852,-0.133 1.227,-0.398 0.375,-0.266 0.685,-0.646 0.929,-1.141 0.386,-0.755 0.698,-1.669 0.938,-2.742 0.239,-1.073 0.359,-2.104 0.359,-3.094 0,-0.74 -0.137,-1.285 -0.41,-1.637 -0.273,-0.351 -0.697,-0.527 -1.269,-0.527 -0.443,0 -0.849,0.133 -1.219,0.398 -0.37,0.266 -0.677,0.646 -0.922,1.141 -0.396,0.766 -0.714,1.68 -0.953,2.742 -0.24,1.063 -0.36,2.089 -0.36,3.078 0,0.745 0.137,1.295 0.411,1.649 0.273,0.354 0.696,0.531 1.269,0.531 z m 5.07,-6.914 c 0,0.573 -0.058,1.195 -0.175,1.867 -0.118,0.672 -0.288,1.362 -0.512,2.07 -0.151,0.48 -0.314,0.909 -0.488,1.29 -0.175,0.38 -0.364,0.723 -0.567,1.031 -0.458,0.661 -0.971,1.149 -1.539,1.465 -0.568,0.315 -1.229,0.472 -1.984,0.472 -1.047,0 -1.823,-0.32 -2.328,-0.961 -0.506,-0.64 -0.758,-1.627 -0.758,-2.961 0,-0.578 0.056,-1.199 0.168,-1.863 0.112,-0.664 0.28,-1.35 0.504,-2.058 0.151,-0.48 0.314,-0.909 0.488,-1.29 0.174,-0.38 0.363,-0.724 0.566,-1.031 0.459,-0.661 0.972,-1.15 1.539,-1.465 0.568,-0.315 1.23,-0.472 1.985,-0.472 1.052,0 1.832,0.319 2.34,0.957 0.507,0.638 0.761,1.621 0.761,2.949 z"
     style="fill:#ffffff;fill-rule:nonzero"
     id="path108" /><path
     d="m 101.272,9.85 -0.852,4.382 h 1.829 c 0.859,0 1.545,-0.248 2.058,-0.746 0.513,-0.497 0.77,-1.16 0.77,-1.988 0,-0.563 -0.162,-0.978 -0.485,-1.246 -0.323,-0.268 -0.823,-0.402 -1.5,-0.402 z M 99.944,8.553 h 3.437 c 1.073,0 1.891,0.239 2.454,0.718 0.562,0.48 0.843,1.172 0.843,2.079 0,1.296 -0.416,2.317 -1.25,3.062 -0.833,0.745 -1.979,1.117 -3.437,1.117 h -1.821 l -0.914,4.688 H 97.67 Z"
     style="fill:#ffffff;fill-rule:nonzero"
     id="path109" /><path
     d="m 108.792,8.553 h 6.914 l -0.257,1.328 h -5.344 l -0.672,3.453 h 5.102 l -0.25,1.328 h -5.11 l -0.812,4.227 h 5.484 l -0.258,1.328 h -7.07 z"
     style="fill:#ffffff;fill-rule:nonzero"
     id="path110" /><path
     d="m 129.513,9.865 -2.844,6.047 h 3.359 z m -0.75,-1.312 h 1.922 l 1.296,11.664 h -1.57 l -0.273,-3.039 h -4.063 l -1.437,3.039 h -1.696 z"
     style="fill:#ffffff;fill-rule:nonzero"
     id="path111" /><path
     d="m 138.588,14.709 c 0.375,0.073 0.675,0.247 0.902,0.523 0.227,0.276 0.48,0.875 0.762,1.797 l 0.945,3.188 h -1.57 l -0.828,-2.946 c -0.23,-0.812 -0.486,-1.346 -0.77,-1.601 -0.284,-0.255 -0.712,-0.383 -1.285,-0.383 h -1.5 l -0.961,4.93 h -1.586 l 2.258,-11.664 h 3.25 c 1.078,0 1.913,0.233 2.504,0.699 0.591,0.466 0.886,1.124 0.886,1.973 0,0.953 -0.269,1.742 -0.808,2.367 -0.539,0.625 -1.272,0.997 -2.199,1.117 z m -2.289,-4.859 -0.797,4.14 h 1.711 c 0.849,0 1.527,-0.223 2.035,-0.668 0.508,-0.445 0.762,-1.038 0.762,-1.777 0,-0.584 -0.165,-1.012 -0.493,-1.285 -0.328,-0.274 -0.846,-0.41 -1.554,-0.41 z"
     style="fill:#ffffff;fill-rule:nonzero"
     id="path112" /><path
     d="m 147.42,14.709 c 0.375,0.073 0.676,0.247 0.903,0.523 0.226,0.276 0.48,0.875 0.762,1.797 l 0.945,3.188 h -1.57 l -0.829,-2.946 c -0.229,-0.812 -0.485,-1.346 -0.769,-1.601 -0.284,-0.255 -0.712,-0.383 -1.285,-0.383 h -1.5 l -0.961,4.93 h -1.586 l 2.258,-11.664 h 3.25 c 1.078,0 1.912,0.233 2.504,0.699 0.591,0.466 0.886,1.124 0.886,1.973 0,0.953 -0.269,1.742 -0.808,2.367 -0.539,0.625 -1.272,0.997 -2.2,1.117 z m -2.289,-4.859 -0.796,4.14 h 1.71 c 0.849,0 1.528,-0.223 2.036,-0.668 0.507,-0.445 0.761,-1.038 0.761,-1.777 0,-0.584 -0.164,-1.012 -0.492,-1.285 -0.328,-0.274 -0.846,-0.41 -1.555,-0.41 z"
     style="fill:#ffffff;fill-rule:nonzero"
     id="path113" /><path
     d="m 156.011,9.865 -2.844,6.047 h 3.36 z m -0.75,-1.312 h 1.922 l 1.297,11.664 h -1.57 l -0.274,-3.039 h -4.062 l -1.438,3.039 h -1.695 z"
     style="fill:#ffffff;fill-rule:nonzero"
     id="path114" /><path
     d="m 160.625,8.553 h 1.578 l 1.844,5.086 3.883,-5.086 h 1.703 l -4.961,6.429 -1.008,5.235 h -1.617 l 1.023,-5.235 z"
     style="fill:#ffffff;fill-rule:nonzero"
     id="path115" /></g><g
   id="g1"
   inkscape:label="components"
   style="display:none"><circle
     id="SLANT"
     cx="29.337347"
     cy="22.513985"
     r="5.2803483"
     style="clip-rule:evenodd;fill:#ff0000;fill-rule:evenodd;stroke-width:0.352023;stroke-linecap:square;stroke-linejoin:round;stroke-miterlimit:1.5" /><ellipse
     id="SLANT1"
     serif:id="SLANT"
     cx="29.337347"
     cy="55.194412"
     rx="4.0264416"
     ry="3.992295"
     style="clip-rule:evenodd;fill:#00ff00;fill-rule:evenodd;stroke-width:0.352023;stroke-linecap:square;stroke-linejoin:round;stroke-miterlimit:1.5" /><ellipse
     id="SLANT_ATTEN"
     cx="29.337347"
     cy="41.794651"
     rx="4.0264416"
     ry="3.992295"
     style="clip-rule:evenodd;fill:#ff0000;fill-rule:evenodd;stroke-width:0.352023;stroke-linecap:square;stroke-linejoin:round;stroke-miterlimit:1.5" /><circle
     id="CURVE"
     cx="47.524979"
     cy="22.513985"
     r="5.2803483"
     style="clip-rule:evenodd;fill:#ff0000;fill-rule:evenodd;stroke-width:0.352023;stroke-linecap:square;stroke-linejoin:round;stroke-miterlimit:1.5" /><ellipse
     id="CURVE1"
     serif:id="CURVE"
     cx="47.524979"
     cy="55.194412"
     rx="4.0264416"
     ry="3.992295"
     style="clip-rule:evenodd;fill:#00ff00;fill-rule:evenodd;stroke-width:0.352023;stroke-linecap:square;stroke-linejoin:round;stroke-miterlimit:1.5"
     inkscape:label="CURVE" /><ellipse
     id="CURVE_ATTEN"
     cx="47.524979"
     cy="41.794651"
     rx="4.0264416"
     ry="3.992295"
     style="clip-rule:evenodd;fill:#ff0000;fill-rule:evenodd;stroke-width:0.352023;stroke-linecap:square;stroke-linejoin:round;stroke-miterlimit:1.5" /><circle
     id="TIME6"
     cx="65.322571"
     cy="26.738264"
     r="5.2803483"
     style="clip-rule:evenodd;fill:#ff0000;fill-rule:evenodd;stroke-width:0.352023;stroke-linecap:square;stroke-linejoin:round;stroke-miterlimit:1.5" /><ellipse
     id="TIME61"
     serif:id="TIME6"
     cx="65.322571"
     cy="58.714642"
     rx="4.0264416"
     ry="3.992295"
     style="clip-rule:evenodd;fill:#00ff00;fill-rule:evenodd;stroke-width:0.352023;stroke-linecap:square;stroke-linejoin:round;stroke-miterlimit:1.5" /><ellipse
     id="TIME6_ATTEN"
     cx="65.322571"
     cy="45.31488"
     rx="4.0264416"
     ry="3.992295"
     style="clip-rule:evenodd;fill:#ff0000;fill-rule:evenodd;stroke-width:0.352023;stroke-linecap:square;stroke-linejoin:round;stroke-miterlimit:1.5" /><ellipse
     id="_1"
     serif:id="1"
     cx="7.099689"
     cy="78.81517"
     rx="4.0264416"
     ry="3.992295"
     style="clip-rule:evenodd;fill:#00ff00;fill-rule:evenodd;stroke-width:0.352023;stroke-linecap:square;stroke-linejoin:round;stroke-miterlimit:1.5" /><ellipse
     id="_2"
     serif:id="2"
     cx="19.458872"
     cy="78.81517"
     rx="4.0264416"
     ry="3.992295"
     style="clip-rule:evenodd;fill:#00ff00;fill-rule:evenodd;stroke-width:0.352023;stroke-linecap:square;stroke-linejoin:round;stroke-miterlimit:1.5" /><ellipse
     id="_3"
     serif:id="3"
     cx="31.818407"
     cy="78.81517"
     rx="4.0264416"
     ry="3.992295"
     style="clip-rule:evenodd;fill:#00ff00;fill-rule:evenodd;stroke-width:0.352023;stroke-linecap:square;stroke-linejoin:round;stroke-miterlimit:1.5" /><ellipse
     id="_4"
     serif:id="4"
     cx="44.177589"
     cy="78.81517"
     rx="4.0264416"
     ry="3.992295"
     style="clip-rule:evenodd;fill:#00ff00;fill-rule:evenodd;stroke-width:0.352023;stroke-linecap:square;stroke-linejoin:round;stroke-miterlimit:1.5" /><ellipse
     id="_5"
     serif:id="5"
     cx="56.53677"
     cy="78.81517"
     rx="4.0264416"
     ry="3.992295"
     style="clip-rule:evenodd;fill:#00ff00;fill-rule:evenodd;stroke-width:0.352023;stroke-linecap:square;stroke-linejoin:round;stroke-miterlimit:1.5" /><ellipse
     id="_6"
     serif:id="6"
     cx="68.895958"
     cy="78.81517"
     rx="4.0264416"
     ry="3.992295"
     style="clip-rule:evenodd;fill:#00ff00;fill-rule:evenodd;stroke-width:0.352023;stroke-linecap:square;stroke-linejoin:round;stroke-miterlimit:1.5" /><ellipse
     id="_11"
     serif:id="1"
     cx="7.099689"
     cy="93.125267"
     rx="4.0264416"
     ry="3.992295"
     style="clip-rule:evenodd;fill:#0000ff;fill-rule:evenodd;stroke-width:0.352023;stroke-linecap:square;stroke-linejoin:round;stroke-miterlimit:1.5" /><ellipse
     id="EOF1"
     cx="7.099689"
     cy="112.32989"
     rx="4.0264416"
     ry="3.992295"
     style="clip-rule:evenodd;fill:#0000ff;fill-rule:evenodd;stroke-width:0.352023;stroke-linecap:square;stroke-linejoin:round;stroke-miterlimit:1.5" /><ellipse
     id="_21"
     serif:id="2"
     cx="19.458872"
     cy="93.125267"
     rx="4.0264416"
     ry="3.992295"
     style="clip-rule:evenodd;fill:#0000ff;fill-rule:evenodd;stroke-width:0.352023;stroke-linecap:square;stroke-linejoin:round;stroke-miterlimit:1.5" /><ellipse
     id="EOF2"
     cx="19.458872"
     cy="112.32989"
     rx="4.0264416"
     ry="3.992295"
     style="clip-rule:evenodd;fill:#0000ff;fill-rule:evenodd;stroke-width:0.352023;stroke-linecap:square;stroke-linejoin:round;stroke-miterlimit:1.5" /><ellipse
     id="_31"
     serif:id="3"
     cx="31.818407"
     cy="93.125267"
     rx="4.0264416"
     ry="3.992295"
     style="clip-rule:evenodd;fill:#0000ff;fill-rule:evenodd;stroke-width:0.352023;stroke-linecap:square;stroke-linejoin:round;stroke-miterlimit:1.5" /><ellipse
     id="EOF3"
     cx="31.818407"
     cy="112.32989"
     rx="4.0264416"
     ry="3.992295"
     style="clip-rule:evenodd;fill:#0000ff;fill-rule:evenodd;stroke-width:0.352023;stroke-linecap:square;stroke-linejoin:round;stroke-miterlimit:1.5" /><ellipse
     id="_41"
     serif:id="4"
     cx="44.177589"
     cy="93.125267"
     rx="4.0264416"
     ry="3.992295"
     style="clip-rule:evenodd;fill:#0000ff;fill-rule:evenodd;stroke-width:0.352023;stroke-linecap:square;stroke-linejoin:round;stroke-miterlimit:1.5"
     inkscape:label="_4" /><ellipse
     id="EOF4"
     cx="44.177589"
     cy="112.32989"
     rx="4.0264416"
     ry="3.992295"
     style="clip-rule:evenodd;fill:#0000ff;fill-rule:evenodd;stroke-width:0.352023;stroke-linecap:square;stroke-linejoin:round;stroke-miterlimit:1.5" /><ellipse
     id="_51"
     serif:id="5"
     cx="56.53677"
     cy="93.125267"
     rx="4.0264416"
     ry="3.992295"
     style="clip-rule:evenodd;fill:#0000ff;fill-rule:evenodd;stroke-width:0.352023;stroke-linecap:square;stroke-linejoin:round;stroke-miterlimit:1.5"
     inkscape:label="_5" /><ellipse
     id="EOF5"
     cx="56.53677"
     cy="112.32989"
     rx="4.0264416"
     ry="3.992295"
     style="clip-rule:evenodd;fill:#0000ff;fill-rule:evenodd;stroke-width:0.352023;stroke-linecap:square;stroke-linejoin:round;stroke-miterlimit:1.5" /><ellipse
     id="_61"
     serif:id="6"
     cx="68.895958"
     cy="93.125267"
     rx="4.0264416"
     ry="3.992295"
     style="clip-rule:evenodd;fill:#0000ff;fill-rule:evenodd;stroke-width:0.352023;stroke-linecap:square;stroke-linejoin:round;stroke-miterlimit:1.5"
     inkscape:label="_6" /><ellipse
     id="EOF6"
     cx="68.895958"
     cy="112.32989"
     rx="4.0264416"
     ry="3.992295"
     style="clip-rule:evenodd;fill:#0000ff;fill-rule:evenodd;stroke-width:0.352023;stroke-linecap:square;stroke-linejoin:round;stroke-miterlimit:1.5" /><ellipse
     id="_12"
     serif:id="1"
     cx="7.099689"
     cy="86.153442"
     rx="1.5087714"
     ry="1.5207403"
     style="clip-rule:evenodd;fill:#ff00ff;fill-rule:evenodd;stroke-width:0.352023;stroke-linecap:square;stroke-linejoin:round;stroke-miterlimit:1.5"
     inkscape:label="_1" /><ellipse
     id="_22"
     serif:id="2"
     cx="19.518364"
     cy="86.153442"
     rx="1.5087714"
     ry="1.5207403"
     style="clip-rule:evenodd;fill:#ff00ff;fill-rule:evenodd;stroke-width:0.352023;stroke-linecap:square;stroke-linejoin:round;stroke-miterlimit:1.5"
     inkscape:label="_2" /><ellipse
     id="_32"
     serif:id="3"
     cx="31.81876"
     cy="86.153442"
     rx="1.5087714"
     ry="1.5207403"
     style="clip-rule:evenodd;fill:#ff00ff;fill-rule:evenodd;stroke-width:0.352023;stroke-linecap:square;stroke-linejoin:round;stroke-miterlimit:1.5"
     inkscape:label="_3" /><ellipse
     id="_42"
     serif:id="4"
     cx="44.119156"
     cy="86.153442"
     rx="1.5087714"
     ry="1.5207403"
     style="clip-rule:evenodd;fill:#ff00ff;fill-rule:evenodd;stroke-width:0.352023;stroke-linecap:square;stroke-linejoin:round;stroke-miterlimit:1.5"
     inkscape:label="_4" /><ellipse
     id="_52"
     serif:id="5"
     cx="56.419552"
     cy="86.153442"
     rx="1.5087714"
     ry="1.5207403"
     style="clip-rule:evenodd;fill:#ff00ff;fill-rule:evenodd;stroke-width:0.352023;stroke-linecap:square;stroke-linejoin:round;stroke-miterlimit:1.5"
     inkscape:label="_5" /><ellipse
     id="_62"
     serif:id="6"
     cx="68.895958"
     cy="86.153442"
     rx="1.5087714"
     ry="1.5207403"
     style="clip-rule:evenodd;fill:#ff00ff;fill-rule:evenodd;stroke-width:0.352023;stroke-linecap:square;stroke-linejoin:round;stroke-miterlimit:1.5"
     inkscape:label="_6" /><circle
     id="TIME1"
     cx="11.228216"
     cy="26.738264"
     r="5.2803483"
     style="clip-rule:evenodd;fill:#ff0000;fill-rule:evenodd;stroke-width:0.352023;stroke-linecap:square;stroke-linejoin:round;stroke-miterlimit:1.5" /><ellipse
     id="TIME11"
     serif:id="TIME1"
     cx="11.228216"
     cy="58.714642"
     rx="4.0264416"
     ry="3.992295"
     style="clip-rule:evenodd;fill:#00ff00;fill-rule:evenodd;stroke-width:0.352023;stroke-linecap:square;stroke-linejoin:round;stroke-miterlimit:1.5"
     inkscape:label="TIME1" /><ellipse
     id="TIME1_ATTEN"
     cx="11.228216"
     cy="45.31488"
     rx="4.0264416"
     ry="3.992295"
     style="clip-rule:evenodd;fill:#ff0000;fill-rule:evenodd;stroke-width:0.352023;stroke-linecap:square;stroke-linejoin:round;stroke-miterlimit:1.5" /><ellipse
     id="_7"
     serif:id="7"
     cx="7.099689"
     cy="105.86675"
     rx="1.5087714"
     ry="1.5207403"
     style="clip-rule:evenodd;fill:#ff00ff;fill-rule:evenodd;stroke-width:0.352023;stroke-linecap:square;stroke-linejoin:round;stroke-miterlimit:1.5" /><ellipse
     id="_8"
     serif:id="8"
     cx="19.518364"
     cy="105.86675"
     rx="1.5087714"
     ry="1.5207403"
     style="clip-rule:evenodd;fill:#ff00ff;fill-rule:evenodd;stroke-width:0.352023;stroke-linecap:square;stroke-linejoin:round;stroke-miterlimit:1.5" /><ellipse
     id="_9"
     serif:id="9"
     cx="31.81876"
     cy="105.86675"
     rx="1.5087714"
     ry="1.5207403"
     style="clip-rule:evenodd;fill:#ff00ff;fill-rule:evenodd;stroke-width:0.352023;stroke-linecap:square;stroke-linejoin:round;stroke-miterlimit:1.5" /><ellipse
     id="_10"
     serif:id="10"
     cx="44.119156"
     cy="105.86675"
     rx="1.5087714"
     ry="1.5207403"
     style="clip-rule:evenodd;fill:#ff00ff;fill-rule:evenodd;stroke-width:0.352023;stroke-linecap:square;stroke-linejoin:round;stroke-miterlimit:1.5" /><ellipse
     id="_111"
     serif:id="11"
     cx="56.419552"
     cy="105.86675"
     rx="1.5087714"
     ry="1.5207403"
     style="clip-rule:evenodd;fill:#ff00ff;fill-rule:evenodd;stroke-width:0.352023;stroke-linecap:square;stroke-linejoin:round;stroke-miterlimit:1.5"
     inkscape:label="_11" /><ellipse
     id="_121"
     serif:id="12"
     cx="68.895958"
     cy="105.93715"
     rx="1.5087714"
     ry="1.5207403"
     style="clip-rule:evenodd;fill:#ff00ff;fill-rule:evenodd;stroke-width:0.352023;stroke-linecap:square;stroke-linejoin:round;stroke-miterlimit:1.5"
     inkscape:label="_12" /></g></svg>
