<?xml version="1.0" encoding="UTF-8" standalone="no"?>
<!-- Created with Inkscape (http://www.inkscape.org/) -->

<svg
   width="152.384mm"
   height="128.5mm"
   viewBox="0 0 152.38401 128.50002"
   version="1.1"
   id="svg8"
   inkscape:version="1.3.2 (091e20e, 2023-11-25)"
   sodipodi:docname="ImpulseController-dark.svg"
   xml:space="preserve"
   xmlns:inkscape="http://www.inkscape.org/namespaces/inkscape"
   xmlns:sodipodi="http://sodipodi.sourceforge.net/DTD/sodipodi-0.dtd"
   xmlns="http://www.w3.org/2000/svg"
   xmlns:svg="http://www.w3.org/2000/svg"
   xmlns:rdf="http://www.w3.org/1999/02/22-rdf-syntax-ns#"
   xmlns:cc="http://creativecommons.org/ns#"
   xmlns:dc="http://purl.org/dc/elements/1.1/"
   xmlns:serif="http://www.serif.com/"><defs
     id="defs2">
            
            
        
            
            
        </defs><sodipodi:namedview
     id="base"
     pagecolor="#ffffff"
     bordercolor="#666666"
     borderopacity="1.0"
     inkscape:pageopacity="0.0"
     inkscape:pageshadow="2"
     inkscape:zoom="1.3715585"
     inkscape:cx="285.07716"
     inkscape:cy="244.61224"
     inkscape:document-units="mm"
     inkscape:current-layer="layer1"
     showgrid="false"
     units="mm"
     inkscape:snap-bbox="true"
     inkscape:snap-page="true"
     inkscape:bbox-nodes="false"
     inkscape:snap-bbox-edge-midpoints="false"
     inkscape:window-width="1600"
     inkscape:window-height="900"
     inkscape:window-x="44"
     inkscape:window-y="38"
     inkscape:window-maximized="0"
     inkscape:snap-bbox-midpoints="true"
     inkscape:snap-nodes="false"
     inkscape:showpageshadow="2"
     inkscape:pagecheckerboard="0"
     inkscape:deskcolor="#d1d1d1" /><metadata
     id="metadata5"><rdf:RDF><cc:Work
         rdf:about=""><dc:format>image/svg+xml</dc:format><dc:type
           rdf:resource="http://purl.org/dc/dcmitype/StillImage" /></cc:Work></rdf:RDF></metadata><g
     inkscape:label="Layer 1"
     inkscape:groupmode="layer"
     id="layer1"
     transform="translate(0,-168.49998)"
     style="display:inline"><rect
       x="-0.04501665"
       y="168.87805"
       width="152.29932"
       height="128.41539"
       style="clip-rule:evenodd;fill:#202020;fill-opacity:1;fill-rule:evenodd;stroke:#ebebeb;stroke-width:0.0846107px;stroke-linecap:round;stroke-linejoin:round;stroke-miterlimit:1.5"
       id="rect1-0"
       sodipodi:insensitive="true" /><path
       id="path128"
       d="m 71.383265,293.88119 c 0.05918,0.1254 0.07855,0.25115 0.05777,0.37795 h -0.414579 c -0.0063,-0.0972 -0.02536,-0.17048 -0.05777,-0.21979 -0.05671,-0.0881 -0.159209,-0.13209 -0.307147,-0.13209 -0.150756,0 -0.282844,0.062 -0.395558,0.18633 -0.113067,0.12399 -0.193024,0.2994 -0.240224,0.52659 -0.04755,0.22719 -0.03734,0.39697 0.03135,0.51039 0.06833,0.11306 0.173299,0.16942 0.314897,0.16942 0.145472,0 0.26664,-0.0486 0.363505,-0.14582 0.05319,-0.0518 0.104261,-0.13033 0.153573,-0.23459 h 0.410704 c -0.08172,0.22085 -0.210987,0.40014 -0.387104,0.53856 -0.176469,0.13773 -0.38006,0.20712 -0.610773,0.20712 -0.285309,0 -0.490308,-0.0933 -0.614999,-0.28003 -0.123986,-0.18774 -0.15146,-0.44487 -0.08348,-0.77209 0.07326,-0.35329 0.222963,-0.62592 0.448393,-0.81719 0.196546,-0.1666 0.41951,-0.25008 0.668891,-0.25008 0.333917,0 0.554415,0.11201 0.662551,0.33532 z"
       style="clip-rule:evenodd;fill:#ffffff;fill-rule:nonzero;stroke-width:0.352233;stroke-linecap:round;stroke-linejoin:round;stroke-miterlimit:1.5" /><path
       id="path129"
       d="m 72.301185,295.12176 0.75554,-1.53715 h 0.430782 l -1.098616,2.02394 h -0.391684 l -0.249381,-2.02394 h 0.443462 z"
       style="clip-rule:evenodd;fill:#ffffff;fill-rule:nonzero;stroke-width:0.352233;stroke-linecap:round;stroke-linejoin:round;stroke-miterlimit:1.5" /><path
       id="path130"
       d="m 75.053184,294.12564 -0.05812,0.27616 h -0.251142 l -0.25079,1.20675 H 74.11096 l 0.25079,-1.20675 h -0.21451 l 0.05777,-0.27616 h 0.210283 l 0.01972,-0.0961 c 0.03382,-0.16027 0.08313,-0.27052 0.148291,-0.3311 0.07467,-0.0895 0.218032,-0.13456 0.430781,-0.13456 0.0243,0 0.04614,7.1e-4 0.06551,0.002 0.01937,0.001 0.04614,0.004 0.08031,0.006 l -0.06728,0.31913 c -0.02078,-0.003 -0.05636,-0.005 -0.106374,-0.006 -0.05037,-0.001 -0.08806,0.01 -0.112715,0.0342 -0.02466,0.0243 -0.03945,0.0511 -0.04509,0.0803 -0.0063,0.0296 -0.01515,0.0715 -0.02712,0.12645 z"
       style="clip-rule:evenodd;fill:#ffffff;fill-rule:nonzero;stroke-width:0.352233;stroke-linecap:round;stroke-linejoin:round;stroke-miterlimit:1.5" /><path
       id="path131"
       d="m 75.94997,295.39756 c -0.0042,0.005 -0.0162,0.0183 -0.03522,0.0412 -0.01867,0.0229 -0.0398,0.0426 -0.06305,0.0602 -0.07186,0.0549 -0.138076,0.0923 -0.19866,0.11237 -0.06023,0.0201 -0.128213,0.0303 -0.203943,0.0303 -0.216976,0 -0.34695,-0.0793 -0.388865,-0.23882 -0.0236,-0.0877 -0.01726,-0.21733 0.01867,-0.38851 l 0.187388,-0.90242 h 0.39274 l -0.187036,0.90242 c -0.01796,0.0852 -0.02149,0.14899 -0.01092,0.19232 0.01902,0.0761 0.0796,0.11412 0.181752,0.11412 0.131031,0 0.232122,-0.0542 0.303273,-0.16238 0.03769,-0.0585 0.06657,-0.13596 0.0863,-0.23177 l 0.169424,-0.81471 h 0.388865 l -0.311022,1.49664 h -0.372663 z"
       style="clip-rule:evenodd;fill:#ffffff;fill-rule:nonzero;stroke-width:0.352233;stroke-linecap:round;stroke-linejoin:round;stroke-miterlimit:1.5" /><path
       id="path132"
       d="m 77.775595,294.69873 c 0.01691,-0.0789 0.01937,-0.13949 0.0067,-0.1814 -0.02149,-0.0771 -0.08489,-0.11553 -0.190911,-0.11553 -0.130326,0 -0.231417,0.0564 -0.30292,0.16872 -0.03804,0.0599 -0.06622,0.13596 -0.08489,0.22824 l -0.168367,0.80979 h -0.382173 l 0.310669,-1.49418 h 0.37055 l -0.04579,0.21839 c 0.06516,-0.0764 0.123634,-0.13209 0.17506,-0.1659 0.09123,-0.0606 0.197955,-0.0905 0.318771,-0.0905 0.151812,0 0.267345,0.0402 0.34695,0.12152 0.07925,0.081 0.09968,0.21522 0.06094,0.40296 l -0.209931,1.00774 H 77.58715 Z"
       style="clip-rule:evenodd;fill:#ffffff;fill-rule:nonzero;stroke-width:0.352233;stroke-linecap:round;stroke-linejoin:round;stroke-miterlimit:1.5" /><path
       id="path133"
       d="m 78.804117,295.13832 -0.09651,0.47023 h -0.377242 l 0.420214,-2.01724 h 0.37689 l -0.227895,1.09086 0.595274,-0.56357 h 0.475515 l -0.632963,0.57308 0.343075,0.91687 h -0.463187 l -0.21768,-0.63966 z"
       style="clip-rule:evenodd;fill:#ffffff;fill-rule:nonzero;stroke-width:0.352233;stroke-linecap:round;stroke-linejoin:round;stroke-miterlimit:1.5" /><path
       id="path134"
       d="m 62.205121,294.60574 h 6.548722"
       style="clip-rule:evenodd;fill:none;fill-rule:evenodd;stroke:#ebb444;stroke-width:0.225429px;stroke-linecap:round;stroke-linejoin:round;stroke-miterlimit:1.5" /><path
       id="path135"
       d="m 80.31238,294.60574 h 6.548722"
       style="clip-rule:evenodd;fill:none;fill-rule:evenodd;stroke:#ebb444;stroke-width:0.225429px;stroke-linecap:round;stroke-linejoin:round;stroke-miterlimit:1.5" /><path
       style="font-style:italic;font-size:5.5575px;font-family:Menlo;-inkscape-font-specification:'Menlo Italic';display:none;fill:#ffffff;stroke-width:0.463124"
       d="m 13.941867,173.03067 h 0.518302 l -0.244226,3.28348 0.892782,-2.1709 h 0.572574 l 0.0407,2.17633 1.023036,-3.28891 h 0.537298 l -1.383948,4.05144 h -0.526443 l -0.08412,-2.36085 -1.006754,2.36085 h -0.510162 z m 4.946934,0.45589 -0.987758,2.10034 h 1.166858 z m -0.260507,-0.45589 h 0.667551 l 0.450461,4.05144 h -0.545438 l -0.09498,-1.0556 h -1.411084 l -0.499306,1.0556 h -0.588856 z m 2.995839,3.53585 1.622747,-3.53585 h 0.583429 l -1.951095,4.05144 h -0.700115 l -0.398902,-4.05144 h 0.537297 z m 2.895436,-3.53585 h 2.401556 l -0.08955,0.46131 h -1.856119 l -0.233371,1.19943 h 1.771996 l -0.08684,0.46131 h -1.77471 l -0.282216,1.46807 h 1.904963 l -0.08955,0.46132 h -2.455829 z m 7.147684,0.45046 -0.295785,1.52234 h 0.634988 q 0.447747,0 0.713682,-0.25779 0.268649,-0.26051 0.268649,-0.69198 0,-0.29307 -0.168244,-0.43146 -0.168245,-0.14111 -0.521016,-0.14111 z m -0.461316,-0.45046 h 1.193994 q 0.559006,0 0.852078,0.24965 0.293071,0.24966 0.293071,0.72183 0,0.67569 -0.43418,1.06374 -0.434179,0.38804 -1.193994,0.38804 h -0.632274 l -0.317494,1.62818 h -0.550865 z m 4.496472,2.13833 q 0.195381,0.038 0.312066,0.18182 0.1194,0.14382 0.265935,0.62413 l 0.328349,1.10716 h -0.545438 l -0.287644,-1.02304 q -0.1194,-0.42332 -0.268649,-0.55629 -0.146536,-0.13297 -0.445034,-0.13297 h -0.521016 l -0.333775,1.7123 h -0.550866 l 0.784237,-4.05144 h 1.128867 q 0.56172,0 0.86836,0.24422 0.309353,0.24152 0.309353,0.68384 0,0.49659 -0.282217,0.82223 -0.279503,0.32563 -0.762528,0.38804 z m -0.795092,-1.68787 -0.276789,1.43822 h 0.594283 q 0.442321,0 0.705542,-0.23066 0.265935,-0.23337 0.265935,-0.6187 0,-0.30393 -0.170958,-0.44504 -0.170958,-0.14382 -0.540011,-0.14382 z m 3.424593,3.23464 q 0.230658,0 0.426039,-0.1384 0.195381,-0.13839 0.322921,-0.39619 0.200808,-0.39347 0.325635,-0.95248 0.124826,-0.559 0.124826,-1.07459 0,-0.38534 -0.143822,-0.56715 -0.141108,-0.18453 -0.439607,-0.18453 -0.230658,0 -0.423325,0.1384 -0.192667,0.13839 -0.320207,0.39619 -0.206236,0.3989 -0.331062,0.95248 -0.124827,0.55358 -0.124827,1.06917 0,0.38805 0.141108,0.57257 0.143822,0.18453 0.442321,0.18453 z m 1.761141,-2.40156 q 0,0.2985 -0.06241,0.64856 -0.0597,0.35006 -0.176386,0.71911 -0.0787,0.24965 -0.170958,0.44775 -0.08955,0.19809 -0.195381,0.35819 -0.238798,0.34463 -0.534583,0.51017 -0.295785,0.16281 -0.689261,0.16281 -0.545438,0 -0.808659,-0.33377 -0.263222,-0.33378 -0.263222,-1.02847 0,-0.30121 0.05699,-0.64584 0.0597,-0.34734 0.176386,-0.71639 0.0787,-0.24966 0.168245,-0.44775 0.09226,-0.1981 0.198094,-0.3582 0.238799,-0.34463 0.534584,-0.50745 0.295785,-0.16553 0.68926,-0.16553 0.548152,0 0.811373,0.33378 0.265935,0.33106 0.265935,1.02303 z m 1.611893,-0.83308 -0.295785,1.52234 h 0.634988 q 0.447748,0 0.713683,-0.25779 0.268648,-0.26051 0.268648,-0.69198 0,-0.29307 -0.168244,-0.43146 -0.168245,-0.14111 -0.521016,-0.14111 z m -0.461316,-0.45046 h 1.193994 q 0.559006,0 0.852078,0.24965 0.293071,0.24966 0.293071,0.72183 0,0.67569 -0.43418,1.06374 -0.434179,0.38804 -1.193994,0.38804 h -0.632274 l -0.317494,1.62818 h -0.550865 z m 4.412351,0.45589 -0.987758,2.10034 h 1.166858 z m -0.260507,-0.45589 h 0.667551 l 0.450461,4.05144 h -0.545438 l -0.09498,-1.0556 h -1.411084 l -0.499306,1.0556 H 43.37382 Z m 4.241393,3.79093 q -0.236085,0.16824 -0.515588,0.25508 -0.279504,0.0841 -0.596997,0.0841 -0.629561,0 -0.968764,-0.36362 -0.336489,-0.36634 -0.336489,-1.04203 0,-0.24423 0.04342,-0.51831 0.04613,-0.27679 0.132967,-0.578 0.09498,-0.31749 0.222517,-0.57257 0.127541,-0.2578 0.279504,-0.43961 0.290357,-0.35277 0.640415,-0.52101 0.352771,-0.16825 0.803232,-0.16825 0.21709,0 0.431466,0.057 0.21709,0.057 0.426039,0.16553 l -0.111259,0.56172 q -0.176385,-0.17096 -0.371766,-0.25508 -0.192667,-0.0841 -0.412471,-0.0841 -0.265935,0 -0.499306,0.11398 -0.233372,0.11126 -0.417898,0.33106 -0.1194,0.14111 -0.225231,0.35277 -0.105831,0.21166 -0.18724,0.47488 -0.09226,0.30936 -0.141108,0.58072 -0.04613,0.27136 -0.04613,0.49117 0,0.46402 0.214376,0.71639 0.214377,0.25237 0.607852,0.25237 0.184526,0 0.331062,-0.0488 0.146535,-0.0516 0.24694,-0.14653 l 0.206235,-1.06646 h -0.588856 l 0.08141,-0.45046 h 1.112586 z m 2.71091,-3.33504 -0.987759,2.10034 h 1.166858 z m -0.260508,-0.45589 h 0.667551 l 0.450462,4.05144 h -0.545439 l -0.09498,-1.0556 h -1.411084 l -0.499307,1.0556 h -0.588856 z m 2.135618,0 h 3.09353 l -0.08955,0.46131 h -1.272689 l -0.694688,3.59013 H 54.70591 l 0.700115,-3.59013 h -1.27269 z m 3.761082,0 h 2.252307 l -0.08955,0.46131 h -0.852078 l -0.605138,3.12881 h 0.852078 l -0.08955,0.46132 H 57.19973 l 0.08955,-0.46132 h 0.849364 l 0.607851,-3.12881 h -0.852078 z m 3.769223,3.6851 q 0.230658,0 0.426039,-0.1384 0.195381,-0.13839 0.322921,-0.39619 0.200808,-0.39347 0.325635,-0.95248 0.124826,-0.559 0.124826,-1.07459 0,-0.38534 -0.143822,-0.56715 -0.141108,-0.18453 -0.439607,-0.18453 -0.230658,0 -0.423325,0.1384 -0.192667,0.13839 -0.320207,0.39619 -0.206236,0.3989 -0.331062,0.95248 -0.124827,0.55358 -0.124827,1.06917 0,0.38805 0.141108,0.57257 0.143822,0.18453 0.442321,0.18453 z m 1.761141,-2.40156 q 0,0.2985 -0.06241,0.64856 -0.0597,0.35006 -0.176386,0.71911 -0.07869,0.24965 -0.170958,0.44775 -0.08955,0.19809 -0.195381,0.35819 -0.238799,0.34463 -0.534583,0.51017 -0.295785,0.16281 -0.689261,0.16281 -0.545438,0 -0.808659,-0.33377 -0.263222,-0.33378 -0.263222,-1.02847 0,-0.30121 0.05699,-0.64584 0.0597,-0.34734 0.176386,-0.71639 0.0787,-0.24966 0.168244,-0.44775 0.09226,-0.1981 0.198095,-0.3582 0.238799,-0.34463 0.534584,-0.50745 0.295785,-0.16553 0.68926,-0.16553 0.548152,0 0.811373,0.33378 0.265935,0.33106 0.265935,1.02303 z m 0.9959,-1.28354 h 0.694688 l 0.716396,3.33504 0.648556,-3.33504 h 0.529157 l -0.789665,4.05144 h -0.694687 l -0.716397,-3.33505 -0.651269,3.33505 h -0.526443 z"
       id="text1"
       aria-label="WAVE PROPAGATION" /><path
       d="m 27.523752,256.2821 2.18466,-2.29555 2.05405,2.29555 h -4.12641"
       style="clip-rule:evenodd;display:none;fill:#d08c59;fill-rule:evenodd;stroke-width:0.352023;stroke-linecap:square;stroke-linejoin:round;stroke-miterlimit:1.5"
       id="path38" /><path
       d="m 45.881382,256.2821 2.18465,-2.29555 2.05406,2.29555 h -4.12642"
       style="clip-rule:evenodd;display:none;fill:#d08c59;fill-rule:evenodd;stroke-width:0.352023;stroke-linecap:square;stroke-linejoin:round;stroke-miterlimit:1.5"
       id="path39" /><path
       d="m 33.417682,268.35051 3.73355,-2.29519 0.50516,2.29519 h -4.12642"
       style="clip-rule:evenodd;display:none;fill:#d08c59;fill-rule:evenodd;stroke-width:0.352023;stroke-linecap:square;stroke-linejoin:round;stroke-miterlimit:1.5"
       id="path42" /><path
       d="m 21.305996,268.36705 0.49495,-2.29554 3.74376,2.29554 h -4.12641"
       style="clip-rule:evenodd;display:none;fill:#d08c59;fill-rule:evenodd;stroke-width:0.352023;stroke-linecap:square;stroke-linejoin:round;stroke-miterlimit:1.5"
       id="path43" /><path
       d="m 56.551202,268.36705 c -0.22072,-1.67739 -0.95293,-2.43564 -2.18466,-2.29554 0.14468,1.19618 -0.26753,2.10264 -2.05405,2.29554 h 4.12641"
       style="clip-rule:evenodd;display:none;fill:#d08c59;fill-rule:evenodd;stroke-width:0.352023;stroke-linecap:square;stroke-linejoin:round;stroke-miterlimit:1.5"
       id="path44" /><path
       d="m 39.802642,268.36705 c 0.22072,-1.67739 0.95293,-2.43564 2.1843,-2.29554 -0.14433,1.19618 0.26789,2.10264 2.05441,2.29554 h -4.12642"
       style="clip-rule:evenodd;display:none;fill:#d08c59;fill-rule:evenodd;stroke-width:0.352023;stroke-linecap:square;stroke-linejoin:round;stroke-miterlimit:1.5"
       id="path45" /><path
       d="m 8.854676,78.826692 h 1.141259 l -0.04541,0.233743 H 9.518945 L 9.21198,80.645948 h 0.431933 l -0.04541,0.233743 H 8.457244 l 0.04541,-0.233743 h 0.430172 l 0.30802,-1.585513 h -0.43158 z"
       style="clip-rule:evenodd;fill:#ffffff;fill-rule:nonzero;stroke-width:0.352023;stroke-linecap:square;stroke-linejoin:round;stroke-miterlimit:1.5"
       id="path92"
       transform="translate(0,168.49998)" /><path
       d="m 10.466238,78.826692 h 0.352023 l 0.362936,1.690063 0.32879,-1.690063 h 0.268242 l -0.400251,2.052999 h -0.352023 l -0.362936,-1.690063 -0.330198,1.690063 h -0.266833 z"
       style="clip-rule:evenodd;fill:#ffffff;fill-rule:nonzero;stroke-width:0.352023;stroke-linecap:square;stroke-linejoin:round;stroke-miterlimit:1.5"
       id="path93"
       transform="translate(0,168.49998)" /><path
       id="path401"
       serif:id="path40"
       d="m 15.791834,199.28897 -0.811061,-0.20241 0.201709,-0.81247"
       style="clip-rule:evenodd;fill:none;fill-rule:evenodd;stroke:#d08c59;stroke-width:0.246416px;stroke-linecap:butt;stroke-linejoin:miter;stroke-miterlimit:10" /><path
       id="path411"
       serif:id="path41"
       d="m 6.4674438,198.77044 c -1.881564,-1.36656 -3.1034365,-3.56881 -3.1034365,-6.05128 0,-4.14226 3.4033603,-7.50514 7.5956047,-7.50514 4.192244,0 7.595956,3.36288 7.595956,7.50514 0,2.13502 -0.904347,4.06305 -2.354683,5.43031 -0.372793,0.35132 -0.781492,0.66603 -1.220112,0.93709"
       style="clip-rule:evenodd;fill:none;fill-rule:evenodd;stroke:#d08c59;stroke-width:0.246416px;stroke-linecap:butt;stroke-linejoin:round;stroke-miterlimit:1.5" /><path
       d="m 6.3597247,198.66096 -1.0557175,1.49081"
       style="clip-rule:evenodd;fill:none;fill-rule:evenodd;stroke:#d08c59;stroke-width:0.264017px;stroke-linecap:square;stroke-linejoin:round;stroke-miterlimit:1.5"
       id="path67" /><path
       id="path1"
       serif:id="path40"
       d="m 53.18431,199.09217 -0.811061,-0.20241 0.201709,-0.81247"
       style="clip-rule:evenodd;fill:none;fill-rule:evenodd;stroke:#d08c59;stroke-width:0.246416px;stroke-linecap:butt;stroke-linejoin:miter;stroke-miterlimit:10" /><path
       id="path2"
       serif:id="path41"
       d="m 43.85992,198.57364 c -1.881564,-1.36656 -3.103437,-3.56881 -3.103437,-6.05128 0,-4.14226 3.403361,-7.50514 7.595605,-7.50514 4.192244,0 7.595957,3.36288 7.595957,7.50514 0,2.13502 -0.904348,4.06305 -2.354684,5.43031 -0.372792,0.35132 -0.781491,0.66603 -1.220112,0.93709"
       style="clip-rule:evenodd;fill:none;fill-rule:evenodd;stroke:#d08c59;stroke-width:0.246416px;stroke-linecap:butt;stroke-linejoin:round;stroke-miterlimit:1.5" /><path
       d="m 43.752201,198.46416 -1.055718,1.49081"
       style="clip-rule:evenodd;fill:none;fill-rule:evenodd;stroke:#d08c59;stroke-width:0.264017px;stroke-linecap:square;stroke-linejoin:round;stroke-miterlimit:1.5"
       id="path3" /><path
       id="path30"
       d="m 26.088234,199.25185 c -2.290652,-1.31292 -3.835089,-3.78558 -3.835089,-6.61657 0,-4.20482 3.408018,-7.61853 7.605708,-7.61853 4.197333,0 7.604639,3.41371 7.604639,7.61853 0,2.71914 -1.424757,5.10668 -3.566523,6.45557"
       style="clip-rule:evenodd;fill:none;fill-rule:evenodd;stroke:#d08c59;stroke-width:0.270704px;stroke-linejoin:round;stroke-miterlimit:1.5" /><path
       id="path36"
       d="m 29.715169,185.20536 v -2.57988"
       style="clip-rule:evenodd;fill:none;fill-rule:evenodd;stroke:#d08c59;stroke-width:0.413179px;stroke-linejoin:round;stroke-miterlimit:1.5" /><path
       style="font-style:italic;font-size:3.175px;font-family:Menlo;-inkscape-font-specification:'Menlo Italic';text-align:center;text-anchor:middle;fill:#ffffff;stroke-width:0.15"
       d="m 25.368019,219.57449 -0.06046,0.31782 q -0.125574,-0.0915 -0.260449,-0.13798 -0.134876,-0.0465 -0.279053,-0.0465 -0.255798,0 -0.417029,0.12712 -0.16123,0.12713 -0.16123,0.32402 0,0.11007 0.07596,0.17828 0.07597,0.0682 0.275952,0.13022 l 0.187586,0.0605 q 0.252698,0.0775 0.368969,0.20773 0.117823,0.12868 0.117823,0.32867 0,0.36432 -0.257349,0.57826 -0.257348,0.21239 -0.702283,0.21239 -0.16123,0 -0.31781,-0.0357 -0.155029,-0.0341 -0.310058,-0.10387 l 0.06356,-0.32401 q 0.151929,0.10697 0.306958,0.15813 0.156579,0.0512 0.330212,0.0512 0.255799,0 0.415479,-0.13643 0.15968,-0.13642 0.15968,-0.34571 0,-0.12713 -0.06821,-0.19689 -0.06821,-0.0698 -0.274402,-0.13333 l -0.156579,-0.0512 q -0.285254,-0.0899 -0.399976,-0.20308 -0.113171,-0.11473 -0.113171,-0.30231 0,-0.34262 0.255798,-0.55966 0.255798,-0.21859 0.668176,-0.21859 0.124024,0 0.26355,0.031 0.141077,0.031 0.288354,0.0899 z m 0.927076,0.17829 -0.168982,0.86971 h 0.362768 q 0.255799,0 0.407727,-0.14727 0.153479,-0.14883 0.153479,-0.39533 0,-0.16743 -0.09612,-0.2465 -0.09612,-0.0806 -0.297656,-0.0806 z m -0.26355,-0.25735 h 0.682129 q 0.31936,0 0.486792,0.14263 0.167431,0.14262 0.167431,0.41237 0,0.38603 -0.248047,0.60772 -0.248046,0.22169 -0.682128,0.22169 h -0.361219 l -0.181384,0.93018 H 25.58041 Z m 2.568835,1.22163 q 0.111621,0.0217 0.178284,0.10387 0.06821,0.0822 0.151929,0.35657 l 0.187585,0.63252 h -0.311609 l -0.164331,-0.58446 q -0.06821,-0.24185 -0.153479,-0.31781 -0.08372,-0.076 -0.254248,-0.076 h -0.297656 l -0.190686,0.97824 h -0.31471 l 0.448035,-2.31459 h 0.644922 q 0.320911,0 0.496094,0.13953 0.176733,0.13797 0.176733,0.39067 0,0.2837 -0.16123,0.46974 -0.159681,0.18603 -0.435633,0.22169 z m -0.454236,-0.96428 -0.158129,0.82165 h 0.339514 q 0.252697,0 0.403076,-0.13177 0.151929,-0.13333 0.151929,-0.35347 0,-0.17363 -0.09767,-0.25425 -0.09767,-0.0822 -0.308508,-0.0822 z m 1.711524,-0.25735 h 1.372009 l -0.05116,0.26355 h -1.0604 l -0.133325,0.68523 h 1.012341 l -0.04961,0.26355 h -1.013891 l -0.161231,0.83871 h 1.088306 l -0.05116,0.26355 h -1.403015 z m 2.517676,0.26045 -0.564307,1.19993 h 0.666626 z m -0.148829,-0.26045 h 0.381372 l 0.257349,2.31459 h -0.311609 l -0.05426,-0.60307 h -0.806152 l -0.285254,0.60307 h -0.336414 z m 1.42317,2.05724 q 0.286804,0 0.460437,-0.0961 0.173632,-0.0977 0.279052,-0.31626 0.08372,-0.17828 0.136426,-0.42478 0.05426,-0.24805 0.05426,-0.45424 0,-0.27285 -0.127124,-0.39067 -0.127124,-0.11782 -0.42633,-0.11782 h -0.176734 l -0.350366,1.79989 z m 0.406176,-2.05724 q 0.42323,0 0.63252,0.19224 0.21084,0.19223 0.21084,0.58291 0,0.25114 -0.06511,0.51779 -0.06511,0.26665 -0.175183,0.47284 -0.16123,0.29611 -0.403076,0.42323 -0.240295,0.12558 -0.651123,0.12558 H 33.13499 l 0.451136,-2.31459 z"
       id="text6"
       aria-label="SPREAD" /><path
       style="font-style:italic;font-size:3.175px;font-family:Menlo;-inkscape-font-specification:'Menlo Italic';text-align:center;text-anchor:middle;fill:#ffffff;stroke-width:0.15"
       d="m 44.334528,221.55258 q 0.286804,0 0.460437,-0.0961 0.173633,-0.0977 0.279053,-0.31626 0.08372,-0.17828 0.136425,-0.42478 0.05426,-0.24805 0.05426,-0.45424 0,-0.27285 -0.127124,-0.39067 -0.127124,-0.11782 -0.426331,-0.11782 h -0.176733 l -0.350366,1.79989 z m 0.406177,-2.05724 q 0.42323,0 0.632519,0.19224 0.21084,0.19223 0.21084,0.58291 0,0.25114 -0.06511,0.51779 -0.06511,0.26665 -0.175183,0.47284 -0.161231,0.29611 -0.403076,0.42323 -0.240296,0.12558 -0.651124,0.12558 h -0.46974 l 0.451135,-2.31459 z m 1.53634,0 h 1.372009 l -0.05116,0.26355 h -1.060401 l -0.133325,0.68523 h 1.012341 l -0.04961,0.26355 h -1.013892 l -0.16123,0.83871 h 1.088306 l -0.05116,0.26355 h -1.403015 z m 2.841687,2.23242 q -0.130225,0.0636 -0.26355,0.0946 -0.131775,0.0326 -0.272851,0.0326 -0.356568,0 -0.553455,-0.20619 -0.195337,-0.20619 -0.195337,-0.57826 0,-0.34107 0.108521,-0.67593 0.10852,-0.33486 0.285254,-0.54725 0.165881,-0.20154 0.365869,-0.29766 0.199987,-0.0961 0.455786,-0.0961 0.124023,0 0.246496,0.0326 0.122473,0.0326 0.238745,0.0946 l -0.06356,0.32091 q -0.09922,-0.0977 -0.209289,-0.14573 -0.110071,-0.0481 -0.234094,-0.0481 -0.147278,0 -0.272852,0.0636 -0.125574,0.062 -0.235644,0.19069 -0.161231,0.19068 -0.26045,0.48834 -0.09767,0.29766 -0.09767,0.59686 0,0.2682 0.120923,0.41083 0.120923,0.14263 0.348816,0.14263 0.131775,0 0.271301,-0.0496 0.141077,-0.0496 0.277502,-0.14418 z m 1.5875,-1.97197 -0.564307,1.19993 h 0.666626 z m -0.148828,-0.26045 h 0.381372 l 0.257348,2.31459 h -0.311609 l -0.05426,-0.60307 h -0.806152 l -0.285254,0.60307 h -0.336414 z m 1.223181,0 h 0.313159 l 0.365869,1.00924 0.770496,-1.00924 h 0.337964 l -0.984436,1.27589 -0.199988,1.0387 h -0.320911 l 0.203089,-1.0387 z"
       id="path10" /><path
       d="m 40.334501,205.75076 2.44e-4,-2.29554 c 0.261126,1.97774 0.874249,2.0645 1.806622,2.28558 -0.602871,0.001 -1.74716,0.009 -1.78637,0.01"
       style="clip-rule:evenodd;fill:#d08c59;fill-rule:evenodd;stroke-width:0.352023;stroke-linecap:square;stroke-linejoin:round;stroke-miterlimit:1.5"
       id="path43-6"
       sodipodi:nodetypes="cccc" /><path
       d="m 53.429007,205.30742 -0.0131,-2.29554 c 0.01025,0.22884 1.646842,2.28502 6.944132,2.28558 l -6.463042,0.01"
       style="clip-rule:evenodd;fill:#d08c59;fill-rule:evenodd;stroke-width:0.690155;stroke-linecap:square;stroke-linejoin:round;stroke-miterlimit:1.5"
       id="path12"
       sodipodi:nodetypes="cccc" /><rect
       style="fill:#d08c59;fill-opacity:1;stroke:none;stroke-width:0.0723263"
       id="rect12"
       width="0.14653577"
       height="1.9583713"
       x="-26.726271"
       y="203.81691"
       transform="scale(-1,1)" /><rect
       style="fill:#d08c59;fill-opacity:1;stroke:none;stroke-width:0.118844"
       id="rect13"
       width="0.3956466"
       height="1.9583713"
       x="-25.957155"
       y="203.79442"
       transform="scale(-1,1)" /><rect
       style="fill:#d08c59;fill-opacity:1;stroke:none;stroke-width:0.156799"
       id="rect14"
       width="0.68871814"
       height="1.9583713"
       x="-24.938929"
       y="203.77191"
       transform="scale(-1,1)" /><rect
       style="fill:#d08c59;fill-opacity:1;stroke:none;stroke-width:0.209621"
       id="rect15"
       width="1.2309005"
       height="1.9583713"
       x="-23.62763"
       y="203.77191"
       transform="scale(-1,1)" /><rect
       style="fill:#d08c59;fill-opacity:1;stroke:none;stroke-width:0.0723263"
       id="rect19"
       width="0.14653577"
       height="1.9583713"
       x="33.189442"
       y="203.81691" /><rect
       style="fill:#d08c59;fill-opacity:1;stroke:none;stroke-width:0.118844"
       id="rect20"
       width="0.3956466"
       height="1.9583713"
       x="33.958557"
       y="203.79442" /><rect
       style="fill:#d08c59;fill-opacity:1;stroke:none;stroke-width:0.156799"
       id="rect21"
       width="0.68871814"
       height="1.9583713"
       x="34.976784"
       y="203.77191" /><rect
       style="fill:#d08c59;fill-opacity:1;stroke:none;stroke-width:0.209621"
       id="rect22"
       width="1.2309005"
       height="1.9583713"
       x="36.288082"
       y="203.77191" /><path
       d="m 62.770265,249.99402 h -35.41711 c -4.549107,0 -8.242251,-3.69338 -8.242251,-8.242 0,-4.54902 3.693144,-8.242 8.242251,-8.242 h 17.375438 l 53.175501,-53.17523 c 0.968751,-0.96907 2.120236,-1.64652 3.344296,-2.03156 0.99323,-0.42428 2.08526,-0.65899 3.23237,-0.65899 h 36.7793 c 4.54911,0 8.24225,3.69298 8.24225,8.242 0,2.08611 0.18186,90.03443 0.18186,93.41068 0,4.54901 -3.69227,8.242 -8.24138,8.242 h -36.98651 c -0.22208,0 -0.44153,-0.009 -0.65836,-0.0259 -2.14035,0.024 -4.288567,-0.78028 -5.92093,-2.41188 z"
       style="clip-rule:evenodd;display:inline;fill:#3b3b3b;fill-opacity:1;fill-rule:evenodd;stroke:#9d6d49;stroke-width:0.352778;stroke-linecap:round;stroke-linejoin:round;stroke-miterlimit:1.5;stroke-dasharray:none;stroke-opacity:1"
       id="path7"
       inkscape:label="path7" /><path
       style="font-style:italic;font-size:3.175px;font-family:Menlo;-inkscape-font-specification:'Menlo Italic';display:inline;fill:#ffffff;stroke-width:0.352"
       d="m 7.9313573,219.49543 h 0.3131592 l -0.3999756,2.05103 h 1.1177612 l -0.05116,0.26355 H 7.480222 Z m 2.4789187,0.26044 -0.564307,1.19993 h 0.666626 z m -0.148828,-0.26044 h 0.381372 l 0.257348,2.31458 h -0.311609 l -0.05426,-0.60306 H 9.7281468 l -0.2852539,0.60306 H 9.1064793 Z m 2.423107,2.16575 q -0.134875,0.0961 -0.294555,0.14573 -0.15968,0.0481 -0.341065,0.0481 -0.359668,0 -0.553454,-0.20774 -0.192237,-0.20929 -0.192237,-0.59531 0,-0.13953 0.02481,-0.29611 0.02636,-0.15813 0.07596,-0.33021 0.05426,-0.18138 0.127124,-0.32711 0.07286,-0.14728 0.159681,-0.25115 0.165881,-0.20154 0.365869,-0.29765 0.201538,-0.0961 0.458886,-0.0961 0.124024,0 0.246497,0.0325 0.124023,0.0326 0.243396,0.0946 l -0.06356,0.32091 q -0.100769,-0.0977 -0.21239,-0.14573 -0.110071,-0.048 -0.235645,-0.048 -0.151928,0 -0.285254,0.0651 -0.133325,0.0636 -0.238745,0.18913 -0.06821,0.0806 -0.128674,0.20154 -0.06046,0.12092 -0.10697,0.2713 -0.05271,0.17674 -0.08061,0.33177 -0.02636,0.15502 -0.02636,0.2806 0,0.2651 0.122473,0.40928 0.122473,0.14417 0.347265,0.14417 0.10542,0 0.189136,-0.0279 0.08372,-0.0295 0.141077,-0.0837 l 0.117822,-0.60926 h -0.336414 l 0.04651,-0.25735 h 0.63562 z"
       id="text2"
       aria-label="LAG" /><path
       style="font-style:italic;font-size:5.64444px;font-family:Menlo;-inkscape-font-specification:'Menlo Italic';fill:#ffffff;stroke-width:0.352"
       d="m 15.021894,171.41341 h 2.287542 l -0.09095,0.46853 h -0.865408 l -0.614605,3.17776 h 0.865408 l -0.09095,0.46853 h -2.287543 l 0.09095,-0.46853 h 0.862651 l 0.617361,-3.17776 h -0.865407 z m 3.07578,0 h 0.741384 l 0.303168,2.08359 1.141014,-2.08359 h 0.744141 l -0.802018,4.11482 h -0.51263 l 0.711067,-3.65731 -1.196136,2.19108 h -0.388606 l -0.316949,-2.19108 -0.705555,3.65731 h -0.51263 z m 4.178208,0.45751 -0.300412,1.54615 h 0.644921 q 0.454753,0 0.724848,-0.26182 0.272851,-0.26459 0.272851,-0.7028 0,-0.29766 -0.170876,-0.43822 -0.170877,-0.14331 -0.529167,-0.14331 z m -0.468532,-0.45751 h 1.212672 q 0.567752,0 0.865408,0.25356 0.297656,0.25356 0.297656,0.73311 0,0.68627 -0.440972,1.08038 -0.440972,0.39412 -1.212673,0.39412 h -0.642165 l -0.322461,1.65365 h -0.559483 z m 2.772611,2.53559 0.490581,-2.53559 h 0.559483 l -0.493337,2.53559 q -0.0055,0.0358 -0.02205,0.113 -0.08268,0.42443 -0.08268,0.58704 0,0.25356 0.148828,0.38034 0.151584,0.12678 0.454752,0.12678 0.245291,0 0.416167,-0.0772 0.170877,-0.0799 0.2949,-0.2508 0.06063,-0.0854 0.121268,-0.29215 0.06339,-0.20946 0.137803,-0.58704 l 0.490582,-2.53559 h 0.559483 l -0.490582,2.53559 q -0.115755,0.60358 -0.248046,0.88745 -0.129536,0.28112 -0.34451,0.45476 -0.195681,0.15434 -0.446484,0.23702 -0.250802,0.0799 -0.542946,0.0799 -0.529166,0 -0.815798,-0.24804 -0.283876,-0.24805 -0.283876,-0.70556 0,-0.10197 0.02205,-0.27561 0.0248,-0.17363 0.07441,-0.42994 z m 4.098282,-2.53559 h 0.556727 l -0.711067,3.64629 h 1.987129 l -0.09095,0.46853 h -2.543857 z m 5.542465,0.14056 -0.107487,0.56499 q -0.223242,-0.1626 -0.463021,-0.24529 -0.239778,-0.0827 -0.496093,-0.0827 -0.454752,0 -0.741384,0.226 -0.286632,0.226 -0.286632,0.57602 0,0.19568 0.135048,0.31695 0.135048,0.12126 0.490581,0.23151 l 0.333485,0.10748 q 0.44924,0.13781 0.655946,0.36932 0.209461,0.22875 0.209461,0.58429 0,0.64767 -0.457508,1.02801 -0.457508,0.37758 -1.248502,0.37758 -0.286631,0 -0.564995,-0.0634 -0.275607,-0.0606 -0.551215,-0.18465 l 0.112999,-0.57602 q 0.270096,0.19017 0.545703,0.28112 0.278364,0.091 0.587044,0.091 0.454752,0 0.738628,-0.24254 0.283875,-0.24253 0.283875,-0.6146 0,-0.226 -0.121267,-0.35002 -0.121267,-0.12403 -0.487825,-0.23703 l -0.278363,-0.0909 q -0.507118,-0.15985 -0.711068,-0.36104 -0.201193,-0.20395 -0.201193,-0.53744 0,-0.60909 0.454752,-0.99494 0.454752,-0.38861 1.187868,-0.38861 0.220486,0 0.468533,0.0551 0.250803,0.0551 0.51263,0.15985 z m 1.185113,-0.14056 h 2.439126 l -0.09095,0.46853 h -1.885154 l -0.237023,1.21819 h 1.799717 l -0.08819,0.46853 h -1.802472 l -0.286632,1.49104 h 1.934764 l -0.09095,0.46853 h -2.494248 z m 8.450123,3.96875 q -0.23151,0.113 -0.468533,0.16812 -0.234266,0.0579 -0.485069,0.0579 -0.633897,0 -0.983918,-0.36655 -0.347266,-0.36656 -0.347266,-1.02802 0,-0.60634 0.192926,-1.20165 0.192925,-0.59531 0.507117,-0.97289 0.2949,-0.35829 0.650434,-0.52917 0.355533,-0.17088 0.810286,-0.17088 0.220486,0 0.438215,0.0579 0.21773,0.0579 0.424436,0.16812 l -0.112999,0.57051 q -0.176389,-0.17363 -0.37207,-0.25907 -0.195681,-0.0854 -0.416167,-0.0854 -0.261828,0 -0.48507,0.113 -0.223242,0.11024 -0.418923,0.339 -0.286632,0.33899 -0.46302,0.86816 -0.173633,0.52917 -0.173633,1.06109 0,0.4768 0.214974,0.73036 0.214974,0.25356 0.620117,0.25356 0.234266,0 0.482313,-0.0882 0.250802,-0.0882 0.493337,-0.25631 z m 2.180054,-0.226 q 0.234267,0 0.432704,-0.14056 0.198437,-0.14056 0.327973,-0.40239 0.203949,-0.39963 0.330729,-0.96738 0.126779,-0.56775 0.126779,-1.09141 0,-0.39136 -0.146072,-0.57602 -0.143316,-0.18741 -0.446484,-0.18741 -0.234266,0 -0.429947,0.14056 -0.195682,0.14056 -0.325217,0.40239 -0.209462,0.40514 -0.336241,0.96738 -0.12678,0.56224 -0.12678,1.08589 0,0.39412 0.143316,0.58153 0.146072,0.18742 0.44924,0.18742 z m 1.788692,-2.43913 q 0,0.30317 -0.06339,0.6587 -0.06063,0.35554 -0.179145,0.73036 -0.07993,0.25356 -0.173633,0.45476 -0.09095,0.20119 -0.198437,0.3638 -0.242535,0.35002 -0.542947,0.51814 -0.300412,0.16536 -0.700043,0.16536 -0.553971,0 -0.82131,-0.33899 -0.267339,-0.339 -0.267339,-1.04456 0,-0.30592 0.05788,-0.65594 0.06063,-0.35278 0.179144,-0.7276 0.07993,-0.25356 0.170877,-0.45476 0.09371,-0.20119 0.201193,-0.3638 0.242535,-0.35002 0.542947,-0.51538 0.300412,-0.16813 0.700043,-0.16813 0.556727,0 0.824066,0.339 0.270095,0.33624 0.270095,1.03904 z m 1.011479,-1.30362 h 0.705555 l 0.727604,3.38721 0.658702,-3.38721 h 0.537434 l -0.802017,4.11482 h -0.705556 l -0.727603,-3.38722 -0.661458,3.38722 h -0.534678 z m 3.144681,0 h 3.141924 l -0.09095,0.46853 h -1.292599 l -0.705555,3.64629 h -0.562239 l 0.711067,-3.64629 h -1.292599 z m 4.977473,2.17179 q 0.198437,0.0386 0.316949,0.18465 0.121267,0.14607 0.270095,0.6339 l 0.333485,1.12448 h -0.553971 l -0.292144,-1.03904 q -0.121267,-0.42995 -0.272851,-0.565 -0.148828,-0.13504 -0.451996,-0.13504 h -0.529167 l -0.338997,1.73908 h -0.559483 l 0.796506,-4.11482 h 1.146526 q 0.570508,0 0.881944,0.24805 0.314193,0.24529 0.314193,0.69453 0,0.50436 -0.286632,0.83509 -0.283876,0.33073 -0.774457,0.39412 z m -0.80753,-1.71428 -0.281119,1.46072 h 0.60358 q 0.44924,0 0.716579,-0.23427 0.270096,-0.23702 0.270096,-0.62838 0,-0.30868 -0.173633,-0.452 -0.173633,-0.14607 -0.548459,-0.14607 z m 3.478166,3.28524 q 0.234266,0 0.432703,-0.14056 0.198438,-0.14056 0.327973,-0.40239 0.20395,-0.39963 0.330729,-0.96738 0.126779,-0.56775 0.126779,-1.09141 0,-0.39136 -0.146072,-0.57602 -0.143315,-0.18741 -0.446484,-0.18741 -0.234266,0 -0.429947,0.14056 -0.195681,0.14056 -0.325217,0.40239 -0.209462,0.40514 -0.336241,0.96738 -0.126779,0.56224 -0.126779,1.08589 0,0.39412 0.143315,0.58153 0.146072,0.18742 0.449241,0.18742 z m 1.788692,-2.43913 q 0,0.30317 -0.06339,0.6587 -0.06063,0.35554 -0.179145,0.73036 -0.07993,0.25356 -0.173632,0.45476 -0.09095,0.20119 -0.198438,0.3638 -0.242534,0.35002 -0.542946,0.51814 -0.300412,0.16536 -0.700043,0.16536 -0.553971,0 -0.82131,-0.33899 -0.26734,-0.339 -0.26734,-1.04456 0,-0.30592 0.05788,-0.65594 0.06063,-0.35278 0.179145,-0.7276 0.07993,-0.25356 0.170876,-0.45476 0.09371,-0.20119 0.201194,-0.3638 0.242534,-0.35002 0.542946,-0.51538 0.300413,-0.16813 0.700043,-0.16813 0.556727,0 0.824067,0.339 0.270095,0.33624 0.270095,1.03904 z m 1.242989,-1.30362 h 0.556727 L 62.5063,175.0597 h 1.987129 l -0.09095,0.46853 h -2.543857 z m 3.398239,0 h 0.556727 l -0.711067,3.64629 h 1.987129 l -0.09095,0.46853 h -2.543857 z m 3.329337,0 h 2.439126 l -0.09095,0.46853 h -1.885155 l -0.237023,1.21819 h 1.799717 l -0.0882,0.46853 h -1.802467 l -0.286632,1.49104 h 1.934764 l -0.09095,0.46853 h -2.494247 z m 4.561303,2.17179 q 0.198437,0.0386 0.316948,0.18465 0.121268,0.14607 0.270096,0.6339 l 0.333485,1.12448 h -0.553971 l -0.292144,-1.03904 q -0.121268,-0.42995 -0.272852,-0.565 -0.148828,-0.13504 -0.451996,-0.13504 h -0.529166 l -0.338997,1.73908 h -0.559483 l 0.796505,-4.11482 h 1.146527 q 0.570507,0 0.881944,0.24805 0.314192,0.24529 0.314192,0.69453 0,0.50436 -0.286631,0.83509 -0.283876,0.33073 -0.774457,0.39412 z m -0.80753,-1.71428 -0.28112,1.46072 h 0.603581 q 0.44924,0 0.716579,-0.23427 0.270095,-0.23702 0.270095,-0.62838 0,-0.30868 -0.173632,-0.452 -0.173633,-0.14607 -0.548459,-0.14607 z"
       id="text3"
       aria-label="IMPULSE CONTROLLER" /><path
       style="font-style:italic;font-weight:bold;font-size:3.175px;font-family:Arial;-inkscape-font-specification:'Arial Bold Italic';fill:#ffffff;stroke-width:0.926042"
       d="m 115.16643,286.06927 0.47594,-2.27272 h 0.46664 l -0.47439,2.27272 z m 2.20917,0 h -0.44339 l -0.0822,-1.8991 -0.36122,1.8991 h -0.42168 l 0.47439,-2.27272 h 0.66662 l 0.0698,1.59215 0.77514,-1.59215 h 0.67438 l -0.47594,2.27272 h -0.42633 l 0.44804,-1.88515 z m 1.80454,0 h -0.46819 l 0.47594,-2.27272 h 0.92397 q 0.2465,0 0.38913,0.0589 0.14417,0.0574 0.22789,0.19223 0.0837,0.13333 0.0837,0.31936 0,0.17209 -0.0667,0.33487 -0.0667,0.16278 -0.16433,0.26045 -0.0961,0.0977 -0.20774,0.14882 -0.11162,0.0496 -0.30075,0.076 -0.11007,0.0155 -0.41238,0.0155 h -0.29921 z m 0.2589,-1.24333 h 0.14417 q 0.37052,0 0.49455,-0.0465 0.12402,-0.0465 0.19533,-0.14883 0.0713,-0.10232 0.0713,-0.22479 0,-0.0822 -0.0372,-0.13487 -0.0357,-0.0527 -0.10232,-0.076 -0.0651,-0.0248 -0.293,-0.0248 h -0.33487 z m 1.8681,-1.02939 h 0.46664 l -0.25735,1.23403 -0.0636,0.30386 q -0.006,0.0388 -0.006,0.0729 0,0.13488 0.0977,0.22324 0.0992,0.0868 0.28681,0.0868 0.16898,0 0.27905,-0.0636 0.11007,-0.0636 0.17053,-0.18914 0.0605,-0.12557 0.12248,-0.42633 l 0.26045,-1.24178 h 0.46663 l -0.25889,1.24333 q -0.0822,0.39222 -0.18914,0.59996 -0.10697,0.20774 -0.32401,0.33797 -0.21704,0.13022 -0.54881,0.13022 -0.39687,0 -0.60771,-0.19378 -0.21084,-0.19534 -0.21084,-0.50075 0,-0.0636 0.0108,-0.13798 0.006,-0.0496 0.0543,-0.28215 z m 1.82934,2.27272 0.47594,-2.27272 h 0.46664 l -0.39532,1.8929 h 1.15652 l -0.0791,0.37982 z m 1.99833,-0.73638 0.44494,-0.0233 q 0.009,0.21239 0.0729,0.28681 0.10232,0.12092 0.37827,0.12092 0.22945,0 0.33176,-0.0822 0.10232,-0.0822 0.10232,-0.19843 0,-0.10077 -0.0837,-0.17054 -0.0589,-0.0512 -0.32401,-0.16588 -0.26355,-0.11472 -0.38603,-0.19068 -0.12092,-0.0775 -0.19068,-0.19999 -0.0698,-0.12248 -0.0698,-0.28681 0,-0.2868 0.20774,-0.47594 0.20774,-0.18913 0.60152,-0.18913 0.39997,0 0.61856,0.18758 0.22015,0.18759 0.24185,0.4992 l -0.44803,0.0202 q -0.0171,-0.16278 -0.11783,-0.2496 -0.10077,-0.0868 -0.29765,-0.0868 -0.19379,0 -0.27751,0.0682 -0.0822,0.0682 -0.0822,0.17208 0,0.0977 0.076,0.16123 0.076,0.0651 0.33642,0.17829 0.39222,0.16898 0.49919,0.2744 0.15968,0.15503 0.15968,0.39842 0,0.30076 -0.23874,0.5147 -0.2372,0.21239 -0.66198,0.21239 -0.293,0 -0.50849,-0.0977 -0.21395,-0.0992 -0.30231,-0.2744 -0.0884,-0.17518 -0.0822,-0.40307 z m 2.04639,0.73638 0.47439,-2.27272 h 1.68517 l -0.0791,0.37982 h -1.21698 l -0.10852,0.51624 h 1.17667 l -0.0791,0.37983 h -1.17667 l -0.14263,0.61701 h 1.3224 l -0.0806,0.37982 z m 2.18901,-0.73638 0.44494,-0.0233 q 0.009,0.21239 0.0729,0.28681 0.10232,0.12092 0.37827,0.12092 0.22945,0 0.33176,-0.0822 0.10232,-0.0822 0.10232,-0.19843 0,-0.10077 -0.0837,-0.17054 -0.0589,-0.0512 -0.32401,-0.16588 -0.26355,-0.11472 -0.38603,-0.19068 -0.12092,-0.0775 -0.19068,-0.19999 -0.0698,-0.12248 -0.0698,-0.28681 0,-0.2868 0.20774,-0.47594 0.20774,-0.18913 0.60152,-0.18913 0.39997,0 0.61856,0.18758 0.22015,0.18759 0.24185,0.4992 l -0.44803,0.0202 q -0.0171,-0.16278 -0.11783,-0.2496 -0.10077,-0.0868 -0.29765,-0.0868 -0.19379,0 -0.27751,0.0682 -0.0822,0.0682 -0.0822,0.17208 0,0.0977 0.076,0.16123 0.076,0.0651 0.33642,0.17829 0.39222,0.16898 0.49919,0.2744 0.15968,0.15503 0.15968,0.39842 0,0.30076 -0.23874,0.5147 -0.2372,0.21239 -0.66198,0.21239 -0.293,0 -0.50849,-0.0977 -0.21395,-0.0992 -0.30231,-0.2744 -0.0884,-0.17518 -0.0822,-0.40307 z"
       id="text4"
       aria-label="IMPULSES" /></g><g
     id="g26"
     inkscape:label="components"
     style="display:none"><circle
       id="TIME1"
       cx="11.141406"
       cy="27.138182"
       r="3.9973476"
       style="clip-rule:evenodd;fill:#ff0000;fill-rule:evenodd;stroke-width:0.0846107;stroke-linecap:round;stroke-linejoin:round;stroke-miterlimit:1.5" /><circle
       id="SLANT"
       cx="29.833853"
       cy="27.138182"
       r="3.9973476"
       style="clip-rule:evenodd;fill:#ff0000;fill-rule:evenodd;stroke-width:0.0846107;stroke-linecap:round;stroke-linejoin:round;stroke-miterlimit:1.5" /><circle
       id="CURVE"
       cx="48.52639"
       cy="27.138182"
       r="3.9973476"
       style="clip-rule:evenodd;fill:#ff0000;fill-rule:evenodd;stroke-width:0.0846107;stroke-linecap:round;stroke-linejoin:round;stroke-miterlimit:1.5" /><circle
       id="_00"
       serif:id="00"
       cx="10.916421"
       cy="72.730003"
       r="3.9973476"
       style="clip-rule:evenodd;fill:#00ff00;fill-rule:evenodd;stroke-width:0.0846107;stroke-linecap:round;stroke-linejoin:round;stroke-miterlimit:1.5" /><circle
       id="TIME11"
       serif:id="TIME1"
       cx="11.356064"
       cy="45.007175"
       r="3.9973476"
       style="clip-rule:evenodd;fill:#00ff00;fill-rule:evenodd;stroke-width:0.0846107;stroke-linecap:round;stroke-linejoin:round;stroke-miterlimit:1.5" /><circle
       id="SLANT1"
       serif:id="SLANT"
       cx="30.048512"
       cy="45.007175"
       r="3.9973476"
       style="clip-rule:evenodd;fill:#00ff00;fill-rule:evenodd;stroke-width:0.0846107;stroke-linecap:round;stroke-linejoin:round;stroke-miterlimit:1.5" /><circle
       id="CURVE1"
       serif:id="CURVE"
       cx="48.740963"
       cy="45.007175"
       r="3.9973476"
       style="clip-rule:evenodd;fill:#00ff00;fill-rule:evenodd;stroke-width:0.0846107;stroke-linecap:round;stroke-linejoin:round;stroke-miterlimit:1.5" /><circle
       id="_01"
       serif:id="01"
       cx="29.445316"
       cy="72.730003"
       r="3.9973476"
       style="clip-rule:evenodd;fill:#0000ff;fill-rule:evenodd;stroke-width:0.0846107;stroke-linecap:round;stroke-linejoin:round;stroke-miterlimit:1.5" /><circle
       id="_02"
       serif:id="02"
       cx="47.974129"
       cy="72.730003"
       r="3.9973476"
       style="clip-rule:evenodd;fill:#0000ff;fill-rule:evenodd;stroke-width:0.0846107;stroke-linecap:round;stroke-linejoin:round;stroke-miterlimit:1.5" /><circle
       id="_03"
       serif:id="03"
       cx="66.502945"
       cy="72.730003"
       r="3.9973476"
       style="clip-rule:evenodd;fill:#0000ff;fill-rule:evenodd;stroke-width:0.0846107;stroke-linecap:round;stroke-linejoin:round;stroke-miterlimit:1.5" /><circle
       id="_05"
       serif:id="05"
       cx="85.031494"
       cy="72.730003"
       r="3.9973476"
       style="clip-rule:evenodd;fill:#0000ff;fill-rule:evenodd;stroke-width:0.0846107;stroke-linecap:round;stroke-linejoin:round;stroke-miterlimit:1.5" /><circle
       id="_08"
       serif:id="08"
       cx="103.5604"
       cy="72.730003"
       r="3.9973476"
       style="clip-rule:evenodd;fill:#0000ff;fill-rule:evenodd;stroke-width:0.0846107;stroke-linecap:round;stroke-linejoin:round;stroke-miterlimit:1.5" /><circle
       id="_13"
       serif:id="13"
       cx="122.08929"
       cy="72.730003"
       r="3.9973476"
       style="clip-rule:evenodd;fill:#0000ff;fill-rule:evenodd;stroke-width:0.0846107;stroke-linecap:round;stroke-linejoin:round;stroke-miterlimit:1.5" /><circle
       id="_21"
       serif:id="21"
       cx="140.61818"
       cy="72.730003"
       r="3.9973476"
       style="clip-rule:evenodd;fill:#0000ff;fill-rule:evenodd;stroke-width:0.0846107;stroke-linecap:round;stroke-linejoin:round;stroke-miterlimit:1.5" /><circle
       id="_18"
       serif:id="18"
       cx="140.61818"
       cy="54.201191"
       r="3.9973476"
       style="clip-rule:evenodd;fill:#0000ff;fill-rule:evenodd;stroke-width:0.0846107;stroke-linecap:round;stroke-linejoin:round;stroke-miterlimit:1.5" /><circle
       id="_16"
       serif:id="16"
       cx="122.08929"
       cy="54.201191"
       r="3.9973476"
       style="clip-rule:evenodd;fill:#0000ff;fill-rule:evenodd;stroke-width:0.0846107;stroke-linecap:round;stroke-linejoin:round;stroke-miterlimit:1.5" /><circle
       id="_11"
       serif:id="11"
       cx="103.5604"
       cy="54.201191"
       r="3.9973476"
       style="clip-rule:evenodd;fill:#0000ff;fill-rule:evenodd;stroke-width:0.0846107;stroke-linecap:round;stroke-linejoin:round;stroke-miterlimit:1.5" /><circle
       id="_04"
       serif:id="04"
       cx="66.502945"
       cy="54.201191"
       r="3.9973476"
       style="clip-rule:evenodd;fill:#0000ff;fill-rule:evenodd;stroke-width:0.0846107;stroke-linecap:round;stroke-linejoin:round;stroke-miterlimit:1.5" /><circle
       id="_06"
       serif:id="06"
       cx="85.031494"
       cy="35.672379"
       r="3.9973476"
       style="clip-rule:evenodd;fill:#0000ff;fill-rule:evenodd;stroke-width:0.0846107;stroke-linecap:round;stroke-linejoin:round;stroke-miterlimit:1.5" /><circle
       id="_19"
       serif:id="19"
       cx="103.5604"
       cy="17.143566"
       r="3.9973476"
       style="clip-rule:evenodd;fill:#0000ff;fill-rule:evenodd;stroke-width:0.0846107;stroke-linecap:round;stroke-linejoin:round;stroke-miterlimit:1.5" /><circle
       id="_14"
       serif:id="14"
       cx="122.08929"
       cy="17.143566"
       r="3.9973476"
       style="clip-rule:evenodd;fill:#0000ff;fill-rule:evenodd;stroke-width:0.0846107;stroke-linecap:round;stroke-linejoin:round;stroke-miterlimit:1.5" /><circle
       id="_23"
       serif:id="23"
       cx="140.61818"
       cy="17.143566"
       r="3.9973476"
       style="clip-rule:evenodd;fill:#0000ff;fill-rule:evenodd;stroke-width:0.0846107;stroke-linecap:round;stroke-linejoin:round;stroke-miterlimit:1.5" /><circle
       id="_24"
       serif:id="24"
       cx="140.61818"
       cy="35.672379"
       r="3.9973476"
       style="clip-rule:evenodd;fill:#0000ff;fill-rule:evenodd;stroke-width:0.0846107;stroke-linecap:round;stroke-linejoin:round;stroke-miterlimit:1.5" /><circle
       id="_09"
       serif:id="09"
       cx="103.5604"
       cy="35.672379"
       r="3.9973476"
       style="clip-rule:evenodd;fill:#0000ff;fill-rule:evenodd;stroke-width:0.0846107;stroke-linecap:round;stroke-linejoin:round;stroke-miterlimit:1.5" /><circle
       id="_15"
       serif:id="15"
       cx="122.08929"
       cy="35.672379"
       r="3.9973476"
       style="clip-rule:evenodd;fill:#0000ff;fill-rule:evenodd;stroke-width:0.0846107;stroke-linecap:round;stroke-linejoin:round;stroke-miterlimit:1.5" /><circle
       id="_20"
       serif:id="20"
       cx="140.61818"
       cy="91.258392"
       r="3.9973476"
       style="clip-rule:evenodd;fill:#0000ff;fill-rule:evenodd;stroke-width:0.0846107;stroke-linecap:round;stroke-linejoin:round;stroke-miterlimit:1.5" /><circle
       id="_22"
       serif:id="22"
       cx="140.61818"
       cy="109.65614"
       r="3.9973476"
       style="clip-rule:evenodd;fill:#0000ff;fill-rule:evenodd;stroke-width:0.0846107;stroke-linecap:round;stroke-linejoin:round;stroke-miterlimit:1.5" /><circle
       id="_131"
       serif:id="13"
       cx="122.08929"
       cy="91.258392"
       r="3.9973476"
       style="clip-rule:evenodd;fill:#0000ff;fill-rule:evenodd;stroke-width:0.0846107;stroke-linecap:round;stroke-linejoin:round;stroke-miterlimit:1.5"
       inkscape:label="_12" /><circle
       id="_17"
       serif:id="17"
       cx="122.08929"
       cy="109.65614"
       r="3.9973476"
       style="clip-rule:evenodd;fill:#0000ff;fill-rule:evenodd;stroke-width:0.0846107;stroke-linecap:round;stroke-linejoin:round;stroke-miterlimit:1.5" /><circle
       id="_10"
       serif:id="10"
       cx="103.5604"
       cy="109.65614"
       r="3.9973476"
       style="clip-rule:evenodd;fill:#0000ff;fill-rule:evenodd;stroke-width:0.0846107;stroke-linecap:round;stroke-linejoin:round;stroke-miterlimit:1.5" /><circle
       id="_07"
       serif:id="07"
       cx="85.031494"
       cy="91.258392"
       r="3.9973476"
       style="clip-rule:evenodd;fill:#0000ff;fill-rule:evenodd;stroke-width:0.0846107;stroke-linecap:round;stroke-linejoin:round;stroke-miterlimit:1.5" /><circle
       id="OOA"
       cx="20.180868"
       cy="72.730003"
       r="0.79948646"
       style="clip-rule:evenodd;fill:#ff00ff;fill-rule:evenodd;stroke-width:0.0846107;stroke-linecap:round;stroke-linejoin:round;stroke-miterlimit:1.5"
       inkscape:label="_00A" /><circle
       id="_01A"
       serif:id="01A"
       cx="38.706043"
       cy="72.730003"
       r="0.79948646"
       style="clip-rule:evenodd;fill:#ff00ff;fill-rule:evenodd;stroke-width:0.0846107;stroke-linecap:round;stroke-linejoin:round;stroke-miterlimit:1.5" /><circle
       id="_02A"
       serif:id="02A"
       cx="57.234856"
       cy="72.730003"
       r="0.79948646"
       style="clip-rule:evenodd;fill:#ff00ff;fill-rule:evenodd;stroke-width:0.0846107;stroke-linecap:round;stroke-linejoin:round;stroke-miterlimit:1.5" /><circle
       id="_02D"
       serif:id="02D"
       cx="57.23595"
       cy="63.468174"
       r="0.79948646"
       style="clip-rule:evenodd;fill:#ff00ff;fill-rule:evenodd;stroke-width:0.0846107;stroke-linecap:round;stroke-linejoin:round;stroke-miterlimit:1.5" /><circle
       id="_06D"
       serif:id="06D"
       cx="94.293831"
       cy="26.410465"
       r="0.79948646"
       style="clip-rule:evenodd;fill:#ff00ff;fill-rule:evenodd;stroke-width:0.0846107;stroke-linecap:round;stroke-linejoin:round;stroke-miterlimit:1.5" /><circle
       id="_09D"
       serif:id="09D"
       cx="112.82272"
       cy="26.410465"
       r="0.79948646"
       style="clip-rule:evenodd;fill:#ff00ff;fill-rule:evenodd;stroke-width:0.0846107;stroke-linecap:round;stroke-linejoin:round;stroke-miterlimit:1.5" /><circle
       id="_13D"
       serif:id="13D"
       cx="131.35162"
       cy="63.468174"
       r="0.79948646"
       style="clip-rule:evenodd;fill:#ff00ff;fill-rule:evenodd;stroke-width:0.0846107;stroke-linecap:round;stroke-linejoin:round;stroke-miterlimit:1.5" /><circle
       id="_05D"
       serif:id="05D"
       cx="94.293831"
       cy="63.468174"
       r="0.79948646"
       style="clip-rule:evenodd;fill:#ff00ff;fill-rule:evenodd;stroke-width:0.0846107;stroke-linecap:round;stroke-linejoin:round;stroke-miterlimit:1.5" /><circle
       id="_07B"
       serif:id="07B"
       cx="94.293831"
       cy="100.52072"
       r="0.79948646"
       style="clip-rule:evenodd;fill:#ff00ff;fill-rule:evenodd;stroke-width:0.0846107;stroke-linecap:round;stroke-linejoin:round;stroke-miterlimit:1.5" /><circle
       id="_03D"
       serif:id="03D"
       cx="75.764771"
       cy="81.991829"
       r="0.79948646"
       style="clip-rule:evenodd;fill:#ff00ff;fill-rule:evenodd;stroke-width:0.0846107;stroke-linecap:round;stroke-linejoin:round;stroke-miterlimit:1.5" /><circle
       id="_08D"
       serif:id="08D"
       cx="112.82272"
       cy="81.991829"
       r="0.79948646"
       style="clip-rule:evenodd;fill:#ff00ff;fill-rule:evenodd;stroke-width:0.0846107;stroke-linecap:round;stroke-linejoin:round;stroke-miterlimit:1.5" /><circle
       id="_12D"
       serif:id="12D"
       cx="131.35162"
       cy="100.52072"
       r="0.79948646"
       style="clip-rule:evenodd;fill:#ff00ff;fill-rule:evenodd;stroke-width:0.0846107;stroke-linecap:round;stroke-linejoin:round;stroke-miterlimit:1.5" /><circle
       id="_04B"
       serif:id="04B"
       cx="75.764771"
       cy="44.939369"
       r="0.79948646"
       style="clip-rule:evenodd;fill:#ff00ff;fill-rule:evenodd;stroke-width:0.0846107;stroke-linecap:round;stroke-linejoin:round;stroke-miterlimit:1.5" /><circle
       id="_03A"
       serif:id="03A"
       cx="75.763664"
       cy="72.730003"
       r="0.79948646"
       style="clip-rule:evenodd;fill:#ff00ff;fill-rule:evenodd;stroke-width:0.0846107;stroke-linecap:round;stroke-linejoin:round;stroke-miterlimit:1.5" /><circle
       id="_05A"
       serif:id="05A"
       cx="94.292145"
       cy="72.730003"
       r="0.79948646"
       style="clip-rule:evenodd;fill:#ff00ff;fill-rule:evenodd;stroke-width:0.0846107;stroke-linecap:round;stroke-linejoin:round;stroke-miterlimit:1.5" /><circle
       id="_08A"
       serif:id="08A"
       cx="112.82104"
       cy="72.730003"
       r="0.79948646"
       style="clip-rule:evenodd;fill:#ff00ff;fill-rule:evenodd;stroke-width:0.0846107;stroke-linecap:round;stroke-linejoin:round;stroke-miterlimit:1.5" /><circle
       id="_11A"
       serif:id="11A"
       cx="112.82104"
       cy="54.201191"
       r="0.79948646"
       style="clip-rule:evenodd;fill:#ff00ff;fill-rule:evenodd;stroke-width:0.0846107;stroke-linecap:round;stroke-linejoin:round;stroke-miterlimit:1.5" /><circle
       id="_06A"
       serif:id="06A"
       cx="94.292145"
       cy="35.672379"
       r="0.79948646"
       style="clip-rule:evenodd;fill:#ff00ff;fill-rule:evenodd;stroke-width:0.0846107;stroke-linecap:round;stroke-linejoin:round;stroke-miterlimit:1.5" /><circle
       id="_09A"
       serif:id="09A"
       cx="112.82104"
       cy="35.672379"
       r="0.79948646"
       style="clip-rule:evenodd;fill:#ff00ff;fill-rule:evenodd;stroke-width:0.0846107;stroke-linecap:round;stroke-linejoin:round;stroke-miterlimit:1.5" /><circle
       id="_15A"
       serif:id="15A"
       cx="131.34993"
       cy="35.672379"
       r="0.79948646"
       style="clip-rule:evenodd;fill:#ff00ff;fill-rule:evenodd;stroke-width:0.0846107;stroke-linecap:round;stroke-linejoin:round;stroke-miterlimit:1.5" /><circle
       id="_14A"
       serif:id="14A"
       cx="131.34993"
       cy="17.143566"
       r="0.79948646"
       style="clip-rule:evenodd;fill:#ff00ff;fill-rule:evenodd;stroke-width:0.0846107;stroke-linecap:round;stroke-linejoin:round;stroke-miterlimit:1.5" /><circle
       id="_12A"
       serif:id="12A"
       cx="131.34993"
       cy="91.258392"
       r="0.79948646"
       style="clip-rule:evenodd;fill:#ff00ff;fill-rule:evenodd;stroke-width:0.0846107;stroke-linecap:round;stroke-linejoin:round;stroke-miterlimit:1.5" /><circle
       id="_10A"
       serif:id="10A"
       cx="112.82104"
       cy="109.65614"
       r="0.79948646"
       style="clip-rule:evenodd;fill:#ff00ff;fill-rule:evenodd;stroke-width:0.0846107;stroke-linecap:round;stroke-linejoin:round;stroke-miterlimit:1.5" /><circle
       id="_13A"
       serif:id="13A"
       cx="131.34993"
       cy="72.730003"
       r="0.79948646"
       style="clip-rule:evenodd;fill:#ff00ff;fill-rule:evenodd;stroke-width:0.0846107;stroke-linecap:round;stroke-linejoin:round;stroke-miterlimit:1.5" /><circle
       id="_00OUT"
       serif:id="00OUT"
       cx="17.230408"
       cy="72.730003"
       r="1.2491922"
       style="clip-rule:evenodd;fill:#ff00ff;fill-rule:evenodd;stroke-width:0.0846107;stroke-linecap:round;stroke-linejoin:round;stroke-miterlimit:1.5" /><circle
       id="_01OUT"
       serif:id="01OUT"
       cx="35.755585"
       cy="72.730003"
       r="1.2491922"
       style="clip-rule:evenodd;fill:#ff00ff;fill-rule:evenodd;stroke-width:0.0846107;stroke-linecap:round;stroke-linejoin:round;stroke-miterlimit:1.5" /><circle
       id="_02OUT"
       serif:id="02OUT"
       cx="54.284393"
       cy="72.730003"
       r="1.2491922"
       style="clip-rule:evenodd;fill:#ff00ff;fill-rule:evenodd;stroke-width:0.0846107;stroke-linecap:round;stroke-linejoin:round;stroke-miterlimit:1.5" /><circle
       id="_02C"
       serif:id="02C"
       cx="54.284222"
       cy="66.419907"
       r="0.79948646"
       style="clip-rule:evenodd;fill:#ff00ff;fill-rule:evenodd;stroke-width:0.0846107;stroke-linecap:round;stroke-linejoin:round;stroke-miterlimit:1.5" /><circle
       id="_06C"
       serif:id="06C"
       cx="91.341759"
       cy="29.36228"
       r="0.79948646"
       style="clip-rule:evenodd;fill:#ff00ff;fill-rule:evenodd;stroke-width:0.0846107;stroke-linecap:round;stroke-linejoin:round;stroke-miterlimit:1.5" /><circle
       id="_09C"
       serif:id="09C"
       cx="109.87066"
       cy="29.36228"
       r="0.79948646"
       style="clip-rule:evenodd;fill:#ff00ff;fill-rule:evenodd;stroke-width:0.0846107;stroke-linecap:round;stroke-linejoin:round;stroke-miterlimit:1.5" /><circle
       id="_13C"
       serif:id="13C"
       cx="128.39955"
       cy="66.419907"
       r="0.79948646"
       style="clip-rule:evenodd;fill:#ff00ff;fill-rule:evenodd;stroke-width:0.0846107;stroke-linecap:round;stroke-linejoin:round;stroke-miterlimit:1.5" /><circle
       id="_05C"
       serif:id="05C"
       cx="91.341759"
       cy="66.419907"
       r="0.79948646"
       style="clip-rule:evenodd;fill:#ff00ff;fill-rule:evenodd;stroke-width:0.0846107;stroke-linecap:round;stroke-linejoin:round;stroke-miterlimit:1.5" /><circle
       id="_07A"
       serif:id="07A"
       cx="91.341759"
       cy="97.568649"
       r="0.79948646"
       style="clip-rule:evenodd;fill:#ff00ff;fill-rule:evenodd;stroke-width:0.0846107;stroke-linecap:round;stroke-linejoin:round;stroke-miterlimit:1.5" /><circle
       id="_03C"
       serif:id="03C"
       cx="72.813042"
       cy="79.0401"
       r="0.79948646"
       style="clip-rule:evenodd;fill:#ff00ff;fill-rule:evenodd;stroke-width:0.0846107;stroke-linecap:round;stroke-linejoin:round;stroke-miterlimit:1.5" /><circle
       id="_08C"
       serif:id="08C"
       cx="109.87066"
       cy="79.0401"
       r="0.79948646"
       style="clip-rule:evenodd;fill:#ff00ff;fill-rule:evenodd;stroke-width:0.0846107;stroke-linecap:round;stroke-linejoin:round;stroke-miterlimit:1.5" /><circle
       id="_12C"
       serif:id="12C"
       cx="128.39955"
       cy="97.568649"
       r="0.79948646"
       style="clip-rule:evenodd;fill:#ff00ff;fill-rule:evenodd;stroke-width:0.0846107;stroke-linecap:round;stroke-linejoin:round;stroke-miterlimit:1.5" /><circle
       id="_04A"
       serif:id="04A"
       cx="72.813042"
       cy="47.89109"
       r="0.79948646"
       style="clip-rule:evenodd;fill:#ff00ff;fill-rule:evenodd;stroke-width:0.0846107;stroke-linecap:round;stroke-linejoin:round;stroke-miterlimit:1.5" /><circle
       id="_03OUT"
       serif:id="03OUT"
       cx="72.81321"
       cy="72.730003"
       r="1.2491922"
       style="clip-rule:evenodd;fill:#ff00ff;fill-rule:evenodd;stroke-width:0.0846107;stroke-linecap:round;stroke-linejoin:round;stroke-miterlimit:1.5" /><circle
       id="_05OUT"
       serif:id="05OUT"
       cx="91.341759"
       cy="72.730003"
       r="1.2491922"
       style="clip-rule:evenodd;fill:#ff00ff;fill-rule:evenodd;stroke-width:0.0846107;stroke-linecap:round;stroke-linejoin:round;stroke-miterlimit:1.5" /><circle
       id="_07OUT"
       serif:id="07OUT"
       cx="91.341759"
       cy="91.258392"
       r="1.2491922"
       style="clip-rule:evenodd;fill:#ff00ff;fill-rule:evenodd;stroke-width:0.0846107;stroke-linecap:round;stroke-linejoin:round;stroke-miterlimit:1.5" /><circle
       id="_08OUT"
       serif:id="08OUT"
       cx="109.87066"
       cy="72.730003"
       r="1.2491922"
       style="clip-rule:evenodd;fill:#ff00ff;fill-rule:evenodd;stroke-width:0.0846107;stroke-linecap:round;stroke-linejoin:round;stroke-miterlimit:1.5" /><circle
       id="_11OUT"
       serif:id="11OUT"
       cx="109.87066"
       cy="54.201191"
       r="1.2491922"
       style="clip-rule:evenodd;fill:#ff00ff;fill-rule:evenodd;stroke-width:0.0846107;stroke-linecap:round;stroke-linejoin:round;stroke-miterlimit:1.5" /><circle
       id="O6OUT"
       cx="91.341759"
       cy="35.672379"
       r="1.2491922"
       style="clip-rule:evenodd;fill:#ff00ff;fill-rule:evenodd;stroke-width:0.0846107;stroke-linecap:round;stroke-linejoin:round;stroke-miterlimit:1.5"
       inkscape:label="_06OUT" /><circle
       id="_09OUT"
       serif:id="09OUT"
       cx="109.87066"
       cy="35.672379"
       r="1.2491922"
       style="clip-rule:evenodd;fill:#ff00ff;fill-rule:evenodd;stroke-width:0.0846107;stroke-linecap:round;stroke-linejoin:round;stroke-miterlimit:1.5" /><circle
       id="_15OUT"
       serif:id="15OUT"
       cx="128.39955"
       cy="35.672379"
       r="1.2491922"
       style="clip-rule:evenodd;fill:#ff00ff;fill-rule:evenodd;stroke-width:0.0846107;stroke-linecap:round;stroke-linejoin:round;stroke-miterlimit:1.5" /><circle
       id="_14OUT"
       serif:id="14OUT"
       cx="128.39955"
       cy="17.143566"
       r="1.2491922"
       style="clip-rule:evenodd;fill:#ff00ff;fill-rule:evenodd;stroke-width:0.0846107;stroke-linecap:round;stroke-linejoin:round;stroke-miterlimit:1.5" /><circle
       id="_12OUT"
       serif:id="12OUT"
       cx="128.39955"
       cy="91.258392"
       r="1.2491922"
       style="clip-rule:evenodd;fill:#ff00ff;fill-rule:evenodd;stroke-width:0.0846107;stroke-linecap:round;stroke-linejoin:round;stroke-miterlimit:1.5" /><circle
       id="_10OUT"
       serif:id="10OUT"
       cx="109.87066"
       cy="109.65614"
       r="1.2491922"
       style="clip-rule:evenodd;fill:#ff00ff;fill-rule:evenodd;stroke-width:0.0846107;stroke-linecap:round;stroke-linejoin:round;stroke-miterlimit:1.5" /><circle
       id="_13OUT"
       serif:id="13OUT"
       cx="128.39955"
       cy="72.730003"
       r="1.2491922"
       style="clip-rule:evenodd;fill:#ff00ff;fill-rule:evenodd;stroke-width:0.0846107;stroke-linecap:round;stroke-linejoin:round;stroke-miterlimit:1.5" /><circle
       id="_16OUT"
       serif:id="16OUT"
       cx="129.39204"
       cy="54.095936"
       r="1.2491922"
       style="clip-rule:evenodd;fill:#ff00ff;fill-rule:evenodd;stroke-width:0.0846107;stroke-linecap:round;stroke-linejoin:round;stroke-miterlimit:1.5" /><circle
       id="_21OUT"
       serif:id="21OUT"
       cx="146.92845"
       cy="72.730003"
       r="1.2491922"
       style="clip-rule:evenodd;fill:#ff00ff;fill-rule:evenodd;stroke-width:0.0846107;stroke-linecap:round;stroke-linejoin:round;stroke-miterlimit:1.5" /><circle
       id="_18OUT"
       serif:id="18OUT"
       cx="146.92845"
       cy="54.201191"
       r="1.2491922"
       style="clip-rule:evenodd;fill:#ff00ff;fill-rule:evenodd;stroke-width:0.0846107;stroke-linecap:round;stroke-linejoin:round;stroke-miterlimit:1.5" /><circle
       id="_24OUT"
       serif:id="24OUT"
       cx="146.92845"
       cy="35.672379"
       r="1.2491922"
       style="clip-rule:evenodd;fill:#ff00ff;fill-rule:evenodd;stroke-width:0.0846107;stroke-linecap:round;stroke-linejoin:round;stroke-miterlimit:1.5" /><circle
       id="_23OUT"
       serif:id="23OUT"
       cx="146.92845"
       cy="17.143566"
       r="1.2491922"
       style="clip-rule:evenodd;fill:#ff00ff;fill-rule:evenodd;stroke-width:0.0846107;stroke-linecap:round;stroke-linejoin:round;stroke-miterlimit:1.5" /><circle
       id="_20OUT"
       serif:id="20OUT"
       cx="146.92845"
       cy="91.258392"
       r="1.2491922"
       style="clip-rule:evenodd;fill:#ff00ff;fill-rule:evenodd;stroke-width:0.0846107;stroke-linecap:round;stroke-linejoin:round;stroke-miterlimit:1.5" /><circle
       id="_22OUT"
       serif:id="22OUT"
       cx="146.92845"
       cy="109.65614"
       r="1.2491922"
       style="clip-rule:evenodd;fill:#ff00ff;fill-rule:evenodd;stroke-width:0.0846107;stroke-linecap:round;stroke-linejoin:round;stroke-miterlimit:1.5" /><circle
       id="_00B"
       serif:id="00B"
       cx="23.138605"
       cy="72.730003"
       r="0.79948646"
       style="clip-rule:evenodd;fill:#ff00ff;fill-rule:evenodd;stroke-width:0.0846107;stroke-linecap:round;stroke-linejoin:round;stroke-miterlimit:1.5" /><circle
       id="_01B"
       serif:id="01B"
       cx="41.66378"
       cy="72.730003"
       r="0.79948646"
       style="clip-rule:evenodd;fill:#ff00ff;fill-rule:evenodd;stroke-width:0.0846107;stroke-linecap:round;stroke-linejoin:round;stroke-miterlimit:1.5" /><circle
       id="_02B"
       serif:id="02B"
       cx="60.192589"
       cy="72.730003"
       r="0.79948646"
       style="clip-rule:evenodd;fill:#ff00ff;fill-rule:evenodd;stroke-width:0.0846107;stroke-linecap:round;stroke-linejoin:round;stroke-miterlimit:1.5" /><circle
       id="_02E"
       serif:id="02E"
       cx="60.192844"
       cy="60.511288"
       r="0.79948646"
       style="clip-rule:evenodd;fill:#ff00ff;fill-rule:evenodd;stroke-width:0.0846107;stroke-linecap:round;stroke-linejoin:round;stroke-miterlimit:1.5" /><circle
       id="_06E"
       serif:id="06E"
       cx="97.25013"
       cy="23.453659"
       r="0.79948646"
       style="clip-rule:evenodd;fill:#ff00ff;fill-rule:evenodd;stroke-width:0.0846107;stroke-linecap:round;stroke-linejoin:round;stroke-miterlimit:1.5" /><circle
       id="_09E"
       serif:id="09E"
       cx="115.77901"
       cy="23.453659"
       r="0.79948646"
       style="clip-rule:evenodd;fill:#ff00ff;fill-rule:evenodd;stroke-width:0.0846107;stroke-linecap:round;stroke-linejoin:round;stroke-miterlimit:1.5" /><circle
       id="_13E"
       serif:id="13E"
       cx="134.30794"
       cy="60.511288"
       r="0.79948646"
       style="clip-rule:evenodd;fill:#ff00ff;fill-rule:evenodd;stroke-width:0.0846107;stroke-linecap:round;stroke-linejoin:round;stroke-miterlimit:1.5" /><circle
       id="_05E"
       serif:id="05E"
       cx="97.25013"
       cy="60.511288"
       r="0.79948646"
       style="clip-rule:evenodd;fill:#ff00ff;fill-rule:evenodd;stroke-width:0.0846107;stroke-linecap:round;stroke-linejoin:round;stroke-miterlimit:1.5" /><circle
       id="_07C"
       serif:id="07C"
       cx="97.25013"
       cy="103.47786"
       r="0.79948646"
       style="clip-rule:evenodd;fill:#ff00ff;fill-rule:evenodd;stroke-width:0.0846107;stroke-linecap:round;stroke-linejoin:round;stroke-miterlimit:1.5" /><circle
       id="_03E"
       serif:id="03E"
       cx="78.721657"
       cy="84.948715"
       r="0.79948646"
       style="clip-rule:evenodd;fill:#ff00ff;fill-rule:evenodd;stroke-width:0.0846107;stroke-linecap:round;stroke-linejoin:round;stroke-miterlimit:1.5" /><circle
       id="_08E"
       serif:id="08E"
       cx="115.77901"
       cy="84.948715"
       r="0.79948646"
       style="clip-rule:evenodd;fill:#ff00ff;fill-rule:evenodd;stroke-width:0.0846107;stroke-linecap:round;stroke-linejoin:round;stroke-miterlimit:1.5" /><circle
       id="_12E"
       serif:id="12E"
       cx="134.30794"
       cy="103.47786"
       r="0.79948646"
       style="clip-rule:evenodd;fill:#ff00ff;fill-rule:evenodd;stroke-width:0.0846107;stroke-linecap:round;stroke-linejoin:round;stroke-miterlimit:1.5" /><circle
       id="_04C"
       serif:id="04C"
       cx="78.721657"
       cy="41.982471"
       r="0.79948646"
       style="clip-rule:evenodd;fill:#ff00ff;fill-rule:evenodd;stroke-width:0.0846107;stroke-linecap:round;stroke-linejoin:round;stroke-miterlimit:1.5" /><circle
       id="_03B"
       serif:id="03B"
       cx="78.721405"
       cy="72.730003"
       r="0.79948646"
       style="clip-rule:evenodd;fill:#ff00ff;fill-rule:evenodd;stroke-width:0.0846107;stroke-linecap:round;stroke-linejoin:round;stroke-miterlimit:1.5" /><circle
       id="_05B"
       serif:id="05B"
       cx="97.25013"
       cy="72.730003"
       r="0.79948646"
       style="clip-rule:evenodd;fill:#ff00ff;fill-rule:evenodd;stroke-width:0.0846107;stroke-linecap:round;stroke-linejoin:round;stroke-miterlimit:1.5" /><circle
       id="_08B"
       serif:id="08B"
       cx="115.77901"
       cy="72.730003"
       r="0.79948646"
       style="clip-rule:evenodd;fill:#ff00ff;fill-rule:evenodd;stroke-width:0.0846107;stroke-linecap:round;stroke-linejoin:round;stroke-miterlimit:1.5" /><circle
       id="_11B"
       serif:id="11B"
       cx="115.77901"
       cy="54.201191"
       r="0.79948646"
       style="clip-rule:evenodd;fill:#ff00ff;fill-rule:evenodd;stroke-width:0.0846107;stroke-linecap:round;stroke-linejoin:round;stroke-miterlimit:1.5" /><circle
       id="_06B"
       serif:id="06B"
       cx="97.25013"
       cy="35.672379"
       r="0.79948646"
       style="clip-rule:evenodd;fill:#ff00ff;fill-rule:evenodd;stroke-width:0.0846107;stroke-linecap:round;stroke-linejoin:round;stroke-miterlimit:1.5" /><circle
       id="_09B"
       serif:id="09B"
       cx="115.77901"
       cy="35.672379"
       r="0.79948646"
       style="clip-rule:evenodd;fill:#ff00ff;fill-rule:evenodd;stroke-width:0.0846107;stroke-linecap:round;stroke-linejoin:round;stroke-miterlimit:1.5" /><circle
       id="_15B"
       serif:id="15B"
       cx="134.30794"
       cy="35.672379"
       r="0.79948646"
       style="clip-rule:evenodd;fill:#ff00ff;fill-rule:evenodd;stroke-width:0.0846107;stroke-linecap:round;stroke-linejoin:round;stroke-miterlimit:1.5" /><circle
       id="_14B"
       serif:id="14B"
       cx="134.30794"
       cy="17.143566"
       r="0.79948646"
       style="clip-rule:evenodd;fill:#ff00ff;fill-rule:evenodd;stroke-width:0.0846107;stroke-linecap:round;stroke-linejoin:round;stroke-miterlimit:1.5" /><circle
       id="_12B"
       serif:id="12B"
       cx="134.30794"
       cy="91.258392"
       r="0.79948646"
       style="clip-rule:evenodd;fill:#ff00ff;fill-rule:evenodd;stroke-width:0.0846107;stroke-linecap:round;stroke-linejoin:round;stroke-miterlimit:1.5" /><circle
       id="_10B"
       serif:id="10B"
       cx="115.77901"
       cy="109.65614"
       r="0.79948646"
       style="clip-rule:evenodd;fill:#ff00ff;fill-rule:evenodd;stroke-width:0.0846107;stroke-linecap:round;stroke-linejoin:round;stroke-miterlimit:1.5" /><circle
       id="_13B"
       serif:id="13B"
       cx="134.30794"
       cy="72.730003"
       r="0.79948646"
       style="clip-rule:evenodd;fill:#ff00ff;fill-rule:evenodd;stroke-width:0.0846107;stroke-linecap:round;stroke-linejoin:round;stroke-miterlimit:1.5" /><circle
       id="circle2"
       serif:id="09OUT"
       cx="109.87067"
       cy="17.171837"
       r="1.2491922"
       style="clip-rule:evenodd;fill:#ff00ff;fill-rule:evenodd;stroke-width:0.0846107;stroke-linecap:round;stroke-linejoin:round;stroke-miterlimit:1.5"
       inkscape:label="_19OUT" /><circle
       id="circle3"
       serif:id="12OUT"
       cx="128.53029"
       cy="109.8243"
       r="1.2491922"
       style="clip-rule:evenodd;fill:#ff00ff;fill-rule:evenodd;stroke-width:0.0846107;stroke-linecap:round;stroke-linejoin:round;stroke-miterlimit:1.5"
       inkscape:label="_17OUT" /><circle
       id="circle1"
       serif:id="03OUT"
       cx="72.81321"
       cy="54.425579"
       r="1.2491922"
       style="clip-rule:evenodd;display:inline;fill:#ff00ff;fill-rule:evenodd;stroke-width:0.0846107;stroke-linecap:round;stroke-linejoin:round;stroke-miterlimit:1.5"
       inkscape:label="_04OUT" /></g></svg>
