<?xml version="1.0" encoding="UTF-8" standalone="no"?>
<!-- Created with Inkscape (http://www.inkscape.org/) -->

<svg
   width="76.199997mm"
   height="128.5mm"
   viewBox="0 0 76.200001 128.50002"
   version="1.1"
   id="svg8"
   inkscape:version="1.3.2 (091e20e, 2023-11-25)"
   sodipodi:docname="PentaSequencer.svg"
   xml:space="preserve"
   xmlns:inkscape="http://www.inkscape.org/namespaces/inkscape"
   xmlns:sodipodi="http://sodipodi.sourceforge.net/DTD/sodipodi-0.dtd"
   xmlns="http://www.w3.org/2000/svg"
   xmlns:svg="http://www.w3.org/2000/svg"
   xmlns:rdf="http://www.w3.org/1999/02/22-rdf-syntax-ns#"
   xmlns:cc="http://creativecommons.org/ns#"
   xmlns:dc="http://purl.org/dc/elements/1.1/"
   xmlns:serif="http://www.serif.com/"><defs
     id="defs2">
            
            
        
            
            
        
            
        
            
        
            
        
            
        
            
        
            
        
        
        
        
        
        
        
        
        
        
        
        
        
        
        
        
        
        
        
        
        
        
        
        
        
        
        
        
        
        
        
        
        
        
        
        
        
        
        
        
        
        
        
        
        
        
        
        
        
        
        
        
        
        
        
        
        
        
    
        
        
        
        
        
        
        
        
        
        
        
        
        
        
        
        
        
        
        
        
        
        
        
        
        
        
        
        
        
        
        
        
        
        
        
        
        
        
        
        
        
        
        
        
        
        
        
        
        
    </defs><sodipodi:namedview
     id="base"
     pagecolor="#ffffff"
     bordercolor="#666666"
     borderopacity="1.0"
     inkscape:pageopacity="0.0"
     inkscape:pageshadow="2"
     inkscape:zoom="2.7437401"
     inkscape:cx="163.28077"
     inkscape:cy="40.273494"
     inkscape:document-units="mm"
     inkscape:current-layer="g8"
     showgrid="false"
     units="mm"
     inkscape:snap-bbox="true"
     inkscape:snap-page="true"
     inkscape:bbox-nodes="false"
     inkscape:snap-bbox-edge-midpoints="false"
     inkscape:window-width="1600"
     inkscape:window-height="900"
     inkscape:window-x="128"
     inkscape:window-y="38"
     inkscape:window-maximized="0"
     inkscape:snap-bbox-midpoints="true"
     inkscape:snap-nodes="false"
     inkscape:showpageshadow="2"
     inkscape:pagecheckerboard="0"
     inkscape:deskcolor="#d1d1d1" /><metadata
     id="metadata5"><rdf:RDF><cc:Work
         rdf:about=""><dc:format>image/svg+xml</dc:format><dc:type
           rdf:resource="http://purl.org/dc/dcmitype/StillImage" /></cc:Work></rdf:RDF></metadata><g
     id="g2"><rect
       id="rect420"
       x="0.066265054"
       y="0.37514403"
       width="76.077744"
       height="128.5"
       style="clip-rule:evenodd;fill:#e5e5e5;fill-opacity:1;fill-rule:evenodd;stroke-width:0.351702;stroke-linecap:round;stroke-linejoin:round;stroke-miterlimit:1.5" /><path
       d="m 35.917022,50.667142 -0.05874,0.307739 c -0.08089,-0.05909 -0.1653,-0.1034 -0.25217,-0.133647 -0.08722,-0.02989 -0.177258,-0.04502 -0.270459,-0.04502 -0.1653,0 -0.300002,0.04115 -0.404106,0.123096 -0.104104,0.0823 -0.156155,0.186754 -0.156155,0.31407 0,0.07104 0.02462,0.128723 0.07351,0.172686 0.04924,0.04396 0.138219,0.08617 0.267294,0.126261 l 0.18183,0.05838 c 0.16319,0.05029 0.282768,0.117116 0.358384,0.200822 0.07562,0.08335 0.113248,0.189919 0.113248,0.318993 0,0.235289 -0.083,0.422043 -0.249356,0.559558 -0.166004,0.137868 -0.392852,0.206801 -0.680544,0.206801 -0.104104,0 -0.206449,-0.01161 -0.307036,-0.03411 -0.100587,-0.02251 -0.201174,-0.05627 -0.301057,-0.10129 l 0.06155,-0.31407 c 0.09812,0.06929 0.197305,0.120282 0.298243,0.153342 0.100587,0.03306 0.206801,0.04959 0.318994,0.04959 0.1653,0 0.29965,-0.04396 0.402699,-0.13224 0.103049,-0.08792 0.154749,-0.199767 0.154749,-0.33482 0,-0.0823 -0.02216,-0.145957 -0.06612,-0.190975 -0.04396,-0.04502 -0.132592,-0.08792 -0.265887,-0.129074 l -0.151935,-0.04959 c -0.18394,-0.05803 -0.313015,-0.123799 -0.386521,-0.197657 -0.07386,-0.07351 -0.110434,-0.170927 -0.110434,-0.291913 0,-0.221572 0.08265,-0.402347 0.247598,-0.543028 0.1653,-0.140681 0.381245,-0.211021 0.647484,-0.211021 0.08019,0 0.165651,0.0098 0.256391,0.0299 0.09039,0.02005 0.183236,0.04924 0.278548,0.08722 z"
       style="clip-rule:evenodd;fill:#000000;fill-opacity:1;fill-rule:nonzero;stroke-width:0.351702;stroke-linecap:round;stroke-linejoin:round;stroke-miterlimit:1.5"
       id="path5" /><path
       d="m 36.600379,50.590471 h 0.303519 l -0.387576,1.987468 h 1.082891 l -0.04959,0.255336 h -1.38641 z"
       style="clip-rule:evenodd;fill:#000000;fill-opacity:1;fill-rule:nonzero;stroke-width:0.351702;stroke-linecap:round;stroke-linejoin:round;stroke-miterlimit:1.5"
       id="path6" /><path
       d="m 38.415162,50.590471 h 1.329082 l -0.04924,0.255335 H 38.66733 l -0.129074,0.664014 h 0.980897 l -0.04818,0.255336 h -0.982304 l -0.156156,0.812783 h 1.054403 l -0.04959,0.255336 h -1.359329 z"
       style="clip-rule:evenodd;fill:#000000;fill-opacity:1;fill-rule:nonzero;stroke-width:0.351702;stroke-linecap:round;stroke-linejoin:round;stroke-miterlimit:1.5"
       id="path7" /><path
       d="m 39.968279,50.590471 h 0.286988 l -0.135405,1.817596 0.494142,-1.201766 h 0.317235 l 0.02251,1.20458 0.56624,-1.82041 h 0.29754 l -0.766359,2.242804 h -0.29121 l -0.04678,-1.306925 -0.557097,1.306925 h -0.282416 z"
       style="clip-rule:evenodd;fill:#000000;fill-opacity:1;fill-rule:nonzero;stroke-width:0.351702;stroke-linecap:round;stroke-linejoin:round;stroke-miterlimit:1.5"
       id="path8" /><g
       id="g33"
       transform="matrix(0.35170213,0,0,0.35170213,0.17634782,0.50386701)"
       style="clip-rule:evenodd;fill-rule:evenodd;stroke-linecap:round;stroke-linejoin:round;stroke-miterlimit:1.5">
            <path
   d="m 25.494,239.3 83.129,52.984"
   style="fill:none;stroke:#000000;stroke-width:0.6px;stroke-opacity:1"
   id="path24" />
            <path
   d="m 108.623,292.284 82.579,-53.923"
   style="fill:none;stroke:#000000;stroke-width:0.6px;stroke-opacity:1"
   id="path25" />
            <path
   d="M 191.202,238.361 56.853,281.256"
   style="fill:none;stroke:#000000;stroke-width:0.6px;stroke-opacity:1"
   id="path26" />
            <path
   d="m 56.853,281.256 103.225,-0.059"
   style="fill:none;stroke:#000000;stroke-width:0.6px;stroke-opacity:1"
   id="path27" />
            <path
   d="M 160.078,281.197 25.494,239.3"
   style="fill:none;stroke:#000000;stroke-width:0.6px;stroke-opacity:1"
   id="path28" />
            <path
   d="m 25.494,239.3 31.359,41.956"
   style="fill:none;stroke:#000000;stroke-width:0.6px;stroke-opacity:1"
   id="path29" />
            <path
   d="m 57.596,282.222 51.027,10.062"
   style="fill:none;stroke:#000000;stroke-width:0.6px;stroke-opacity:1"
   id="path30" />
            <path
   d="m 109.28,292.762 50.798,-11.565"
   style="fill:none;stroke:#000000;stroke-width:0.6px;stroke-opacity:1"
   id="path31" />
            <path
   d="m 160.078,281.197 31.124,-42.836"
   style="fill:none;stroke:#000000;stroke-width:0.6px;stroke-opacity:1"
   id="path32" />
            <path
   d="M 191.202,238.361 25.853,239.656"
   style="fill:none;stroke:#000000;stroke-width:0.6px;stroke-opacity:1"
   id="path33" />
        </g><g
       id="g41"
       transform="matrix(0.35170213,0,0,0.35170213,0.17634782,0.50386701)"
       style="clip-rule:evenodd;fill-rule:evenodd;stroke-linecap:round;stroke-linejoin:round;stroke-miterlimit:1.5">
            <g
   id="g39">
                <path
   d="m 98.627,354.678 c 0.172,0.357 0.228,0.715 0.168,1.075 h -1.203 c -0.018,-0.276 -0.074,-0.485 -0.168,-0.625 -0.164,-0.25 -0.461,-0.375 -0.89,-0.375 -0.438,0 -0.821,0.176 -1.149,0.529 -0.328,0.353 -0.56,0.852 -0.695,1.498 -0.138,0.646 -0.108,1.129 0.09,1.451 0.198,0.322 0.502,0.482 0.914,0.482 0.422,0 0.773,-0.138 1.054,-0.414 0.154,-0.148 0.303,-0.371 0.446,-0.668 h 1.191 c -0.237,0.628 -0.611,1.138 -1.123,1.532 -0.512,0.393 -1.102,0.59 -1.771,0.59 -0.828,0 -1.424,-0.266 -1.786,-0.797 -0.359,-0.534 -0.44,-1.266 -0.242,-2.196 0.214,-1.005 0.647,-1.78 1.301,-2.324 0.57,-0.474 1.218,-0.711 1.941,-0.711 0.969,0 1.61,0.318 1.922,0.953 z"
   style="fill:#000000;fill-opacity:1;fill-rule:nonzero"
   id="path34" />
                <path
   d="m 101.291,358.206 2.192,-4.371 h 1.25 l -3.188,5.757 h -1.136 l -0.723,-5.757 h 1.285 z"
   style="fill:#000000;fill-opacity:1;fill-rule:nonzero"
   id="path35" />
                <path
   d="m 109.276,355.374 -0.168,0.785 h -0.731 l -0.726,3.433 h -1.11 l 0.727,-3.433 h -0.621 l 0.168,-0.785 h 0.609 l 0.059,-0.274 c 0.096,-0.456 0.239,-0.769 0.43,-0.941 0.216,-0.255 0.632,-0.383 1.25,-0.383 0.07,0 0.133,0.002 0.189,0.006 0.056,0.004 0.133,0.01 0.232,0.017 l -0.195,0.907 c -0.06,-0.008 -0.163,-0.014 -0.309,-0.018 -0.145,-0.004 -0.254,0.029 -0.326,0.098 -0.071,0.069 -0.115,0.145 -0.131,0.228 -0.018,0.084 -0.044,0.203 -0.078,0.36 z"
   style="fill:#000000;fill-opacity:1;fill-rule:nonzero"
   id="path36" />
                <path
   d="m 111.877,358.991 c -0.013,0.013 -0.047,0.052 -0.101,0.117 -0.055,0.065 -0.116,0.122 -0.184,0.172 -0.208,0.156 -0.4,0.263 -0.576,0.32 -0.176,0.057 -0.373,0.086 -0.592,0.086 -0.63,0 -1.006,-0.226 -1.129,-0.68 -0.067,-0.25 -0.049,-0.618 0.055,-1.105 l 0.543,-2.566 h 1.141 l -0.543,2.566 c -0.052,0.242 -0.063,0.424 -0.032,0.547 0.055,0.216 0.231,0.324 0.528,0.324 0.38,0 0.673,-0.154 0.879,-0.461 0.109,-0.167 0.192,-0.387 0.25,-0.66 l 0.492,-2.316 h 1.129 l -0.903,4.257 h -1.082 z"
   style="fill:#000000;fill-opacity:1;fill-rule:nonzero"
   id="path37" />
                <path
   d="m 117.174,357.003 c 0.05,-0.224 0.056,-0.396 0.02,-0.516 -0.063,-0.219 -0.248,-0.328 -0.555,-0.328 -0.378,0 -0.67,0.16 -0.879,0.48 -0.109,0.17 -0.191,0.386 -0.246,0.649 l -0.488,2.304 h -1.11 l 0.903,-4.25 h 1.074 l -0.133,0.621 c 0.19,-0.218 0.36,-0.376 0.508,-0.472 0.266,-0.172 0.574,-0.258 0.926,-0.258 0.44,0 0.775,0.115 1.006,0.346 0.23,0.23 0.289,0.612 0.177,1.146 l -0.609,2.867 h -1.141 z"
   style="fill:#000000;fill-opacity:1;fill-rule:nonzero"
   id="path38" />
                <path
   d="m 120.159,358.253 -0.282,1.339 h -1.093 l 1.218,-5.738 h 1.094 l -0.66,3.102 1.727,-1.602 h 1.378 l -1.836,1.629 0.997,2.609 h -1.344 l -0.633,-1.82 z"
   style="fill:#000000;fill-opacity:1;fill-rule:nonzero"
   id="path39" />
            </g>
            <path
   d="m 71.998,356.739 h 19"
   style="fill:none;stroke:#000000;stroke-width:0.65px;stroke-opacity:1"
   id="path40" />
            <path
   d="m 124.534,356.739 h 19"
   style="fill:none;stroke:#000000;stroke-width:0.65px;stroke-opacity:1"
   id="path41" />
        </g><path
       d="m 13.94381,3.4957353 -0.29965,1.5415105 h 0.642911 c 0.302464,0 0.543732,-0.087222 0.724155,-0.2623698 0.180423,-0.174796 0.270811,-0.4079745 0.270811,-0.6991838 0,-0.1980083 -0.05698,-0.3439647 -0.170576,-0.4382209 -0.1136,-0.094256 -0.289451,-0.141736 -0.527553,-0.141736 z M 13.47675,3.0399294 h 1.2088 c 0.377376,0 0.665069,0.084057 0.862725,0.2525221 0.198009,0.1684653 0.296837,0.4121949 0.296837,0.730837 0,0.4561577 -0.14666,0.8152456 -0.439628,1.0772637 -0.292968,0.262018 -0.696018,0.3928512 -1.2088,0.3928512 h -0.64045 L 13.234779,7.142183 h -0.5578 z"
       style="clip-rule:evenodd;fill:#000000;fill-opacity:1;fill-rule:nonzero;stroke-width:0.351702;stroke-linecap:round;stroke-linejoin:round;stroke-miterlimit:1.5"
       id="path42" /><path
       d="M 16.869972,3.0399294 H 19.30164 L 19.2109,3.5069898 h -1.879144 l -0.236344,1.2144275 h 1.794032 l -0.08793,0.4670604 H 17.004668 L 16.718734,6.6747709 H 18.64782 L 18.55708,7.142183 h -2.486534 z"
       style="clip-rule:evenodd;fill:#000000;fill-opacity:1;fill-rule:nonzero;stroke-width:0.351702;stroke-linecap:round;stroke-linejoin:round;stroke-miterlimit:1.5"
       id="path43" /><path
       d="m 20.095784,3.0399294 h 0.703404 L 21.52475,6.4166215 22.181377,3.0399294 H 22.71702 L 21.917601,7.142183 H 21.214197 L 20.488635,3.7651392 19.829194,7.142183 h -0.532829 z"
       style="clip-rule:evenodd;fill:#000000;fill-opacity:1;fill-rule:nonzero;stroke-width:0.351702;stroke-linecap:round;stroke-linejoin:round;stroke-miterlimit:1.5"
       id="path44" /><path
       d="m 23.230857,3.0399294 h 3.132259 l -0.09039,0.4670604 H 24.983738 L 24.280334,7.142183 h -0.560262 l 0.70868,-3.6351932 h -1.288637 z"
       style="clip-rule:evenodd;fill:#000000;fill-opacity:1;fill-rule:nonzero;stroke-width:0.351702;stroke-linecap:round;stroke-linejoin:round;stroke-miterlimit:1.5"
       id="path45" /><path
       d="m 28.10791,3.5013626 -0.999889,2.1267428 h 1.181367 z M 27.844133,3.0399294 h 0.675972 L 28.976263,7.142183 H 28.42409 L 28.32772,6.0733602 H 26.899106 L 26.393358,7.142183 h -0.596135 z"
       style="clip-rule:evenodd;fill:#000000;fill-opacity:1;fill-rule:nonzero;stroke-width:0.351702;stroke-linecap:round;stroke-linejoin:round;stroke-miterlimit:1.5"
       id="path46" /><path
       d="M 36.015932,3.1799068 35.908663,3.7433336 C 35.760245,3.6350094 35.606551,3.5534145 35.446878,3.498549 35.287557,3.443683 35.122961,3.416251 34.952385,3.416251 c -0.302112,0 -0.548655,0.074912 -0.738926,0.2250893 -0.190623,0.1505285 -0.285934,0.3418545 -0.285934,0.5743296 0,0.1301298 0.04502,0.2356404 0.134702,0.3161802 0.08968,0.08054 0.252874,0.1575626 0.489218,0.2307166 l 0.332358,0.1072692 c 0.298595,0.091443 0.517002,0.2138349 0.655221,0.3668253 0.138219,0.1529904 0.207505,0.3474817 0.207505,0.5838255 0,0.4304834 -0.151936,0.7716345 -0.456158,1.0234532 -0.303871,0.2518187 -0.718879,0.3777281 -1.244674,0.3777281 -0.190622,0 -0.377728,-0.020399 -0.56202,-0.0619 -0.18394,-0.041149 -0.367529,-0.1030487 -0.550765,-0.185347 l 0.112544,-0.5743296 c 0.17972,0.1266128 0.36155,0.2198139 0.54549,0.2803066 0.184292,0.060493 0.378783,0.090739 0.583826,0.090739 0.302464,0 0.547952,-0.08054 0.736464,-0.2419711 0.188512,-0.1610796 0.28312,-0.3654185 0.28312,-0.6126651 0,-0.1501768 -0.04045,-0.2665902 -0.120985,-0.3488885 -0.08054,-0.082298 -0.242675,-0.1610796 -0.486404,-0.2363438 L 34.309474,5.2405296 C 33.972543,5.1343156 33.736551,5.0140334 33.601849,4.8793315 33.467499,4.7446296 33.399972,4.5666683 33.399972,4.3447443 c 0,-0.4048092 0.151232,-0.7357609 0.453344,-0.9932068 0.302464,-0.257446 0.697074,-0.3858173 1.184181,-0.3858173 0.14666,0 0.302816,0.018288 0.468467,0.054866 0.166004,0.036577 0.335876,0.089684 0.509968,0.1593206 z"
       style="clip-rule:evenodd;fill:#000000;fill-opacity:1;fill-rule:nonzero;stroke-width:0.351702;stroke-linecap:round;stroke-linejoin:round;stroke-miterlimit:1.5"
       id="path47" /><path
       d="m 37.1973,3.0399294 h 2.431668 l -0.09074,0.4670604 H 37.659084 L 37.42274,4.7214173 h 1.794032 l -0.08792,0.4670604 h -1.796846 l -0.285934,1.4862932 h 1.929086 l -0.09074,0.4674121 h -2.486534 z"
       style="clip-rule:evenodd;fill:#000000;fill-opacity:1;fill-rule:nonzero;stroke-width:0.351702;stroke-linecap:round;stroke-linejoin:round;stroke-miterlimit:1.5"
       id="path48" /><path
       d="m 41.024874,7.2163922 h -0.02743 c -0.393906,0 -0.680895,-0.1090277 -0.86167,-0.327083 -0.180423,-0.2180553 -0.270459,-0.5669438 -0.270459,-1.0470172 0,-0.2032839 0.0197,-0.4216909 0.05909,-0.6552211 0.03939,-0.2335302 0.09848,-0.4747979 0.177258,-0.7241547 0.05311,-0.1684653 0.110435,-0.3193455 0.171631,-0.453344 0.06155,-0.1336469 0.127668,-0.2546324 0.199415,-0.3626049 0.161079,-0.2324752 0.341503,-0.4044575 0.541269,-0.5152437 0.199415,-0.1107861 0.432242,-0.1660034 0.697777,-0.1660034 0.369991,0 0.644319,0.112193 0.822983,0.336579 0.178665,0.2243859 0.267997,0.5701091 0.267997,1.0371695 0,0.1519354 -0.01336,0.3182905 -0.04009,0.4987137 -0.02638,0.1804232 -0.06542,0.3721008 -0.116765,0.5757364 -0.05486,0.212428 -0.111841,0.3974234 -0.170224,0.5549859 -0.05873,0.1575626 -0.12204,0.29754 -0.189567,0.4202841 -0.09883,0.1740925 -0.212428,0.3232142 -0.340799,0.4477168 -0.128372,0.1248542 -0.264832,0.2173519 -0.409382,0.277493 l 0.423098,0.5166504 -0.423098,0.2528738 z m -0.0056,-0.4452549 c 0.155804,0 0.29965,-0.046776 0.431538,-0.1403292 0.131889,-0.093201 0.240916,-0.2268478 0.326732,-0.4009404 0.135757,-0.2655351 0.245488,-0.5869909 0.329896,-0.9643672 0.08441,-0.3773764 0.126261,-0.740333 0.126261,-1.0881664 0,-0.2602596 -0.04783,-0.4519373 -0.144198,-0.5757364 -0.09601,-0.1234475 -0.244784,-0.185347 -0.44631,-0.185347 -0.155804,0 -0.298595,0.046776 -0.428724,0.1399774 -0.13013,0.093553 -0.238103,0.2271996 -0.32427,0.4012921 -0.139274,0.2694039 -0.251115,0.5908596 -0.335172,0.9643673 -0.08441,0.3738593 -0.126261,0.7347057 -0.126261,1.0825391 0,0.2620181 0.04783,0.4551026 0.144198,0.5799568 0.09602,0.1245026 0.244785,0.1867539 0.44631,0.1867539 z"
       style="clip-rule:evenodd;fill:#000000;fill-opacity:1;fill-rule:nonzero;stroke-width:0.351702;stroke-linecap:round;stroke-linejoin:round;stroke-miterlimit:1.5"
       id="path49" /><path
       d="m 43.343998,5.5676126 0.488866,-2.5276832 h 0.5578 l -0.49168,2.5276832 c -0.0039,0.023916 -0.01125,0.061548 -0.02216,0.1125447 -0.05487,0.2820651 -0.0823,0.4772598 -0.0823,0.5852323 0,0.168817 0.04994,0.2950781 0.149826,0.3794866 0.09953,0.084057 0.250411,0.1262611 0.451937,0.1262611 0.162838,0 0.301408,-0.026026 0.414657,-0.07843 0.113599,-0.052052 0.211724,-0.1350536 0.294023,-0.2486534 0.04044,-0.056624 0.08124,-0.1543972 0.122392,-0.2926162 0.04115,-0.1382189 0.08652,-0.3327102 0.136109,-0.5838255 L 45.852334,3.039929 h 0.557799 l -0.488862,2.5276836 c -0.07702,0.4012921 -0.158969,0.6956668 -0.246191,0.8834757 -0.08687,0.187809 -0.201877,0.3393926 -0.344668,0.4547509 -0.13013,0.1023453 -0.278548,0.1807749 -0.445255,0.234937 -0.166707,0.05381 -0.34713,0.080891 -0.54127,0.080891 -0.351702,0 -0.622161,-0.082298 -0.811728,-0.2472466 -0.189568,-0.1649483 -0.284527,-0.3991819 -0.284527,-0.7034043 0,-0.067878 0.0077,-0.159321 0.02356,-0.2746793 0.01548,-0.1153583 0.03974,-0.2585011 0.0728,-0.4287249 z"
       style="clip-rule:evenodd;fill:#000000;fill-opacity:1;fill-rule:nonzero;stroke-width:0.351702;stroke-linecap:round;stroke-linejoin:round;stroke-miterlimit:1.5"
       id="path50" /><path
       d="m 47.360788,3.0399294 h 2.43202 l -0.09074,0.4670604 h -1.879496 l -0.236344,1.2144275 h 1.794384 l -0.08792,0.4670604 h -1.797198 l -0.285582,1.4862932 h 1.928734 l -0.09074,0.4674121 h -2.486538 z"
       style="clip-rule:evenodd;fill:#000000;fill-opacity:1;fill-rule:nonzero;stroke-width:0.351702;stroke-linecap:round;stroke-linejoin:round;stroke-miterlimit:1.5"
       id="path51" /><path
       d="m 50.5866,3.0399294 h 0.703404 l 0.725562,3.3766921 0.656628,-3.3766921 h 0.535642 L 52.408417,7.142183 H 51.705013 L 50.979803,3.7651392 50.320361,7.142183 h -0.53318 z"
       style="clip-rule:evenodd;fill:#000000;fill-opacity:1;fill-rule:nonzero;stroke-width:0.351702;stroke-linecap:round;stroke-linejoin:round;stroke-miterlimit:1.5"
       id="path52" /><path
       d="m 55.785461,6.9965783 c -0.154046,0.074913 -0.309146,0.1311849 -0.466006,0.1688171 -0.156507,0.037632 -0.31829,0.056272 -0.484997,0.056272 -0.420987,0 -0.747718,-0.1216889 -0.97949,-0.3654185 -0.231772,-0.2437296 -0.347482,-0.5852324 -0.347482,-1.02486 0,-0.4030507 0.06401,-0.8022326 0.192381,-1.1978975 0.12802,-0.3956649 0.296837,-0.7188791 0.505396,-0.9699944 0.19625,-0.2381024 0.412195,-0.4139535 0.648539,-0.5275532 0.236344,-0.1135998 0.505748,-0.1702239 0.80786,-0.1702239 0.146659,0 0.292264,0.018992 0.436814,0.057679 0.144901,0.038335 0.285934,0.094256 0.423097,0.1674102 L 56.409029,3.7595119 C 56.291912,3.6441536 56.168113,3.5579866 56.037983,3.5013626 c -0.129778,-0.056624 -0.268349,-0.085112 -0.414657,-0.085112 -0.174092,0 -0.335172,0.036929 -0.48359,0.1111378 -0.148419,0.074209 -0.287693,0.1874573 -0.417822,0.3393926 -0.190623,0.2254411 -0.343965,0.5138368 -0.460027,0.8655389 -0.116413,0.3517022 -0.174796,0.7044594 -0.174796,1.05792 0,0.3168837 0.07175,0.5595581 0.214539,0.7280234 0.142791,0.1684654 0.348888,0.2528739 0.618292,0.2528739 0.155452,0 0.31618,-0.029191 0.482183,-0.087926 0.165652,-0.058734 0.329194,-0.1438461 0.490273,-0.2556874 z"
       style="clip-rule:evenodd;fill:#000000;fill-opacity:1;fill-rule:nonzero;stroke-width:0.351702;stroke-linecap:round;stroke-linejoin:round;stroke-miterlimit:1.5"
       id="path53" /><path
       d="m 57.524628,3.0399294 h 2.431668 l -0.09074,0.4670604 h -1.879495 l -0.235992,1.2144275 h 1.794032 l -0.08792,0.4670604 h -1.796846 l -0.285934,1.4862932 h 1.929086 l -0.09074,0.4674121 h -2.486886 z"
       style="clip-rule:evenodd;fill:#000000;fill-opacity:1;fill-rule:nonzero;stroke-width:0.351702;stroke-linecap:round;stroke-linejoin:round;stroke-miterlimit:1.5"
       id="path54" /><path
       d="m 62.072136,5.2050077 c 0.131889,0.025674 0.237399,0.08687 0.317236,0.1839402 0.07948,0.09707 0.168817,0.3077394 0.267997,0.6320087 L 62.989727,7.142183 H 62.437555 L 62.146346,6.1060685 C 62.065454,5.8204864 61.975418,5.6326775 61.875535,5.5429934 61.775651,5.4533094 61.625123,5.4082915 61.423598,5.4082915 H 60.896044 L 60.558059,7.142183 h -0.5578 l 0.794144,-4.1022536 h 1.143031 c 0.379135,0 0.672807,0.081947 0.880663,0.2458398 0.207856,0.1638932 0.311608,0.3949615 0.311608,0.6935566 0,0.3355238 -0.09461,0.6130168 -0.284176,0.8328306 -0.189567,0.2198138 -0.447365,0.350647 -0.773393,0.3928513 z M 61.26709,3.4957353 60.986784,4.9521339 h 0.601762 c 0.298595,0 0.537049,-0.07843 0.715714,-0.2349371 0.178664,-0.1565074 0.267645,-0.3650668 0.267645,-0.6249746 0,-0.2053941 -0.05768,-0.3559226 -0.173037,-0.4519373 -0.115359,-0.096366 -0.29754,-0.1445496 -0.546545,-0.1445496 z"
       style="clip-rule:evenodd;fill:#000000;fill-opacity:1;fill-rule:nonzero;stroke-width:0.351702;stroke-linecap:round;stroke-linejoin:round;stroke-miterlimit:1.5"
       id="path55" /><path
       d="M 6.1046389,54.622032 58.627132,17.133399 38.314927,78.613393 18.010811,16.935391 70.255107,54.877368 Z"
       style="clip-rule:evenodd;fill:none;fill-rule:evenodd;stroke:#000000;stroke-width:0.211021px;stroke-linecap:round;stroke-linejoin:round;stroke-miterlimit:1.5;stroke-opacity:1"
       id="path56" /><circle
       cx="38.280109"
       cy="43.985859"
       r="29.040045"
       style="clip-rule:evenodd;fill:none;fill-rule:evenodd;stroke:#000000;stroke-width:0.211021px;stroke-linecap:round;stroke-linejoin:round;stroke-miterlimit:1.5;stroke-opacity:1"
       id="circle56" /><g
       id="g61"
       transform="matrix(0.35170213,0,0,0.35170213,0.17634782,0.50386701)"
       style="clip-rule:evenodd;fill-rule:evenodd;stroke-linecap:round;stroke-linejoin:round;stroke-miterlimit:1.5">
            <circle
   cx="178.19"
   cy="146.603"
   r="27.5"
   style="fill:#666666;fill-opacity:1;stroke:#000000;stroke-width:1.00085;stroke-dasharray:none;stroke-opacity:1"
   id="circle57" />
            <circle
   cx="108.287"
   cy="198.619"
   r="27.5"
   style="fill:#666666;fill-opacity:1;stroke:#000000;stroke-width:1.00085;stroke-dasharray:none;stroke-opacity:1"
   id="circle58" />
            <circle
   cx="37.419998"
   cy="147.332"
   r="27.5"
   style="fill:#666666;fill-opacity:1;stroke:#000000;stroke-width:1.00085;stroke-dasharray:none;stroke-opacity:1"
   id="circle59" />
            <circle
   cx="63.594002"
   cy="64.926003"
   r="27.5"
   style="fill:#666666;fill-opacity:1;stroke:#000000;stroke-width:1.00085;stroke-dasharray:none;stroke-opacity:1"
   id="circle60" />
            <circle
   cx="152.17999"
   cy="65.416"
   r="27.5"
   style="fill:#666666;fill-opacity:1;stroke:#000000;stroke-width:1.00085;stroke-dasharray:none;stroke-opacity:1"
   id="circle61" />
        </g><path
       id="path61"
       d="m 33.622869,50.048498 c -1.875979,-1.362143 -3.094276,-3.557819 -3.094276,-6.032747 0,-4.129686 3.393222,-7.482111 7.572499,-7.482111 4.179628,0 7.57285,3.352425 7.57285,7.482111 0,2.128501 -0.901412,4.050554 -2.347612,5.413751 -0.237047,0.223683 -0.488866,0.432242 -0.753697,0.624271"
       style="clip-rule:evenodd;fill:none;fill-rule:evenodd;stroke:#000000;stroke-width:0.246191px;stroke-linecap:butt;stroke-linejoin:round;stroke-miterlimit:1.5;stroke-opacity:1" /><path
       id="path67"
       d="m 33.515248,49.93947 -1.052293,1.486293"
       style="clip-rule:evenodd;fill:none;fill-rule:evenodd;stroke:#000000;stroke-width:0.263777px;stroke-linecap:square;stroke-linejoin:round;stroke-miterlimit:1.5;stroke-opacity:1" /><g
       id="g8"
       transform="translate(0.02208493,-0.05749337)"
       style="display:inline"><path
         d="m 20.684813,104.75382 -0.05873,0.3081 c -0.08089,-0.0591 -0.1653,-0.10376 -0.252171,-0.134 -0.08722,-0.0299 -0.177258,-0.045 -0.270459,-0.045 -0.1653,0 -0.300002,0.0412 -0.404106,0.12345 -0.104103,0.0819 -0.156155,0.18675 -0.156155,0.31371 0,0.071 0.02462,0.12873 0.07351,0.17269 0.04924,0.0443 0.138219,0.0862 0.267294,0.12626 l 0.18183,0.0587 c 0.16319,0.0499 0.282769,0.11676 0.358384,0.20047 0.07562,0.0837 0.113249,0.18992 0.113249,0.31934 0,0.23529 -0.083,0.42169 -0.249357,0.55956 -0.166004,0.13752 -0.392852,0.20645 -0.680544,0.20645 -0.104104,0 -0.206449,-0.0113 -0.307036,-0.0338 -0.100587,-0.0225 -0.201173,-0.0563 -0.301057,-0.10165 l 0.06155,-0.31371 c 0.09812,0.0689 0.197305,0.11993 0.298243,0.15299 0.100587,0.0331 0.206801,0.0496 0.318994,0.0496 0.1653,0 0.29965,-0.044 0.402699,-0.13224 0.103049,-0.0879 0.154749,-0.19977 0.154749,-0.33482 0,-0.0819 -0.02216,-0.14561 -0.06612,-0.19063 -0.04396,-0.0454 -0.132592,-0.0883 -0.265887,-0.12942 l -0.151935,-0.0496 c -0.18394,-0.058 -0.313015,-0.1238 -0.386521,-0.19731 -0.07386,-0.0739 -0.110434,-0.17093 -0.110434,-0.29226 0,-0.22122 0.08265,-0.40235 0.247598,-0.54303 0.1653,-0.14068 0.381245,-0.21102 0.647484,-0.21102 0.08019,0 0.165652,0.01 0.256391,0.0299 0.09039,0.02 0.183236,0.0492 0.278548,0.0872 z"
         style="clip-rule:evenodd;fill:#000000;fill-rule:nonzero;stroke-width:0.351702;stroke-linecap:round;stroke-linejoin:round;stroke-miterlimit:1.5;fill-opacity:1"
         id="path1-2" /><path
         d="m 21.10369,104.67715 h 1.712438 l -0.04924,0.25534 h -0.704811 l -0.38441,1.98747 h -0.306333 l 0.387576,-1.98747 h -0.704811 z"
         style="clip-rule:evenodd;fill:#000000;fill-rule:nonzero;stroke-width:0.351702;stroke-linecap:round;stroke-linejoin:round;stroke-miterlimit:1.5;fill-opacity:1"
         id="path2-9" /><path
         d="m 23.770296,104.92968 -0.546897,1.16272 h 0.645725 z m -0.144198,-0.25253 h 0.369287 l 0.249357,2.24281 h -0.301761 l -0.05275,-0.58453 h -0.78113 l -0.276438,0.58453 h -0.325677 z"
         style="clip-rule:evenodd;fill:#000000;fill-rule:nonzero;stroke-width:0.351702;stroke-linecap:round;stroke-linejoin:round;stroke-miterlimit:1.5;fill-opacity:1"
         id="path3-8" /><path
         d="m 25.668784,105.86098 c 0.0721,0.0141 0.130129,0.0475 0.173741,0.10059 0.04326,0.0531 0.09215,0.16811 0.146308,0.34537 l 0.18183,0.61302 H 25.86855 l -0.158969,-0.56624 c -0.04431,-0.15616 -0.09355,-0.25886 -0.148067,-0.30809 -0.05451,-0.0489 -0.137163,-0.0735 -0.247246,-0.0735 h -0.288396 l -0.184643,0.94784 h -0.304926 l 0.434,-2.24281 h 0.624975 c 0.207152,0 0.36788,0.045 0.48148,0.13435 0.1136,0.0897 0.170576,0.2163 0.170576,0.37949 0,0.18324 -0.05205,0.33482 -0.155453,0.4551 -0.103752,0.12028 -0.244784,0.19168 -0.423097,0.21489 z m -0.43998,-0.93447 -0.153342,0.79625 h 0.329193 c 0.16319,0 0.293672,-0.0429 0.391093,-0.12837 0.09777,-0.0858 0.14666,-0.19976 0.14666,-0.34185 0,-0.1122 -0.03165,-0.19449 -0.09496,-0.24725 -0.06295,-0.0524 -0.162486,-0.0788 -0.298595,-0.0788 z"
         style="clip-rule:evenodd;fill:#000000;fill-rule:nonzero;stroke-width:0.351702;stroke-linecap:round;stroke-linejoin:round;stroke-miterlimit:1.5;fill-opacity:1"
         id="path4-2" /><path
         d="m 65.485323,118.96348 c 0.0721,0.0141 0.13013,0.0478 0.173741,0.10093 0.04326,0.0531 0.09215,0.16812 0.146308,0.34538 l 0.18183,0.61301 H 65.68509 l -0.158969,-0.56659 c -0.04431,-0.15616 -0.09355,-0.25885 -0.148067,-0.30774 -0.05451,-0.0492 -0.136812,-0.0735 -0.247247,-0.0735 h -0.288395 l -0.184644,0.94784 h -0.304926 l 0.434001,-2.2428 h 0.624974 c 0.207153,0 0.367881,0.0447 0.481481,0.13435 0.113599,0.0897 0.170575,0.21594 0.170575,0.37948 0,0.18324 -0.05205,0.33482 -0.155452,0.45511 -0.103752,0.11993 -0.244785,0.19167 -0.423098,0.21454 z m -0.439979,-0.93413 -0.153342,0.79626 h 0.329193 c 0.16319,0 0.293671,-0.0429 0.391093,-0.12873 0.09777,-0.0855 0.146659,-0.19941 0.146659,-0.3415 0,-0.11219 -0.03165,-0.19449 -0.09461,-0.24724 -0.06331,-0.0524 -0.162839,-0.0788 -0.298947,-0.0788 z"
         style="clip-rule:evenodd;fill:#000000;fill-rule:nonzero;stroke-width:0.351702;stroke-linecap:round;stroke-linejoin:round;stroke-miterlimit:1.5;fill-opacity:1"
         id="path9-0" /><path
         d="m 66.703619,117.78 h 1.329434 l -0.04959,0.25533 h -1.027322 l -0.129426,0.66402 h 0.980897 l -0.04783,0.25533 h -0.982656 l -0.156156,0.81279 h 1.054403 l -0.04924,0.25533 h -1.35968 z"
         style="clip-rule:evenodd;fill:#000000;fill-rule:nonzero;stroke-width:0.351702;stroke-linecap:round;stroke-linejoin:round;stroke-miterlimit:1.5;fill-opacity:1"
         id="path10-7" /><path
         d="m 69.762021,117.85667 -0.05873,0.30774 c -0.08089,-0.0591 -0.164949,-0.1034 -0.252171,-0.13365 -0.08722,-0.0299 -0.177258,-0.045 -0.270459,-0.045 -0.1653,0 -0.300001,0.0411 -0.404105,0.1231 -0.104104,0.0823 -0.156156,0.18675 -0.156156,0.31407 0,0.071 0.02462,0.12872 0.07351,0.17268 0.04924,0.044 0.138219,0.0862 0.267645,0.12627 l 0.181478,0.0584 c 0.16319,0.0503 0.282769,0.11712 0.358385,0.20082 0.07562,0.0833 0.113248,0.18992 0.113248,0.31899 0,0.23529 -0.083,0.42205 -0.249357,0.55956 -0.166003,0.13787 -0.392851,0.20645 -0.680192,0.20645 -0.104104,0 -0.206801,-0.0112 -0.307388,-0.0338 -0.100586,-0.0225 -0.200821,-0.0563 -0.301057,-0.10129 l 0.06155,-0.31407 c 0.09813,0.0693 0.197657,0.12028 0.298244,0.15334 0.100587,0.0331 0.206801,0.0496 0.318994,0.0496 0.1653,0 0.29965,-0.044 0.402698,-0.13224 0.103049,-0.0879 0.154749,-0.19977 0.154749,-0.33482 0,-0.0823 -0.02216,-0.14596 -0.06612,-0.19097 -0.04396,-0.045 -0.132591,-0.0879 -0.265886,-0.12908 l -0.151584,-0.0496 c -0.184292,-0.058 -0.313367,-0.1238 -0.386872,-0.19766 -0.07351,-0.0735 -0.110435,-0.17092 -0.110435,-0.29191 0,-0.22157 0.08265,-0.40235 0.24795,-0.54303 0.164948,-0.14068 0.380894,-0.21102 0.647132,-0.21102 0.08019,0 0.165652,0.01 0.256391,0.0299 0.09039,0.02 0.183237,0.0492 0.278548,0.0872 z"
         style="clip-rule:evenodd;fill:#000000;fill-rule:nonzero;stroke-width:0.351702;stroke-linecap:round;stroke-linejoin:round;stroke-miterlimit:1.5;fill-opacity:1"
         id="path11-4" /><path
         d="m 70.408098,117.78 h 1.329082 l -0.04924,0.25533 h -1.027674 l -0.129074,0.66402 h 0.980897 l -0.04818,0.25533 h -0.982304 l -0.156156,0.81279 h 1.054403 l -0.04959,0.25533 h -1.359329 z"
         style="clip-rule:evenodd;fill:#000000;fill-rule:nonzero;stroke-width:0.351702;stroke-linecap:round;stroke-linejoin:round;stroke-miterlimit:1.5;fill-opacity:1"
         id="path12-8" /><path
         d="m 72.033313,117.78 h 1.712438 l -0.04959,0.25533 h -0.704459 l -0.384762,1.98747 h -0.306333 l 0.387576,-1.98747 h -0.70446 z"
         style="clip-rule:evenodd;fill:#000000;fill-rule:nonzero;stroke-width:0.351702;stroke-linecap:round;stroke-linejoin:round;stroke-miterlimit:1.5;fill-opacity:1"
         id="path13-5" /><path
         d="m 52.861455,119.94331 c -0.08406,0.0408 -0.168817,0.0717 -0.254632,0.0921 -0.08546,0.0208 -0.173741,0.031 -0.265183,0.031 -0.230014,0 -0.408678,-0.0668 -0.535291,-0.19977 -0.126613,-0.13329 -0.189919,-0.32005 -0.189919,-0.56026 0,-0.22052 0.03482,-0.43892 0.104807,-0.65522 0.07034,-0.2163 0.162486,-0.39285 0.276438,-0.53002 0.107269,-0.13013 0.225441,-0.22649 0.354516,-0.28839 0.129426,-0.0622 0.276438,-0.0932 0.441738,-0.0932 0.08019,0 0.159672,0.0105 0.238805,0.0316 0.07913,0.0208 0.156156,0.0513 0.23142,0.0914 l -0.06155,0.31091 c -0.06401,-0.063 -0.131888,-0.11008 -0.202932,-0.14103 -0.07104,-0.0313 -0.146659,-0.0468 -0.226848,-0.0468 -0.09496,0 -0.183236,0.0204 -0.264128,0.0608 -0.08124,0.0408 -0.157211,0.10235 -0.228606,0.1857 -0.104104,0.1231 -0.187809,0.28066 -0.251467,0.47304 -0.06366,0.19238 -0.09531,0.38512 -0.09531,0.57855 0,0.17304 0.03904,0.30563 0.117117,0.39778 0.07808,0.0921 0.190623,0.13822 0.337986,0.13822 0.08511,0 0.173037,-0.0158 0.263425,-0.0478 0.09074,-0.032 0.180071,-0.0788 0.268349,-0.13997 z"
         style="clip-rule:evenodd;fill:#000000;fill-opacity:1;fill-rule:nonzero;stroke-width:0.351702;stroke-linecap:round;stroke-linejoin:round;stroke-miterlimit:1.5"
         id="path19-8" /><path
         d="M 53.513511,117.77999 H 53.8005 l -0.135405,1.8176 0.494141,-1.20177 h 0.317236 l 0.02251,1.20494 0.56624,-1.82077 h 0.29754 l -0.766359,2.24281 h -0.291209 l -0.04678,-1.30693 -0.557096,1.30693 h -0.282417 z"
         style="clip-rule:evenodd;fill:#000000;fill-opacity:1;fill-rule:nonzero;stroke-width:0.351702;stroke-linecap:round;stroke-linejoin:round;stroke-miterlimit:1.5"
         id="path20-3" /><path
         d="m 52.461033,106.84041 c -0.08406,0.0408 -0.169168,0.0717 -0.254632,0.0921 -0.08546,0.0208 -0.174093,0.031 -0.265183,0.031 -0.230365,0 -0.408678,-0.0668 -0.535643,-0.19977 -0.126613,-0.13329 -0.189919,-0.32005 -0.189919,-0.56026 0,-0.22052 0.03517,-0.43892 0.105159,-0.65522 0.06999,-0.2163 0.162135,-0.39285 0.276438,-0.53002 0.107269,-0.13013 0.225441,-0.22649 0.354516,-0.28839 0.129074,-0.0622 0.276437,-0.0932 0.441737,-0.0932 0.07984,0 0.159673,0.0105 0.238806,0.0316 0.07913,0.0208 0.156156,0.0513 0.23142,0.0914 l -0.0619,0.31091 c -0.06401,-0.063 -0.131537,-0.11008 -0.202581,-0.14103 -0.07104,-0.0313 -0.14666,-0.0468 -0.226848,-0.0468 -0.09531,0 -0.183236,0.0204 -0.26448,0.0608 -0.08089,0.0408 -0.157211,0.10235 -0.228254,0.1857 -0.104104,0.1231 -0.188161,0.28066 -0.251467,0.47304 -0.06366,0.19238 -0.09566,0.38512 -0.09566,0.57855 0,0.17304 0.03904,0.30563 0.117468,0.39778 0.07808,0.0921 0.190623,0.13822 0.337986,0.13822 0.08511,0 0.172686,-0.0158 0.263425,-0.0478 0.09074,-0.032 0.180071,-0.0788 0.267997,-0.13997 z"
         style="clip-rule:evenodd;fill:#000000;fill-opacity:1;fill-rule:nonzero;stroke-width:0.351702;stroke-linecap:round;stroke-linejoin:round;stroke-miterlimit:1.5"
         id="path21-0" /><path
         d="m 54.313097,106.84041 c -0.08406,0.0408 -0.168817,0.0717 -0.254633,0.0921 -0.08546,0.0208 -0.174092,0.031 -0.265183,0.031 -0.230365,0 -0.408678,-0.0668 -0.535291,-0.19977 -0.126612,-0.13329 -0.190271,-0.32005 -0.190271,-0.56026 0,-0.22052 0.03517,-0.43892 0.105159,-0.65522 0.07034,-0.2163 0.162487,-0.39285 0.276438,-0.53002 0.107269,-0.13013 0.225441,-0.22649 0.354516,-0.28839 0.129426,-0.0622 0.276438,-0.0932 0.441738,-0.0932 0.08019,0 0.159673,0.0105 0.238806,0.0316 0.07913,0.0208 0.156155,0.0513 0.23142,0.0914 l -0.06155,0.31091 c -0.06436,-0.063 -0.131889,-0.11008 -0.202932,-0.14103 -0.07104,-0.0313 -0.14666,-0.0468 -0.226848,-0.0468 -0.09496,0 -0.183237,0.0204 -0.26448,0.0608 -0.08089,0.0408 -0.157211,0.10235 -0.228255,0.1857 -0.104104,0.1231 -0.187809,0.28066 -0.251467,0.47304 -0.06366,0.19238 -0.09531,0.38512 -0.09531,0.57855 0,0.17304 0.03904,0.30563 0.117117,0.39778 0.07808,0.0921 0.190622,0.13822 0.337985,0.13822 0.08511,0 0.173038,-0.0158 0.263425,-0.0478 0.09074,-0.032 0.180072,-0.0788 0.268349,-0.13997 z"
         style="clip-rule:evenodd;fill:#000000;fill-opacity:1;fill-rule:nonzero;stroke-width:0.351702;stroke-linecap:round;stroke-linejoin:round;stroke-miterlimit:1.5"
         id="path22-6" /><path
         d="m 54.965152,104.67709 h 0.286989 l -0.135405,1.8176 0.494142,-1.20177 h 0.317235 l 0.02251,1.20494 0.56624,-1.82077 h 0.297189 l -0.766008,2.24281 h -0.29121 l -0.04678,-1.30693 -0.557097,1.30693 h -0.282416 z"
         style="clip-rule:evenodd;fill:#000000;fill-opacity:1;fill-rule:nonzero;stroke-width:0.351702;stroke-linecap:round;stroke-linejoin:round;stroke-miterlimit:1.5"
         id="path23-2" /><path
         d="m 3.7788327,117.77997 h 1.7124377 l -0.04959,0.25534 H 4.7368693 l -0.3844104,1.98747 H 4.0461264 l 0.3875757,-1.98747 H 3.7292427 Z"
         style="clip-rule:evenodd;fill:#000000;fill-rule:nonzero;stroke-width:0.351702;stroke-linecap:round;stroke-linejoin:round;stroke-miterlimit:1.5;fill-opacity:1"
         id="path62-2" /><path
         d="m 6.4915113,118.9638 c 0.072099,0.0141 0.1301298,0.0475 0.1733891,0.10059 0.043611,0.0531 0.092498,0.16811 0.1466598,0.34537 l 0.18183,0.61302 H 6.6912781 L 6.531957,119.45654 c -0.043963,-0.15616 -0.093201,-0.25886 -0.1477149,-0.30809 -0.054514,-0.0489 -0.1371638,-0.0735 -0.2472466,-0.0735 H 5.8485998 l -0.1846436,0.94784 H 5.3590304 l 0.4340004,-2.24281 h 0.6249747 c 0.2071526,0 0.3675287,0.045 0.4814802,0.13435 0.1135998,0.0897 0.1702239,0.2163 0.1702239,0.37949 0,0.18324 -0.0517,0.33482 -0.1554524,0.4551 -0.1034004,0.12028 -0.244433,0.19168 -0.4227459,0.21489 z m -0.4399794,-0.93447 -0.1533421,0.79625 h 0.3288415 c 0.1631898,0 0.2936712,-0.0429 0.3914444,-0.12837 0.097773,-0.0858 0.1463081,-0.19976 0.1463081,-0.34185 0,-0.1122 -0.031301,-0.19449 -0.094608,-0.24725 -0.062955,-0.0524 -0.1624863,-0.0788 -0.2989468,-0.0788 z"
         style="clip-rule:evenodd;fill:#000000;fill-rule:nonzero;stroke-width:0.351702;stroke-linecap:round;stroke-linejoin:round;stroke-miterlimit:1.5;fill-opacity:1"
         id="path63-5" /><path
         d="m 7.7126211,117.77997 h 1.246784 l -0.04959,0.25534 H 8.4381826 l -0.3348205,1.73213 h 0.4716326 l -0.04959,0.25534 H 7.2786206 l 0.04959,-0.25534 h 0.4702258 l 0.3365789,-1.73213 H 7.6633828 Z"
         style="clip-rule:evenodd;fill:#000000;fill-rule:nonzero;stroke-width:0.351702;stroke-linecap:round;stroke-linejoin:round;stroke-miterlimit:1.5;fill-opacity:1"
         id="path64-2" /><path
         d="m 10.500916,119.87858 c -0.08722,0.0619 -0.182534,0.10903 -0.285583,0.14033 -0.103048,0.0316 -0.213131,0.0475 -0.3305996,0.0475 -0.2321234,0 -0.4107881,-0.0675 -0.5352906,-0.20223 -0.1248543,-0.1347 -0.1871056,-0.32673 -0.1871056,-0.57609 0,-0.09 0.00844,-0.18605 0.024971,-0.28769 0.016178,-0.10164 0.040797,-0.20786 0.072802,-0.31899 0.034819,-0.11712 0.075968,-0.22298 0.1230958,-0.31759 0.047128,-0.095 0.098477,-0.1755 0.1547489,-0.24268 0.1069175,-0.13013 0.2254411,-0.22649 0.3552192,-0.28839 0.1297779,-0.0622 0.2774929,-0.0932 0.4438479,-0.0932 0.08019,0 0.160025,0.0105 0.23951,0.0316 0.07984,0.0208 0.157914,0.0513 0.235288,0.0914 l -0.06155,0.31091 c -0.06542,-0.063 -0.133646,-0.11008 -0.205042,-0.14103 -0.07175,-0.0313 -0.148067,-0.0468 -0.22931,-0.0468 -0.09812,0 -0.190271,0.0208 -0.276438,0.0626 -0.086167,0.0415 -0.1631896,0.1027 -0.2310681,0.18394 -0.044315,0.0521 -0.085815,0.11712 -0.1248543,0.1952 -0.039039,0.0781 -0.073506,0.16565 -0.1037521,0.26272 -0.033763,0.1143 -0.059789,0.22157 -0.077374,0.32145 -0.017233,0.10024 -0.026026,0.19098 -0.026026,0.27222 0,0.17093 0.039391,0.30317 0.1185237,0.39637 0.079133,0.0932 0.1913259,0.13963 0.3365789,0.13963 0.067878,0 0.1290739,-0.009 0.1832369,-0.0278 0.05416,-0.0183 0.09953,-0.0454 0.136812,-0.0802 l 0.113951,-0.5905 H 10.03948 l 0.04502,-0.24936 h 0.616182 z"
         style="clip-rule:evenodd;fill:#000000;fill-rule:nonzero;stroke-width:0.351702;stroke-linecap:round;stroke-linejoin:round;stroke-miterlimit:1.5;fill-opacity:1"
         id="path65-2" /><path
         style="font-style:italic;font-size:3.175px;font-family:Menlo;-inkscape-font-specification:'Menlo Italic';fill:#000000;stroke-width:0.352;fill-opacity:1"
         d="m 18.210884,120.01373 q -0.130225,0.0636 -0.26355,0.0946 -0.131775,0.0326 -0.272852,0.0326 -0.356567,0 -0.553454,-0.20619 -0.195337,-0.20619 -0.195337,-0.57826 0,-0.34106 0.10852,-0.67593 0.108521,-0.33486 0.285254,-0.54725 0.165882,-0.20154 0.365869,-0.29765 0.199988,-0.0961 0.455787,-0.0961 0.124023,0 0.246496,0.0326 0.122473,0.0326 0.238745,0.0946 l -0.06356,0.32091 q -0.09922,-0.0977 -0.209289,-0.14573 -0.110071,-0.0481 -0.234095,-0.0481 -0.147277,0 -0.272851,0.0636 -0.125574,0.062 -0.235645,0.19068 -0.16123,0.19069 -0.260449,0.48835 -0.09767,0.29765 -0.09767,0.59686 0,0.2682 0.120923,0.41083 0.120922,0.14262 0.348815,0.14262 0.131775,0 0.271302,-0.0496 0.141076,-0.0496 0.277502,-0.14417 z m 0.984436,-2.23243 h 1.286743 l -0.05116,0.26355 h -0.486792 l -0.345715,1.78749 h 0.486792 l -0.05116,0.26355 h -1.286743 l 0.05116,-0.26355 h 0.485241 l 0.347266,-1.78749 H 19.14416 Z m 2.562634,1.22164 q 0.111621,0.0217 0.178284,0.10387 0.06821,0.0822 0.151928,0.35656 l 0.187586,0.63252 h -0.311609 l -0.164331,-0.58446 q -0.06821,-0.24184 -0.153479,-0.31781 -0.08372,-0.076 -0.254248,-0.076 h -0.297656 l -0.190686,0.97823 h -0.31471 l 0.448035,-2.31459 h 0.644922 q 0.32091,0 0.496093,0.13953 0.176734,0.13798 0.176734,0.39068 0,0.2837 -0.161231,0.46973 -0.15968,0.18604 -0.435632,0.2217 z m -0.454236,-0.96429 -0.15813,0.82166 h 0.339514 q 0.252698,0 0.403077,-0.13178 0.151928,-0.13332 0.151928,-0.35346 0,-0.17364 -0.09767,-0.25425 -0.09767,-0.0822 -0.308508,-0.0822 z m 2.641699,1.97508 q -0.130225,0.0636 -0.26355,0.0946 -0.131775,0.0326 -0.272851,0.0326 -0.356568,0 -0.553455,-0.20619 -0.195337,-0.20619 -0.195337,-0.57826 0,-0.34106 0.108521,-0.67593 0.10852,-0.33486 0.285254,-0.54725 0.165881,-0.20154 0.365869,-0.29765 0.199988,-0.0961 0.455786,-0.0961 0.124023,0 0.246496,0.0326 0.122474,0.0326 0.238746,0.0946 l -0.06356,0.32091 q -0.09922,-0.0977 -0.20929,-0.14573 -0.110071,-0.0481 -0.234094,-0.0481 -0.147278,0 -0.272852,0.0636 -0.125573,0.062 -0.235644,0.19068 -0.161231,0.19069 -0.26045,0.48835 -0.09767,0.29765 -0.09767,0.59686 0,0.2682 0.120923,0.41083 0.120923,0.14262 0.348816,0.14262 0.131775,0 0.271301,-0.0496 0.141077,-0.0496 0.277503,-0.14417 z m 1.020093,-2.23243 h 0.313159 l -0.399975,2.05104 h 1.117761 l -0.05116,0.26355 h -1.43092 z m 1.872754,0 h 1.372009 l -0.05116,0.26355 h -1.060401 l -0.133325,0.68523 h 1.012341 l -0.04961,0.26355 h -1.013891 l -0.161231,0.83871 h 1.088306 l -0.05116,0.26355 h -1.403015 z"
         id="text1-7"
         aria-label="CIRCLE" /><path
         style="font-style:italic;font-size:3.175px;font-family:Menlo;-inkscape-font-specification:'Menlo Italic';fill:#000000;stroke-width:0.352;fill-opacity:1"
         d="m 35.576396,117.86047 -0.06046,0.31781 q -0.125574,-0.0915 -0.260449,-0.13798 -0.134876,-0.0465 -0.279053,-0.0465 -0.255799,0 -0.417029,0.12712 -0.16123,0.12712 -0.16123,0.32401 0,0.11007 0.07596,0.17828 0.07596,0.0682 0.275952,0.13023 l 0.187585,0.0605 q 0.252698,0.0775 0.36897,0.20774 0.117822,0.12867 0.117822,0.32866 0,0.36432 -0.257348,0.57826 -0.257349,0.21239 -0.702283,0.21239 -0.16123,0 -0.31781,-0.0357 -0.155029,-0.0341 -0.310059,-0.10386 l 0.06356,-0.32402 q 0.151929,0.10697 0.306958,0.15813 0.15658,0.0512 0.330213,0.0512 0.255798,0 0.415478,-0.13642 0.159681,-0.13643 0.159681,-0.34572 0,-0.12712 -0.06821,-0.19688 -0.06821,-0.0698 -0.274402,-0.13333 l -0.15658,-0.0512 q -0.285254,-0.0899 -0.399975,-0.20309 -0.113172,-0.11472 -0.113172,-0.30231 0,-0.34261 0.255799,-0.55965 0.255798,-0.21859 0.668176,-0.21859 0.124023,0 0.26355,0.031 0.141076,0.031 0.288354,0.0899 z m 0.572058,-0.0791 h 0.313159 l -0.182934,0.94877 h 0.857312 l 0.182934,-0.94877 h 0.31471 l -0.451135,2.31458 h -0.31316 l 0.215491,-1.10226 h -0.860412 l -0.212391,1.10226 h -0.314709 z m 2.00918,0 h 1.286743 l -0.05116,0.26355 h -0.486792 l -0.345715,1.78748 h 0.486792 l -0.05116,0.26355 h -1.286743 l 0.05116,-0.26355 h 0.485242 l 0.347265,-1.78748 h -0.486792 z m 1.968872,0 h 1.362707 l -0.05116,0.26355 h -1.047998 l -0.133325,0.68212 h 0.94878 l -0.04961,0.26355 h -0.950329 l -0.215491,1.10536 h -0.31471 z m 1.616955,0 h 1.767334 l -0.05116,0.26355 h -0.727088 l -0.396875,2.05103 h -0.316259 l 0.399975,-2.05103 h -0.727087 z"
         id="text2"
         aria-label="SHIFT" /></g></g><g
     id="g1"
     inkscape:label="components"
     style="display:none"><ellipse
       id="E"
       cx="62.81274"
       cy="52.274418"
       rx="4.6125731"
       ry="4.5735345"
       style="clip-rule:evenodd;fill:#0000ff;fill-rule:evenodd;stroke-width:0.351702;stroke-linecap:round;stroke-linejoin:round;stroke-miterlimit:1.5" /><ellipse
       id="EE"
       cx="69.820053"
       cy="54.526367"
       rx="1.728616"
       ry="1.7419807"
       style="clip-rule:evenodd;fill:#ff00ff;fill-rule:evenodd;stroke-width:0.351702;stroke-linecap:round;stroke-linejoin:round;stroke-miterlimit:1.5" /><ellipse
       id="ED"
       cx="67.161537"
       cy="46.271568"
       rx="1.728616"
       ry="1.7419807"
       style="clip-rule:evenodd;fill:#ff00ff;fill-opacity:0.72;fill-rule:evenodd;stroke-width:0.351702;stroke-linecap:round;stroke-linejoin:round;stroke-miterlimit:1.5" /><ellipse
       id="EC"
       cx="58.46394"
       cy="46.321156"
       rx="1.728616"
       ry="1.7419807"
       style="clip-rule:evenodd;fill:#ff00ff;fill-opacity:0.72;fill-rule:evenodd;stroke-width:0.351702;stroke-linecap:round;stroke-linejoin:round;stroke-miterlimit:1.5" /><ellipse
       id="EB"
       cx="55.788189"
       cy="54.572796"
       rx="1.728616"
       ry="1.7419807"
       style="clip-rule:evenodd;fill:#ff00ff;fill-rule:evenodd;stroke-width:0.351702;stroke-linecap:round;stroke-linejoin:round;stroke-miterlimit:1.5" /><ellipse
       id="EA"
       cx="62.81274"
       cy="59.678806"
       rx="1.728616"
       ry="1.7419807"
       style="clip-rule:evenodd;fill:#ff00ff;fill-rule:evenodd;stroke-width:0.351702;stroke-linecap:round;stroke-linejoin:round;stroke-miterlimit:1.5" /><ellipse
       id="D"
       cx="53.652302"
       cy="23.333204"
       rx="4.6125731"
       ry="4.5735345"
       style="clip-rule:evenodd;fill:#0000ff;fill-rule:evenodd;stroke-width:0.351702;stroke-linecap:round;stroke-linejoin:round;stroke-miterlimit:1.5" /><ellipse
       id="DE"
       cx="60.659622"
       cy="25.584803"
       rx="1.728616"
       ry="1.7419807"
       style="clip-rule:evenodd;fill:#ff00ff;fill-rule:evenodd;stroke-width:0.351702;stroke-linecap:round;stroke-linejoin:round;stroke-miterlimit:1.5" /><ellipse
       id="DD"
       cx="58.001102"
       cy="17.33"
       rx="1.728616"
       ry="1.7419807"
       style="clip-rule:evenodd;fill:#ff00ff;fill-opacity:0.72;fill-rule:evenodd;stroke-width:0.351702;stroke-linecap:round;stroke-linejoin:round;stroke-miterlimit:1.5" /><ellipse
       id="DC"
       cx="49.303509"
       cy="17.379591"
       rx="1.728616"
       ry="1.7419807"
       style="clip-rule:evenodd;fill:#ff00ff;fill-opacity:0.72;fill-rule:evenodd;stroke-width:0.351702;stroke-linecap:round;stroke-linejoin:round;stroke-miterlimit:1.5" /><ellipse
       id="DB"
       cx="46.627758"
       cy="25.631226"
       rx="1.728616"
       ry="1.7419807"
       style="clip-rule:evenodd;fill:#ff00ff;fill-rule:evenodd;stroke-width:0.351702;stroke-linecap:round;stroke-linejoin:round;stroke-miterlimit:1.5" /><ellipse
       id="DA"
       cx="53.652302"
       cy="30.737236"
       rx="1.728616"
       ry="1.7419807"
       style="clip-rule:evenodd;fill:#ff00ff;fill-rule:evenodd;stroke-width:0.351702;stroke-linecap:round;stroke-linejoin:round;stroke-miterlimit:1.5" /><ellipse
       id="C"
       cx="22.638508"
       cy="23.158409"
       rx="4.6125731"
       ry="4.5735345"
       style="clip-rule:evenodd;fill:#0000ff;fill-rule:evenodd;stroke-width:0.351702;stroke-linecap:round;stroke-linejoin:round;stroke-miterlimit:1.5" /><ellipse
       id="CE"
       cx="29.64547"
       cy="25.410357"
       rx="1.728616"
       ry="1.7419807"
       style="clip-rule:evenodd;fill:#ff00ff;fill-rule:evenodd;stroke-width:0.351702;stroke-linecap:round;stroke-linejoin:round;stroke-miterlimit:1.5" /><ellipse
       id="CD"
       cx="26.986954"
       cy="17.155556"
       rx="1.728616"
       ry="1.7419807"
       style="clip-rule:evenodd;fill:#ff00ff;fill-opacity:0.72;fill-rule:evenodd;stroke-width:0.351702;stroke-linecap:round;stroke-linejoin:round;stroke-miterlimit:1.5" /><ellipse
       id="CC"
       cx="18.289711"
       cy="17.205147"
       rx="1.728616"
       ry="1.7419807"
       style="clip-rule:evenodd;fill:#ff00ff;fill-opacity:0.72;fill-rule:evenodd;stroke-width:0.351702;stroke-linecap:round;stroke-linejoin:round;stroke-miterlimit:1.5" /><ellipse
       id="CB"
       cx="15.613961"
       cy="25.456781"
       rx="1.728616"
       ry="1.7419807"
       style="clip-rule:evenodd;fill:#ff00ff;fill-rule:evenodd;stroke-width:0.351702;stroke-linecap:round;stroke-linejoin:round;stroke-miterlimit:1.5" /><ellipse
       id="CA"
       cx="22.638508"
       cy="30.562794"
       rx="1.728616"
       ry="1.7419807"
       style="clip-rule:evenodd;fill:#ff00ff;fill-rule:evenodd;stroke-width:0.351702;stroke-linecap:round;stroke-linejoin:round;stroke-miterlimit:1.5" /><ellipse
       id="B"
       cx="13.478074"
       cy="52.214283"
       rx="4.6125731"
       ry="4.5735345"
       style="clip-rule:evenodd;fill:#0000ff;fill-rule:evenodd;stroke-width:0.351702;stroke-linecap:round;stroke-linejoin:round;stroke-miterlimit:1.5" /><ellipse
       id="BE"
       cx="20.485388"
       cy="54.465878"
       rx="1.728616"
       ry="1.7419807"
       style="clip-rule:evenodd;fill:#ff00ff;fill-rule:evenodd;stroke-width:0.351702;stroke-linecap:round;stroke-linejoin:round;stroke-miterlimit:1.5" /><ellipse
       id="BD"
       cx="17.826872"
       cy="46.211079"
       rx="1.728616"
       ry="1.7419807"
       style="clip-rule:evenodd;fill:#ff00ff;fill-opacity:0.72;fill-rule:evenodd;stroke-width:0.351702;stroke-linecap:round;stroke-linejoin:round;stroke-miterlimit:1.5" /><ellipse
       id="BC"
       cx="9.1292772"
       cy="46.260666"
       rx="1.728616"
       ry="1.7419807"
       style="clip-rule:evenodd;fill:#ff00ff;fill-opacity:0.72;fill-rule:evenodd;stroke-width:0.351702;stroke-linecap:round;stroke-linejoin:round;stroke-miterlimit:1.5" /><ellipse
       id="BB"
       cx="6.4535275"
       cy="54.512302"
       rx="1.728616"
       ry="1.7419807"
       style="clip-rule:evenodd;fill:#ff00ff;fill-rule:evenodd;stroke-width:0.351702;stroke-linecap:round;stroke-linejoin:round;stroke-miterlimit:1.5" /><ellipse
       id="BA"
       cx="13.478074"
       cy="59.618309"
       rx="1.728616"
       ry="1.7419807"
       style="clip-rule:evenodd;fill:#ff00ff;fill-rule:evenodd;stroke-width:0.351702;stroke-linecap:round;stroke-linejoin:round;stroke-miterlimit:1.5" /><ellipse
       id="A"
       cx="38.286789"
       cy="70.308655"
       rx="4.6125731"
       ry="4.5735345"
       style="clip-rule:evenodd;fill:#0000ff;fill-rule:evenodd;stroke-width:0.351702;stroke-linecap:round;stroke-linejoin:round;stroke-miterlimit:1.5" /><ellipse
       id="AE"
       cx="45.294102"
       cy="72.560249"
       rx="1.728616"
       ry="1.7419807"
       style="clip-rule:evenodd;fill:#ff00ff;fill-rule:evenodd;stroke-width:0.351702;stroke-linecap:round;stroke-linejoin:round;stroke-miterlimit:1.5" /><ellipse
       id="AD"
       cx="42.635586"
       cy="64.30545"
       rx="1.728616"
       ry="1.7419807"
       style="clip-rule:evenodd;fill:#ff00ff;fill-opacity:0.72;fill-rule:evenodd;stroke-width:0.351702;stroke-linecap:round;stroke-linejoin:round;stroke-miterlimit:1.5" /><ellipse
       id="AC"
       cx="33.937996"
       cy="64.355034"
       rx="1.728616"
       ry="1.7419807"
       style="clip-rule:evenodd;fill:#ff00ff;fill-opacity:0.72;fill-rule:evenodd;stroke-width:0.351702;stroke-linecap:round;stroke-linejoin:round;stroke-miterlimit:1.5" /><ellipse
       id="AB"
       cx="31.262245"
       cy="72.606674"
       rx="1.728616"
       ry="1.7419807"
       style="clip-rule:evenodd;fill:#ff00ff;fill-rule:evenodd;stroke-width:0.351702;stroke-linecap:round;stroke-linejoin:round;stroke-miterlimit:1.5" /><ellipse
       id="AA"
       cx="38.286789"
       cy="77.712685"
       rx="1.728616"
       ry="1.7419807"
       style="clip-rule:evenodd;fill:#ff00ff;fill-rule:evenodd;stroke-width:0.351702;stroke-linecap:round;stroke-linejoin:round;stroke-miterlimit:1.5" /><ellipse
       id="OUTERE"
       cx="55.340473"
       cy="67.447556"
       rx="1.728616"
       ry="1.7419807"
       style="clip-rule:evenodd;fill:#ff00ff;fill-rule:evenodd;stroke-width:0.351702;stroke-linecap:round;stroke-linejoin:round;stroke-miterlimit:1.5" /><ellipse
       id="OUTERD"
       cx="65.979462"
       cy="36.066227"
       rx="1.728616"
       ry="1.7419807"
       style="clip-rule:evenodd;fill:#ff00ff;fill-rule:evenodd;stroke-width:0.351702;stroke-linecap:round;stroke-linejoin:round;stroke-miterlimit:1.5" /><ellipse
       id="OUTERC"
       cx="38.200623"
       cy="14.858589"
       rx="1.728616"
       ry="1.7419807"
       style="clip-rule:evenodd;fill:#ff00ff;fill-rule:evenodd;stroke-width:0.351702;stroke-linecap:round;stroke-linejoin:round;stroke-miterlimit:1.5" /><ellipse
       id="OUTERB"
       cx="10.547692"
       cy="35.305847"
       rx="1.728616"
       ry="1.7419807"
       style="clip-rule:evenodd;fill:#ff00ff;fill-rule:evenodd;stroke-width:0.351702;stroke-linecap:round;stroke-linejoin:round;stroke-miterlimit:1.5" /><ellipse
       id="OUTERA"
       cx="21.274256"
       cy="67.501366"
       rx="1.728616"
       ry="1.7419807"
       style="clip-rule:evenodd;fill:#ff00ff;fill-rule:evenodd;stroke-width:0.351702;stroke-linecap:round;stroke-linejoin:round;stroke-miterlimit:1.5" /><ellipse
       id="INNERE"
       cx="46.123772"
       cy="54.782761"
       rx="1.728616"
       ry="1.7419807"
       style="clip-rule:evenodd;fill:#ff00ff;fill-rule:evenodd;stroke-width:0.351702;stroke-linecap:round;stroke-linejoin:round;stroke-miterlimit:1.5" /><ellipse
       id="INNERD"
       cx="50.999065"
       cy="40.762157"
       rx="1.728616"
       ry="1.7419807"
       style="clip-rule:evenodd;fill:#ff00ff;fill-rule:evenodd;stroke-width:0.351702;stroke-linecap:round;stroke-linejoin:round;stroke-miterlimit:1.5" /><ellipse
       id="INNERC"
       cx="38.101093"
       cy="31.357639"
       rx="1.728616"
       ry="1.7419807"
       style="clip-rule:evenodd;fill:#ff00ff;fill-rule:evenodd;stroke-width:0.351702;stroke-linecap:round;stroke-linejoin:round;stroke-miterlimit:1.5" /><ellipse
       id="INNERB"
       cx="25.618834"
       cy="40.522297"
       rx="1.728616"
       ry="1.7419807"
       style="clip-rule:evenodd;fill:#ff00ff;fill-rule:evenodd;stroke-width:0.351702;stroke-linecap:round;stroke-linejoin:round;stroke-miterlimit:1.5" /><ellipse
       id="INNERA"
       cx="30.437502"
       cy="54.682526"
       rx="1.728616"
       ry="1.7419807"
       style="clip-rule:evenodd;fill:#ff00ff;fill-rule:evenodd;stroke-width:0.351702;stroke-linecap:round;stroke-linejoin:round;stroke-miterlimit:1.5" /><ellipse
       id="TRIG"
       cx="7.2350097"
       cy="112.37258"
       rx="4.022769"
       ry="3.9886537"
       style="clip-rule:evenodd;fill:#00ff00;fill-rule:evenodd;stroke-width:0.351702;stroke-linecap:round;stroke-linejoin:round;stroke-miterlimit:1.5" /><ellipse
       id="PENTA"
       cx="25.932926"
       cy="112.37258"
       rx="4.022769"
       ry="3.9886537"
       style="clip-rule:evenodd;fill:#00ff00;fill-rule:evenodd;stroke-width:0.351702;stroke-linecap:round;stroke-linejoin:round;stroke-miterlimit:1.5" /><ellipse
       id="CW"
       cx="50.629097"
       cy="112.37258"
       rx="4.022769"
       ry="3.9886537"
       style="clip-rule:evenodd;fill:#00ff00;fill-rule:evenodd;stroke-width:0.351702;stroke-linecap:round;stroke-linejoin:round;stroke-miterlimit:1.5" /><ellipse
       id="RESET"
       cx="68.974915"
       cy="112.37258"
       rx="4.022769"
       ry="3.9886537"
       style="clip-rule:evenodd;fill:#00ff00;fill-rule:evenodd;stroke-width:0.351702;stroke-linecap:round;stroke-linejoin:round;stroke-miterlimit:1.5" /><ellipse
       id="TIME1_ATTEN"
       cx="38.001205"
       cy="44.060417"
       rx="4.2460999"
       ry="4.2102261"
       style="clip-rule:evenodd;fill:#ff0000;fill-rule:evenodd;stroke-width:0.351702;stroke-linecap:round;stroke-linejoin:round;stroke-miterlimit:1.5"
       inkscape:label="SLEW" /><ellipse
       id="TIME1_ATTEN1"
       serif:id="TIME1_ATTEN"
       cx="67.145706"
       cy="77.270592"
       rx="4.022769"
       ry="3.9886537"
       style="clip-rule:evenodd;fill:#ff0000;fill-rule:evenodd;stroke-width:0.351702;stroke-linecap:round;stroke-linejoin:round;stroke-miterlimit:1.5"
       inkscape:label="KNOB5" /><ellipse
       id="TIME1_ATTEN2"
       serif:id="TIME1_ATTEN"
       cx="56.196522"
       cy="92.393784"
       rx="4.022769"
       ry="3.9886537"
       style="clip-rule:evenodd;fill:#ff0000;fill-rule:evenodd;stroke-width:0.351702;stroke-linecap:round;stroke-linejoin:round;stroke-miterlimit:1.5"
       inkscape:label="KNOB4" /><ellipse
       id="TIME1_ATTEN3"
       serif:id="TIME1_ATTEN"
       cx="38.212933"
       cy="96.262512"
       rx="4.022769"
       ry="3.9886537"
       style="clip-rule:evenodd;fill:#ff0000;fill-rule:evenodd;stroke-width:0.351702;stroke-linecap:round;stroke-linejoin:round;stroke-miterlimit:1.5"
       inkscape:label="KNOB3" /><ellipse
       id="TIME1_ATTEN4"
       serif:id="TIME1_ATTEN"
       cx="20.2297"
       cy="92.393784"
       rx="4.022769"
       ry="3.9886537"
       style="clip-rule:evenodd;fill:#ff0000;fill-rule:evenodd;stroke-width:0.351702;stroke-linecap:round;stroke-linejoin:round;stroke-miterlimit:1.5"
       inkscape:label="KNOB2" /><ellipse
       id="TIME1_ATTEN5"
       serif:id="TIME1_ATTEN"
       cx="9.280509"
       cy="77.270592"
       rx="4.022769"
       ry="3.9886537"
       style="clip-rule:evenodd;fill:#ff0000;fill-rule:evenodd;stroke-width:0.351702;stroke-linecap:round;stroke-linejoin:round;stroke-miterlimit:1.5"
       inkscape:label="KNOB1" /><ellipse
       id="STEP5"
       cx="67.422501"
       cy="84.335938"
       rx="1.5073953"
       ry="1.5193533"
       style="clip-rule:evenodd;fill:#ff00ff;fill-rule:evenodd;stroke-width:0.351702;stroke-linecap:round;stroke-linejoin:round;stroke-miterlimit:1.5" /><ellipse
       id="STEP4"
       cx="56.476124"
       cy="99.422203"
       rx="1.5073953"
       ry="1.5193533"
       style="clip-rule:evenodd;fill:#ff00ff;fill-rule:evenodd;stroke-width:0.351702;stroke-linecap:round;stroke-linejoin:round;stroke-miterlimit:1.5" /><ellipse
       id="STEP3"
       cx="38.379288"
       cy="103.30077"
       rx="1.5073953"
       ry="1.5193533"
       style="clip-rule:evenodd;fill:#ff00ff;fill-rule:evenodd;stroke-width:0.351702;stroke-linecap:round;stroke-linejoin:round;stroke-miterlimit:1.5" /><ellipse
       id="STEP2"
       cx="20.171669"
       cy="99.422203"
       rx="1.5073953"
       ry="1.5193533"
       style="clip-rule:evenodd;fill:#ff00ff;fill-rule:evenodd;stroke-width:0.351702;stroke-linecap:round;stroke-linejoin:round;stroke-miterlimit:1.5" /><ellipse
       id="STEP1"
       cx="9.142642"
       cy="84.666191"
       rx="1.5073953"
       ry="1.5193533"
       style="clip-rule:evenodd;fill:#ff00ff;fill-rule:evenodd;stroke-width:0.351702;stroke-linecap:round;stroke-linejoin:round;stroke-miterlimit:1.5" /></g></svg>
