<?xml version="1.0" encoding="UTF-8" standalone="no"?>
<!-- Created with Inkscape (http://www.inkscape.org/) -->

<svg
   width="40.6399mm"
   height="128.5mm"
   viewBox="0 0 40.639903 128.50002"
   version="1.1"
   id="svg8"
   inkscape:version="1.3.2 (091e20e, 2023-11-25)"
   sodipodi:docname="Ranges-dark.svg"
   xmlns:inkscape="http://www.inkscape.org/namespaces/inkscape"
   xmlns:sodipodi="http://sodipodi.sourceforge.net/DTD/sodipodi-0.dtd"
   xmlns="http://www.w3.org/2000/svg"
   xmlns:svg="http://www.w3.org/2000/svg"
   xmlns:rdf="http://www.w3.org/1999/02/22-rdf-syntax-ns#"
   xmlns:cc="http://creativecommons.org/ns#"
   xmlns:dc="http://purl.org/dc/elements/1.1/">
  <defs
     id="defs2" />
  <sodipodi:namedview
     id="base"
     pagecolor="#ffffff"
     bordercolor="#666666"
     borderopacity="1.0"
     inkscape:pageopacity="0.0"
     inkscape:pageshadow="2"
     inkscape:zoom="0.98994949"
     inkscape:cx="338.90618"
     inkscape:cy="191.42391"
     inkscape:document-units="mm"
     inkscape:current-layer="svg8"
     showgrid="false"
     units="mm"
     inkscape:snap-bbox="true"
     inkscape:snap-page="true"
     inkscape:bbox-nodes="false"
     inkscape:snap-bbox-edge-midpoints="false"
     inkscape:window-width="1600"
     inkscape:window-height="900"
     inkscape:window-x="0"
     inkscape:window-y="38"
     inkscape:window-maximized="0"
     inkscape:snap-bbox-midpoints="true"
     inkscape:snap-nodes="false"
     inkscape:showpageshadow="2"
     inkscape:pagecheckerboard="0"
     inkscape:deskcolor="#d1d1d1" />
  <metadata
     id="metadata5">
    <rdf:RDF>
      <cc:Work
         rdf:about="">
        <dc:format>image/svg+xml</dc:format>
        <dc:type
           rdf:resource="http://purl.org/dc/dcmitype/StillImage" />
      </cc:Work>
    </rdf:RDF>
  </metadata>
  <g
     id="g1">
    <rect
       id="rect1"
       x="-0.1665577"
       y="-0.38949111"
       width="40.987793"
       height="129.94316"
       style="clip-rule:evenodd;fill:#202020;fill-rule:evenodd;stroke-width:0.317257;stroke-linejoin:round;stroke-miterlimit:1.5" />
    <rect
       style="clip-rule:evenodd;fill:#3b3b3b;fill-opacity:1;fill-rule:evenodd;stroke:#d08c59;stroke-width:0.351999;stroke-linejoin:round;stroke-miterlimit:1.5;stroke-dasharray:none;stroke-opacity:1"
       id="rect2"
       width="17.226421"
       height="111.5742"
       x="19.288095"
       y="11.274678"
       rx="4"
       ry="4" />
    <path
       style="font-style:italic;font-size:15.8467px;font-family:Menlo;-inkscape-font-specification:'Menlo Italic';clip-rule:evenodd;display:inline;fill:#ffffff;fill-rule:evenodd;stroke-width:0.352;stroke-linejoin:round;stroke-miterlimit:1.5"
       d="m 11.810954,4.97678 q 0.198437,0.0386 0.316947,0.18465 0.121267,0.14607 0.270095,0.6339 L 12.73148,6.9198 H 12.177511 L 11.885367,5.88077 Q 11.764101,5.45082 11.612517,5.31577 11.46369,5.18072 11.160522,5.18072 H 10.631357 L 10.292361,6.9198 H 9.7328803 L 10.529383,2.805 h 1.146523 q 0.570506,0 0.881942,0.24804 0.314191,0.24529 0.314191,0.69453 0,0.50436 -0.286631,0.83509 -0.283875,0.33073 -0.774454,0.39412 z M 11.003427,3.2625 10.722308,4.72322 h 0.603578 q 0.449239,0 0.716577,-0.23427 0.270095,-0.23702 0.270095,-0.62838 0,-0.30868 -0.173632,-0.452 Q 11.965293,3.2625 11.590468,3.2625 Z m 4.120318,0.006 -1.003208,2.1332 h 1.185108 z M 14.859163,2.80549 h 0.677992 l 0.457507,4.1148 h -0.55397 l -0.09646,-1.07211 h -1.433154 l -0.507116,1.07211 h -0.598067 z m 2.422582,0 h 0.705552 l 0.727602,3.3872 0.658699,-3.3872 h 0.537433 l -0.802015,4.1148 h -0.705553 l -0.727601,-3.3872 -0.661456,3.3872 h -0.534677 z m 5.283378,3.85022 q -0.239778,0.17088 -0.523653,0.25907 -0.283875,0.0854 -0.606334,0.0854 -0.639407,0 -0.983916,-0.36931 -0.341752,-0.37207 -0.341752,-1.05833 0,-0.24805 0.0441,-0.52641 0.04685,-0.28112 0.135047,-0.58704 0.09646,-0.32246 0.225998,-0.58153 0.129535,-0.26183 0.283874,-0.44649 0.294899,-0.35829 0.650432,-0.52916 0.358289,-0.17088 0.815796,-0.17088 0.220485,0 0.438214,0.0579 0.220485,0.0579 0.432702,0.16812 L 23.02263,3.52756 q -0.179145,-0.17364 -0.377581,-0.25908 -0.195681,-0.0854 -0.418922,-0.0854 -0.270095,0 -0.507117,0.11575 -0.237021,0.113 -0.424434,0.33624 -0.121267,0.14332 -0.228753,0.35829 -0.107487,0.21497 -0.190169,0.48231 -0.09371,0.31419 -0.143315,0.5898 -0.04685,0.27561 -0.04685,0.49885 0,0.47129 0.217729,0.7276 0.217729,0.25631 0.617359,0.25631 0.187412,0 0.33624,-0.0496 0.148827,-0.0524 0.250802,-0.14882 L 22.317077,5.26667 H 21.71901 l 0.08268,-0.4575 h 1.129987 z m 1.675688,-3.85022 h 2.439118 l -0.09095,0.46853 H 24.70383 L 24.466808,4.4922 h 1.799711 l -0.08819,0.46853 H 24.375862 L 24.089231,6.45176 H 26.02399 L 25.93304,6.92029 H 23.4388 Z m 5.611351,0.14056 -0.107487,0.56499 q -0.223241,-0.16261 -0.463019,-0.24529 -0.239778,-0.0827 -0.496092,-0.0827 -0.454751,0 -0.741382,0.22599 -0.28663,0.226 -0.28663,0.57602 0,0.19568 0.135047,0.31695 0.135047,0.12127 0.49058,0.23151 l 0.333483,0.10749 q 0.449239,0.1378 0.655944,0.36931 0.209461,0.22875 0.209461,0.58428 0,0.64768 -0.457507,1.02802 -0.457507,0.37758 -1.248498,0.37758 -0.28663,0 -0.564993,-0.0634 -0.275607,-0.0606 -0.551213,-0.18466 l 0.112998,-0.57602 q 0.270095,0.19017 0.545701,0.28112 0.278363,0.0909 0.587042,0.0909 0.454751,0 0.738626,-0.24253 0.283875,-0.24253 0.283875,-0.6146 0,-0.226 -0.121267,-0.35002 Q 28.785564,5.21696 28.419007,5.10396 L 28.140645,5.01306 Q 27.633529,4.85321 27.42958,4.65202 27.228387,4.44807 27.228387,4.11459 q 0,-0.60909 0.454751,-0.99494 0.454751,-0.38861 1.187864,-0.38861 0.220485,0 0.468531,0.0551 0.250802,0.0551 0.512629,0.15986 z"
       id="text1"
       aria-label="RANGES" />
    <path
       style="font-style:italic;font-size:8.9138px;font-family:Menlo;-inkscape-font-specification:'Menlo Italic';clip-rule:evenodd;fill:#ffffff;fill-rule:evenodd;stroke-width:0.352;stroke-linejoin:round;stroke-miterlimit:1.5"
       d="M 7.1604065,41.78125 H 8.9277399 L 8.8765809,42.0448 H 8.1494929 L 7.752618,44.09583 H 7.4363584 L 7.8363339,42.0448 H 7.1092467 Z m 2.3905512,2.10529 q 0.1317747,0 0.2433958,-0.0791 0.1116212,-0.0791 0.1844846,-0.22634 0.1147219,-0.22479 0.1860349,-0.54415 0.07131,-0.31936 0.07131,-0.61392 0,-0.22014 -0.08217,-0.32401 -0.08061,-0.10542 -0.251147,-0.10542 -0.131775,0 -0.2418456,0.0791 -0.1100707,0.0791 -0.1829345,0.22634 -0.1178224,0.22789 -0.1891358,0.54416 -0.071313,0.31626 -0.071313,0.61081 0,0.22169 0.080615,0.32711 0.082165,0.10542 0.2526977,0.10542 z m 1.0061393,-1.372 q 0,0.17053 -0.03566,0.37052 -0.03411,0.19998 -0.100769,0.41082 -0.04496,0.14263 -0.09767,0.2558 -0.05116,0.11317 -0.111621,0.20464 -0.136426,0.19689 -0.3054073,0.29146 -0.1689819,0.093 -0.3937743,0.093 -0.3116089,0 -0.4619873,-0.19069 -0.1503785,-0.19068 -0.1503785,-0.58756 0,-0.17208 0.032556,-0.36897 0.034105,-0.19844 0.1007691,-0.40928 0.044959,-0.14262 0.096118,-0.25579 0.05271,-0.11318 0.1131713,-0.20464 0.1364258,-0.19689 0.3054076,-0.28991 0.1689819,-0.0946 0.3937745,-0.0946 0.3131589,0 0.4635369,0.19069 0.151929,0.18913 0.151929,0.58446 z m 0.920874,-0.47594 -0.168982,0.86971 h 0.362769 q 0.255798,0 0.407727,-0.14728 0.153479,-0.14882 0.153479,-0.39532 0,-0.16743 -0.09612,-0.2465 -0.09612,-0.0806 -0.297656,-0.0806 z m -0.26355,-0.25735 h 0.682129 q 0.319361,0 0.486792,0.14262 0.167432,0.14263 0.167432,0.41238 0,0.38603 -0.248047,0.60772 -0.248047,0.22169 -0.682129,0.22169 H 11.25938 l -0.181384,0.93017 h -0.31471 z"
       id="text2"
       aria-label="TOP" />
    <path
       style="font-style:italic;font-size:8.9138px;font-family:Menlo;-inkscape-font-specification:'Menlo Italic';clip-rule:evenodd;fill:#ffffff;fill-rule:evenodd;stroke-width:0.352;stroke-linejoin:round;stroke-miterlimit:1.5"
       d="m 4.9958114,83.38656 -0.1658816,0.84801 h 0.3844727 q 0.2852538,0 0.4356322,-0.13487 0.1519286,-0.13488 0.1519286,-0.38913 0,-0.16588 -0.1054199,-0.24494 -0.1054199,-0.0791 -0.3271117,-0.0791 z m 0.1829345,-0.95188 -0.1364258,0.69763 h 0.3782714 q 0.234094,0 0.3674192,-0.11162 0.1348756,-0.11317 0.1348756,-0.31006 0,-0.14572 -0.086817,-0.21084 -0.085266,-0.0651 -0.2790528,-0.0651 z M 4.9151961,82.17733 h 0.6867794 q 0.3147096,0 0.47594,0.12402 0.1612305,0.12248 0.1612305,0.36122 0,0.23875 -0.1426271,0.39998 -0.142627,0.15968 -0.3844724,0.19068 0.1937866,0.0357 0.2961058,0.15813 0.1038694,0.12248 0.1038694,0.31472 0,0.36276 -0.2480466,0.5643 -0.2464964,0.20154 -0.6976317,0.20154 H 4.4656113 Z m 2.2045161,2.1053 q 0.1317747,0 0.2433959,-0.0791 0.1116211,-0.0791 0.1844846,-0.22635 0.1147218,-0.22479 0.1860351,-0.54415 0.071314,-0.31936 0.071314,-0.61391 0,-0.22015 -0.082166,-0.32401 -0.080615,-0.10543 -0.2511472,-0.10543 -0.1317751,0 -0.2418457,0.0791 -0.1100707,0.0791 -0.1829345,0.22635 -0.1178224,0.22789 -0.1891357,0.54415 -0.071313,0.31626 -0.071313,0.61081 0,0.2217 0.080615,0.32712 0.082165,0.10541 0.2526977,0.10541 z m 1.0061397,-1.37201 q 0,0.17053 -0.035657,0.37052 -0.034105,0.19999 -0.1007692,0.41083 -0.044958,0.14263 -0.097669,0.2558 -0.051159,0.11317 -0.1116208,0.20464 -0.1364258,0.19688 -0.3054076,0.29145 -0.1689818,0.093 -0.3937746,0.093 -0.3116086,0 -0.461987,-0.19068 -0.1503784,-0.19069 -0.1503784,-0.58756 0,-0.17209 0.032556,-0.36897 0.034105,-0.19844 0.1007692,-0.40928 0.044958,-0.14263 0.096118,-0.2558 0.05271,-0.11317 0.1131716,-0.20464 0.1364258,-0.19688 0.3054077,-0.2899 0.1689818,-0.0946 0.3937742,-0.0946 0.3131591,0 0.4635375,0.19068 0.1519286,0.18914 0.1519286,0.58446 z m 0.4263307,-0.73329 h 1.7673334 l -0.05116,0.26355 H 9.541269 L 9.1443941,84.49192 H 8.8281345 L 9.22811,82.44088 H 8.5010228 Z m 1.9115104,0 h 1.767334 l -0.05116,0.26355 H 11.45278 l -0.396875,2.05104 h -0.31626 l 0.399976,-2.05104 h -0.727087 z m 2.390551,2.1053 q 0.131775,0 0.243396,-0.0791 0.111621,-0.0791 0.184485,-0.22635 0.114722,-0.22479 0.186035,-0.54415 0.07131,-0.31936 0.07131,-0.61391 0,-0.22015 -0.08217,-0.32401 -0.08061,-0.10543 -0.251147,-0.10543 -0.131775,0 -0.241846,0.0791 -0.110071,0.0791 -0.182935,0.22635 -0.117822,0.22789 -0.189135,0.54415 -0.07131,0.31626 -0.07131,0.61081 0,0.2217 0.08062,0.32712 0.08216,0.10541 0.252697,0.10541 z m 1.00614,-1.37201 q 0,0.17053 -0.03566,0.37052 -0.03411,0.19999 -0.100768,0.41083 -0.04496,0.14263 -0.09767,0.2558 -0.05116,0.11317 -0.111621,0.20464 -0.136426,0.19688 -0.305408,0.29145 -0.168982,0.093 -0.393774,0.093 -0.311609,0 -0.461987,-0.19068 -0.150379,-0.19069 -0.150379,-0.58756 0,-0.17209 0.03256,-0.36897 0.03411,-0.19844 0.100769,-0.40928 0.04496,-0.14263 0.09612,-0.2558 0.05271,-0.11317 0.113171,-0.20464 0.136426,-0.19688 0.305408,-0.2899 0.168982,-0.0946 0.393774,-0.0946 0.313159,0 0.463538,0.19068 0.151928,0.18914 0.151928,0.58446 z m 0.482141,-0.73329 h 0.417029 l 0.170532,1.17202 0.641821,-1.17202 h 0.418579 l -0.451135,2.31459 h -0.288355 l 0.399976,-2.05724 -0.672827,1.23248 h -0.218591 l -0.178284,-1.23248 -0.396875,2.05724 h -0.288354 z"
       id="text3"
       aria-label="BOTTOM" />
    <path
       style="font-style:italic;font-size:8.9138px;font-family:Menlo;-inkscape-font-specification:'Menlo Italic';clip-rule:evenodd;fill:#ffffff;fill-rule:evenodd;stroke-width:0.352;stroke-linejoin:round;stroke-miterlimit:1.5"
       d="m 6.8024382,121.63836 q 0.2868038,0 0.4604368,-0.0961 0.1736326,-0.0977 0.2790525,-0.31626 0.083716,-0.17828 0.1364258,-0.42478 0.05426,-0.24804 0.05426,-0.45423 0,-0.27286 -0.1271242,-0.39068 -0.127124,-0.11782 -0.4263304,-0.11782 H 7.0024259 l -0.3503662,1.79989 z m 0.4061764,-2.05724 q 0.42323,0 0.6325196,0.19224 0.2108398,0.19223 0.2108398,0.58291 0,0.25114 -0.065112,0.51779 -0.065112,0.26666 -0.1751831,0.47285 -0.1612305,0.2961 -0.4030762,0.42322 -0.2402952,0.12558 -0.6511227,0.12558 H 6.2877409 l 0.4511353,-2.31459 z m 1.5394407,0 h 1.2867427 l -0.05116,0.26355 H 9.4968465 l -0.3457151,1.78749 h 0.4867917 l -0.051159,0.26355 h -1.286743 l 0.05116,-0.26355 h 0.4852415 l 0.3472656,-1.78749 h -0.486792 z m 2.1657587,2.02003 0.927075,-2.02003 h 0.333313 l -1.114661,2.31459 h -0.399975 l -0.227893,-2.31459 h 0.306958 z m 2.899047,-1.94096 -0.06046,0.31781 q -0.125574,-0.0915 -0.260449,-0.13798 -0.134876,-0.0465 -0.279053,-0.0465 -0.255798,0 -0.417029,0.12713 -0.16123,0.12712 -0.16123,0.32401 0,0.11007 0.07596,0.17828 0.07597,0.0682 0.275952,0.13023 l 0.187586,0.0605 q 0.252697,0.0775 0.368969,0.20774 0.117823,0.12867 0.117823,0.32866 0,0.36432 -0.257349,0.57826 -0.257349,0.21239 -0.702283,0.21239 -0.16123,0 -0.317809,-0.0357 -0.15503,-0.0341 -0.310059,-0.10387 l 0.06356,-0.32401 q 0.151929,0.10697 0.306958,0.15813 0.15658,0.0512 0.330212,0.0512 0.255798,0 0.415479,-0.13643 0.15968,-0.13642 0.15968,-0.34571 0,-0.12713 -0.06821,-0.19689 -0.06821,-0.0698 -0.274402,-0.13333 l -0.156579,-0.0512 q -0.285254,-0.0899 -0.399976,-0.20309 -0.113171,-0.11472 -0.113171,-0.30231 0,-0.34261 0.255798,-0.55966 0.255798,-0.21859 0.668176,-0.21859 0.124023,0 0.26355,0.031 0.141076,0.031 0.288354,0.0899 z"
       id="text4"
       aria-label="DIVS" />
    <path
       style="font-style:italic;font-size:8.9138px;font-family:Menlo;-inkscape-font-specification:'Menlo Italic';clip-rule:evenodd;fill:#ffffff;fill-rule:evenodd;stroke-width:0.352;stroke-linejoin:round;stroke-miterlimit:1.5"
       d="m 25.219225,120.75133 q 0.131775,0 0.243396,-0.0791 0.11162,-0.0791 0.184484,-0.22634 0.114722,-0.2248 0.186035,-0.54416 0.07131,-0.31935 0.07131,-0.61391 0,-0.22015 -0.08217,-0.32401 -0.08061,-0.10542 -0.251147,-0.10542 -0.131775,0 -0.241845,0.0791 -0.110071,0.0791 -0.182935,0.22635 -0.117822,0.22789 -0.189136,0.54415 -0.07131,0.31626 -0.07131,0.61081 0,0.22169 0.08062,0.32711 0.08217,0.10543 0.252698,0.10543 z m 1.00614,-1.37201 q 0,0.17053 -0.03566,0.37052 -0.03411,0.19998 -0.100769,0.41082 -0.04496,0.14263 -0.09767,0.2558 -0.05116,0.11317 -0.111621,0.20464 -0.136425,0.19689 -0.305408,0.29145 -0.168981,0.093 -0.393774,0.093 -0.311608,0 -0.461987,-0.19068 -0.150378,-0.19069 -0.150378,-0.58757 0,-0.17208 0.03256,-0.36896 0.03411,-0.19844 0.100769,-0.40928 0.04496,-0.14263 0.09612,-0.2558 0.05271,-0.11317 0.113171,-0.20464 0.136426,-0.19689 0.305408,-0.2899 0.168982,-0.0946 0.393774,-0.0946 0.313159,0 0.463538,0.19069 0.151928,0.18913 0.151928,0.58446 z m 0.305407,0.69298 0.275952,-1.42627 h 0.31471 l -0.277503,1.42627 q -0.0031,0.0202 -0.0124,0.0636 -0.04651,0.23874 -0.04651,0.33021 0,0.14263 0.08372,0.21394 0.08527,0.0713 0.255798,0.0713 0.137976,0 0.234094,-0.0434 0.09612,-0.045 0.165881,-0.14108 0.03411,-0.0481 0.06821,-0.16433 0.03566,-0.11782 0.07751,-0.33021 l 0.275952,-1.42627 h 0.314709 l -0.275952,1.42627 q -0.06511,0.33951 -0.139526,0.49919 -0.07286,0.15813 -0.193787,0.2558 -0.11007,0.0868 -0.251147,0.13333 -0.141077,0.045 -0.305408,0.045 -0.297656,0 -0.458886,-0.13952 -0.15968,-0.13953 -0.15968,-0.39688 0,-0.0574 0.0124,-0.15503 0.01395,-0.0977 0.04186,-0.24184 z m 2.032434,-1.42627 h 1.767333 l -0.05116,0.26355 h -0.727087 l -0.396875,2.05104 h -0.31626 l 0.399975,-2.05104 h -0.727087 z m 3.39049,0.0791 -0.06046,0.31781 q -0.125574,-0.0915 -0.26045,-0.13797 -0.134875,-0.0465 -0.279052,-0.0465 -0.255799,0 -0.417029,0.12712 -0.161231,0.12713 -0.161231,0.32401 0,0.11007 0.07597,0.17829 0.07596,0.0682 0.275952,0.13022 l 0.187585,0.0605 q 0.252698,0.0775 0.36897,0.20774 0.117822,0.12868 0.117822,0.32866 0,0.36432 -0.257349,0.57826 -0.257348,0.21239 -0.702282,0.21239 -0.16123,0 -0.31781,-0.0356 -0.155029,-0.0341 -0.310058,-0.10387 l 0.06356,-0.32401 q 0.151928,0.10697 0.306957,0.15813 0.15658,0.0512 0.330213,0.0512 0.255798,0 0.415478,-0.13643 0.15968,-0.13643 0.15968,-0.34572 0,-0.12712 -0.06821,-0.19688 -0.06821,-0.0698 -0.274402,-0.13333 l -0.15658,-0.0512 q -0.285254,-0.0899 -0.399975,-0.20309 -0.113172,-0.11472 -0.113172,-0.3023 0,-0.34262 0.255799,-0.55966 0.255798,-0.21859 0.668176,-0.21859 0.124023,0 0.263549,0.031 0.141077,0.031 0.288355,0.0899 z"
       id="text5"
       aria-label="OUTS" />
    <path
       id="path128"
       d="m 17.782581,125.9342 c 0.05984,0.1268 0.07943,0.25396 0.05842,0.38219 h -0.419235 c -0.0064,-0.0983 -0.02565,-0.1724 -0.05842,-0.22227 -0.05735,-0.089 -0.160997,-0.13357 -0.310597,-0.13357 -0.152449,0 -0.28602,0.0627 -0.4,0.18843 -0.114337,0.12538 -0.195192,0.30276 -0.242921,0.5325 -0.04809,0.22974 -0.03776,0.40143 0.0317,0.51612 0.0691,0.11433 0.175246,0.17133 0.318434,0.17133 0.147106,0 0.269635,-0.0492 0.367587,-0.14747 0.05378,-0.0524 0.105432,-0.13179 0.155298,-0.23722 h 0.415317 c -0.08264,0.22333 -0.213357,0.40463 -0.391452,0.54461 -0.178451,0.13927 -0.384328,0.20944 -0.617632,0.20944 -0.288513,0 -0.495815,-0.0944 -0.621906,-0.28317 -0.125379,-0.18985 -0.153162,-0.44986 -0.08442,-0.78076 0.07409,-0.35726 0.225468,-0.63295 0.453429,-0.82636 0.198753,-0.16848 0.424221,-0.2529 0.676403,-0.2529 0.337667,0 0.560642,0.11327 0.669992,0.3391 z"
       style="clip-rule:evenodd;fill:#ffffff;fill-rule:nonzero;stroke-width:0.356189;stroke-linejoin:round;stroke-miterlimit:1.5" />
    <path
       id="path129"
       d="m 18.71081,127.18869 0.764026,-1.55441 h 0.435619 l -1.110954,2.04667 h -0.396083 l -0.252181,-2.04667 h 0.448442 z"
       style="clip-rule:evenodd;fill:#ffffff;fill-rule:nonzero;stroke-width:0.356189;stroke-linejoin:round;stroke-miterlimit:1.5" />
    <path
       id="path130"
       d="m 21.493716,126.18139 -0.05877,0.27925 h -0.253963 l -0.253607,1.22031 H 20.54091 l 0.253606,-1.22031 h -0.216919 l 0.05842,-0.27925 h 0.212645 l 0.01995,-0.0972 c 0.03419,-0.16207 0.08406,-0.27355 0.149955,-0.33482 0.07551,-0.0905 0.220482,-0.13606 0.43562,-0.13606 0.02458,0 0.04666,7.1e-4 0.06625,0.002 0.01959,0.001 0.04666,0.004 0.08121,0.006 l -0.06803,0.32271 c -0.02102,-0.003 -0.05699,-0.005 -0.107569,-0.006 -0.05093,-10e-4 -0.08905,0.01 -0.113981,0.0345 -0.02493,0.0246 -0.03989,0.0516 -0.04559,0.0812 -0.0064,0.0299 -0.01532,0.0723 -0.02743,0.12787 z"
       style="clip-rule:evenodd;fill:#ffffff;fill-rule:nonzero;stroke-width:0.356189;stroke-linejoin:round;stroke-miterlimit:1.5" />
    <path
       id="path131"
       d="m 22.400573,127.46759 c -0.0043,0.005 -0.01638,0.0185 -0.03562,0.0417 -0.01888,0.0232 -0.04025,0.0431 -0.06376,0.0609 -0.07266,0.0556 -0.139626,0.0933 -0.200891,0.11363 -0.06091,0.0203 -0.129653,0.0306 -0.206234,0.0306 -0.219412,0 -0.350846,-0.0801 -0.393232,-0.2415 -0.02386,-0.0887 -0.01745,-0.21977 0.01888,-0.39287 l 0.189492,-0.91256 h 0.397151 l -0.189136,0.91256 c -0.01817,0.0862 -0.02173,0.15066 -0.01104,0.19447 0.01923,0.0769 0.0805,0.11541 0.183794,0.11541 0.132502,0 0.234728,-0.0549 0.306678,-0.1642 0.03811,-0.0591 0.06732,-0.13749 0.08727,-0.23438 l 0.171327,-0.82386 h 0.393233 l -0.314515,1.51345 h -0.376849 z"
       style="clip-rule:evenodd;fill:#ffffff;fill-rule:nonzero;stroke-width:0.356189;stroke-linejoin:round;stroke-miterlimit:1.5" />
    <path
       id="path132"
       d="m 24.246702,126.76091 c 0.0171,-0.0798 0.01959,-0.14105 0.0068,-0.18344 -0.02173,-0.078 -0.08584,-0.11683 -0.193055,-0.11683 -0.13179,0 -0.234016,0.057 -0.306323,0.17062 -0.03847,0.0605 -0.06696,0.13749 -0.08584,0.23081 l -0.170259,0.81888 H 23.11156 l 0.314159,-1.51096 h 0.374711 l -0.04631,0.22084 c 0.0659,-0.0773 0.125023,-0.13357 0.177026,-0.16777 0.09225,-0.0613 0.200179,-0.0915 0.322352,-0.0915 0.153517,0 0.270347,0.0406 0.350846,0.12289 0.08014,0.0819 0.100801,0.21763 0.06162,0.40748 l -0.212289,1.01906 h -0.397507 z"
       style="clip-rule:evenodd;fill:#ffffff;fill-rule:nonzero;stroke-width:0.356189;stroke-linejoin:round;stroke-miterlimit:1.5" />
    <path
       id="path133"
       d="m 25.286774,127.20543 -0.09759,0.47552 H 24.8077 l 0.424934,-2.0399 h 0.381122 l -0.230454,1.10312 0.601959,-0.5699 h 0.480856 l -0.640072,0.57952 0.346928,0.92716 h -0.468389 l -0.220125,-0.64684 z"
       style="clip-rule:evenodd;fill:#ffffff;fill-rule:nonzero;stroke-width:0.356189;stroke-linejoin:round;stroke-miterlimit:1.5" />
    <path
       id="path134"
       d="M 8.5013594,126.66688 H 15.123629"
       style="clip-rule:evenodd;fill:none;fill-rule:evenodd;stroke:#d08c59;stroke-width:0.227961px;stroke-linecap:round;stroke-linejoin:round;stroke-miterlimit:1.5" />
    <path
       id="path135"
       d="m 26.811976,126.66688 h 6.62227"
       style="clip-rule:evenodd;fill:none;fill-rule:evenodd;stroke:#d08c59;stroke-width:0.227961px;stroke-linecap:round;stroke-linejoin:round;stroke-miterlimit:1.5" />
  </g>
</svg>
