<?xml version="1.0" encoding="UTF-8" standalone="no"?>
<!-- Created with Inkscape (http://www.inkscape.org/) -->

<svg
   width="60.959999mm"
   height="128.5mm"
   viewBox="0 0 60.960004 128.50002"
   version="1.1"
   id="svg8"
   inkscape:version="1.3.2 (091e20e, 2023-11-25)"
   sodipodi:docname="Signals.svg"
   xmlns:inkscape="http://www.inkscape.org/namespaces/inkscape"
   xmlns:sodipodi="http://sodipodi.sourceforge.net/DTD/sodipodi-0.dtd"
   xmlns="http://www.w3.org/2000/svg"
   xmlns:svg="http://www.w3.org/2000/svg"
   xmlns:rdf="http://www.w3.org/1999/02/22-rdf-syntax-ns#"
   xmlns:cc="http://creativecommons.org/ns#"
   xmlns:dc="http://purl.org/dc/elements/1.1/">
  <defs
     id="defs2" />
  <sodipodi:namedview
     id="base"
     pagecolor="#ffffff"
     bordercolor="#666666"
     borderopacity="1.0"
     inkscape:pageopacity="0.0"
     inkscape:pageshadow="2"
     inkscape:zoom="1.8474053"
     inkscape:cx="92.291605"
     inkscape:cy="608.15025"
     inkscape:document-units="mm"
     inkscape:current-layer="g1"
     showgrid="false"
     units="mm"
     inkscape:snap-bbox="true"
     inkscape:snap-page="true"
     inkscape:bbox-nodes="false"
     inkscape:snap-bbox-edge-midpoints="false"
     inkscape:window-width="1600"
     inkscape:window-height="900"
     inkscape:window-x="0"
     inkscape:window-y="38"
     inkscape:window-maximized="0"
     inkscape:snap-bbox-midpoints="true"
     inkscape:snap-nodes="false"
     inkscape:showpageshadow="2"
     inkscape:pagecheckerboard="0"
     inkscape:deskcolor="#d1d1d1" />
  <metadata
     id="metadata5">
    <rdf:RDF>
      <cc:Work
         rdf:about="">
        <dc:format>image/svg+xml</dc:format>
        <dc:type
           rdf:resource="http://purl.org/dc/dcmitype/StillImage" />
      </cc:Work>
    </rdf:RDF>
  </metadata>
  <g
     id="g1">
    <rect
       id="rect1"
       x="0.059109878"
       y="-0.50362682"
       width="61.210564"
       height="129.38162"
       style="clip-rule:evenodd;fill:#e5e5e5;fill-opacity:1;fill-rule:evenodd;stroke-width:0.386864;stroke-linejoin:round;stroke-miterlimit:1.5" />
    <rect
       style="clip-rule:evenodd;fill:#666666;fill-opacity:1;fill-rule:evenodd;stroke:#000000;stroke-width:0.35277778;stroke-linejoin:round;stroke-miterlimit:1.5;stroke-dasharray:none;stroke-opacity:1"
       id="rect2-9"
       width="17.249601"
       height="97.232155"
       x="42.066223"
       y="24.879"
       rx="4.0053825"
       ry="3.4858291" />
    <rect
       style="clip-rule:evenodd;fill:#212121;fill-opacity:1;fill-rule:evenodd;stroke:#000000;stroke-width:0.3175;stroke-linejoin:round;stroke-miterlimit:1.5;stroke-dasharray:none;stroke-opacity:1"
       id="rect2"
       width="36.393002"
       height="97.366203"
       x="12.82592"
       y="24.793064"
       ry="2.5588171" />
    <path
       d="M 22.015037,2.82066 21.90755,3.38565 q -0.223241,-0.16261 -0.463019,-0.24529 -0.239778,-0.0827 -0.496092,-0.0827 -0.454751,0 -0.741381,0.226 -0.286631,0.226 -0.286631,0.57602 0,0.19568 0.135047,0.31694 0.135047,0.12127 0.49058,0.23151 l 0.333484,0.10749 q 0.449238,0.1378 0.655943,0.36931 0.209462,0.22876 0.209462,0.58429 0,0.64767 -0.457508,1.02801 -0.457507,0.37758 -1.248497,0.37758 -0.286631,0 -0.564994,-0.0634 -0.275607,-0.0606 -0.551213,-0.18465 L 19.03573,6.05074 q 0.270094,0.19017 0.545701,0.28112 0.278362,0.0909 0.587042,0.0909 0.454751,0 0.738625,-0.24254 0.283875,-0.24253 0.283875,-0.6146 0,-0.226 -0.121267,-0.35002 Q 20.948439,5.09158 20.581883,4.97858 L 20.30352,4.88758 Q 19.796404,4.72773 19.592455,4.52653 19.391262,4.32259 19.391262,3.9891 q 0,-0.60909 0.454751,-0.99494 0.454751,-0.3886 1.187864,-0.3886 0.220486,0 0.468532,0.0551 0.250802,0.0551 0.512628,0.15985 z m 1.19062,-0.14056 h 2.287535 l -0.09095,0.46853 h -0.865405 l -0.614603,3.17775 h 0.865405 l -0.09095,0.46853 h -2.287535 l 0.09095,-0.46853 h 0.862648 l 0.617359,-3.17775 h -0.865405 z m 5.115259,3.85022 q -0.239778,0.17088 -0.523653,0.25907 -0.283875,0.0854 -0.606334,0.0854 -0.639408,0 -0.983916,-0.36931 -0.341752,-0.37207 -0.341752,-1.05833 0,-0.24805 0.0441,-0.52641 0.04685,-0.28112 0.135047,-0.58704 0.09646,-0.32246 0.225998,-0.58153 Q 26.399941,3.49034 26.55428,3.30569 26.849179,2.9474 27.204712,2.77652 27.563,2.60565 28.020507,2.60565 q 0.220486,0 0.438215,0.0579 0.220485,0.0579 0.432702,0.16812 l -0.113001,0.57051 q -0.179145,-0.17363 -0.377582,-0.25907 -0.19568,-0.0854 -0.418922,-0.0854 -0.270094,0 -0.507116,0.11576 -0.237021,0.11299 -0.424434,0.33624 -0.121267,0.14331 -0.228753,0.35828 -0.107487,0.21498 -0.190169,0.48232 -0.09371,0.31419 -0.143315,0.58979 -0.04685,0.27561 -0.04685,0.49885 0,0.47129 0.217729,0.7276 0.217729,0.25632 0.617359,0.25632 0.187412,0 0.336239,-0.0496 0.148828,-0.0524 0.250803,-0.14883 l 0.20946,-1.08313 h -0.598066 l 0.08268,-0.45751 h 1.129987 z m 1.51308,-3.85022 h 0.705553 l 0.727601,3.3872 0.6587,-3.3872 h 0.537433 L 31.661267,6.79491 H 30.955714 L 30.228113,3.4077 29.566657,6.79491 H 29.03198 Z m 4.638459,0.46302 -1.003208,2.13319 h 1.185108 z M 34.207872,2.6801 h 0.677994 l 0.457507,4.11481 H 34.789402 L 34.692942,5.7228 h -1.433155 l -0.507115,1.07211 h -0.598067 z m 2.65409,0 h 0.556724 l -0.711065,3.64628 h 1.987119 l -0.09095,0.46853 h -2.543842 z m 5.542435,0.14056 -0.107487,0.56499 q -0.223242,-0.16261 -0.463017,-0.24529 -0.23978,-0.0827 -0.496094,-0.0827 -0.45475,0 -0.741379,0.226 -0.286632,0.226 -0.286632,0.57602 0,0.19568 0.135049,0.31694 0.135045,0.12127 0.490579,0.23151 l 0.333482,0.10749 q 0.44924,0.1378 0.655944,0.36931 0.209461,0.22876 0.209461,0.58429 0,0.64767 -0.457508,1.02801 -0.457507,0.37758 -1.248496,0.37758 -0.286629,0 -0.564991,-0.0634 -0.275605,-0.0606 -0.551213,-0.18465 l 0.113001,-0.57602 q 0.270091,0.19017 0.545699,0.28112 0.278362,0.0909 0.587039,0.0909 0.45475,0 0.738626,-0.24254 0.283876,-0.24253 0.283876,-0.6146 0,-0.226 -0.121268,-0.35002 Q 41.337799,5.09158 40.971245,4.97858 L 40.69288,4.88758 Q 40.185766,4.72773 39.981819,4.52653 39.780626,4.32259 39.780626,3.9891 q 0,-0.60909 0.45475,-0.99494 0.45475,-0.3886 1.187863,-0.3886 0.220484,0 0.468531,0.0551 0.250803,0.0551 0.512627,0.15985 z"
       id="text1"
       style="font-style:italic;font-size:15.8467px;font-family:Menlo;-inkscape-font-specification:'Menlo Italic';clip-rule:evenodd;fill:#000000;fill-opacity:1;fill-rule:evenodd;stroke-width:0.356189;stroke-linejoin:round;stroke-miterlimit:1.5"
       aria-label="SIGNALS" />
    <path
       d="m 38.151007,14.33355 q 0.07441,0.0145 0.118857,0.0693 0.04547,0.0548 0.101286,0.23771 l 0.125058,0.42168 H 38.288467 L 38.178914,14.6726 q -0.04547,-0.16123 -0.102319,-0.21188 -0.05581,-0.0506 -0.169499,-0.0506 h -0.198437 l -0.127124,0.65216 h -0.209806 l 0.29869,-1.54306 h 0.429945 q 0.213941,0 0.330729,0.093 0.117824,0.092 0.117824,0.26045 0,0.18914 -0.107488,0.31316 -0.106454,0.12402 -0.290422,0.14779 z m -0.302821,-0.64286 -0.105422,0.54777 h 0.226344 q 0.168463,0 0.268716,-0.0879 0.101286,-0.0889 0.101286,-0.23564 0,-0.11576 -0.06511,-0.1695 -0.06511,-0.0548 -0.205674,-0.0548 z m 1.141012,-0.17156 h 0.914673 l -0.03412,0.1757 h -0.706936 l -0.08888,0.45681 h 0.674893 l -0.03309,0.1757 h -0.675926 l -0.107487,0.55914 h 0.725536 l -0.03412,0.1757 h -0.935342 z m 1.118278,0 h 1.17822 l -0.03409,0.1757 h -0.484724 l -0.264584,1.36735 h -0.210839 l 0.26665,-1.36735 h -0.484721 z m 1.866552,0.81442 q 0.07441,0.0145 0.118853,0.0693 0.04548,0.0548 0.101286,0.23771 l 0.125058,0.42168 h -0.20774 L 42.001932,14.6726 q -0.04548,-0.16123 -0.102319,-0.21188 -0.05581,-0.0506 -0.1695,-0.0506 h -0.198436 l -0.127124,0.65216 h -0.209806 l 0.298689,-1.54306 h 0.429949 q 0.213938,0 0.330729,0.093 0.11782,0.092 0.11782,0.26045 0,0.18914 -0.107487,0.31316 -0.106451,0.12402 -0.290419,0.14779 z m -0.302825,-0.64286 -0.105418,0.54777 h 0.226341 q 0.168467,0 0.268716,-0.0879 0.101286,-0.0889 0.101286,-0.23564 0,-0.11576 -0.06511,-0.1695 -0.06511,-0.0548 -0.205671,-0.0548 z m 1.143083,-0.17156 h 0.857828 l -0.03412,0.1757 h -0.324528 l -0.230479,1.19165 h 0.324527 l -0.03409,0.1757 h -0.857828 l 0.03409,-0.1757 h 0.323495 l 0.231512,-1.19165 h -0.324527 z m 1.918228,1.44383 q -0.08992,0.0641 -0.196371,0.0971 -0.106454,0.032 -0.227377,0.032 -0.239779,0 -0.368969,-0.13849 -0.128157,-0.13953 -0.128157,-0.39687 0,-0.093 0.01653,-0.19741 0.01756,-0.10542 0.05064,-0.22014 0.03617,-0.12092 0.08475,-0.21807 0.04857,-0.0982 0.106455,-0.16743 0.110586,-0.13436 0.243911,-0.19844 0.134358,-0.0641 0.305924,-0.0641 0.08268,0 0.164331,0.0217 0.08268,0.0217 0.162262,0.063 l -0.04237,0.21394 q -0.06718,-0.0651 -0.141593,-0.0971 -0.07338,-0.032 -0.157097,-0.032 -0.101286,0 -0.190169,0.0434 -0.08888,0.0424 -0.159163,0.12609 -0.04547,0.0537 -0.08579,0.13436 -0.04031,0.0806 -0.07131,0.18086 -0.03516,0.11783 -0.05374,0.22118 -0.01756,0.10335 -0.01756,0.18707 0,0.17673 0.08165,0.27285 0.08165,0.0961 0.231508,0.0961 0.07028,0 0.126091,-0.0186 0.05581,-0.0196 0.09405,-0.0558 l 0.07855,-0.40618 h -0.224274 l 0.03102,-0.17156 h 0.423744 z"
       id="text5"
       style="font-style:italic;font-size:5.94253px;font-family:Menlo;-inkscape-font-specification:'Menlo Italic';clip-rule:evenodd;fill:#000000;fill-opacity:1;fill-rule:evenodd;stroke-width:0.264583;stroke-linejoin:round;stroke-miterlimit:1.5"
       aria-label="RETRIG" />
    <path
       id="path128"
       d="m 27.492522,125.27957 c 0.05984,0.1268 0.07943,0.25396 0.05842,0.38219 h -0.419235 c -0.0064,-0.0983 -0.02565,-0.1724 -0.05842,-0.22226 -0.05735,-0.0891 -0.160997,-0.13358 -0.310597,-0.13358 -0.152449,0 -0.28602,0.0627 -0.4,0.18843 -0.114337,0.12538 -0.195192,0.30276 -0.242921,0.5325 -0.04809,0.22974 -0.03776,0.40143 0.0317,0.51612 0.0691,0.11434 0.175245,0.17133 0.318433,0.17133 0.147106,0 0.269635,-0.0492 0.367587,-0.14747 0.05379,-0.0524 0.105432,-0.13179 0.155298,-0.23722 h 0.415317 c -0.08264,0.22333 -0.213357,0.40463 -0.391452,0.54462 -0.178451,0.13927 -0.384328,0.20944 -0.617632,0.20944 -0.288513,0 -0.495815,-0.0944 -0.621906,-0.28318 -0.125379,-0.18984 -0.153162,-0.44986 -0.08442,-0.78076 0.07409,-0.35726 0.225468,-0.63295 0.453429,-0.82636 0.198753,-0.16848 0.424221,-0.2529 0.676403,-0.2529 0.337667,0 0.560642,0.11327 0.669992,0.3391 z"
       style="clip-rule:evenodd;fill:#000000;fill-opacity:1;fill-rule:nonzero;stroke-width:0.356189;stroke-linejoin:round;stroke-miterlimit:1.5" />
    <path
       id="path129"
       d="m 28.420751,126.53407 0.764026,-1.55441 h 0.435619 l -1.110954,2.04666 H 28.11336 l -0.252182,-2.04666 h 0.448442 z"
       style="clip-rule:evenodd;fill:#000000;fill-opacity:1;fill-rule:nonzero;stroke-width:0.356189;stroke-linejoin:round;stroke-miterlimit:1.5" />
    <path
       id="path130"
       d="m 31.203657,125.52676 -0.05877,0.27925 h -0.253963 l -0.253607,1.22031 h -0.386465 l 0.253607,-1.22031 h -0.21692 l 0.05842,-0.27925 h 0.212645 l 0.01995,-0.0972 c 0.03419,-0.16206 0.08406,-0.27355 0.149956,-0.33482 0.07551,-0.0905 0.220481,-0.13606 0.435619,-0.13606 0.02458,0 0.04666,7.1e-4 0.06625,0.002 0.01959,0.001 0.04666,0.004 0.08121,0.006 l -0.06803,0.32271 c -0.02101,-0.003 -0.05699,-0.005 -0.107569,-0.006 -0.05093,-10e-4 -0.08905,0.01 -0.113981,0.0346 -0.02493,0.0246 -0.03989,0.0516 -0.04559,0.0812 -0.0064,0.0299 -0.01532,0.0723 -0.02743,0.12787 z"
       style="clip-rule:evenodd;fill:#000000;fill-opacity:1;fill-rule:nonzero;stroke-width:0.356189;stroke-linejoin:round;stroke-miterlimit:1.5" />
    <path
       id="path131"
       d="m 32.110515,126.81296 c -0.0043,0.005 -0.01638,0.0185 -0.03562,0.0417 -0.01888,0.0232 -0.04025,0.0431 -0.06376,0.0609 -0.07266,0.0556 -0.139626,0.0933 -0.200891,0.11363 -0.06091,0.0203 -0.129653,0.0306 -0.206233,0.0306 -0.219413,0 -0.350847,-0.0801 -0.393233,-0.2415 -0.02387,-0.0887 -0.01745,-0.21976 0.01888,-0.39287 l 0.189492,-0.91256 h 0.397151 l -0.189136,0.91256 c -0.01817,0.0862 -0.02173,0.15067 -0.01104,0.19448 0.01923,0.0769 0.0805,0.1154 0.183794,0.1154 0.132502,0 0.234728,-0.0548 0.306679,-0.1642 0.03811,-0.0591 0.06732,-0.13749 0.08727,-0.23437 l 0.171327,-0.82387 h 0.393233 l -0.314515,1.51345 h -0.376848 z"
       style="clip-rule:evenodd;fill:#000000;fill-opacity:1;fill-rule:nonzero;stroke-width:0.356189;stroke-linejoin:round;stroke-miterlimit:1.5" />
    <path
       id="path132"
       d="m 33.956643,126.10628 c 0.0171,-0.0798 0.01959,-0.14105 0.0068,-0.18344 -0.02173,-0.078 -0.08584,-0.11683 -0.193055,-0.11683 -0.13179,0 -0.234016,0.057 -0.306322,0.17062 -0.03847,0.0606 -0.06696,0.13749 -0.08584,0.23081 l -0.170259,0.81888 h -0.386499 l 0.314159,-1.51096 h 0.374711 l -0.0463,0.22084 c 0.06589,-0.0773 0.125022,-0.13357 0.177026,-0.16776 0.09225,-0.0613 0.200178,-0.0915 0.322351,-0.0915 0.153517,0 0.270347,0.0406 0.350846,0.12288 0.08014,0.0819 0.100802,0.21763 0.06162,0.40748 l -0.212289,1.01906 h -0.397507 z"
       style="clip-rule:evenodd;fill:#000000;fill-opacity:1;fill-rule:nonzero;stroke-width:0.356189;stroke-linejoin:round;stroke-miterlimit:1.5" />
    <path
       id="path133"
       d="m 34.996715,126.55081 -0.0976,0.47551 h -0.381478 l 0.424933,-2.0399 h 0.381123 l -0.230455,1.10312 0.601962,-0.5699 h 0.480851 l -0.640068,0.57952 0.346928,0.92716 h -0.468388 l -0.220127,-0.64684 z"
       style="clip-rule:evenodd;fill:#000000;fill-opacity:1;fill-rule:nonzero;stroke-width:0.356189;stroke-linejoin:round;stroke-miterlimit:1.5" />
    <path
       id="path134"
       d="m 18.2113,126.01225 h 6.62227"
       style="clip-rule:evenodd;fill:#666666;fill-opacity:1;fill-rule:evenodd;stroke:#000000;stroke-width:0.227961px;stroke-linecap:round;stroke-linejoin:round;stroke-miterlimit:1.5;stroke-opacity:1" />
    <path
       id="path135"
       d="m 36.521915,126.01225 h 6.622259"
       style="clip-rule:evenodd;fill:#666666;fill-opacity:1;fill-rule:evenodd;stroke:#000000;stroke-width:0.227961px;stroke-linecap:round;stroke-linejoin:round;stroke-miterlimit:1.5;stroke-opacity:1" />
    <path
       style="clip-rule:evenodd;fill:#ffffff;fill-opacity:1;fill-rule:evenodd;stroke:#474747;stroke-width:0.264583;stroke-linejoin:round;stroke-miterlimit:1.5;stroke-opacity:1"
       d="M 13.336168,114.80736 H 48.769804"
       id="path5" />
    <path
       style="clip-rule:evenodd;fill:#ffffff;fill-opacity:1;fill-rule:evenodd;stroke:#474747;stroke-width:0.264583;stroke-linejoin:round;stroke-miterlimit:1.5;stroke-opacity:1"
       d="M 13.336168,99.803928 H 48.769804"
       id="path6" />
    <path
       style="clip-rule:evenodd;fill:#ffffff;fill-opacity:1;fill-rule:evenodd;stroke:#474747;stroke-width:0.264583;stroke-linejoin:round;stroke-miterlimit:1.5;stroke-opacity:1"
       d="M 13.336168,84.268458 H 48.769804"
       id="path7" />
    <path
       style="clip-rule:evenodd;fill:#ffffff;fill-opacity:1;fill-rule:evenodd;stroke:#474747;stroke-width:0.264583;stroke-linejoin:round;stroke-miterlimit:1.5;stroke-opacity:1"
       d="M 13.336168,68.935291 H 48.769804"
       id="path8" />
    <path
       style="clip-rule:evenodd;fill:#ffffff;fill-opacity:1;fill-rule:evenodd;stroke:#474747;stroke-width:0.264583;stroke-linejoin:round;stroke-miterlimit:1.5;stroke-opacity:1"
       d="M 13.442575,53.519291 H 48.876212"
       id="path9" />
    <path
       style="clip-rule:evenodd;fill:#ffffff;fill-opacity:1;fill-rule:evenodd;stroke:#474747;stroke-width:0.264583;stroke-linejoin:round;stroke-miterlimit:1.5;stroke-opacity:1"
       d="M 13.442575,38.41579 H 48.876212"
       id="path10" />
    <path
       style="font-style:italic;font-size:5.94253px;font-family:Menlo;-inkscape-font-specification:'Menlo Italic';clip-rule:evenodd;fill-rule:evenodd;stroke-width:0.352;stroke-linejoin:round;stroke-miterlimit:1.5"
       d="m 23.133817,13.70324 -0.04031,0.21188 q -0.08372,-0.061 -0.173633,-0.092 -0.08992,-0.031 -0.186035,-0.031 -0.170532,0 -0.278019,0.0847 -0.107486,0.0848 -0.107486,0.216 0,0.0734 0.05064,0.11886 0.05064,0.0455 0.183968,0.0868 l 0.125057,0.0403 q 0.168465,0.0517 0.24598,0.13849 0.07855,0.0858 0.07855,0.21911 0,0.24288 -0.171566,0.38551 -0.171565,0.14159 -0.468188,0.14159 -0.107487,0 -0.211873,-0.0238 -0.103353,-0.0227 -0.206706,-0.0693 l 0.04237,-0.21601 q 0.101286,0.0713 0.204639,0.10542 0.104386,0.0341 0.220141,0.0341 0.170532,0 0.276986,-0.0909 0.106453,-0.0909 0.106453,-0.23048 0,-0.0847 -0.04547,-0.13125 -0.04548,-0.0465 -0.182935,-0.0889 l -0.104386,-0.0341 q -0.190169,-0.0599 -0.26665,-0.1354 -0.07545,-0.0765 -0.07545,-0.20153 0,-0.22841 0.170532,-0.37311 0.170532,-0.14572 0.445451,-0.14572 0.08268,0 0.175699,0.0207 0.09405,0.0207 0.192236,0.0599 z m 0.470256,-0.0527 h 0.208772 l -0.26665,1.36736 h 0.745174 l -0.03411,0.1757 h -0.953941 z m 1.411799,1.40354 q 0.08785,0 0.162264,-0.0527 0.07441,-0.0527 0.122989,-0.1509 0.07648,-0.14986 0.124024,-0.36277 0.04754,-0.2129 0.04754,-0.40927 0,-0.14677 -0.05478,-0.21601 -0.05374,-0.0703 -0.167431,-0.0703 -0.08785,0 -0.161231,0.0527 -0.07338,0.0527 -0.121956,0.15089 -0.07855,0.15193 -0.12609,0.36277 -0.04754,0.21084 -0.04754,0.40721 0,0.1478 0.05374,0.21808 0.05478,0.0703 0.168465,0.0703 z m 0.670759,-0.91468 q 0,0.11369 -0.02377,0.24702 -0.02274,0.13332 -0.06718,0.27388 -0.02997,0.0951 -0.06511,0.17053 -0.03411,0.0754 -0.07441,0.13643 -0.09095,0.13126 -0.203605,0.1943 -0.112654,0.062 -0.262516,0.062 -0.207739,0 -0.307992,-0.12712 -0.100251,-0.12712 -0.100251,-0.39171 0,-0.11472 0.0217,-0.24598 0.02274,-0.13229 0.06718,-0.27285 0.02997,-0.0951 0.06408,-0.17053 0.03514,-0.0755 0.07545,-0.13643 0.09095,-0.13125 0.203604,-0.19327 0.112655,-0.063 0.262517,-0.063 0.208772,0 0.309024,0.12713 0.101286,0.12609 0.101286,0.38964 z m 0.234611,-0.48886 h 0.197404 l -0.09302,1.25057 0.340031,-0.82682 h 0.218074 l 0.0155,0.82889 0.38964,-1.25264 h 0.204638 L 26.66641,15.1936 h -0.200504 l -0.03204,-0.89917 -0.383438,0.89917 h -0.1943 z"
       id="text2"
       aria-label="SLOW" />
  </g>
</svg>
