<?xml version="1.0" encoding="UTF-8" standalone="no"?>
<!-- Created with Inkscape (http://www.inkscape.org/) -->

<svg
   width="60.959999mm"
   height="128.5mm"
   viewBox="0 0 60.960004 128.50002"
   version="1.1"
   id="svg8"
   inkscape:version="1.3.2 (091e20e, 2023-11-25)"
   sodipodi:docname="Signals-dark.svg"
   xml:space="preserve"
   xmlns:inkscape="http://www.inkscape.org/namespaces/inkscape"
   xmlns:sodipodi="http://sodipodi.sourceforge.net/DTD/sodipodi-0.dtd"
   xmlns="http://www.w3.org/2000/svg"
   xmlns:svg="http://www.w3.org/2000/svg"
   xmlns:rdf="http://www.w3.org/1999/02/22-rdf-syntax-ns#"
   xmlns:cc="http://creativecommons.org/ns#"
   xmlns:dc="http://purl.org/dc/elements/1.1/"><defs
     id="defs2"><linearGradient
       id="_Linear1"
       x1="0"
       y1="0"
       x2="1"
       y2="-0.0028738601"
       gradientUnits="userSpaceOnUse"
       gradientTransform="matrix(75.07254,292.27101,-293.02254,74.879903,36.973994,42.144002)"><stop
         offset="0"
         style="stop-color:#e6e6e6;stop-opacity:1"
         id="stop1" /><stop
         offset="1"
         style="stop-color:#e6e6e6;stop-opacity:0"
         id="stop2" /></linearGradient></defs><sodipodi:namedview
     id="base"
     pagecolor="#ffffff"
     bordercolor="#666666"
     borderopacity="1.0"
     inkscape:pageopacity="0.0"
     inkscape:pageshadow="2"
     inkscape:zoom="2.1649824"
     inkscape:cx="111.08635"
     inkscape:cy="360.28007"
     inkscape:document-units="mm"
     inkscape:current-layer="g1"
     showgrid="false"
     units="mm"
     inkscape:snap-bbox="true"
     inkscape:snap-page="true"
     inkscape:bbox-nodes="false"
     inkscape:snap-bbox-edge-midpoints="false"
     inkscape:window-width="1688"
     inkscape:window-height="957"
     inkscape:window-x="40"
     inkscape:window-y="38"
     inkscape:window-maximized="0"
     inkscape:snap-bbox-midpoints="true"
     inkscape:snap-nodes="false"
     inkscape:showpageshadow="2"
     inkscape:pagecheckerboard="0"
     inkscape:deskcolor="#d1d1d1"
     showguides="true" /><metadata
     id="metadata5"><rdf:RDF><cc:Work
         rdf:about=""><dc:format>image/svg+xml</dc:format><dc:type
           rdf:resource="http://purl.org/dc/dcmitype/StillImage" /></cc:Work></rdf:RDF></metadata><g
     id="g1"><rect
       id="rect1"
       x="-0.10805784"
       y="-0.53587371"
       width="61.210564"
       height="129.94316"
       style="clip-rule:evenodd;display:inline;fill:#202020;fill-rule:evenodd;stroke-width:0.387701;stroke-linejoin:round;stroke-miterlimit:1.5" /><rect
       style="clip-rule:evenodd;fill:#3b3b3b;fill-opacity:1;fill-rule:evenodd;stroke:#d08c59;stroke-width:0.328819;stroke-linejoin:round;stroke-miterlimit:1.5;stroke-dasharray:none;stroke-opacity:1"
       id="rect2-9"
       width="17.249601"
       height="97.232155"
       x="42.066223"
       y="25.407995"
       rx="4.0053825"
       ry="3.4858291" /><rect
       style="clip-rule:evenodd;fill:#212121;fill-opacity:1;fill-rule:evenodd;stroke:#d08c59;stroke-width:0.215981;stroke-linejoin:round;stroke-miterlimit:1.5;stroke-dasharray:none;stroke-opacity:1"
       id="rect2"
       width="36.393002"
       height="97.366203"
       x="12.658752"
       y="25.322359"
       ry="2.5588171" /><path
       d="M 21.847869,3.3499493 21.740382,3.9149427 Q 21.517141,3.7523348 21.277363,3.669653 21.037585,3.586971 20.781271,3.586971 q -0.454751,0 -0.741381,0.2259974 -0.286631,0.2259974 -0.286631,0.5760177 0,0.1956808 0.135047,0.3169479 0.135047,0.1212667 0.49058,0.2315094 l 0.333484,0.1074865 q 0.449238,0.1378032 0.655943,0.369313 0.209462,0.2287532 0.209462,0.5842859 0,0.6476755 -0.457508,1.0280126 -0.457507,0.3775808 -1.248497,0.3775808 -0.286631,0 -0.564994,-0.06339 -0.275607,-0.060633 -0.551213,-0.1846563 l 0.112999,-0.5760177 q 0.270094,0.1901687 0.545701,0.2811187 0.278362,0.09095 0.587042,0.09095 0.454751,0 0.738625,-0.2425338 0.283875,-0.2425335 0.283875,-0.6146027 0,-0.2259974 -0.121267,-0.3500203 -0.121267,-0.124023 -0.487823,-0.2370215 l -0.278363,-0.09095 Q 19.629236,5.2571468 19.425287,5.0559541 19.224094,4.8520052 19.224094,4.5185213 q 0,-0.6090907 0.454751,-0.9949401 0.454751,-0.3886052 1.187864,-0.3886052 0.220486,0 0.468532,0.055121 0.250802,0.055121 0.512628,0.1598523 z M 23.038489,3.20939 h 2.287535 l -0.09095,0.4685308 h -0.865405 l -0.614603,3.1777443 h 0.865405 l -0.09095,0.4685313 h -2.287535 l 0.09095,-0.4685313 h 0.862648 l 0.617359,-3.1777443 h -0.865405 z m 5.115259,3.850224 q -0.239778,0.1708761 -0.523653,0.25907 -0.283875,0.085438 -0.606334,0.085438 -0.639408,0 -0.983916,-0.3693126 -0.341752,-0.3720692 -0.341752,-1.0583292 0,-0.2480463 0.0441,-0.5264088 0.04685,-0.2811188 0.135047,-0.5870422 0.09646,-0.3224595 0.225998,-0.5815298 0.129535,-0.2618261 0.283874,-0.4464827 0.294899,-0.3582886 0.650432,-0.5291647 0.358288,-0.170876 0.815795,-0.170876 0.220486,0 0.438215,0.057878 0.220485,0.057877 0.432702,0.1681199 L 28.611255,3.9314791 Q 28.43211,3.7578469 28.233673,3.6724088 q -0.19568,-0.085438 -0.418922,-0.085438 -0.270094,0 -0.507116,0.1157547 -0.237021,0.1129989 -0.424434,0.3362401 -0.121267,0.1433156 -0.228753,0.3582886 -0.107487,0.2149733 -0.190169,0.4823115 -0.09371,0.3141916 -0.143315,0.5897983 -0.04685,0.2756064 -0.04685,0.4988479 0,0.4712871 0.217729,0.7276012 0.217729,0.2563141 0.617359,0.2563141 0.187412,0 0.336239,-0.049609 0.148828,-0.052366 0.250803,-0.1488276 l 0.20946,-1.0831339 h -0.598066 l 0.08268,-0.4575071 h 1.129987 z m 1.51308,-3.850224 h 0.705553 l 0.727601,3.3872048 0.6587,-3.3872048 h 0.537433 L 31.494099,7.3241964 H 30.788546 L 30.060945,3.9369911 29.399489,7.3241964 h -0.534677 z m 4.638459,0.4630188 -1.003208,2.1331949 h 1.185108 z M 34.040704,3.20939 h 0.677992 l 0.457507,4.1148064 h -0.553969 l -0.09646,-1.0721099 h -1.433155 l -0.507115,1.0721099 h -0.598067 z m 2.65409,0 h 0.556724 l -0.711065,3.6462751 h 1.987119 l -0.09095,0.4685313 H 35.89278 Z m 5.542435,0.1405593 -0.107487,0.5649934 Q 41.9065,3.7523348 41.666725,3.669653 41.426945,3.586971 41.170631,3.586971 q -0.45475,0 -0.741379,0.2259974 -0.286632,0.2259974 -0.286632,0.5760177 0,0.1956808 0.135049,0.3169479 0.135045,0.1212667 0.490579,0.2315094 l 0.333482,0.1074865 q 0.44924,0.1378032 0.655944,0.369313 0.209461,0.2287532 0.209461,0.5842859 0,0.6476755 -0.457508,1.0280126 -0.457507,0.3775808 -1.248496,0.3775808 -0.286629,0 -0.564991,-0.06339 -0.275605,-0.060633 -0.551213,-0.1846563 l 0.113001,-0.5760177 q 0.270091,0.1901687 0.545699,0.2811187 0.278362,0.09095 0.587039,0.09095 0.45475,0 0.738626,-0.2425338 0.283876,-0.2425335 0.283876,-0.6146027 0,-0.2259974 -0.121268,-0.3500203 -0.121269,-0.124023 -0.487823,-0.2370215 l -0.278365,-0.09095 Q 40.018598,5.2571468 39.814651,5.0559541 39.613458,4.8520052 39.613458,4.5185213 q 0,-0.6090907 0.45475,-0.9949401 0.45475,-0.3886052 1.187863,-0.3886052 0.220484,0 0.468531,0.055121 0.250803,0.055121 0.512627,0.1598523 z"
       id="text1"
       style="font-style:italic;font-size:15.8467px;font-family:Menlo;-inkscape-font-specification:'Menlo Italic';clip-rule:evenodd;fill:#ffffff;fill-rule:evenodd;stroke-width:0.356189;stroke-linejoin:round;stroke-miterlimit:1.5"
       aria-label="SIGNALS" /><path
       d="m 37.983839,14.862836 q 0.07441,0.01447 0.118857,0.06925 0.04547,0.05478 0.101286,0.237712 l 0.125058,0.421679 h -0.207741 l -0.109553,-0.38964 q -0.04547,-0.16123 -0.102319,-0.211873 -0.05581,-0.05064 -0.169499,-0.05064 h -0.198437 l -0.127124,0.652156 h -0.209806 l 0.29869,-1.543057 h 0.429945 q 0.213941,0 0.330729,0.09302 0.117824,0.09198 0.117824,0.260449 0,0.189135 -0.107488,0.313159 -0.106454,0.124023 -0.290422,0.147794 z m -0.302821,-0.642854 -0.105422,0.547769 h 0.226344 q 0.168463,0 0.268716,-0.08785 0.101286,-0.08888 0.101286,-0.235645 0,-0.115755 -0.06511,-0.169498 -0.06511,-0.05478 -0.205674,-0.05478 z m 1.141012,-0.171566 h 0.914673 l -0.03412,0.1757 h -0.706936 l -0.08888,0.456819 h 0.674893 l -0.03309,0.1757 h -0.675926 l -0.107487,0.559138 h 0.725536 l -0.03412,0.1757 h -0.935342 z m 1.118278,0 h 1.17822 l -0.03409,0.1757 h -0.484724 l -0.264584,1.367357 h -0.210839 l 0.26665,-1.367357 H 39.90622 Z m 1.866552,0.81442 q 0.07441,0.01447 0.118853,0.06925 0.04548,0.05478 0.101286,0.237712 l 0.125058,0.421679 h -0.20774 l -0.109553,-0.38964 q -0.04548,-0.16123 -0.102319,-0.211873 -0.05581,-0.05064 -0.1695,-0.05064 h -0.198436 l -0.127124,0.652156 h -0.209806 l 0.298689,-1.543057 h 0.429949 q 0.213938,0 0.330729,0.09302 0.11782,0.09198 0.11782,0.260449 0,0.189135 -0.107487,0.313159 -0.106451,0.124023 -0.290419,0.147794 z m -0.302825,-0.642854 -0.105418,0.547769 h 0.226341 q 0.168467,0 0.268716,-0.08785 0.101286,-0.08888 0.101286,-0.235645 0,-0.115755 -0.06511,-0.169498 -0.06511,-0.05478 -0.205671,-0.05478 z m 1.143083,-0.171566 h 0.857828 l -0.03412,0.1757 h -0.324528 l -0.230479,1.191657 h 0.324527 l -0.03409,0.1757 h -0.857828 l 0.03409,-0.1757 h 0.323495 l 0.231512,-1.191657 h -0.324527 z m 1.918228,1.443838 q -0.08992,0.06408 -0.196371,0.09715 -0.106454,0.03204 -0.227377,0.03204 -0.239779,0 -0.368969,-0.138493 -0.128157,-0.139526 -0.128157,-0.396874 0,-0.09302 0.01653,-0.197404 0.01756,-0.10542 0.05064,-0.220142 0.03617,-0.120922 0.08475,-0.218074 0.04857,-0.09818 0.106455,-0.167431 0.110586,-0.134359 0.243911,-0.198438 0.134358,-0.06408 0.305924,-0.06408 0.08268,0 0.164331,0.0217 0.08268,0.0217 0.162262,0.06304 l -0.04237,0.213941 q -0.06718,-0.06511 -0.141593,-0.09715 -0.07338,-0.03204 -0.157097,-0.03204 -0.101286,0 -0.190169,0.04341 -0.08888,0.04237 -0.159163,0.12609 -0.04547,0.05374 -0.08579,0.134359 -0.04031,0.08061 -0.07131,0.180867 -0.03516,0.117822 -0.05374,0.221175 -0.01756,0.103353 -0.01756,0.187069 0,0.176733 0.08165,0.272851 0.08165,0.09612 0.231508,0.09612 0.07028,0 0.126091,-0.0186 0.05581,-0.01964 0.09405,-0.05581 l 0.07855,-0.406177 h -0.224274 l 0.03102,-0.171565 h 0.423744 z"
       id="text5"
       style="font-style:italic;font-size:5.94253px;font-family:Menlo;-inkscape-font-specification:'Menlo Italic';clip-rule:evenodd;fill:#ffffff;fill-rule:evenodd;stroke-width:0.264583;stroke-linejoin:round;stroke-miterlimit:1.5"
       aria-label="RETRIG" /><path
       id="path128"
       d="m 27.325354,125.27969 c 0.05984,0.1268 0.07943,0.25396 0.05842,0.38219 H 26.96454 c -0.0064,-0.0983 -0.02565,-0.1724 -0.05842,-0.22226 -0.05735,-0.0891 -0.160997,-0.13358 -0.310596,-0.13358 -0.152449,0 -0.28602,0.0627 -0.400001,0.18843 -0.114337,0.12538 -0.195192,0.30276 -0.242921,0.5325 -0.04809,0.22974 -0.03776,0.40143 0.0317,0.51612 0.0691,0.11434 0.175245,0.17133 0.318433,0.17133 0.147106,0 0.269635,-0.0492 0.367587,-0.14747 0.05378,-0.0524 0.105432,-0.13179 0.155299,-0.23722 h 0.415316 c -0.08264,0.22333 -0.213357,0.40463 -0.391452,0.54462 -0.17845,0.13927 -0.384328,0.20944 -0.617632,0.20944 -0.288513,0 -0.495815,-0.0944 -0.621906,-0.28318 -0.125379,-0.18984 -0.153161,-0.44986 -0.08442,-0.78076 0.07409,-0.35726 0.225468,-0.63295 0.453429,-0.82636 0.198754,-0.16848 0.424221,-0.2529 0.676403,-0.2529 0.337668,0 0.560642,0.11327 0.669992,0.3391 z"
       style="clip-rule:evenodd;fill:#ffffff;fill-rule:nonzero;stroke-width:0.356189;stroke-linejoin:round;stroke-miterlimit:1.5" /><path
       id="path129"
       d="m 28.253583,126.53419 0.764026,-1.55441 h 0.435619 l -1.110954,2.04666 h -0.396082 l -0.252182,-2.04666 h 0.448442 z"
       style="clip-rule:evenodd;fill:#ffffff;fill-rule:nonzero;stroke-width:0.356189;stroke-linejoin:round;stroke-miterlimit:1.5" /><path
       id="path130"
       d="m 31.036489,125.52688 -0.05877,0.27925 h -0.253963 l -0.253607,1.22031 h -0.386465 l 0.253607,-1.22031 h -0.216919 l 0.05842,-0.27925 h 0.212645 l 0.01995,-0.0972 c 0.03419,-0.16206 0.08406,-0.27355 0.149956,-0.33482 0.07551,-0.0905 0.220481,-0.13606 0.435619,-0.13606 0.02458,0 0.04666,7.1e-4 0.06625,0.002 0.01959,10e-4 0.04666,0.004 0.08121,0.006 l -0.06803,0.32271 c -0.02102,-0.003 -0.05699,-0.005 -0.107569,-0.006 -0.05093,-0.001 -0.08905,0.01 -0.11398,0.0346 -0.02493,0.0246 -0.03989,0.0516 -0.04559,0.0812 -0.0064,0.0299 -0.01532,0.0723 -0.02743,0.12787 z"
       style="clip-rule:evenodd;fill:#ffffff;fill-rule:nonzero;stroke-width:0.356189;stroke-linejoin:round;stroke-miterlimit:1.5" /><path
       id="path131"
       d="m 31.943347,126.81308 c -0.0043,0.005 -0.01639,0.0185 -0.03562,0.0417 -0.01888,0.0232 -0.04025,0.0431 -0.06376,0.0609 -0.07266,0.0556 -0.139626,0.0933 -0.200891,0.11363 -0.06091,0.0203 -0.129652,0.0306 -0.206233,0.0306 -0.219413,0 -0.350846,-0.0801 -0.393233,-0.2415 -0.02387,-0.0887 -0.01745,-0.21976 0.01888,-0.39287 l 0.189493,-0.91256 h 0.397151 l -0.189137,0.91256 c -0.01816,0.0862 -0.02173,0.15067 -0.01104,0.19448 0.01923,0.0769 0.0805,0.1154 0.183794,0.1154 0.132502,0 0.234729,-0.0548 0.306679,-0.1642 0.03811,-0.0591 0.06732,-0.13749 0.08727,-0.23437 l 0.171327,-0.82387 h 0.393233 l -0.314515,1.51345 h -0.376848 z"
       style="clip-rule:evenodd;fill:#ffffff;fill-rule:nonzero;stroke-width:0.356189;stroke-linejoin:round;stroke-miterlimit:1.5" /><path
       id="path132"
       d="m 33.789475,126.1064 c 0.0171,-0.0798 0.01959,-0.14105 0.0068,-0.18344 -0.02173,-0.078 -0.08584,-0.11683 -0.193055,-0.11683 -0.13179,0 -0.234016,0.057 -0.306322,0.17062 -0.03847,0.0606 -0.06696,0.13749 -0.08584,0.23081 l -0.170258,0.81888 h -0.386466 l 0.314159,-1.51096 h 0.374711 l -0.0463,0.22084 c 0.06589,-0.0773 0.125022,-0.13357 0.177026,-0.16776 0.09225,-0.0613 0.200178,-0.0915 0.322351,-0.0915 0.153518,0 0.270348,0.0406 0.350846,0.12288 0.08014,0.0819 0.100802,0.21763 0.06162,0.40748 l -0.212289,1.01906 h -0.397507 z"
       style="clip-rule:evenodd;fill:#ffffff;fill-rule:nonzero;stroke-width:0.356189;stroke-linejoin:round;stroke-miterlimit:1.5" /><path
       id="path133"
       d="m 34.829548,126.55093 -0.0976,0.47551 h -0.381479 l 0.424934,-2.0399 h 0.381122 l -0.230454,1.10312 0.601961,-0.5699 h 0.480853 l -0.64007,0.57952 0.346929,0.92716 h -0.468389 l -0.220126,-0.64684 z"
       style="clip-rule:evenodd;fill:#ffffff;fill-rule:nonzero;stroke-width:0.356189;stroke-linejoin:round;stroke-miterlimit:1.5" /><path
       id="path134"
       d="m 18.044133,126.01237 h 6.622269"
       style="clip-rule:evenodd;fill:none;fill-rule:evenodd;stroke:#d08c59;stroke-width:0.227961px;stroke-linecap:round;stroke-linejoin:round;stroke-miterlimit:1.5" /><path
       id="path135"
       d="m 36.354749,126.01237 h 6.622258"
       style="clip-rule:evenodd;fill:none;fill-rule:evenodd;stroke:#d08c59;stroke-width:0.227961px;stroke-linecap:round;stroke-linejoin:round;stroke-miterlimit:1.5" /><path
       style="clip-rule:evenodd;fill:#ffffff;fill-opacity:1;fill-rule:evenodd;stroke:#673f22;stroke-width:0.264583;stroke-linejoin:round;stroke-miterlimit:1.5;stroke-opacity:1"
       d="M 13.169,114.80729 H 48.602636"
       id="path5" /><path
       style="clip-rule:evenodd;fill:#ffffff;fill-opacity:1;fill-rule:evenodd;stroke:#673f22;stroke-width:0.264583;stroke-linejoin:round;stroke-miterlimit:1.5;stroke-opacity:1"
       d="M 13.169,99.803291 H 48.602636"
       id="path6" /><path
       style="clip-rule:evenodd;fill:#ffffff;fill-opacity:1;fill-rule:evenodd;stroke:#673f22;stroke-width:0.264583;stroke-linejoin:round;stroke-miterlimit:1.5;stroke-opacity:1"
       d="M 13.169,84.268291 H 48.602636"
       id="path7" /><path
       style="clip-rule:evenodd;fill:#ffffff;fill-opacity:1;fill-rule:evenodd;stroke:#673f22;stroke-width:0.264583;stroke-linejoin:round;stroke-miterlimit:1.5;stroke-opacity:1"
       d="M 13.169,69.164757 H 48.602636"
       id="path8" /><path
       style="clip-rule:evenodd;fill:#ffffff;fill-opacity:1;fill-rule:evenodd;stroke:#673f22;stroke-width:0.264583;stroke-linejoin:round;stroke-miterlimit:1.5;stroke-opacity:1"
       d="M 13.275407,53.948512 H 48.709044"
       id="path9" /><path
       style="clip-rule:evenodd;fill:#ffffff;fill-opacity:1;fill-rule:evenodd;stroke:#673f22;stroke-width:0.264583;stroke-linejoin:round;stroke-miterlimit:1.5;stroke-opacity:1"
       d="M 13.275407,38.945079 H 48.709044"
       id="path10" /><path
       style="font-style:italic;font-size:5.94253px;font-family:Menlo;-inkscape-font-specification:'Menlo Italic';clip-rule:evenodd;display:inline;fill:#ffffff;fill-rule:evenodd;stroke-width:0.352;stroke-linejoin:round;stroke-miterlimit:1.5"
       d="m 22.472333,14.12538 -0.04031,0.211874 q -0.08372,-0.06098 -0.173632,-0.09198 -0.08992,-0.03101 -0.186036,-0.03101 -0.170532,0 -0.278018,0.08475 -0.107487,0.08475 -0.107487,0.216007 0,0.07338 0.05064,0.118856 0.05064,0.04547 0.183969,0.08682 l 0.125056,0.04031 q 0.168466,0.05168 0.24598,0.138492 0.07855,0.08578 0.07855,0.219108 0,0.242879 -0.171566,0.385506 -0.171565,0.141593 -0.468188,0.141593 -0.107487,0 -0.211873,-0.02377 -0.103353,-0.02274 -0.206705,-0.06925 l 0.04237,-0.216008 q 0.101286,0.07131 0.204639,0.10542 0.104386,0.03411 0.220141,0.03411 0.170532,0 0.276986,-0.09095 0.106453,-0.09095 0.106453,-0.230477 0,-0.08475 -0.04547,-0.131258 -0.04548,-0.04651 -0.182935,-0.08888 l -0.104386,-0.03411 q -0.190169,-0.05995 -0.26665,-0.135392 -0.07545,-0.07648 -0.07545,-0.201538 0,-0.22841 0.170532,-0.373104 0.170532,-0.145727 0.445451,-0.145727 0.08268,0 0.1757,0.02067 0.09405,0.02067 0.192236,0.05994 z m 0.470255,-0.05271 h 0.208773 l -0.266651,1.367357 h 0.745174 l -0.03411,0.175699 h -0.953946 z m 1.411799,1.40353 q 0.08785,0 0.162264,-0.05271 0.07441,-0.05271 0.122989,-0.150895 0.07648,-0.149861 0.124024,-0.362768 0.04754,-0.212907 0.04754,-0.409277 0,-0.146761 -0.05478,-0.216007 -0.05374,-0.07028 -0.167431,-0.07028 -0.08785,0 -0.161231,0.05271 -0.07338,0.05271 -0.121956,0.150895 -0.07855,0.151928 -0.12609,0.362768 -0.04754,0.21084 -0.04754,0.40721 0,0.147795 0.05374,0.218074 0.05478,0.07028 0.168465,0.07028 z m 0.67076,-0.914672 q 0,0.113688 -0.02377,0.247013 -0.02273,0.133325 -0.06718,0.273885 -0.02997,0.09509 -0.06511,0.170532 -0.03411,0.07545 -0.07441,0.136426 -0.09095,0.131258 -0.203605,0.194303 -0.112654,0.06201 -0.262516,0.06201 -0.207739,0 -0.307991,-0.127124 -0.100252,-0.127124 -0.100252,-0.391707 0,-0.114722 0.0217,-0.24598 0.02274,-0.132291 0.06718,-0.272851 0.02997,-0.09509 0.06408,-0.170532 0.03514,-0.07545 0.07545,-0.136426 0.09095,-0.131258 0.203605,-0.19327 0.112654,-0.06305 0.262516,-0.06305 0.208772,0 0.309024,0.127124 0.101286,0.12609 0.101286,0.38964 z m 0.23461,-0.488858 h 0.197404 l -0.09302,1.250568 0.34003,-0.826822 h 0.218075 l 0.0155,0.828889 0.38964,-1.252635 h 0.204638 l -0.527099,1.543056 h -0.200504 l -0.03204,-0.899169 -0.383438,0.899169 h -0.194304 z"
       id="text2"
       aria-label="SLOW" /></g></svg>
