<?xml version="1.0" encoding="UTF-8" standalone="no"?>
<!-- Created with Inkscape (http://www.inkscape.org/) -->

<svg
   width="50.799999mm"
   height="128.5mm"
   viewBox="0 0 50.800003 128.50002"
   version="1.1"
   id="svg8"
   inkscape:version="1.3.2 (091e20e, 2023-11-25)"
   sodipodi:docname="Steps-dark.svg"
   xmlns:inkscape="http://www.inkscape.org/namespaces/inkscape"
   xmlns:sodipodi="http://sodipodi.sourceforge.net/DTD/sodipodi-0.dtd"
   xmlns="http://www.w3.org/2000/svg"
   xmlns:svg="http://www.w3.org/2000/svg"
   xmlns:rdf="http://www.w3.org/1999/02/22-rdf-syntax-ns#"
   xmlns:cc="http://creativecommons.org/ns#"
   xmlns:dc="http://purl.org/dc/elements/1.1/"
   xmlns:serif="http://www.serif.com/">
  <defs
     id="defs2">
    <linearGradient
       id="_Linear1"
       x1="0"
       y1="0"
       x2="1"
       y2="-0.0028738601"
       gradientUnits="userSpaceOnUse"
       gradientTransform="matrix(75.07254,292.27101,-293.02254,74.879903,36.973994,42.144002)">
      <stop
         offset="0"
         style="stop-color:#e6e6e6;stop-opacity:1"
         id="stop1" />
      <stop
         offset="1"
         style="stop-color:#e6e6e6;stop-opacity:0"
         id="stop2" />
    </linearGradient>
  </defs>
  <sodipodi:namedview
     id="base"
     pagecolor="#ffffff"
     bordercolor="#666666"
     borderopacity="1.0"
     inkscape:pageopacity="0.0"
     inkscape:pageshadow="2"
     inkscape:zoom="2.3046604"
     inkscape:cx="97.628267"
     inkscape:cy="132.34054"
     inkscape:document-units="mm"
     inkscape:current-layer="Layer-1"
     showgrid="false"
     units="mm"
     inkscape:snap-bbox="true"
     inkscape:snap-page="true"
     inkscape:bbox-nodes="false"
     inkscape:snap-bbox-edge-midpoints="false"
     inkscape:window-width="1392"
     inkscape:window-height="1027"
     inkscape:window-x="15"
     inkscape:window-y="38"
     inkscape:window-maximized="0"
     inkscape:snap-bbox-midpoints="true"
     inkscape:snap-nodes="false"
     inkscape:showpageshadow="2"
     inkscape:pagecheckerboard="0"
     inkscape:deskcolor="#d1d1d1"
     showguides="true" />
  <metadata
     id="metadata5">
    <rdf:RDF>
      <cc:Work
         rdf:about="">
        <dc:format>image/svg+xml</dc:format>
        <dc:type
           rdf:resource="http://purl.org/dc/dcmitype/StillImage" />
      </cc:Work>
    </rdf:RDF>
  </metadata>
  <g
     id="Layer-1"
     serif:id="Layer 1"
     style="clip-rule:evenodd;fill-rule:evenodd;stroke-linejoin:round;stroke-miterlimit:1.5"
     transform="matrix(0.35618918,0,0,0.35618918,-0.39015967,-0.81904413)">
    <rect
       id="rect1-1"
       x="0.2"
       y="-0.14399999"
       width="142.998"
       height="363.58499"
       style="fill:#989898" />
    <rect
       id="rect1"
       x="0.792"
       y="0.79500002"
       width="145.048"
       height="364.815"
       style="fill:#202020" />
    <path
       id="path2-2"
       d="m 25.993709,245.20874 2.754,-0.711 -0.696,-2.816"
       style="clip-rule:evenodd;fill:none;fill-rule:evenodd;stroke:#d08c59;stroke-width:0.85px;stroke-linejoin:miter;stroke-miterlimit:10" />
    <path
       id="path108"
       d="m 137.25122,56.96345 v 121.09623 c 0,6.49696 -2.41625,10.62393 -10.36104,10.62393 h -16.27219 c -4.76016,0 -8.56745,2.29399 -8.85678,8.45295 -0.002,0.088 -0.005,0.66599 -0.002,1.42599"
       style="fill:none;stroke:#d08c59;stroke-width:0.870267px" />
    <path
       id="path1"
       d="m 137.481,51.782 c 0,-4.892 -3.892,-8.863 -8.687,-8.863 h -15.109 c -4.796,0 -8.689,3.971 -8.689,8.863 v 47.154 c 0,4.892 3.893,8.863 8.689,8.863 h 15.109 c 4.795,0 8.687,-3.971 8.687,-8.863 z"
       style="fill:#3b3b3b;fill-opacity:1;stroke:#d08c59;stroke-opacity:1;stroke-width:0.42112452;stroke-dasharray:none" />
    <path
       id="path2"
       d="m 48.58857,244.34649 -2.754,-0.711 0.696,-2.816"
       style="fill:none;stroke:#d08c59;stroke-width:0.85px;stroke-linejoin:miter;stroke-miterlimit:10" />
    <path
       id="path3"
       d="M 28.261,244.039 C 21.778,240.342 15.77,232.541 15.77,224.625 c 0,-11.733 9.509,-21.259 21.223,-21.259 11.712,0 21.221,9.526 21.221,21.259 0,7.602 -5.81,15.038 -11.889,18.829"
       style="fill:none;stroke:#d08c59;stroke-width:0.7px" />
    <path
       id="path4"
       d="m 25.345,241.992 -1.85,2.964 c -0.104,-0.068 -0.207,-0.136 -0.31,-0.205 l 1.891,-2.935 c 0.091,0.059 0.178,0.119 0.269,0.176 z m -6.304,-6.338 -2.872,1.935 c -0.07,-0.105 -0.135,-0.21 -0.204,-0.317 l 2.904,-1.89 c 0.054,0.091 0.112,0.182 0.172,0.272 z m -3.167,-8.407 -3.402,0.521 c -0.018,-0.124 -0.037,-0.249 -0.05,-0.374 l 3.406,-0.468 c 0.014,0.106 0.03,0.214 0.046,0.321 z m 0.603,-8.985 -3.3,-0.993 c 0.038,-0.121 0.072,-0.242 0.109,-0.362 l 3.285,1.045 c -0.033,0.103 -0.063,0.206 -0.094,0.31 z m 4.264,-7.884 -2.585,-2.32 c 0.082,-0.095 0.164,-0.19 0.246,-0.284 l 2.55,2.36 c -0.072,0.081 -0.14,0.162 -0.211,0.244 z m 7.098,-5.39 -1.434,-3.197 c 0.112,-0.052 0.224,-0.104 0.34,-0.153 l 1.382,3.216 c -0.095,0.044 -0.192,0.089 -0.288,0.134 z m 8.635,-1.98 -0.044,-3.514 c 0.123,-0.002 0.246,-0.003 0.369,-0.002 l -0.008,3.514 c -0.105,0 -0.213,0 -0.317,0.002 z m 8.699,1.725 1.335,-3.238 c 0.112,0.048 0.226,0.099 0.339,0.149 l -1.383,3.218 c -0.098,-0.043 -0.194,-0.087 -0.291,-0.129 z m 7.261,5.164 2.51,-2.405 c 0.084,0.092 0.166,0.184 0.248,0.276 l -2.543,2.367 c -0.07,-0.08 -0.141,-0.159 -0.215,-0.238 z m 4.551,7.732 3.257,-1.127 c 0.039,0.119 0.08,0.239 0.116,0.359 l -3.274,1.075 c -0.032,-0.103 -0.067,-0.205 -0.099,-0.307 z m 0.946,8.951 3.416,0.386 c -0.013,0.126 -0.026,0.252 -0.042,0.377 l -3.412,-0.441 c 0.011,-0.107 0.026,-0.213 0.038,-0.322 z m -2.843,8.522 2.939,1.827 c -0.064,0.109 -0.128,0.216 -0.195,0.323 l -2.91,-1.874 c 0.057,-0.091 0.11,-0.183 0.166,-0.276 z m -6.089,6.537 1.938,2.905 c -0.102,0.07 -0.205,0.14 -0.306,0.21 l -1.897,-2.933 c 0.089,-0.06 0.176,-0.12 0.265,-0.182 z"
       style="fill:#d08c59" />
    <path
       id="path26"
       d="m 93.363,157.163 -1.923,2.894 c -0.102,-0.071 -0.202,-0.141 -0.303,-0.213 l 1.964,-2.865 c 0.088,0.062 0.174,0.123 0.262,0.184 z m -6.874,-7.895 -3.042,1.61 c -0.056,-0.112 -0.111,-0.225 -0.167,-0.338 l 3.064,-1.56 c 0.048,0.098 0.097,0.193 0.145,0.288 z m -2.268,-10.27 -3.421,-0.126 c 0.005,-0.125 0.009,-0.251 0.017,-0.377 l 3.417,0.18 c -0.005,0.107 -0.011,0.215 -0.013,0.323 z m 2.965,-10.084 -2.92,-1.828 c 0.063,-0.108 0.13,-0.214 0.198,-0.32 l 2.89,1.874 c -0.057,0.091 -0.113,0.182 -0.168,0.274 z m 7.423,-7.342 -1.698,-3.035 c 0.105,-0.063 0.21,-0.125 0.318,-0.185 l 1.659,3.061 c -0.094,0.052 -0.187,0.105 -0.279,0.159 z m 9.965,-2.86 -0.097,-3.497 c 0.124,-0.003 0.247,-0.005 0.368,-0.008 l 0.047,3.499 c -0.104,10e-4 -0.21,0.004 -0.318,0.006 z m 10.128,2.241 1.513,-3.139 c 0.111,0.056 0.222,0.112 0.329,0.169 l -1.555,3.116 c -0.097,-0.049 -0.191,-0.098 -0.287,-0.146 z m 7.889,6.842 2.787,-2.03 c 0.073,0.101 0.142,0.203 0.211,0.307 l -2.817,1.988 c -0.058,-0.089 -0.12,-0.177 -0.181,-0.265 z m 3.697,9.839 3.402,-0.383 c 0.013,0.124 0.025,0.249 0.036,0.375 l -3.405,0.328 c -0.013,-0.106 -0.024,-0.213 -0.033,-0.32 z m -1.51,10.416 3.147,1.376 c -0.046,0.116 -0.096,0.231 -0.146,0.347 l -3.124,-1.427 c 0.041,-0.099 0.082,-0.197 0.123,-0.296 z m -6.323,8.333 2.101,2.765 c -0.098,0.077 -0.195,0.153 -0.293,0.228 l -2.061,-2.797 c 0.088,-0.065 0.169,-0.13 0.253,-0.196 z"
       style="fill:#d08c59" />
    <path
       id="path40"
       d="m 118.851,158.795 -2.255,-0.574 0.561,-2.304"
       style="fill:none;stroke:#d08c59;stroke-width:0.7px;stroke-linejoin:miter;stroke-miterlimit:10" />
    <path
       id="path41"
       d="m 92.933,157.325 c -5.231,-3.876 -8.627,-10.119 -8.627,-17.158 0,-11.746 9.459,-21.282 21.113,-21.282 11.653,0 21.114,9.536 21.114,21.282 0,6.054 -2.513,11.52 -6.545,15.398 -1.036,0.996 -2.172,1.888 -3.392,2.656"
       style="fill:none;stroke:#d08c59;stroke-width:0.7px" />
    <path
       id="path27"
       d="m 21.892,154.5 -2.41,2.536 c -0.091,-0.088 -0.178,-0.176 -0.265,-0.266 l 2.444,-2.502 c 0.079,0.079 0.153,0.155 0.231,0.232 z m -5.293,-8.47 -3.269,1.16 c -0.04,-0.12 -0.079,-0.24 -0.118,-0.36 l 3.286,-1.111 c 0.034,0.105 0.066,0.207 0.101,0.311 z m -0.927,-9.969 -3.423,-0.522 c 0.02,-0.124 0.039,-0.249 0.06,-0.375 l 3.414,0.575 c -0.018,0.106 -0.033,0.215 -0.051,0.322 z m 3.707,-9.269 -2.792,-2.083 c 0.071,-0.104 0.146,-0.205 0.219,-0.307 l 2.765,2.129 c -0.064,0.086 -0.128,0.173 -0.192,0.261 z m 7.501,-6.472 -1.559,-3.161 c 0.114,-0.057 0.223,-0.113 0.336,-0.167 l 1.508,3.183 c -0.097,0.046 -0.191,0.096 -0.285,0.145 z m 9.567,-2.334 -0.009,-3.537 c 0.125,0 0.247,0 0.373,0.003 l -0.042,3.536 c -0.107,-0.002 -0.216,-0.002 -0.322,-0.002 z m 9.605,2.254 1.514,-3.181 c 0.113,0.056 0.224,0.113 0.335,0.17 l -1.562,3.156 c -0.096,-0.049 -0.191,-0.097 -0.287,-0.145 z m 7.63,6.351 2.742,-2.156 c 0.075,0.101 0.15,0.202 0.224,0.304 l -2.774,2.113 c -0.065,-0.087 -0.126,-0.174 -0.192,-0.261 z m 4.026,9.159 3.401,-0.653 c 0.022,0.125 0.044,0.251 0.066,0.376 l -3.411,0.599 c -0.018,-0.108 -0.038,-0.216 -0.056,-0.322 z m -0.552,9.995 3.308,1.037 c -0.037,0.12 -0.073,0.242 -0.112,0.363 l -3.291,-1.088 c 0.032,-0.104 0.063,-0.208 0.095,-0.312 z m -5.028,8.592 2.461,2.489 c -0.09,0.09 -0.177,0.18 -0.266,0.268 l -2.419,-2.526 c 0.074,-0.076 0.15,-0.153 0.224,-0.231 z"
       style="fill:#d08c59" />
    <path
       id="path28"
       d="m 23.864,159.084 2.441,-0.735 -0.719,-2.494"
       style="fill:none;stroke:#d08c59;stroke-width:0.76px;stroke-linejoin:miter;stroke-miterlimit:10" />
    <path
       id="path29"
       d="m 50.697,158.529 -2.469,-0.632 0.619,-2.522"
       style="fill:none;stroke:#d08c59;stroke-width:0.76px;stroke-linejoin:miter;stroke-miterlimit:10" />
    <path
       id="path30"
       d="m 26.305,158.349 c -6.431,-3.686 -10.767,-10.628 -10.767,-18.576 0,-11.805 9.568,-21.389 21.353,-21.389 11.784,0 21.35,9.584 21.35,21.389 0,7.634 -4,14.337 -10.013,18.124"
       style="fill:none;stroke:#d08c59;stroke-width:0.76px" />
    <path
       id="path36"
       d="m 36.487609,118.91352 v -7.243"
       style="fill:none;stroke:#d08c59;stroke-width:1.16px" />
    <path
       id="path36-0"
       d="m 92.671981,157.1784 -4.050234,6.0047"
       style="clip-rule:evenodd;fill:none;fill-rule:evenodd;stroke:#d08c59;stroke-width:1.16px;stroke-linejoin:round;stroke-miterlimit:1.5" />
    <path
       id="path36-9"
       d="m 36.697521,202.79106 v -7.243"
       style="clip-rule:evenodd;fill:none;fill-rule:evenodd;stroke:#d08c59;stroke-width:1.16px;stroke-linejoin:round;stroke-miterlimit:1.5" />
    <path
       id="path22"
       d="m 47.635,102.89 -0.363,1.902 h 0.844 c 0.418,0 0.739,-0.1 0.962,-0.306 0.217,-0.2 0.329,-0.492 0.329,-0.87 0,-0.25 -0.077,-0.435 -0.232,-0.548 -0.153,-0.121 -0.397,-0.178 -0.718,-0.178 z m 0.404,-2.138 -0.3,1.568 h 0.831 c 0.342,0 0.612,-0.086 0.808,-0.257 0.196,-0.164 0.292,-0.4 0.292,-0.691 0,-0.221 -0.061,-0.379 -0.187,-0.471 -0.125,-0.099 -0.327,-0.149 -0.613,-0.149 z m -0.579,-0.577 h 1.508 c 0.459,0 0.807,0.093 1.045,0.277 0.237,0.186 0.355,0.457 0.355,0.812 0,0.357 -0.105,0.657 -0.312,0.898 -0.21,0.236 -0.489,0.378 -0.845,0.429 0.28,0.05 0.501,0.17 0.648,0.355 0.154,0.18 0.231,0.413 0.231,0.705 0,0.543 -0.182,0.962 -0.544,1.269 -0.364,0.299 -0.871,0.45 -1.534,0.45 h -1.541 z"
       style="fill:#ffffff;fill-rule:nonzero" />
    <path
       id="path32"
       d="m 51.771,100.175 h 2.823 l -0.11,0.591 h -1.068 l -0.76,4.012 h 1.068 l -0.113,0.592 h -2.823 l 0.11,-0.592 h 1.068 l 0.759,-4.012 h -1.066 z"
       style="fill:#ffffff;fill-rule:nonzero" />
    <path
       id="path33"
       d="m 57.295,100.759 -1.242,2.693 h 1.465 z m -0.329,-0.584 h 0.838 l 0.565,5.195 h -0.683 l -0.12,-1.355 h -1.77 l -0.629,1.355 h -0.739 z"
       style="fill:#ffffff;fill-rule:nonzero" />
    <path
       id="path34"
       d="m 62.895,100.352 -0.133,0.713 c -0.181,-0.136 -0.377,-0.242 -0.573,-0.306 -0.194,-0.071 -0.403,-0.107 -0.612,-0.107 -0.377,0 -0.676,0.093 -0.914,0.285 -0.237,0.192 -0.355,0.435 -0.355,0.727 0,0.164 0.055,0.299 0.166,0.399 0.112,0.1 0.316,0.199 0.607,0.293 l 0.413,0.135 c 0.368,0.114 0.642,0.27 0.808,0.463 0.175,0.199 0.258,0.441 0.258,0.741 0,0.548 -0.188,0.976 -0.565,1.297 -0.377,0.32 -0.893,0.478 -1.541,0.478 -0.237,0 -0.468,-0.029 -0.697,-0.079 -0.231,-0.05 -0.454,-0.129 -0.683,-0.236 l 0.139,-0.725 c 0.222,0.162 0.446,0.277 0.676,0.355 0.23,0.079 0.468,0.115 0.725,0.115 0.377,0 0.677,-0.1 0.915,-0.308 0.229,-0.206 0.348,-0.463 0.348,-0.776 0,-0.185 -0.049,-0.336 -0.147,-0.443 -0.105,-0.099 -0.306,-0.199 -0.606,-0.298 l -0.342,-0.114 c -0.419,-0.136 -0.712,-0.285 -0.879,-0.456 -0.168,-0.171 -0.251,-0.399 -0.251,-0.677 0,-0.513 0.188,-0.934 0.565,-1.261 0.369,-0.321 0.864,-0.486 1.465,-0.486 0.18,0 0.376,0.023 0.578,0.072 0.21,0.042 0.419,0.114 0.635,0.198 z"
       style="fill:#ffffff;fill-rule:nonzero" />
    <path
       id="path37"
       d="m 17.344,334.815 h 2.825 l -0.112,0.592 h -1.066 l -0.761,4.012 h 1.067 l -0.11,0.592 h -2.826 l 0.112,-0.592 h 1.066 l 0.761,-4.012 h -1.067 z"
       style="fill:#ffffff;fill-rule:nonzero" />
    <path
       id="path38"
       d="m 21.335,334.815 h 0.871 l 0.9,4.277 0.816,-4.277 h 0.663 l -0.991,5.196 h -0.871 l -0.9,-4.276 -0.815,4.276 h -0.663 z"
       style="fill:#ffffff;fill-rule:nonzero" />
    <path
       id="path35"
       d="m 81.596,102.821 c 0.161,0.028 0.293,0.107 0.391,0.228 0.104,0.128 0.209,0.391 0.334,0.805 l 0.411,1.418 H 82.05 l -0.363,-1.312 c -0.098,-0.363 -0.21,-0.599 -0.336,-0.712 -0.125,-0.114 -0.306,-0.17 -0.558,-0.17 h -0.656 l -0.417,2.194 h -0.69 l 0.984,-5.195 h 1.414 c 0.468,0 0.837,0.107 1.095,0.313 0.259,0.207 0.384,0.499 0.384,0.878 0,0.426 -0.118,0.777 -0.356,1.054 -0.23,0.278 -0.551,0.441 -0.955,0.499 z m -0.997,-2.167 -0.349,1.846 h 0.747 c 0.369,0 0.668,-0.1 0.885,-0.3 0.223,-0.198 0.335,-0.462 0.335,-0.79 0,-0.257 -0.069,-0.449 -0.217,-0.57 -0.14,-0.122 -0.369,-0.186 -0.676,-0.186 z"
       style="fill:#ffffff;fill-rule:nonzero" />
    <path
       id="path39"
       d="m 85.689,100.662 -1.241,2.692 h 1.465 z m -0.327,-0.585 h 0.837 l 0.564,5.195 H 86.08 l -0.118,-1.354 h -1.771 l -0.628,1.354 h -0.74 z"
       style="fill:#ffffff;fill-rule:nonzero" />
    <path
       id="path44"
       d="m 88.355,100.077 h 0.871 l 0.9,4.276 0.815,-4.276 h 0.663 l -0.99,5.195 h -0.871 l -0.9,-4.276 -0.817,4.276 h -0.662 z"
       style="fill:#ffffff;fill-rule:nonzero" />
    <path
       id="path45"
       d="m 94.882,104.937 c -0.196,0.143 -0.411,0.257 -0.648,0.328 -0.231,0.071 -0.482,0.107 -0.746,0.107 -0.53,0 -0.936,-0.158 -1.214,-0.47 -0.287,-0.307 -0.425,-0.757 -0.425,-1.334 0,-0.207 0.021,-0.427 0.056,-0.661 0.042,-0.236 0.089,-0.485 0.166,-0.743 0.077,-0.27 0.175,-0.519 0.28,-0.732 0.105,-0.222 0.222,-0.408 0.349,-0.563 0.244,-0.3 0.507,-0.529 0.808,-0.671 0.292,-0.142 0.628,-0.215 1.005,-0.215 0.18,0 0.363,0.023 0.543,0.073 0.182,0.049 0.357,0.12 0.53,0.213 l -0.139,0.719 c -0.146,-0.148 -0.3,-0.255 -0.461,-0.327 -0.166,-0.071 -0.341,-0.108 -0.523,-0.108 -0.222,0 -0.432,0.051 -0.627,0.144 -0.195,0.1 -0.37,0.242 -0.524,0.427 -0.098,0.121 -0.194,0.271 -0.277,0.449 -0.091,0.185 -0.168,0.385 -0.238,0.613 -0.078,0.264 -0.14,0.514 -0.175,0.741 -0.042,0.235 -0.063,0.441 -0.063,0.634 0,0.392 0.091,0.699 0.273,0.919 0.174,0.214 0.432,0.321 0.761,0.321 0.152,0 0.292,-0.022 0.418,-0.064 0.118,-0.043 0.223,-0.107 0.307,-0.185 l 0.258,-1.368 h -0.74 l 0.105,-0.576 h 1.394 z"
       style="fill:#ffffff;fill-rule:nonzero" />
    <path
       id="path46"
       d="m 96.953,100.077 h 3.013 l -0.111,0.592 h -2.329 l -0.293,1.539 h 2.224 l -0.112,0.591 h -2.224 l -0.357,1.881 h 2.393 l -0.111,0.592 h -3.083 z"
       style="fill:#ffffff;fill-rule:nonzero" />
    <path
       id="path47"
       d="m 118.75,102.093 c 0,-0.279 -0.048,-0.486 -0.139,-0.627 -0.091,-0.136 -0.223,-0.207 -0.411,-0.207 -0.132,0 -0.258,0.042 -0.37,0.12 -0.112,0.087 -0.21,0.206 -0.293,0.364 -0.048,0.093 -0.098,0.215 -0.146,0.364 -0.049,0.148 -0.098,0.328 -0.154,0.541 -0.063,0.271 -0.118,0.512 -0.146,0.747 -0.035,0.229 -0.056,0.435 -0.056,0.606 0,0.279 0.049,0.486 0.139,0.62 0.091,0.143 0.224,0.207 0.413,0.207 0.131,0 0.258,-0.042 0.368,-0.122 0.113,-0.085 0.211,-0.206 0.294,-0.362 0.055,-0.1 0.103,-0.229 0.153,-0.386 0.055,-0.148 0.104,-0.32 0.146,-0.513 0.063,-0.27 0.12,-0.512 0.154,-0.746 0.029,-0.229 0.048,-0.436 0.048,-0.606 z m -2.747,1.93 c 0,-0.464 0.055,-0.933 0.168,-1.41 0.111,-0.478 0.264,-0.891 0.459,-1.248 0.175,-0.328 0.404,-0.577 0.691,-0.748 0.278,-0.179 0.599,-0.264 0.955,-0.264 0.489,0 0.859,0.142 1.115,0.436 0.259,0.291 0.392,0.719 0.392,1.269 0,0.47 -0.056,0.94 -0.167,1.423 -0.113,0.477 -0.265,0.892 -0.454,1.241 -0.173,0.328 -0.412,0.577 -0.69,0.755 -0.287,0.179 -0.608,0.263 -0.961,0.263 -0.497,0 -0.867,-0.141 -1.125,-0.441 -0.257,-0.292 -0.383,-0.72 -0.383,-1.276 z"
       style="fill:#ffffff;fill-rule:nonzero" />
    <path
       id="path49"
       d="m 120.223,103.724 0.628,-3.278 h 1.003 l -0.676,3.534 c 0,0.006 0,0.014 -0.006,0.02 -0.012,0.108 -0.021,0.186 -0.021,0.235 0,0.193 0.056,0.343 0.153,0.443 0.104,0.107 0.258,0.156 0.448,0.156 0.243,0 0.439,-0.071 0.585,-0.213 0.146,-0.135 0.251,-0.357 0.306,-0.642 l 0.677,-3.534 h 1.003 l -0.627,3.278 c -0.084,0.42 -0.167,0.734 -0.258,0.947 -0.091,0.215 -0.208,0.393 -0.349,0.543 -0.173,0.171 -0.376,0.299 -0.613,0.392 -0.237,0.092 -0.495,0.134 -0.78,0.134 -0.496,0 -0.881,-0.113 -1.144,-0.341 -0.273,-0.229 -0.406,-0.556 -0.406,-0.983 0,-0.1 0.006,-0.207 0.02,-0.322 0.008,-0.114 0.028,-0.235 0.057,-0.37 z"
       style="fill:#ffffff;fill-rule:nonzero" />
    <path
       id="path50"
       d="m 126.297,105.641 h -1.004 l 0.815,-4.297 h -1.303 l 0.167,-0.898 h 3.605 l -0.174,0.898 h -1.289 z"
       style="fill:#ffffff;fill-rule:nonzero" />
    <path
       id="path51"
       d="m 110.501,52.483 v 1.496 h 1.464 v 0.828 h -1.464 v 1.503 h -0.809 v -1.503 h -1.472 v -0.828 h 1.472 v -1.496 z"
       style="fill:#ffffff;fill-rule:nonzero" />
    <path
       id="path53"
       d="m 108.739,81.401 h 3.613 l -0.145,0.942 h -3.613 z"
       style="fill:#ffffff;fill-rule:nonzero" />
    <path
       id="path55"
       d="m 113.491,216.098 2.51,-5.131 2.511,5.131 z"
       style="fill:#d08c59" />
    <path
       id="path61"
       d="M 116.001,317.058 V 215.074"
       style="fill:none;stroke:#d08c59;stroke-width:0.85px;stroke-linecap:round" />
    <path
       id="path56"
       d="m 70.351,214.623 2.511,-5.132 2.509,5.132 z"
       style="fill:#d08c59" />
    <path
       id="path57"
       d="m 72.862,220.78 v -7.184"
       style="fill:none;stroke:#d08c59;stroke-width:0.85px;stroke-linecap:round" />
    <path
       id="path58"
       d="m 31.179,185.368 -0.158,0.854 c -0.218,-0.161 -0.452,-0.29 -0.687,-0.367 -0.234,-0.085 -0.485,-0.129 -0.736,-0.129 -0.452,0 -0.812,0.112 -1.096,0.344 -0.285,0.23 -0.427,0.52 -0.427,0.87 0,0.197 0.068,0.36 0.2,0.479 0.134,0.12 0.378,0.24 0.728,0.352 l 0.494,0.162 c 0.445,0.137 0.771,0.325 0.972,0.556 0.208,0.239 0.308,0.53 0.308,0.889 0,0.659 -0.225,1.172 -0.677,1.557 -0.452,0.386 -1.071,0.574 -1.85,0.574 -0.284,0 -0.56,-0.035 -0.836,-0.094 -0.277,-0.061 -0.544,-0.155 -0.821,-0.284 l 0.168,-0.872 c 0.267,0.196 0.536,0.334 0.811,0.428 0.277,0.094 0.562,0.137 0.871,0.137 0.452,0 0.812,-0.12 1.096,-0.369 0.277,-0.247 0.419,-0.555 0.419,-0.931 0,-0.223 -0.059,-0.402 -0.176,-0.531 -0.126,-0.12 -0.369,-0.239 -0.729,-0.359 l -0.409,-0.137 c -0.501,-0.162 -0.854,-0.342 -1.055,-0.547 -0.2,-0.205 -0.301,-0.479 -0.301,-0.813 0,-0.616 0.227,-1.119 0.678,-1.514 0.443,-0.384 1.037,-0.581 1.758,-0.581 0.218,0 0.452,0.026 0.695,0.085 0.251,0.052 0.502,0.138 0.76,0.241 z"
       style="fill:#ffffff;fill-rule:nonzero" />
    <path
       id="path59"
       d="m 32.317,185.153 h 4.663 l -0.135,0.711 h -1.916 l -1.047,5.525 h -0.837 l 1.056,-5.525 h -1.917 z"
       style="fill:#ffffff;fill-rule:nonzero" />
    <path
       id="path66"
       d="m 37.975,185.153 h 3.616 l -0.134,0.711 h -2.795 l -0.352,1.846 h 2.671 l -0.136,0.711 h -2.669 l -0.427,2.257 h 2.872 l -0.134,0.711 h -3.699 z"
       style="fill:#ffffff;fill-rule:nonzero" />
    <path
       id="path67"
       d="m 43.699,185.846 -0.442,2.343 h 0.954 c 0.453,0 0.812,-0.137 1.08,-0.402 0.268,-0.265 0.401,-0.615 0.401,-1.06 0,-0.3 -0.083,-0.522 -0.25,-0.666 -0.176,-0.145 -0.436,-0.215 -0.787,-0.215 z m -0.693,-0.693 h 1.8 c 0.561,0 0.987,0.129 1.279,0.386 0.294,0.257 0.445,0.624 0.445,1.111 0,0.693 -0.219,1.24 -0.653,1.633 -0.435,0.402 -1.039,0.599 -1.799,0.599 h -0.956 l -0.476,2.507 h -0.828 z"
       style="fill:#ffffff;fill-rule:nonzero" />
    <path
       id="path68"
       d="m 27.818,168.829 -0.434,2.283 h 1.012 c 0.502,0 0.888,-0.12 1.154,-0.369 0.261,-0.238 0.394,-0.59 0.394,-1.043 0,-0.299 -0.091,-0.522 -0.276,-0.658 -0.184,-0.146 -0.476,-0.213 -0.863,-0.213 z m 0.487,-2.566 -0.36,1.881 h 0.996 c 0.41,0 0.736,-0.103 0.97,-0.308 0.234,-0.196 0.352,-0.479 0.352,-0.829 0,-0.265 -0.076,-0.454 -0.227,-0.564 -0.149,-0.12 -0.393,-0.18 -0.736,-0.18 z m -0.696,-0.693 h 1.808 c 0.552,0 0.971,0.112 1.256,0.334 0.284,0.222 0.426,0.548 0.426,0.975 0,0.426 -0.125,0.786 -0.376,1.077 -0.251,0.282 -0.587,0.452 -1.013,0.512 0.334,0.061 0.603,0.207 0.779,0.428 0.184,0.214 0.275,0.497 0.275,0.848 0,0.649 -0.217,1.154 -0.653,1.521 -0.434,0.36 -1.046,0.54 -1.841,0.54 h -1.849 z"
       style="fill:#ffffff;fill-rule:nonzero" />
    <path
       id="path70"
       d="m 32.782,165.57 h 3.388 l -0.133,0.71 h -1.281 l -0.912,4.815 h 1.28 l -0.133,0.71 h -3.389 l 0.134,-0.71 h 1.279 l 0.914,-4.815 h -1.282 z"
       style="fill:#ffffff;fill-rule:nonzero" />
    <path
       id="path71"
       d="m 39.41,166.272 -1.489,3.231 h 1.757 z m -0.394,-0.702 h 1.005 l 0.677,6.235 h -0.819 l -0.142,-1.626 h -2.126 l -0.754,1.626 H 35.97 Z"
       style="fill:#ffffff;fill-rule:nonzero" />
    <path
       id="path72"
       d="m 46.131,165.784 -0.159,0.855 c -0.218,-0.162 -0.453,-0.29 -0.686,-0.367 -0.235,-0.086 -0.485,-0.129 -0.737,-0.129 -0.451,0 -0.812,0.111 -1.097,0.343 -0.284,0.23 -0.425,0.521 -0.425,0.871 0,0.197 0.066,0.358 0.2,0.479 0.134,0.12 0.377,0.239 0.727,0.35 l 0.494,0.163 c 0.444,0.136 0.771,0.325 0.972,0.555 0.208,0.241 0.309,0.532 0.309,0.891 0,0.658 -0.226,1.171 -0.678,1.556 -0.452,0.385 -1.071,0.573 -1.85,0.573 -0.284,0 -0.56,-0.034 -0.836,-0.094 -0.277,-0.059 -0.544,-0.153 -0.82,-0.282 l 0.168,-0.873 c 0.266,0.197 0.535,0.334 0.811,0.429 0.276,0.094 0.56,0.136 0.871,0.136 0.451,0 0.811,-0.119 1.095,-0.368 0.277,-0.247 0.419,-0.556 0.419,-0.931 0,-0.223 -0.058,-0.403 -0.176,-0.531 -0.125,-0.12 -0.368,-0.239 -0.728,-0.359 l -0.409,-0.138 c -0.503,-0.161 -0.854,-0.342 -1.055,-0.548 -0.201,-0.204 -0.302,-0.478 -0.302,-0.811 0,-0.615 0.226,-1.12 0.678,-1.514 0.444,-0.384 1.037,-0.581 1.758,-0.581 0.217,0 0.451,0.026 0.695,0.085 0.25,0.052 0.501,0.138 0.761,0.24 z"
       style="fill:#ffffff;fill-rule:nonzero" />
    <path
       id="path73"
       d="m 96.109,168.862 c 0.192,0.034 0.351,0.128 0.468,0.274 0.126,0.154 0.251,0.47 0.402,0.966 l 0.493,1.703 h -0.819 l -0.436,-1.574 c -0.116,-0.436 -0.251,-0.719 -0.401,-0.856 -0.151,-0.136 -0.368,-0.205 -0.67,-0.205 h -0.787 l -0.502,2.635 h -0.828 l 1.18,-6.235 h 1.699 c 0.561,0 1.003,0.128 1.314,0.376 0.31,0.249 0.461,0.599 0.461,1.052 0,0.513 -0.143,0.932 -0.428,1.265 -0.276,0.334 -0.661,0.531 -1.146,0.599 z m -1.196,-2.599 -0.42,2.214 h 0.896 c 0.443,0 0.803,-0.119 1.063,-0.359 0.268,-0.239 0.401,-0.555 0.401,-0.948 0,-0.308 -0.084,-0.54 -0.259,-0.684 -0.168,-0.146 -0.444,-0.223 -0.812,-0.223 z"
       style="fill:#ffffff;fill-rule:nonzero" />
    <path
       id="path75"
       d="m 101.021,166.272 -1.49,3.231 h 1.758 z m -0.393,-0.702 h 1.004 l 0.677,6.235 h -0.82 l -0.142,-1.626 h -2.126 l -0.752,1.626 h -0.888 z"
       style="fill:#ffffff;fill-rule:nonzero" />
    <path
       id="path76"
       d="m 104.218,165.57 h 1.046 l 1.08,5.131 0.979,-5.131 h 0.795 l -1.188,6.235 h -1.046 l -1.08,-5.131 -0.978,5.131 h -0.797 z"
       style="fill:#ffffff;fill-rule:nonzero" />
    <path
       id="path77"
       d="m 112.052,171.403 c -0.234,0.171 -0.494,0.308 -0.778,0.394 -0.275,0.084 -0.577,0.127 -0.895,0.127 -0.637,0 -1.123,-0.188 -1.457,-0.565 -0.342,-0.367 -0.51,-0.906 -0.51,-1.599 0,-0.248 0.025,-0.512 0.067,-0.796 0.05,-0.282 0.109,-0.582 0.201,-0.889 0.091,-0.325 0.209,-0.624 0.334,-0.882 0.126,-0.263 0.267,-0.486 0.418,-0.674 0.294,-0.359 0.612,-0.632 0.972,-0.804 0.352,-0.171 0.752,-0.256 1.205,-0.256 0.217,0 0.434,0.026 0.652,0.085 0.218,0.061 0.428,0.146 0.636,0.258 l -0.167,0.863 c -0.176,-0.179 -0.36,-0.308 -0.551,-0.393 -0.202,-0.086 -0.411,-0.129 -0.629,-0.129 -0.267,0 -0.518,0.06 -0.752,0.171 -0.236,0.12 -0.444,0.29 -0.629,0.513 -0.116,0.146 -0.235,0.325 -0.334,0.539 -0.109,0.222 -0.201,0.461 -0.285,0.735 -0.092,0.316 -0.168,0.616 -0.21,0.889 -0.05,0.283 -0.075,0.531 -0.075,0.761 0,0.471 0.11,0.839 0.327,1.104 0.21,0.257 0.519,0.385 0.912,0.385 0.184,0 0.351,-0.025 0.502,-0.077 0.142,-0.051 0.268,-0.128 0.369,-0.223 l 0.309,-1.641 h -0.886 l 0.125,-0.693 h 1.674 z"
       style="fill:#ffffff;fill-rule:nonzero" />
    <path
       id="path78"
       d="m 114.538,165.57 h 3.615 l -0.134,0.71 h -2.796 l -0.351,1.847 h 2.67 l -0.133,0.71 h -2.671 l -0.426,2.258 h 2.87 l -0.134,0.71 h -3.699 z"
       style="fill:#ffffff;fill-rule:nonzero" />
    <path
       id="path79"
       d="m 17.113,100.081 h 2.824 l -0.111,0.591 h -1.068 l -0.759,4.012 h 1.066 l -0.111,0.592 H 16.13 l 0.111,-0.592 h 1.068 l 0.759,-4.012 h -1.066 z"
       style="fill:#ffffff;fill-rule:nonzero" />
    <path
       id="path81"
       d="m 21.103,100.081 h 0.872 l 0.899,4.275 0.816,-4.275 h 0.663 l -0.99,5.195 h -0.871 l -0.9,-4.277 -0.817,4.277 h -0.662 z"
       style="fill:#ffffff;fill-rule:nonzero" />
    <path
       id="path83"
       d="m 8.787,287.039 h 2.824 l -0.111,0.592 h -1.066 l -0.761,4.012 h 1.068 l -0.112,0.592 H 7.804 l 0.112,-0.592 h 1.067 l 0.759,-4.012 H 8.676 Z"
       style="fill:#ffffff;fill-rule:nonzero" />
    <path
       id="path84"
       d="m 12.777,287.039 h 0.872 l 0.9,4.276 0.816,-4.276 h 0.663 l -0.99,5.196 h -0.874 l -0.898,-4.275 -0.817,4.275 h -0.662 z"
       style="fill:#ffffff;fill-rule:nonzero" />
    <path
       id="path85"
       d="m 17.743,291.572 2.037,-4.533 h 0.731 l -2.448,5.196 h -0.879 l -0.501,-5.196 h 0.676 z"
       style="fill:#ffffff;fill-rule:nonzero" />
    <path
       id="path86"
       d="m 21.377,287.039 h 3.012 l -0.111,0.592 h -2.329 l -0.294,1.539 h 2.226 l -0.112,0.591 h -2.224 l -0.357,1.882 h 2.392 l -0.111,0.592 h -3.083 z"
       style="fill:#ffffff;fill-rule:nonzero" />
    <path
       id="path87"
       d="m 27.011,289.783 c 0.161,0.031 0.294,0.106 0.392,0.228 0.104,0.129 0.208,0.392 0.333,0.806 l 0.413,1.418 h -0.683 l -0.364,-1.311 c -0.098,-0.365 -0.209,-0.599 -0.334,-0.713 -0.126,-0.114 -0.308,-0.171 -0.558,-0.171 h -0.656 l -0.418,2.195 h -0.69 l 0.983,-5.196 h 1.415 c 0.468,0 0.836,0.107 1.095,0.315 0.258,0.206 0.383,0.498 0.383,0.876 0,0.428 -0.118,0.776 -0.355,1.054 -0.231,0.278 -0.551,0.442 -0.956,0.499 z m -0.996,-2.167 -0.349,1.845 h 0.746 c 0.37,0 0.668,-0.1 0.886,-0.299 0.223,-0.199 0.334,-0.463 0.334,-0.79 0,-0.258 -0.068,-0.448 -0.216,-0.57 -0.14,-0.123 -0.37,-0.186 -0.676,-0.186 z"
       style="fill:#ffffff;fill-rule:nonzero" />
    <path
       id="path88"
       d="m 29.258,287.039 h 3.884 l -0.111,0.592 h -1.597 l -0.872,4.604 h -0.697 l 0.879,-4.604 h -1.597 z"
       style="fill:#ffffff;fill-rule:nonzero" />
    <path
       id="path89"
       d="m 15.712,294.345 -0.131,0.713 c -0.182,-0.136 -0.377,-0.243 -0.572,-0.307 -0.196,-0.072 -0.406,-0.106 -0.614,-0.106 -0.377,0 -0.677,0.091 -0.914,0.284 -0.236,0.193 -0.356,0.434 -0.356,0.727 0,0.165 0.056,0.299 0.168,0.399 0.112,0.1 0.314,0.199 0.607,0.292 l 0.412,0.135 c 0.369,0.115 0.641,0.272 0.808,0.464 0.174,0.199 0.258,0.442 0.258,0.741 0,0.549 -0.188,0.976 -0.565,1.297 -0.376,0.321 -0.893,0.477 -1.542,0.477 -0.236,0 -0.466,-0.03 -0.695,-0.077 -0.231,-0.051 -0.455,-0.129 -0.685,-0.235 l 0.14,-0.728 c 0.223,0.165 0.447,0.28 0.676,0.358 0.23,0.076 0.467,0.113 0.725,0.113 0.378,0 0.677,-0.099 0.915,-0.306 0.229,-0.207 0.348,-0.464 0.348,-0.777 0,-0.186 -0.049,-0.335 -0.146,-0.442 -0.104,-0.1 -0.308,-0.2 -0.608,-0.3 L 13.6,296.954 c -0.419,-0.136 -0.712,-0.286 -0.879,-0.457 -0.167,-0.17 -0.251,-0.399 -0.251,-0.676 0,-0.515 0.189,-0.935 0.565,-1.262 0.37,-0.321 0.865,-0.486 1.464,-0.486 0.182,0 0.378,0.02 0.579,0.072 0.21,0.042 0.419,0.114 0.634,0.2 z"
       style="fill:#ffffff;fill-rule:nonzero" />
    <path
       id="path90"
       d="m 16.662,294.166 h 3.883 l -0.111,0.592 h -1.597 l -0.871,4.604 h -0.698 l 0.879,-4.604 H 16.55 Z"
       style="fill:#ffffff;fill-rule:nonzero" />
    <path
       id="path91"
       d="m 21.377,294.166 h 3.012 l -0.111,0.592 h -2.329 l -0.294,1.539 h 2.226 l -0.112,0.592 h -2.224 l -0.357,1.882 h 2.392 l -0.111,0.591 h -3.083 z"
       style="fill:#ffffff;fill-rule:nonzero" />
    <path
       id="path92"
       d="m 26.147,294.744 -0.37,1.952 h 0.796 c 0.376,0 0.675,-0.114 0.899,-0.335 0.223,-0.221 0.335,-0.514 0.335,-0.883 0,-0.249 -0.071,-0.434 -0.21,-0.556 -0.146,-0.123 -0.362,-0.178 -0.655,-0.178 z m -0.579,-0.578 h 1.5 c 0.467,0 0.823,0.108 1.067,0.321 0.244,0.212 0.369,0.52 0.369,0.926 0,0.577 -0.182,1.032 -0.543,1.361 -0.364,0.335 -0.866,0.499 -1.501,0.499 h -0.794 l -0.398,2.089 h -0.69 z"
       style="fill:#ffffff;fill-rule:nonzero" />
    <path
       id="path82"
       d="m 69.421,222.504 h 2.825 l -0.111,0.592 h -1.068 l -0.76,4.012 h 1.067 l -0.112,0.591 h -2.824 l 0.112,-0.591 h 1.067 l 0.759,-4.012 h -1.067 z"
       style="fill:#ffffff;fill-rule:nonzero" />
    <path
       id="path93"
       d="m 73.411,222.504 h 0.872 l 0.9,4.275 0.815,-4.275 h 0.663 l -0.99,5.195 h -0.872 l -0.9,-4.277 -0.816,4.277 H 72.42 Z"
       style="fill:#ffffff;fill-rule:nonzero" />
    <path
       id="path97"
       d="m 45.342,334.815 h 3.884 l -0.112,0.592 h -1.596 l -0.872,4.604 h -0.697 l 0.878,-4.604 H 45.23 Z"
       style="fill:#ffffff;fill-rule:nonzero" />
    <path
       id="path98"
       d="m 51.492,337.56 c 0.161,0.024 0.294,0.106 0.391,0.227 0.105,0.128 0.209,0.392 0.335,0.806 l 0.41,1.417 h -0.681 l -0.363,-1.309 c -0.099,-0.365 -0.209,-0.599 -0.336,-0.714 -0.124,-0.114 -0.306,-0.171 -0.557,-0.171 h -0.656 l -0.418,2.195 h -0.69 l 0.983,-5.196 h 1.416 c 0.467,0 0.836,0.107 1.095,0.314 0.257,0.207 0.383,0.499 0.383,0.876 0,0.428 -0.119,0.777 -0.355,1.055 -0.231,0.278 -0.552,0.443 -0.957,0.5 z m -0.997,-2.168 -0.347,1.846 h 0.745 c 0.37,0 0.669,-0.1 0.886,-0.299 0.223,-0.2 0.335,-0.464 0.335,-0.791 0,-0.257 -0.071,-0.449 -0.217,-0.57 -0.139,-0.122 -0.369,-0.186 -0.676,-0.186 z"
       style="fill:#ffffff;fill-rule:nonzero" />
    <path
       id="path99"
       d="m 54.262,334.815 h 2.825 l -0.112,0.592 h -1.067 l -0.76,4.012 h 1.066 l -0.11,0.592 h -2.826 l 0.112,-0.592 h 1.067 l 0.761,-4.012 h -1.067 z"
       style="fill:#ffffff;fill-rule:nonzero" />
    <path
       id="path100"
       d="m 60.58,339.677 c -0.195,0.142 -0.411,0.255 -0.648,0.326 -0.229,0.072 -0.481,0.108 -0.747,0.108 -0.529,0 -0.934,-0.156 -1.212,-0.47 -0.286,-0.306 -0.426,-0.756 -0.426,-1.333 0,-0.206 0.021,-0.428 0.056,-0.664 0.042,-0.234 0.09,-0.484 0.167,-0.74 0.077,-0.271 0.175,-0.521 0.278,-0.735 0.105,-0.22 0.224,-0.406 0.35,-0.563 0.243,-0.299 0.509,-0.527 0.809,-0.669 0.292,-0.144 0.627,-0.215 1.005,-0.215 0.18,0 0.361,0.023 0.544,0.071 0.181,0.051 0.354,0.122 0.53,0.215 l -0.14,0.72 c -0.147,-0.15 -0.3,-0.258 -0.46,-0.328 -0.169,-0.072 -0.342,-0.107 -0.523,-0.107 -0.224,0 -0.433,0.051 -0.629,0.143 -0.195,0.1 -0.369,0.242 -0.522,0.426 -0.098,0.123 -0.195,0.273 -0.279,0.45 -0.092,0.185 -0.167,0.385 -0.237,0.614 -0.076,0.263 -0.14,0.512 -0.174,0.74 -0.043,0.236 -0.063,0.443 -0.063,0.635 0,0.392 0.089,0.699 0.272,0.919 0.173,0.213 0.432,0.321 0.759,0.321 0.154,0 0.293,-0.023 0.42,-0.064 0.116,-0.044 0.222,-0.107 0.306,-0.185 l 0.258,-1.37 h -0.74 l 0.106,-0.576 h 1.394 z"
       style="fill:#ffffff;fill-rule:nonzero" />
    <path
       id="path101"
       d="m 62.937,338.608 h 1.201 l -0.273,1.403 h -1.198 z"
       style="fill:#ffffff;fill-rule:nonzero" />
    <path
       id="path103"
       d="m 81.419,337.56 c 0.161,0.024 0.294,0.106 0.392,0.227 0.102,0.128 0.207,0.392 0.334,0.806 l 0.41,1.417 h -0.684 l -0.362,-1.309 c -0.097,-0.365 -0.209,-0.599 -0.335,-0.714 -0.125,-0.114 -0.306,-0.171 -0.557,-0.171 h -0.656 l -0.418,2.195 h -0.691 l 0.984,-5.196 h 1.416 c 0.467,0 0.836,0.107 1.095,0.314 0.257,0.207 0.383,0.499 0.383,0.876 0,0.428 -0.119,0.777 -0.355,1.055 -0.23,0.278 -0.552,0.443 -0.956,0.5 z m -0.997,-2.168 -0.349,1.846 h 0.746 c 0.37,0 0.67,-0.1 0.886,-0.299 0.222,-0.2 0.335,-0.464 0.335,-0.791 0,-0.257 -0.071,-0.449 -0.217,-0.57 -0.139,-0.122 -0.369,-0.186 -0.676,-0.186 z"
       style="fill:#ffffff;fill-rule:nonzero" />
    <path
       id="path104"
       d="m 84.181,334.815 h 3.011 l -0.11,0.592 h -2.329 l -0.294,1.539 h 2.225 l -0.11,0.592 h -2.226 l -0.356,1.881 h 2.393 l -0.113,0.592 H 83.19 Z"
       style="fill:#ffffff;fill-rule:nonzero" />
    <path
       id="path105"
       d="m 91.114,334.993 -0.132,0.713 c -0.183,-0.136 -0.378,-0.243 -0.573,-0.307 -0.196,-0.071 -0.404,-0.107 -0.613,-0.107 -0.377,0 -0.678,0.093 -0.914,0.287 -0.237,0.191 -0.356,0.434 -0.356,0.726 0,0.164 0.056,0.299 0.168,0.399 0.111,0.1 0.314,0.2 0.607,0.292 l 0.41,0.136 c 0.371,0.115 0.642,0.271 0.81,0.463 0.174,0.2 0.258,0.442 0.258,0.741 0,0.549 -0.189,0.978 -0.566,1.297 -0.375,0.322 -0.892,0.478 -1.541,0.478 -0.237,0 -0.466,-0.026 -0.698,-0.079 -0.229,-0.049 -0.452,-0.127 -0.683,-0.234 l 0.14,-0.727 c 0.223,0.165 0.446,0.278 0.677,0.356 0.23,0.079 0.466,0.114 0.725,0.114 0.376,0 0.677,-0.1 0.914,-0.306 0.23,-0.207 0.348,-0.464 0.348,-0.777 0,-0.185 -0.049,-0.334 -0.147,-0.441 -0.103,-0.1 -0.306,-0.2 -0.605,-0.3 L 89,337.602 c -0.418,-0.135 -0.71,-0.285 -0.878,-0.456 -0.167,-0.171 -0.251,-0.399 -0.251,-0.678 0,-0.511 0.188,-0.932 0.564,-1.26 0.37,-0.321 0.866,-0.485 1.465,-0.485 0.182,0 0.376,0.022 0.579,0.071 0.209,0.044 0.418,0.115 0.635,0.2 z"
       style="fill:#ffffff;fill-rule:nonzero" />
    <path
       id="path106"
       d="m 92.577,334.815 h 3.013 l -0.11,0.592 h -2.33 l -0.293,1.539 h 2.225 l -0.112,0.592 h -2.225 l -0.355,1.881 h 2.391 l -0.11,0.592 h -3.084 z"
       style="fill:#ffffff;fill-rule:nonzero" />
    <path
       id="path107"
       d="m 96.259,334.815 h 3.887 l -0.113,0.592 h -1.596 l -0.873,4.604 h -0.697 l 0.879,-4.604 h -1.597 z"
       style="fill:#ffffff;fill-rule:nonzero" />
    <path
       id="path96"
       d="M 15.974,178.538 H 128.318"
       style="fill:none;stroke:#d08c59;stroke-width:0.85px;stroke-linecap:round" />
    <path
       id="path102"
       d="m 104.017,198.173 -2.505,5.135 -2.515,-5.129 z"
       style="fill:#d08c59" />
    <ellipse
       id="ellipse108"
       cx="87.325996"
       cy="205.99001"
       rx="1.772"
       ry="1.812"
       style="fill:#d08c59" />
    <ellipse
       id="ellipse109"
       cx="73.112999"
       cy="205.99001"
       rx="1.772"
       ry="1.812"
       style="fill:#d08c59" />
    <ellipse
       id="ellipse110"
       cx="101.54"
       cy="205.99001"
       rx="1.772"
       ry="1.812"
       style="fill:#d08c59" />
    <ellipse
       id="ellipse111"
       cx="115.755"
       cy="205.99001"
       rx="1.772"
       ry="1.812"
       style="fill:#d08c59" />
    <path
       id="path112"
       d="m 89.531,198.192 -2.443,5.165 -2.578,-5.097 z"
       style="fill:#d08c59" />
    <path
       id="path113"
       d="m 55.604,187.729 c 0.314,0.331 14.417,0 21.095,0 8.576,0 10.075,3.79 10.335,10.525"
       style="fill:none;stroke:#d08c59;stroke-width:0.85px" />
    <path
       id="path114"
       d="m 131.53646,213.82283 -2.546,5.112 -2.00913,-4.17898 -0.46587,-0.96902 z"
       style="fill:#d08c59"
       sodipodi:nodetypes="ccccc" />
    <path
       id="path115"
       d="m 73.149055,205.76912 h 47.428515 c 8.25705,0 8.58701,5.31999 8.43803,9.27447 -0.021,0.59951 -0.04,1.52436 -0.055,2.7188"
       style="fill:none;stroke:#d08c59;stroke-width:0.742775px" />
    <path
       id="path120"
       d="m 131.601,301.446 -2.487,5.143 -2.534,-5.118 z"
       style="fill:#d08c59" />
    <path
       id="path121"
       d="m 129.00194,220.49594 c -0.086,18.2 0.072,68.405 0.13,80.986"
       style="fill:none;stroke:#d08c59;stroke-width:0.85px" />
    <path
       id="path122"
       d="m 6.196,93.03 5.426,-1.468 -2.106,5.317 z"
       style="fill:#d08c59" />
    <path
       id="path123"
       d="m 135.00972,315.70972 v 17.67824 c 0,0 1.90399,11.20663 -14.62394,11.20663 H 19.804219 c 0,0 -14.1999381,1.86277 -14.1999381,-12.4014 V 100.5464 c 0,0 0.9589959,-3.500196 3.004987,-6.270307"
       style="fill:none;stroke:#d08c59;stroke-width:0.85063px" />
    <g
       id="g124"
       style="fill:#3b3b3b;fill-opacity:1;stroke:#d08c59;stroke-opacity:1;stroke-width:0.42112452;stroke-dasharray:none">
      <path
         id="path124"
         d="m 137.481,313.676 c 0,-3.771 -3.001,-6.833 -6.698,-6.833 H 119.73 c -3.696,0 -6.698,3.062 -6.698,6.833 v 24.265 c 0,3.771 3.002,6.832 6.698,6.832 h 11.053 c 3.697,0 6.698,-3.061 6.698,-6.832 z"
         style="fill:#3b3b3b;fill-opacity:1;stroke:#d08c59;stroke-opacity:1;stroke-width:0.42112452;stroke-dasharray:none" />
    </g>
    <path
       id="path125"
       d="m 121.847,337.064 c 0,-0.277 -0.048,-0.484 -0.139,-0.627 -0.091,-0.135 -0.223,-0.206 -0.411,-0.206 -0.133,0 -0.258,0.042 -0.371,0.121 -0.111,0.085 -0.209,0.206 -0.293,0.364 -0.048,0.092 -0.096,0.214 -0.145,0.362 -0.048,0.151 -0.098,0.329 -0.154,0.543 -0.062,0.271 -0.118,0.513 -0.146,0.748 -0.035,0.229 -0.056,0.435 -0.056,0.606 0,0.278 0.049,0.484 0.14,0.62 0.091,0.143 0.223,0.207 0.411,0.207 0.132,0 0.259,-0.043 0.37,-0.121 0.112,-0.086 0.209,-0.207 0.293,-0.364 0.056,-0.1 0.104,-0.228 0.154,-0.385 0.055,-0.15 0.104,-0.32 0.146,-0.513 0.062,-0.271 0.117,-0.513 0.153,-0.749 0.028,-0.228 0.048,-0.434 0.048,-0.606 z m -2.747,1.933 c 0,-0.464 0.055,-0.934 0.168,-1.412 0.11,-0.478 0.264,-0.891 0.46,-1.247 0.174,-0.328 0.403,-0.578 0.691,-0.749 0.277,-0.178 0.598,-0.264 0.954,-0.264 0.488,0 0.858,0.143 1.116,0.436 0.258,0.292 0.392,0.719 0.392,1.268 0,0.471 -0.057,0.941 -0.168,1.425 -0.113,0.478 -0.266,0.892 -0.454,1.241 -0.174,0.327 -0.412,0.577 -0.69,0.755 -0.287,0.177 -0.607,0.263 -0.963,0.263 -0.495,0 -0.865,-0.143 -1.123,-0.441 -0.257,-0.292 -0.383,-0.72 -0.383,-1.275 z"
       style="fill:#ffffff;fill-rule:nonzero" />
    <path
       id="path126"
       d="m 123.32,338.698 0.628,-3.28 h 1.004 l -0.677,3.535 c 0,0.006 0,0.014 -0.006,0.023 -0.013,0.107 -0.022,0.185 -0.022,0.235 0,0.192 0.056,0.342 0.154,0.442 0.105,0.107 0.259,0.157 0.447,0.157 0.244,0 0.439,-0.071 0.586,-0.215 0.146,-0.135 0.251,-0.355 0.307,-0.641 l 0.676,-3.535 h 1.004 l -0.628,3.279 c -0.084,0.42 -0.167,0.733 -0.259,0.948 -0.09,0.213 -0.207,0.392 -0.348,0.54 -0.174,0.171 -0.376,0.3 -0.613,0.392 -0.236,0.092 -0.495,0.136 -0.782,0.136 -0.495,0 -0.878,-0.115 -1.144,-0.342 -0.27,-0.229 -0.404,-0.555 -0.404,-0.984 0,-0.099 0.006,-0.206 0.02,-0.32 0.009,-0.114 0.028,-0.235 0.056,-0.37 z"
       style="fill:#ffffff;fill-rule:nonzero" />
    <path
       id="path127"
       d="m 129.395,340.613 h -1.005 l 0.815,-4.296 h -1.303 l 0.167,-0.899 h 3.606 l -0.175,0.899 h -1.29 z"
       style="fill:#ffffff;fill-rule:nonzero" />
    <path
       id="path128"
       d="m 65.011,354.825 c 0.168,0.356 0.223,0.713 0.164,1.073 h -1.177 c -0.018,-0.276 -0.072,-0.484 -0.164,-0.624 -0.161,-0.25 -0.452,-0.375 -0.872,-0.375 -0.428,0 -0.803,0.176 -1.123,0.529 -0.321,0.352 -0.548,0.85 -0.682,1.495 -0.135,0.645 -0.106,1.127 0.089,1.449 0.194,0.321 0.492,0.481 0.894,0.481 0.413,0 0.757,-0.138 1.032,-0.414 0.151,-0.147 0.296,-0.37 0.436,-0.666 h 1.166 c -0.232,0.627 -0.599,1.136 -1.099,1.529 -0.501,0.391 -1.079,0.588 -1.734,0.588 -0.81,0 -1.392,-0.265 -1.746,-0.795 -0.352,-0.533 -0.43,-1.263 -0.237,-2.192 0.208,-1.003 0.633,-1.777 1.273,-2.32 0.558,-0.473 1.191,-0.71 1.899,-0.71 0.948,0 1.574,0.318 1.881,0.952 z"
       style="fill:#ffffff;fill-rule:nonzero" />
    <path
       id="path129"
       d="m 67.617,358.347 2.145,-4.364 h 1.223 l -3.119,5.746 h -1.112 l -0.708,-5.746 h 1.259 z"
       style="fill:#ffffff;fill-rule:nonzero" />
    <path
       id="path130"
       d="m 75.43,355.519 -0.165,0.784 h -0.713 l -0.712,3.426 h -1.085 l 0.712,-3.426 h -0.609 l 0.164,-0.784 h 0.597 l 0.056,-0.273 c 0.096,-0.455 0.236,-0.768 0.421,-0.94 0.212,-0.254 0.619,-0.382 1.223,-0.382 0.069,0 0.131,0.002 0.186,0.006 0.055,0.004 0.131,0.01 0.228,0.017 l -0.191,0.906 c -0.059,-0.008 -0.16,-0.014 -0.302,-0.018 -0.143,-0.004 -0.25,0.028 -0.32,0.097 -0.07,0.069 -0.112,0.145 -0.128,0.228 -0.018,0.084 -0.043,0.203 -0.077,0.359 z"
       style="fill:#ffffff;fill-rule:nonzero" />
    <path
       id="path131"
       d="m 77.976,359.13 c -0.012,0.013 -0.046,0.052 -0.1,0.117 -0.053,0.065 -0.113,0.121 -0.179,0.171 -0.204,0.156 -0.392,0.262 -0.564,0.319 -0.171,0.057 -0.364,0.086 -0.579,0.086 -0.616,0 -0.985,-0.225 -1.104,-0.678 -0.067,-0.249 -0.049,-0.617 0.053,-1.103 l 0.532,-2.562 h 1.115 l -0.531,2.562 c -0.051,0.242 -0.061,0.423 -0.031,0.546 0.054,0.216 0.226,0.324 0.516,0.324 0.372,0 0.659,-0.154 0.861,-0.461 0.107,-0.166 0.189,-0.386 0.245,-0.658 l 0.481,-2.313 h 1.104 l -0.883,4.249 h -1.058 z"
       style="fill:#ffffff;fill-rule:nonzero" />
    <path
       id="path132"
       d="m 83.159,357.146 c 0.048,-0.224 0.055,-0.396 0.019,-0.515 -0.061,-0.219 -0.241,-0.328 -0.542,-0.328 -0.37,0 -0.657,0.16 -0.86,0.479 -0.108,0.17 -0.188,0.386 -0.241,0.648 l -0.478,2.299 h -1.085 l 0.882,-4.242 h 1.052 l -0.13,0.62 c 0.185,-0.217 0.351,-0.375 0.497,-0.471 0.259,-0.172 0.562,-0.257 0.905,-0.257 0.431,0 0.759,0.114 0.985,0.345 0.225,0.23 0.283,0.611 0.173,1.144 l -0.596,2.861 h -1.116 z"
       style="fill:#ffffff;fill-rule:nonzero" />
    <path
       id="path133"
       d="m 86.079,358.394 -0.274,1.335 h -1.071 l 1.193,-5.727 h 1.07 l -0.647,3.097 1.69,-1.6 h 1.35 l -1.797,1.627 0.974,2.603 h -1.315 l -0.618,-1.816 z"
       style="fill:#ffffff;fill-rule:nonzero" />
    <path
       id="path134"
       d="M 38.954,356.882 H 57.546"
       style="fill:none;stroke:#d08c59;stroke-width:0.64px;stroke-linecap:round" />
    <path
       id="path135"
       d="m 90.361,356.882 h 18.592"
       style="fill:none;stroke:#d08c59;stroke-width:0.64px;stroke-linecap:round" />
    <path
       style="font-style:italic;font-size:15.8467px;font-family:Menlo;-inkscape-font-specification:'Menlo Italic';fill:#ffffff;stroke-width:0.988239"
       d="m 56.705513,11.12505 -0.301768,1.586217 q -0.626749,-0.456521 -1.299925,-0.68865 -0.673175,-0.23213 -1.392776,-0.23213 -1.276712,0 -2.081427,0.634487 -0.804715,0.634487 -0.804715,1.617168 0,0.549373 0.379145,0.88983 0.379144,0.340456 1.377301,0.649962 l 0.936255,0.301768 q 1.261236,0.386883 1.84156,1.036845 0.588061,0.642225 0.588061,1.640381 0,1.818347 -1.284449,2.886142 -1.28445,1.060058 -3.505154,1.060058 -0.804715,0 -1.586218,-0.177966 -0.773764,-0.170229 -1.547529,-0.518423 l 0.317244,-1.617168 q 0.758289,0.533898 1.532054,0.78924 0.781502,0.255343 1.648118,0.255343 1.276712,0 2.073689,-0.680913 0.796978,-0.680913 0.796978,-1.725495 0,-0.634487 -0.340456,-0.982682 -0.340457,-0.348194 -1.369564,-0.665437 l -0.781502,-0.255342 q -1.423727,-0.448784 -1.996313,-1.013632 -0.564848,-0.572586 -0.564848,-1.508841 0,-1.71002 1.276712,-2.79329 1.276711,-1.091009 3.334925,-1.091009 0.619012,0 1.3154,0.154753 0.704126,0.154753 1.439202,0.448784 z m 2.158803,-0.39462 h 8.820917 l -0.255342,1.3154 h -3.628956 l -1.980838,10.236906 h -1.57848 L 62.23793,12.04583 h -3.628956 z m 10.708903,0 h 6.847817 l -0.255342,1.3154 h -5.292551 l -0.665437,3.420039 h 5.052683 l -0.247605,1.3154 h -5.06042 l -0.804716,4.186067 h 5.431828 l -0.255342,1.3154 h -7.00257 z m 10.840442,1.284449 -0.843403,4.34082 h 1.810609 q 1.276712,0 2.035001,-0.735077 0.766027,-0.742814 0.766027,-1.973099 0,-0.835666 -0.479734,-1.230286 -0.479734,-0.402358 -1.485628,-0.402358 z m -1.3154,-1.284449 h 3.404565 q 1.593955,0 2.429621,0.711863 0.835666,0.711864 0.835666,2.058214 0,1.926674 -1.238024,3.033158 -1.238023,1.106483 -3.404564,1.106483 h -1.802872 l -0.905305,4.642588 h -1.570742 z m 15.769323,0.39462 -0.301768,1.586217 q -0.626749,-0.456521 -1.299924,-0.68865 -0.673176,-0.23213 -1.392777,-0.23213 -1.276711,0 -2.081427,0.634487 -0.804715,0.634487 -0.804715,1.617168 0,0.549373 0.379145,0.88983 0.379145,0.340456 1.377301,0.649962 l 0.936255,0.301768 q 1.261237,0.386883 1.84156,1.036845 0.588061,0.642225 0.588061,1.640381 0,1.818347 -1.284449,2.886142 -1.284449,1.060058 -3.505154,1.060058 -0.804715,0 -1.586217,-0.177966 -0.773765,-0.170229 -1.54753,-0.518423 l 0.317244,-1.617168 q 0.758289,0.533898 1.532054,0.78924 0.781502,0.255343 1.648118,0.255343 1.276712,0 2.07369,-0.680913 0.796977,-0.680913 0.796977,-1.725495 0,-0.634487 -0.340456,-0.982682 -0.340457,-0.348194 -1.369564,-0.665437 l -0.781502,-0.255342 q -1.423727,-0.448784 -1.996313,-1.013632 -0.564848,-0.572586 -0.564848,-1.508841 0,-1.71002 1.276712,-2.79329 1.276711,-1.091009 3.334925,-1.091009 0.619012,0 1.3154,0.154753 0.704126,0.154753 1.439202,0.448784 z"
       id="text1"
       aria-label="STEPS" />
  </g>
  <g
     inkscape:groupmode="layer"
     id="layer2"
     inkscape:label="components"
     style="display:none">
    <ellipse
       id="Bias"
       cx="12.97803"
       cy="49.183418"
       style="clip-rule:evenodd;display:inline;fill:#ff0000;fill-rule:evenodd;stroke-width:0.348764;stroke-linejoin:round;stroke-miterlimit:2"
       rx="5.180016"
       ry="5.2834396" />
    <ellipse
       id="Step"
       cx="12.97803"
       cy="78.96476"
       style="clip-rule:evenodd;display:inline;fill:#ff0000;fill-rule:evenodd;stroke-width:0.348764;stroke-linejoin:round;stroke-miterlimit:2"
       rx="5.180016"
       ry="5.2834396" />
    <ellipse
       id="Range"
       cx="37.218784"
       cy="49.183418"
       style="clip-rule:evenodd;display:inline;fill:#ff0000;fill-rule:evenodd;stroke-width:0.348764;stroke-linejoin:round;stroke-miterlimit:2"
       rx="5.180016"
       ry="5.2834396" />
    <ellipse
       id="Step1"
       serif:id="Step"
       cx="7.2996931"
       cy="112.26311"
       rx="3.9499347"
       ry="3.9946325"
       style="clip-rule:evenodd;display:inline;fill:#00ff00;fill-rule:evenodd;stroke-width:0.348764;stroke-linejoin:round;stroke-miterlimit:2"
       inkscape:label="Step" />
    <ellipse
       id="Comparator"
       cx="7.2996931"
       cy="28.408224"
       rx="3.9499347"
       ry="3.9946325"
       style="clip-rule:evenodd;display:inline;fill:#00ff00;fill-rule:evenodd;stroke-width:0.348764;stroke-linejoin:round;stroke-miterlimit:2" />
    <ellipse
       id="Invert"
       cx="7.2996931"
       cy="94.974281"
       rx="3.9499347"
       ry="3.9946325"
       style="clip-rule:evenodd;display:inline;fill:#00ff00;fill-rule:evenodd;stroke-width:0.348764;stroke-linejoin:round;stroke-miterlimit:2" />
    <ellipse
       id="Trigger"
       cx="19.544559"
       cy="112.26311"
       rx="3.9499347"
       ry="3.9946325"
       style="clip-rule:evenodd;display:inline;fill:#00ff00;fill-rule:evenodd;stroke-width:0.348764;stroke-linejoin:round;stroke-miterlimit:2" />
    <ellipse
       id="Bias1"
       serif:id="Bias"
       cx="19.544559"
       cy="28.408224"
       rx="3.9499347"
       ry="3.9946325"
       style="clip-rule:evenodd;display:inline;fill:#00ff00;fill-rule:evenodd;stroke-width:0.348764;stroke-linejoin:round;stroke-miterlimit:2"
       inkscape:label="Bias" />
    <ellipse
       id="Reset"
       cx="32.158588"
       cy="112.26311"
       rx="3.9499347"
       ry="3.9946325"
       style="clip-rule:evenodd;display:inline;fill:#00ff00;fill-rule:evenodd;stroke-width:0.348764;stroke-linejoin:round;stroke-miterlimit:2" />
    <ellipse
       id="Range1"
       serif:id="Range"
       cx="32.158588"
       cy="28.408224"
       rx="3.9499347"
       ry="3.9946325"
       style="clip-rule:evenodd;display:inline;fill:#00ff00;fill-rule:evenodd;stroke-width:0.348764;stroke-linejoin:round;stroke-miterlimit:2"
       inkscape:label="Range" />
    <ellipse
       id="Stepper"
       cx="44.425556"
       cy="112.26311"
       rx="3.9499347"
       ry="3.9946325"
       style="clip-rule:evenodd;display:inline;fill:#0000ff;fill-rule:evenodd;stroke-width:0.348764;stroke-linejoin:round;stroke-miterlimit:2" />
    <ellipse
       id="Comparator1"
       serif:id="Comparator"
       cx="44.425556"
       cy="28.485008"
       rx="3.9499347"
       ry="3.9946325"
       style="clip-rule:evenodd;display:inline;fill:#0000ff;fill-rule:evenodd;stroke-width:0.348764;stroke-linejoin:round;stroke-miterlimit:2"
       inkscape:label="Comparator_dn" />
    <ellipse
       id="Comparator_up"
       cx="44.444553"
       cy="19.632431"
       rx="3.9499347"
       ry="3.9946325"
       style="clip-rule:evenodd;display:inline;fill:#0000ff;fill-rule:evenodd;stroke-width:0.348764;stroke-linejoin:round;stroke-miterlimit:2" />
    <ellipse
       id="Up"
       cx="39.075291"
       cy="21.719038"
       rx="1.4801031"
       ry="1.5216306"
       style="clip-rule:evenodd;display:inline;fill:#ff00ff;fill-rule:evenodd;stroke-width:0.348764;stroke-linejoin:round;stroke-miterlimit:2" />
    <ellipse
       id="Down"
       cx="39.189945"
       cy="31.283472"
       rx="1.4801031"
       ry="1.5216306"
       style="clip-rule:evenodd;display:inline;fill:#ff00ff;fill-rule:evenodd;stroke-width:0.348764;stroke-linejoin:round;stroke-miterlimit:2" />
    <ellipse
       id="Sample"
       cx="45.52541"
       cy="78.495697"
       rx="1.4801031"
       ry="1.5216306"
       style="clip-rule:evenodd;display:inline;fill:#ff00ff;fill-rule:evenodd;stroke-width:0.348764;stroke-linejoin:round;stroke-miterlimit:2" />
    <ellipse
       id="LED_Sample2"
       serif:id="LED_Sample"
       cx="40.922634"
       cy="78.466492"
       rx="1.4964427"
       ry="1.5210958"
       style="clip-rule:evenodd;fill:#ff00ff;fill-rule:evenodd;stroke-width:0.352187;stroke-linejoin:round;stroke-miterlimit:1.5"
       inkscape:label="OUT10" />
    <ellipse
       id="LED_Sample8"
       serif:id="LED_Sample"
       cx="40.922634"
       cy="81.61187"
       rx="1.4964427"
       ry="1.5210958"
       style="clip-rule:evenodd;fill:#ff00ff;fill-rule:evenodd;stroke-width:0.352187;stroke-linejoin:round;stroke-miterlimit:1.5"
       inkscape:label="OUT9" />
    <ellipse
       id="LED_Sample5"
       serif:id="LED_Sample"
       cx="40.922634"
       cy="84.756905"
       rx="1.4964427"
       ry="1.5210958"
       style="clip-rule:evenodd;fill:#ff00ff;fill-rule:evenodd;stroke-width:0.352187;stroke-linejoin:round;stroke-miterlimit:1.5"
       inkscape:label="OUT8" />
    <ellipse
       id="LED_Sample1"
       serif:id="LED_Sample"
       cx="40.922634"
       cy="87.902283"
       rx="1.4964427"
       ry="1.5210958"
       style="clip-rule:evenodd;fill:#ff00ff;fill-rule:evenodd;stroke-width:0.352187;stroke-linejoin:round;stroke-miterlimit:1.5"
       inkscape:label="OUT7" />
    <ellipse
       id="LED_Sample7"
       serif:id="LED_Sample"
       cx="40.922634"
       cy="91.047318"
       rx="1.4964427"
       ry="1.5210958"
       style="clip-rule:evenodd;fill:#ff00ff;fill-rule:evenodd;stroke-width:0.352187;stroke-linejoin:round;stroke-miterlimit:1.5"
       inkscape:label="OUT6" />
    <ellipse
       id="LED_Sample4"
       serif:id="LED_Sample"
       cx="40.922634"
       cy="94.192345"
       rx="1.4964427"
       ry="1.5210958"
       style="clip-rule:evenodd;fill:#ff00ff;fill-rule:evenodd;stroke-width:0.352187;stroke-linejoin:round;stroke-miterlimit:1.5"
       inkscape:label="OUT5" />
    <ellipse
       id="LED_Sample"
       cx="40.922634"
       cy="97.337715"
       rx="1.4964427"
       ry="1.5210958"
       style="clip-rule:evenodd;fill:#ff00ff;fill-rule:evenodd;stroke-width:0.352187;stroke-linejoin:round;stroke-miterlimit:1.5"
       inkscape:label="OUT4" />
    <ellipse
       id="LED_Sample6"
       serif:id="LED_Sample"
       cx="40.922634"
       cy="100.48277"
       rx="1.4964427"
       ry="1.5210958"
       style="clip-rule:evenodd;fill:#ff00ff;fill-rule:evenodd;stroke-width:0.352187;stroke-linejoin:round;stroke-miterlimit:1.5"
       inkscape:label="OUT3" />
    <ellipse
       id="LED_Sample3"
       serif:id="LED_Sample"
       cx="40.922634"
       cy="103.62814"
       rx="1.4964427"
       ry="1.5210958"
       style="clip-rule:evenodd;fill:#ff00ff;fill-rule:evenodd;stroke-width:0.352187;stroke-linejoin:round;stroke-miterlimit:1.5"
       inkscape:label="OUT2" />
    <ellipse
       id="LED_Sample9"
       serif:id="LED_Sample"
       cx="40.922634"
       cy="106.77318"
       rx="1.4964427"
       ry="1.5210958"
       style="clip-rule:evenodd;fill:#ff00ff;fill-rule:evenodd;stroke-width:0.352187;stroke-linejoin:round;stroke-miterlimit:1.5"
       inkscape:label="OUT1" />
  </g>
</svg>
