<?xml version="1.0" encoding="UTF-8" standalone="no"?>
<!-- Created with Inkscape (http://www.inkscape.org/) -->

<svg
   xmlns:dc="http://purl.org/dc/elements/1.1/"
   xmlns:cc="http://creativecommons.org/ns#"
   xmlns:rdf="http://www.w3.org/1999/02/22-rdf-syntax-ns#"
   xmlns:svg="http://www.w3.org/2000/svg"
   xmlns="http://www.w3.org/2000/svg"
   xmlns:sodipodi="http://sodipodi.sourceforge.net/DTD/sodipodi-0.dtd"
   xmlns:inkscape="http://www.inkscape.org/namespaces/inkscape"
   width="22"
   height="22"
   viewBox="0 0 5.8208332 5.8208335"
   version="1.1"
   id="svg977"
   inkscape:version="0.92.5 (2060ec1f9f, 2020-04-08)"
   sodipodi:docname="jack.svg">
  <defs
     id="defs971" />
  <sodipodi:namedview
     id="base"
     pagecolor="#ffffff"
     bordercolor="#666666"
     borderopacity="1.0"
     inkscape:pageopacity="0.0"
     inkscape:pageshadow="2"
     inkscape:zoom="15.839192"
     inkscape:cx="8.23175"
     inkscape:cy="6.3766653"
     inkscape:document-units="mm"
     inkscape:current-layer="layer1"
     showgrid="false"
     units="px"
     inkscape:window-width="1920"
     inkscape:window-height="1026"
     inkscape:window-x="0"
     inkscape:window-y="0"
     inkscape:window-maximized="1" />
  <metadata
     id="metadata974">
    <rdf:RDF>
      <cc:Work
         rdf:about="">
        <dc:format>image/svg+xml</dc:format>
        <dc:type
           rdf:resource="http://purl.org/dc/dcmitype/StillImage" />
        <dc:title></dc:title>
      </cc:Work>
    </rdf:RDF>
  </metadata>
  <g
     inkscape:label="Layer 1"
     inkscape:groupmode="layer"
     id="layer1"
     transform="translate(0,-291.17915)">
    <g
       id="JACKS-97-7-6-0-6"
       transform="matrix(0.26458333,0,0,-0.26458333,1.095e-6,296.99998)">
      <g
         id="g45078-1-5-2-7-9">
        <g
           id="layer1_2_-9-3-3-15-4"
           transform="translate(-88.611154,-119.19859)">
          <g
             id="g45059-1-9-9-8-6">
            <circle
               cx="99.611153"
               cy="130.19856"
               r="10.75"
               id="circle45055-2-1-9-9-9"
               style="fill:#bababa" />
            <path
               d="m 99.61115,119.69856 c 5.78973,0 10.5,4.71029 10.5,10.5 0,5.78972 -4.71027,10.5 -10.5,10.5 -5.78973,0 -10.5,-4.71028 -10.5,-10.5 0,-5.78971 4.71026,-10.5 10.5,-10.5 m 0,-0.5 c -6.07513,0 -11,4.92487 -11,11 0,6.07513 4.92487,11 11,11 6.07513,0 11,-4.92487 11,-11 0,-6.07512 -4.92487,-11 -11,-11 z"
               id="path45057-4-5-0-9-1"
               inkscape:connector-curvature="0"
               style="fill:#848484" />
          </g>
          <g
             id="g45073-2-6-7-8-7">
            <g
               id="g45065-1-8-8-7-0">
              <circle
                 cx="99.611153"
                 cy="130.19856"
                 r="7.9760699"
                 id="circle45061-5-2-6-8-6"
                 style="fill:#303030" />
              <path
                 d="m 99.61115,122.47253 c 4.267,0 7.72604,3.45906 7.72604,7.72604 0,4.26697 -3.45905,7.72604 -7.72604,7.72604 -4.26697,0 -7.72604,-3.45909 -7.72604,-7.72604 -1e-5,-4.26698 3.45906,-7.72604 7.72604,-7.72604 m 0,-0.5 c -4.53586,0 -8.22604,3.6902 -8.22604,8.22604 0,4.53583 3.69019,8.22604 8.22604,8.22604 4.53585,0 8.22604,-3.6902 8.22604,-8.22604 0,-4.53584 -3.69019,-8.22604 -8.22604,-8.22604 z"
                 id="path45063-5-9-6-57-2"
                 inkscape:connector-curvature="0"
                 style="fill:#848484" />
            </g>
            <g
               id="g45071-8-4-2-6-26">
              <circle
                 cx="99.611153"
                 cy="130.19856"
                 r="7.4760699"
                 id="circle45067-0-1-6-3-8"
                 style="fill:#494949" />
              <path
                 d="m 99.61115,122.97253 c 3.98444,0 7.22604,3.24159 7.22604,7.22604 0,3.98444 -3.24161,7.22604 -7.22604,7.22604 -3.98443,0 -7.22604,-3.24159 -7.22604,-7.22604 0,-3.98445 3.2416,-7.22604 7.22604,-7.22604 m 0,-0.5 c -4.26697,0 -7.72604,3.45906 -7.72604,7.72604 0,4.26697 3.45908,7.72604 7.72604,7.72604 4.267,0 7.72604,-3.45909 7.72604,-7.72604 0,-4.26698 -3.45905,-7.72604 -7.72604,-7.72604 z"
                 id="path45069-9-4-9-3-4"
                 inkscape:connector-curvature="0"
                 style="fill:#1e1e1e" />
            </g>
          </g>
          <circle
             stroke-miterlimit="10"
             cx="99.611153"
             cy="130.19856"
             r="4.5340099"
             id="circle45075-8-8-5-8-7"
             style="stroke:#1e1e1e;stroke-width:0.5;stroke-miterlimit:10" />
        </g>
      </g>
    </g>
  </g>
</svg>
